M48
METRIC,TZ
T01C0.5080
T02C0.7620
T03C1.0160
T04C0.8500
T05C0.7000
%
T01
X+12976Y+46554
X+13004Y+54856
X+28530Y+43636
X+37617Y+43636
X+25894Y+35694
X+40685Y+35694
X+51833Y+51463
X+58256Y+51463
X+20342Y+46728
X+20312Y+40268
X+45500Y+57641
X+52626Y+57647
X+54039Y+19321
X+54039Y+9532
X+45059Y+59542
X+45059Y+69773
X+31922Y+48429
X+44173Y+48449
X+20049Y+49315
X+20109Y+52729
X+30047Y+50725
X+30042Y+61145
T02
X+4236Y+26131
X+6776Y+26131
X+9316Y+26131
X+11856Y+26131
X+14396Y+26131
X+16936Y+26131
X+19476Y+26131
X+22016Y+26131
X+24556Y+26131
X+27096Y+26131
X+29636Y+26131
X+32176Y+26131
X+34716Y+26131
X+37256Y+26131
X+37256Y+33751
X+34716Y+33751
X+32176Y+33751
X+29636Y+33751
X+27096Y+33751
X+24556Y+33751
X+22016Y+33751
X+19476Y+33751
X+16936Y+33751
X+14396Y+33751
X+11856Y+33751
X+9316Y+33751
X+6776Y+33751
X+4256Y+33751
X+60136Y+66131
X+42136Y+66131
X+60136Y+26131
X+42136Y+26131
X+23476Y+20631
X+28556Y+20631
X+23476Y+15631
X+23476Y+10551
X+28476Y+15631
X+28476Y+10551
X+60636Y+8471
X+60636Y+11011
X+60636Y+13551
X+60636Y+16091
X+60636Y+18631
X+39046Y+8471
X+39046Y+11011
X+39046Y+13551
X+39046Y+16091
X+39046Y+18631
X+39046Y+21171
X+13636Y+5631
T03
X+21096Y+62631
X+23636Y+62631
X+26176Y+62631
X+23636Y+68131
X+33796Y+68131
X+52136Y+70131
X+49596Y+70131
X+34136Y+62631
X+31596Y+62631
X+11176Y+51131
X+8636Y+51131
X+11136Y+57131
X+8596Y+57131
X+11136Y+63131
X+8596Y+63131
X+25096Y+38091
X+27636Y+38091
X+30176Y+38091
X+32716Y+38091
X+32716Y+40631
X+30176Y+40631
X+27636Y+40631
X+25096Y+40631
X+6636Y+15131
X+9176Y+15131
X+11716Y+15131
X+4636Y+3631
X+4636Y+10631
X+9136Y+3631
X+9136Y+10631
T04
X+26136Y+55631
X+26136Y+50631
T05
X+15636Y+52381
X+15636Y+50881
X+38136Y+57881
X+38136Y+59381
X+37386Y+47131
X+35886Y+47131
M30
