G04 PROTEUS RS274X GERBER FILE*
%FSLAX45Y45*%
%MOMM*%
G01*
%ADD20C,0.203200*%
%ADD40C,0.533400*%
%ADD41C,0.240790*%
%ADD42C,0.172210*%
%ADD43C,0.164590*%
%ADD44C,0.050000*%
%ADD45C,0.435000*%
%ADD46C,0.151660*%
%ADD47C,0.197270*%
%ADD48C,1.332190*%
%ADD49C,0.316990*%
%ADD50C,0.840100*%
%ADD51C,0.068580*%
%ADD52C,0.309530*%
D20*
X+39941Y+39466D02*
X+6637261Y+39466D01*
X+6637261Y+7313126D01*
X+39941Y+7313126D01*
X+39941Y+39466D01*
X+351941Y+2549626D02*
X+3801261Y+2549626D01*
X+3801261Y+3438626D01*
X+351941Y+3438626D01*
X+351941Y+2549626D01*
D40*
X+1649881Y+3154146D02*
X+1649881Y+2887446D01*
X+1703221Y+2834106D01*
X+1916581Y+2834106D01*
X+1969921Y+2887446D01*
X+1969921Y+3154146D01*
X+2183281Y+3047466D02*
X+2289961Y+3154146D01*
X+2289961Y+2834106D01*
D20*
X+1972441Y+6125966D02*
X+2754761Y+6125966D01*
X+2754761Y+6527286D01*
X+1972441Y+6527286D01*
X+1972441Y+6125966D01*
D41*
X+2170968Y+6398863D02*
X+2170968Y+6278467D01*
X+2195047Y+6254388D01*
X+2291363Y+6254388D01*
X+2315442Y+6278467D01*
X+2315442Y+6398863D01*
X+2387680Y+6374784D02*
X+2411759Y+6398863D01*
X+2483996Y+6398863D01*
X+2508075Y+6374784D01*
X+2508075Y+6350705D01*
X+2483996Y+6326626D01*
X+2411759Y+6326626D01*
X+2387680Y+6302546D01*
X+2387680Y+6254388D01*
X+2508075Y+6254388D01*
D20*
X+2249301Y+6668346D02*
X+3493901Y+6668346D01*
X+3493901Y+6955366D01*
X+2249301Y+6955366D01*
X+2249301Y+6668346D01*
D42*
X+2733832Y+6760192D02*
X+2733832Y+6863519D01*
X+2802716Y+6863519D01*
X+2837158Y+6829077D01*
X+2837158Y+6794634D01*
X+2802716Y+6760192D01*
X+2733832Y+6760192D01*
X+2906043Y+6829077D02*
X+2940485Y+6863519D01*
X+2940485Y+6760192D01*
D20*
X+4822441Y+6875966D02*
X+5350761Y+6875966D01*
X+5350761Y+7150286D01*
X+4822441Y+7150286D01*
X+4822441Y+6875966D01*
D43*
X+4954928Y+6996666D02*
X+4954928Y+6980207D01*
X+4971387Y+6963748D01*
X+5037223Y+6963748D01*
X+5053682Y+6980207D01*
X+5053682Y+7062503D01*
X+5185355Y+6996666D02*
X+5086601Y+6996666D01*
X+5152437Y+7062503D01*
X+5152437Y+6963748D01*
D44*
X+2638601Y+5313126D02*
X+2638515Y+5315202D01*
X+2637813Y+5319355D01*
X+2636343Y+5323508D01*
X+2633941Y+5327661D01*
X+2630268Y+5331760D01*
X+2626115Y+5334769D01*
X+2621962Y+5336686D01*
X+2617809Y+5337769D01*
X+2613656Y+5338126D01*
X+2613601Y+5338126D01*
X+2588601Y+5313126D02*
X+2588687Y+5315202D01*
X+2589389Y+5319355D01*
X+2590859Y+5323508D01*
X+2593261Y+5327661D01*
X+2596934Y+5331760D01*
X+2601087Y+5334769D01*
X+2605240Y+5336686D01*
X+2609393Y+5337769D01*
X+2613546Y+5338126D01*
X+2613601Y+5338126D01*
X+2588601Y+5313126D02*
X+2588687Y+5311050D01*
X+2589389Y+5306897D01*
X+2590859Y+5302744D01*
X+2593261Y+5298591D01*
X+2596934Y+5294492D01*
X+2601087Y+5291483D01*
X+2605240Y+5289566D01*
X+2609393Y+5288483D01*
X+2613546Y+5288126D01*
X+2613601Y+5288126D01*
X+2638601Y+5313126D02*
X+2638515Y+5311050D01*
X+2637813Y+5306897D01*
X+2636343Y+5302744D01*
X+2633941Y+5298591D01*
X+2630268Y+5294492D01*
X+2626115Y+5291483D01*
X+2621962Y+5289566D01*
X+2617809Y+5288483D01*
X+2613656Y+5288126D01*
X+2613601Y+5288126D01*
X+2613601Y+5278126D02*
X+2613601Y+5348126D01*
X+2648601Y+5313126D02*
X+2578601Y+5313126D01*
X+3263601Y+5963126D02*
X+2613601Y+5963126D01*
X+2546048Y+5959843D01*
X+2480697Y+5950193D01*
X+2417845Y+5934472D01*
X+2357790Y+5912980D01*
X+2300830Y+5886012D01*
X+2247262Y+5853867D01*
X+2197383Y+5816842D01*
X+2151492Y+5775235D01*
X+2109885Y+5729344D01*
X+2072860Y+5679465D01*
X+2040715Y+5625897D01*
X+2013748Y+5568937D01*
X+1992255Y+5508882D01*
X+1976534Y+5446030D01*
X+1966884Y+5380679D01*
X+1963601Y+5313126D01*
X+1966884Y+5245573D01*
X+1976534Y+5180222D01*
X+1992255Y+5117370D01*
X+2013748Y+5057315D01*
X+2040715Y+5000355D01*
X+2072860Y+4946787D01*
X+2109885Y+4896908D01*
X+2151492Y+4851017D01*
X+2197383Y+4809410D01*
X+2247262Y+4772385D01*
X+2300830Y+4740240D01*
X+2357790Y+4713272D01*
X+2417845Y+4691780D01*
X+2480697Y+4676059D01*
X+2546048Y+4666409D01*
X+2613601Y+4663126D01*
X+2681154Y+4666409D01*
X+2746505Y+4676059D01*
X+2809357Y+4691780D01*
X+2869412Y+4713272D01*
X+2926372Y+4740240D01*
X+2979940Y+4772385D01*
X+3029819Y+4809410D01*
X+3075710Y+4851017D01*
X+3117317Y+4896908D01*
X+3154342Y+4946787D01*
X+3186487Y+5000355D01*
X+3213454Y+5057315D01*
X+3234947Y+5117370D01*
X+3250668Y+5180222D01*
X+3260318Y+5245573D01*
X+3263601Y+5313126D01*
X+3263601Y+5963126D01*
D45*
X+2700601Y+5226126D02*
X+2744101Y+5182626D01*
X+2744101Y+5052126D01*
X+2657101Y+4965126D01*
X+2570101Y+4965126D01*
X+2483101Y+5052126D01*
X+2483101Y+5182626D01*
X+2526601Y+5226126D01*
X+2526601Y+5356626D02*
X+2483101Y+5400126D01*
X+2483101Y+5530626D01*
X+2526601Y+5574126D01*
X+2570101Y+5574126D01*
X+2613601Y+5530626D01*
X+2657101Y+5574126D01*
X+2700601Y+5574126D01*
X+2744101Y+5530626D01*
X+2744101Y+5400126D01*
X+2700601Y+5356626D01*
X+2613601Y+5443626D02*
X+2613601Y+5530626D01*
D44*
X+1588601Y+5163126D02*
X+1588515Y+5165202D01*
X+1587813Y+5169355D01*
X+1586343Y+5173508D01*
X+1583941Y+5177661D01*
X+1580268Y+5181760D01*
X+1576115Y+5184769D01*
X+1571962Y+5186686D01*
X+1567809Y+5187769D01*
X+1563656Y+5188126D01*
X+1563601Y+5188126D01*
X+1538601Y+5163126D02*
X+1538687Y+5165202D01*
X+1539389Y+5169355D01*
X+1540859Y+5173508D01*
X+1543261Y+5177661D01*
X+1546934Y+5181760D01*
X+1551087Y+5184769D01*
X+1555240Y+5186686D01*
X+1559393Y+5187769D01*
X+1563546Y+5188126D01*
X+1563601Y+5188126D01*
X+1538601Y+5163126D02*
X+1538687Y+5161050D01*
X+1539389Y+5156897D01*
X+1540859Y+5152744D01*
X+1543261Y+5148591D01*
X+1546934Y+5144492D01*
X+1551087Y+5141483D01*
X+1555240Y+5139566D01*
X+1559393Y+5138483D01*
X+1563546Y+5138126D01*
X+1563601Y+5138126D01*
X+1588601Y+5163126D02*
X+1588515Y+5161050D01*
X+1587813Y+5156897D01*
X+1586343Y+5152744D01*
X+1583941Y+5148591D01*
X+1580268Y+5144492D01*
X+1576115Y+5141483D01*
X+1571962Y+5139566D01*
X+1567809Y+5138483D01*
X+1563656Y+5138126D01*
X+1563601Y+5138126D01*
X+1563601Y+5128126D02*
X+1563601Y+5198126D01*
X+1598601Y+5163126D02*
X+1528601Y+5163126D01*
X+1788601Y+5388126D02*
X+1563601Y+5388126D01*
X+1517596Y+5383649D01*
X+1475051Y+5370768D01*
X+1436791Y+5350305D01*
X+1403640Y+5323087D01*
X+1376421Y+5289935D01*
X+1355959Y+5251676D01*
X+1343078Y+5209131D01*
X+1338601Y+5163126D01*
X+1343078Y+5117121D01*
X+1355959Y+5074576D01*
X+1376421Y+5036317D01*
X+1403640Y+5003165D01*
X+1436791Y+4975947D01*
X+1475051Y+4955484D01*
X+1517596Y+4942603D01*
X+1563601Y+4938126D01*
X+1609606Y+4942603D01*
X+1652151Y+4955484D01*
X+1690411Y+4975947D01*
X+1723562Y+5003165D01*
X+1750781Y+5036317D01*
X+1771243Y+5074576D01*
X+1784124Y+5117121D01*
X+1788601Y+5163126D01*
X+1788601Y+5388126D01*
D46*
X+1593935Y+5132793D02*
X+1609101Y+5117626D01*
X+1609101Y+5072127D01*
X+1578768Y+5041794D01*
X+1548435Y+5041794D01*
X+1518102Y+5072127D01*
X+1518102Y+5117626D01*
X+1533268Y+5132793D01*
X+1578768Y+5254125D02*
X+1578768Y+5163126D01*
X+1518102Y+5223792D01*
X+1609101Y+5223792D01*
D20*
X+3022441Y+5935466D02*
X+3614261Y+5935466D01*
X+3614261Y+6527286D01*
X+3022441Y+6527286D01*
X+3022441Y+5935466D01*
D47*
X+3160533Y+6172194D02*
X+3160533Y+6290558D01*
X+3239442Y+6290558D01*
X+3278896Y+6251103D01*
X+3278896Y+6211649D01*
X+3239442Y+6172194D01*
X+3160533Y+6172194D01*
X+3338078Y+6270831D02*
X+3357805Y+6290558D01*
X+3416987Y+6290558D01*
X+3436714Y+6270831D01*
X+3436714Y+6251103D01*
X+3416987Y+6231376D01*
X+3357805Y+6231376D01*
X+3338078Y+6211649D01*
X+3338078Y+6172194D01*
X+3436714Y+6172194D01*
D44*
X+3838601Y+5863126D02*
X+3838515Y+5865202D01*
X+3837813Y+5869355D01*
X+3836343Y+5873508D01*
X+3833941Y+5877661D01*
X+3830268Y+5881760D01*
X+3826115Y+5884769D01*
X+3821962Y+5886686D01*
X+3817809Y+5887769D01*
X+3813656Y+5888126D01*
X+3813601Y+5888126D01*
X+3788601Y+5863126D02*
X+3788687Y+5865202D01*
X+3789389Y+5869355D01*
X+3790859Y+5873508D01*
X+3793261Y+5877661D01*
X+3796934Y+5881760D01*
X+3801087Y+5884769D01*
X+3805240Y+5886686D01*
X+3809393Y+5887769D01*
X+3813546Y+5888126D01*
X+3813601Y+5888126D01*
X+3788601Y+5863126D02*
X+3788687Y+5861050D01*
X+3789389Y+5856897D01*
X+3790859Y+5852744D01*
X+3793261Y+5848591D01*
X+3796934Y+5844492D01*
X+3801087Y+5841483D01*
X+3805240Y+5839566D01*
X+3809393Y+5838483D01*
X+3813546Y+5838126D01*
X+3813601Y+5838126D01*
X+3838601Y+5863126D02*
X+3838515Y+5861050D01*
X+3837813Y+5856897D01*
X+3836343Y+5852744D01*
X+3833941Y+5848591D01*
X+3830268Y+5844492D01*
X+3826115Y+5841483D01*
X+3821962Y+5839566D01*
X+3817809Y+5838483D01*
X+3813656Y+5838126D01*
X+3813601Y+5838126D01*
X+3813601Y+5898126D02*
X+3813601Y+5828126D01*
X+3778601Y+5863126D02*
X+3848601Y+5863126D01*
X+3588601Y+5638126D02*
X+3813601Y+5638126D01*
X+3859606Y+5642603D01*
X+3902151Y+5655484D01*
X+3940411Y+5675947D01*
X+3973562Y+5703165D01*
X+4000781Y+5736317D01*
X+4021243Y+5774576D01*
X+4034124Y+5817121D01*
X+4038601Y+5863126D01*
X+4034124Y+5909131D01*
X+4021243Y+5951676D01*
X+4000781Y+5989935D01*
X+3973562Y+6023087D01*
X+3940411Y+6050305D01*
X+3902151Y+6070768D01*
X+3859606Y+6083649D01*
X+3813601Y+6088126D01*
X+3767596Y+6083649D01*
X+3725051Y+6070768D01*
X+3686791Y+6050305D01*
X+3653640Y+6023087D01*
X+3626421Y+5989935D01*
X+3605959Y+5951676D01*
X+3593078Y+5909131D01*
X+3588601Y+5863126D01*
X+3588601Y+5638126D01*
D46*
X+3843935Y+5832793D02*
X+3859101Y+5817626D01*
X+3859101Y+5772127D01*
X+3828768Y+5741794D01*
X+3798435Y+5741794D01*
X+3768102Y+5772127D01*
X+3768102Y+5817626D01*
X+3783268Y+5832793D01*
X+3768102Y+5954125D02*
X+3768102Y+5878292D01*
X+3798435Y+5878292D01*
X+3798435Y+5938958D01*
X+3813601Y+5954125D01*
X+3843935Y+5954125D01*
X+3859101Y+5938958D01*
X+3859101Y+5893459D01*
X+3843935Y+5878292D01*
D44*
X+3688601Y+4713126D02*
X+3688515Y+4715202D01*
X+3687813Y+4719355D01*
X+3686343Y+4723508D01*
X+3683941Y+4727661D01*
X+3680268Y+4731760D01*
X+3676115Y+4734769D01*
X+3671962Y+4736686D01*
X+3667809Y+4737769D01*
X+3663656Y+4738126D01*
X+3663601Y+4738126D01*
X+3638601Y+4713126D02*
X+3638687Y+4715202D01*
X+3639389Y+4719355D01*
X+3640859Y+4723508D01*
X+3643261Y+4727661D01*
X+3646934Y+4731760D01*
X+3651087Y+4734769D01*
X+3655240Y+4736686D01*
X+3659393Y+4737769D01*
X+3663546Y+4738126D01*
X+3663601Y+4738126D01*
X+3638601Y+4713126D02*
X+3638687Y+4711050D01*
X+3639389Y+4706897D01*
X+3640859Y+4702744D01*
X+3643261Y+4698591D01*
X+3646934Y+4694492D01*
X+3651087Y+4691483D01*
X+3655240Y+4689566D01*
X+3659393Y+4688483D01*
X+3663546Y+4688126D01*
X+3663601Y+4688126D01*
X+3688601Y+4713126D02*
X+3688515Y+4711050D01*
X+3687813Y+4706897D01*
X+3686343Y+4702744D01*
X+3683941Y+4698591D01*
X+3680268Y+4694492D01*
X+3676115Y+4691483D01*
X+3671962Y+4689566D01*
X+3667809Y+4688483D01*
X+3663656Y+4688126D01*
X+3663601Y+4688126D01*
X+3628601Y+4713126D02*
X+3698601Y+4713126D01*
X+3663601Y+4678126D02*
X+3663601Y+4748126D01*
X+3888601Y+4488126D02*
X+3888601Y+4713126D01*
X+3884124Y+4759131D01*
X+3871243Y+4801676D01*
X+3850781Y+4839935D01*
X+3823562Y+4873087D01*
X+3790411Y+4900305D01*
X+3752151Y+4920768D01*
X+3709606Y+4933649D01*
X+3663601Y+4938126D01*
X+3617596Y+4933649D01*
X+3575051Y+4920768D01*
X+3536791Y+4900305D01*
X+3503640Y+4873087D01*
X+3476421Y+4839935D01*
X+3455959Y+4801676D01*
X+3443078Y+4759131D01*
X+3438601Y+4713126D01*
X+3443078Y+4667121D01*
X+3455959Y+4624576D01*
X+3476421Y+4586317D01*
X+3503640Y+4553165D01*
X+3536791Y+4525947D01*
X+3575051Y+4505484D01*
X+3617596Y+4492603D01*
X+3663601Y+4488126D01*
X+3888601Y+4488126D01*
D46*
X+3633268Y+4682792D02*
X+3618101Y+4667626D01*
X+3572602Y+4667626D01*
X+3542269Y+4697959D01*
X+3542269Y+4728292D01*
X+3572602Y+4758625D01*
X+3618101Y+4758625D01*
X+3633268Y+4743459D01*
X+3754600Y+4743459D02*
X+3739433Y+4758625D01*
X+3693934Y+4758625D01*
X+3678767Y+4743459D01*
X+3678767Y+4682792D01*
X+3693934Y+4667626D01*
X+3739433Y+4667626D01*
X+3754600Y+4682792D01*
X+3754600Y+4697959D01*
X+3739433Y+4713126D01*
X+3678767Y+4713126D01*
D20*
X+4003441Y+2402966D02*
X+6223761Y+2402966D01*
X+6223761Y+6823286D01*
X+4003441Y+6823286D01*
X+4003441Y+2402966D01*
D48*
X+4713944Y+3547373D02*
X+5380040Y+3547373D01*
X+5513259Y+3680592D01*
X+5513259Y+4213468D01*
X+5380040Y+4346687D01*
X+4713944Y+4346687D01*
X+4713944Y+5412440D02*
X+4713944Y+4746345D01*
X+4980382Y+4746345D01*
X+4980382Y+5279221D01*
X+5113601Y+5412440D01*
X+5380040Y+5412440D01*
X+5513259Y+5279221D01*
X+5513259Y+4879564D01*
X+5380040Y+4746345D01*
D20*
X+2083441Y+1798966D02*
X+3119761Y+1798966D01*
X+3119761Y+2327286D01*
X+2083441Y+2327286D01*
X+2083441Y+1798966D01*
D49*
X+2348008Y+2158223D02*
X+2538202Y+1968028D01*
X+2348008Y+1968028D02*
X+2538202Y+2158223D01*
X+2664999Y+2094825D02*
X+2728397Y+2158223D01*
X+2728397Y+1968028D01*
D20*
X+2210441Y+917966D02*
X+2484761Y+917966D01*
X+2484761Y+1700286D01*
X+2210441Y+1700286D01*
X+2210441Y+917966D01*
D43*
X+2380520Y+1276207D02*
X+2396979Y+1259748D01*
X+2396979Y+1210371D01*
X+2364061Y+1177453D01*
X+2331142Y+1177453D01*
X+2298224Y+1210371D01*
X+2298224Y+1259748D01*
X+2314683Y+1276207D01*
X+2331142Y+1342044D02*
X+2298224Y+1374962D01*
X+2396979Y+1374962D01*
D20*
X+2710441Y+917966D02*
X+2984761Y+917966D01*
X+2984761Y+1700286D01*
X+2710441Y+1700286D01*
X+2710441Y+917966D01*
D43*
X+2880520Y+1276207D02*
X+2896979Y+1259748D01*
X+2896979Y+1210371D01*
X+2864061Y+1177453D01*
X+2831142Y+1177453D01*
X+2798224Y+1210371D01*
X+2798224Y+1259748D01*
X+2814683Y+1276207D01*
X+2814683Y+1325585D02*
X+2798224Y+1342044D01*
X+2798224Y+1391421D01*
X+2814683Y+1407880D01*
X+2831142Y+1407880D01*
X+2847601Y+1391421D01*
X+2847601Y+1342044D01*
X+2864061Y+1325585D01*
X+2896979Y+1325585D01*
X+2896979Y+1407880D01*
D20*
X+726441Y+4785466D02*
X+1318261Y+4785466D01*
X+1318261Y+5377286D01*
X+726441Y+5377286D01*
X+726441Y+4785466D01*
D47*
X+864533Y+5022194D02*
X+864533Y+5140558D01*
X+943442Y+5140558D01*
X+982896Y+5101103D01*
X+982896Y+5061649D01*
X+943442Y+5022194D01*
X+864533Y+5022194D01*
X+1042078Y+5120831D02*
X+1061805Y+5140558D01*
X+1120987Y+5140558D01*
X+1140714Y+5120831D01*
X+1140714Y+5101103D01*
X+1120987Y+5081376D01*
X+1140714Y+5061649D01*
X+1140714Y+5041921D01*
X+1120987Y+5022194D01*
X+1061805Y+5022194D01*
X+1042078Y+5041921D01*
X+1081532Y+5081376D02*
X+1120987Y+5081376D01*
D20*
X+722441Y+5385466D02*
X+1314261Y+5385466D01*
X+1314261Y+5977286D01*
X+722441Y+5977286D01*
X+722441Y+5385466D01*
D47*
X+860533Y+5622194D02*
X+860533Y+5740558D01*
X+939442Y+5740558D01*
X+978896Y+5701103D01*
X+978896Y+5661649D01*
X+939442Y+5622194D01*
X+860533Y+5622194D01*
X+1136714Y+5661649D02*
X+1018351Y+5661649D01*
X+1097260Y+5740558D01*
X+1097260Y+5622194D01*
D20*
X+722441Y+5985466D02*
X+1314261Y+5985466D01*
X+1314261Y+6577286D01*
X+722441Y+6577286D01*
X+722441Y+5985466D01*
D47*
X+860533Y+6222194D02*
X+860533Y+6340558D01*
X+939442Y+6340558D01*
X+978896Y+6301103D01*
X+978896Y+6261649D01*
X+939442Y+6222194D01*
X+860533Y+6222194D01*
X+1136714Y+6340558D02*
X+1038078Y+6340558D01*
X+1038078Y+6301103D01*
X+1116987Y+6301103D01*
X+1136714Y+6281376D01*
X+1136714Y+6241921D01*
X+1116987Y+6222194D01*
X+1057805Y+6222194D01*
X+1038078Y+6241921D01*
D20*
X+3703441Y+382966D02*
X+6223761Y+382966D01*
X+6223761Y+2303286D01*
X+3703441Y+2303286D01*
X+3703441Y+382966D01*
D50*
X+4291517Y+1595157D02*
X+4291517Y+1175104D01*
X+4375527Y+1091094D01*
X+4711569Y+1091094D01*
X+4795580Y+1175104D01*
X+4795580Y+1595157D01*
X+5467664Y+1259115D02*
X+4963601Y+1259115D01*
X+5299643Y+1595157D01*
X+5299643Y+1091094D01*
D20*
X+1226441Y+425966D02*
X+1500761Y+425966D01*
X+1500761Y+700286D01*
X+1226441Y+700286D01*
X+1226441Y+425966D01*
D51*
X+1281305Y+583700D02*
X+1322453Y+583700D01*
X+1301879Y+583700D02*
X+1301879Y+542552D01*
X+1336169Y+542552D02*
X+1336169Y+583700D01*
X+1370459Y+583700D01*
X+1377317Y+576842D01*
X+1377317Y+569984D01*
X+1370459Y+563126D01*
X+1336169Y+563126D01*
X+1404749Y+569984D02*
X+1418465Y+583700D01*
X+1418465Y+542552D01*
D20*
X+2372441Y+3671966D02*
X+3408761Y+3671966D01*
X+3408761Y+4200286D01*
X+2372441Y+4200286D01*
X+2372441Y+3671966D01*
D49*
X+2637008Y+3904426D02*
X+2637008Y+3872727D01*
X+2668707Y+3841028D01*
X+2795503Y+3841028D01*
X+2827202Y+3872727D01*
X+2827202Y+4031223D01*
X+2953999Y+3967825D02*
X+3017397Y+4031223D01*
X+3017397Y+3841028D01*
D20*
X+526441Y+1375966D02*
X+1308761Y+1375966D01*
X+1308761Y+1650286D01*
X+526441Y+1650286D01*
X+526441Y+1375966D01*
D43*
X+785928Y+1496666D02*
X+785928Y+1480207D01*
X+802387Y+1463748D01*
X+868223Y+1463748D01*
X+884682Y+1480207D01*
X+884682Y+1562503D01*
X+1016355Y+1562503D02*
X+934060Y+1562503D01*
X+934060Y+1529585D01*
X+999896Y+1529585D01*
X+1016355Y+1513126D01*
X+1016355Y+1480207D01*
X+999896Y+1463748D01*
X+950519Y+1463748D01*
X+934060Y+1480207D01*
D20*
X+349301Y+248826D02*
X+1027901Y+248826D01*
X+1027901Y+1177426D01*
X+349301Y+1177426D01*
X+349301Y+248826D01*
D52*
X+781461Y+465500D02*
X+595741Y+465500D01*
X+595741Y+620266D01*
X+626694Y+651219D01*
X+657648Y+651219D01*
X+688601Y+620266D01*
X+719554Y+651219D01*
X+750508Y+651219D01*
X+781461Y+620266D01*
X+781461Y+465500D01*
X+688601Y+465500D02*
X+688601Y+620266D01*
X+657648Y+775032D02*
X+595741Y+836939D01*
X+781461Y+836939D01*
M02*
