G04 PROTEUS RS274X GERBER FILE*
%FSLAX45Y45*%
%MOMM*%
G01*
%ADD20C,0.203200*%
%ADD58C,0.127000*%
%ADD59C,0.063500*%
D20*
X+1297627Y+4718899D02*
X+1297627Y+4591899D01*
X+1234127Y+4655399D02*
X+1361127Y+4655399D01*
X+1252726Y+4700300D02*
X+1342528Y+4610498D01*
X+1252726Y+4610498D02*
X+1342528Y+4700300D01*
X+1300376Y+5549072D02*
X+1300376Y+5422072D01*
X+1236876Y+5485572D02*
X+1363876Y+5485572D01*
X+1255475Y+5530473D02*
X+1345277Y+5440671D01*
X+1255475Y+5440671D02*
X+1345277Y+5530473D01*
X+2852969Y+4427054D02*
X+2852969Y+4300054D01*
X+2789469Y+4363554D02*
X+2916469Y+4363554D01*
X+2808068Y+4408455D02*
X+2897870Y+4318653D01*
X+2808068Y+4318653D02*
X+2897870Y+4408455D01*
X+3761749Y+4427054D02*
X+3761749Y+4300054D01*
X+3698249Y+4363554D02*
X+3825249Y+4363554D01*
X+3716848Y+4408455D02*
X+3806650Y+4318653D01*
X+3716848Y+4318653D02*
X+3806650Y+4408455D01*
X+2589378Y+3632947D02*
X+2589378Y+3505947D01*
X+2525878Y+3569447D02*
X+2652878Y+3569447D01*
X+2544477Y+3614348D02*
X+2634279Y+3524546D01*
X+2544477Y+3524546D02*
X+2634279Y+3614348D01*
X+4068499Y+3632947D02*
X+4068499Y+3505947D01*
X+4004999Y+3569447D02*
X+4131999Y+3569447D01*
X+4023598Y+3614348D02*
X+4113400Y+3524546D01*
X+4023598Y+3524546D02*
X+4113400Y+3614348D01*
X+5183326Y+5209845D02*
X+5183326Y+5082845D01*
X+5119826Y+5146345D02*
X+5246826Y+5146345D01*
X+5138425Y+5191246D02*
X+5228227Y+5101444D01*
X+5138425Y+5101444D02*
X+5228227Y+5191246D01*
X+5825623Y+5209845D02*
X+5825623Y+5082845D01*
X+5762123Y+5146345D02*
X+5889123Y+5146345D01*
X+5780722Y+5191246D02*
X+5870524Y+5101444D01*
X+5780722Y+5101444D02*
X+5870524Y+5191246D01*
X+2034157Y+4736326D02*
X+2034157Y+4609326D01*
X+1970657Y+4672826D02*
X+2097657Y+4672826D01*
X+1989256Y+4717727D02*
X+2079058Y+4627925D01*
X+1989256Y+4627925D02*
X+2079058Y+4717727D01*
X+2031221Y+4090315D02*
X+2031221Y+3963315D01*
X+1967721Y+4026815D02*
X+2094721Y+4026815D01*
X+1986320Y+4071716D02*
X+2076122Y+3981914D01*
X+1986320Y+3981914D02*
X+2076122Y+4071716D01*
X+4549975Y+5827582D02*
X+4549975Y+5700582D01*
X+4486475Y+5764082D02*
X+4613475Y+5764082D01*
X+4505074Y+5808983D02*
X+4594876Y+5719181D01*
X+4505074Y+5719181D02*
X+4594876Y+5808983D01*
X+5262570Y+5828235D02*
X+5262570Y+5701235D01*
X+5199070Y+5764735D02*
X+5326070Y+5764735D01*
X+5217669Y+5809636D02*
X+5307471Y+5719834D01*
X+5217669Y+5719834D02*
X+5307471Y+5809636D01*
X+5403855Y+1995620D02*
X+5403855Y+1868620D01*
X+5340355Y+1932120D02*
X+5467355Y+1932120D01*
X+5358954Y+1977021D02*
X+5448756Y+1887219D01*
X+5358954Y+1887219D02*
X+5448756Y+1977021D01*
X+5403855Y+1016662D02*
X+5403855Y+889662D01*
X+5340355Y+953162D02*
X+5467355Y+953162D01*
X+5358954Y+998063D02*
X+5448756Y+908261D01*
X+5358954Y+908261D02*
X+5448756Y+998063D01*
X+4505949Y+6017730D02*
X+4505949Y+5890730D01*
X+4442449Y+5954230D02*
X+4569449Y+5954230D01*
X+4461048Y+5999131D02*
X+4550850Y+5909329D01*
X+4461048Y+5909329D02*
X+4550850Y+5999131D01*
X+4505949Y+7040848D02*
X+4505949Y+6913848D01*
X+4442449Y+6977348D02*
X+4569449Y+6977348D01*
X+4461048Y+7022249D02*
X+4550850Y+6932447D01*
X+4461048Y+6932447D02*
X+4550850Y+7022249D01*
X+3192242Y+4906438D02*
X+3192242Y+4779438D01*
X+3128742Y+4842938D02*
X+3255742Y+4842938D01*
X+3147341Y+4887839D02*
X+3237143Y+4798037D01*
X+3147341Y+4798037D02*
X+3237143Y+4887839D01*
X+4417347Y+4908433D02*
X+4417347Y+4781433D01*
X+4353847Y+4844933D02*
X+4480847Y+4844933D01*
X+4372446Y+4889834D02*
X+4462248Y+4800032D01*
X+4372446Y+4800032D02*
X+4462248Y+4889834D01*
X+2004911Y+4994964D02*
X+2004911Y+4867964D01*
X+1941411Y+4931464D02*
X+2068411Y+4931464D01*
X+1960010Y+4976365D02*
X+2049812Y+4886563D01*
X+1960010Y+4886563D02*
X+2049812Y+4976365D01*
X+2010902Y+5336426D02*
X+2010902Y+5209426D01*
X+1947402Y+5272926D02*
X+2074402Y+5272926D01*
X+1966001Y+5317827D02*
X+2055803Y+5228025D01*
X+1966001Y+5228025D02*
X+2055803Y+5317827D01*
X+3004664Y+5136009D02*
X+3004664Y+5009009D01*
X+2941164Y+5072509D02*
X+3068164Y+5072509D01*
X+2959763Y+5117410D02*
X+3049565Y+5027608D01*
X+2959763Y+5027608D02*
X+3049565Y+5117410D01*
X+3004160Y+6177957D02*
X+3004160Y+6050957D01*
X+2940660Y+6114457D02*
X+3067660Y+6114457D01*
X+2959259Y+6159358D02*
X+3049061Y+6069556D01*
X+2959259Y+6069556D02*
X+3049061Y+6159358D01*
X+487101Y+2613126D02*
X+486884Y+2618373D01*
X+485119Y+2628868D01*
X+481427Y+2639363D01*
X+475399Y+2649858D01*
X+466177Y+2660238D01*
X+455682Y+2667926D01*
X+445187Y+2672844D01*
X+434692Y+2675650D01*
X+424197Y+2676623D01*
X+423601Y+2676626D01*
X+360101Y+2613126D02*
X+360318Y+2618373D01*
X+362083Y+2628868D01*
X+365775Y+2639363D01*
X+371803Y+2649858D01*
X+381025Y+2660238D01*
X+391520Y+2667926D01*
X+402015Y+2672844D01*
X+412510Y+2675650D01*
X+423005Y+2676623D01*
X+423601Y+2676626D01*
X+360101Y+2613126D02*
X+360318Y+2607879D01*
X+362083Y+2597384D01*
X+365775Y+2586889D01*
X+371803Y+2576394D01*
X+381025Y+2566014D01*
X+391520Y+2558326D01*
X+402015Y+2553408D01*
X+412510Y+2550602D01*
X+423005Y+2549629D01*
X+423601Y+2549626D01*
X+487101Y+2613126D02*
X+486884Y+2607879D01*
X+485119Y+2597384D01*
X+481427Y+2586889D01*
X+475399Y+2576394D01*
X+466177Y+2566014D01*
X+455682Y+2558326D01*
X+445187Y+2553408D01*
X+434692Y+2550602D01*
X+424197Y+2549629D01*
X+423601Y+2549626D01*
X+423601Y+2676626D02*
X+423601Y+2549626D01*
X+360101Y+2613126D02*
X+487101Y+2613126D01*
X+741101Y+2613126D02*
X+740884Y+2618373D01*
X+739119Y+2628868D01*
X+735427Y+2639363D01*
X+729399Y+2649858D01*
X+720177Y+2660238D01*
X+709682Y+2667926D01*
X+699187Y+2672844D01*
X+688692Y+2675650D01*
X+678197Y+2676623D01*
X+677601Y+2676626D01*
X+614101Y+2613126D02*
X+614318Y+2618373D01*
X+616083Y+2628868D01*
X+619775Y+2639363D01*
X+625803Y+2649858D01*
X+635025Y+2660238D01*
X+645520Y+2667926D01*
X+656015Y+2672844D01*
X+666510Y+2675650D01*
X+677005Y+2676623D01*
X+677601Y+2676626D01*
X+614101Y+2613126D02*
X+614318Y+2607879D01*
X+616083Y+2597384D01*
X+619775Y+2586889D01*
X+625803Y+2576394D01*
X+635025Y+2566014D01*
X+645520Y+2558326D01*
X+656015Y+2553408D01*
X+666510Y+2550602D01*
X+677005Y+2549629D01*
X+677601Y+2549626D01*
X+741101Y+2613126D02*
X+740884Y+2607879D01*
X+739119Y+2597384D01*
X+735427Y+2586889D01*
X+729399Y+2576394D01*
X+720177Y+2566014D01*
X+709682Y+2558326D01*
X+699187Y+2553408D01*
X+688692Y+2550602D01*
X+678197Y+2549629D01*
X+677601Y+2549626D01*
X+677601Y+2676626D02*
X+677601Y+2549626D01*
X+614101Y+2613126D02*
X+741101Y+2613126D01*
X+995101Y+2613126D02*
X+994884Y+2618373D01*
X+993119Y+2628868D01*
X+989427Y+2639363D01*
X+983399Y+2649858D01*
X+974177Y+2660238D01*
X+963682Y+2667926D01*
X+953187Y+2672844D01*
X+942692Y+2675650D01*
X+932197Y+2676623D01*
X+931601Y+2676626D01*
X+868101Y+2613126D02*
X+868318Y+2618373D01*
X+870083Y+2628868D01*
X+873775Y+2639363D01*
X+879803Y+2649858D01*
X+889025Y+2660238D01*
X+899520Y+2667926D01*
X+910015Y+2672844D01*
X+920510Y+2675650D01*
X+931005Y+2676623D01*
X+931601Y+2676626D01*
X+868101Y+2613126D02*
X+868318Y+2607879D01*
X+870083Y+2597384D01*
X+873775Y+2586889D01*
X+879803Y+2576394D01*
X+889025Y+2566014D01*
X+899520Y+2558326D01*
X+910015Y+2553408D01*
X+920510Y+2550602D01*
X+931005Y+2549629D01*
X+931601Y+2549626D01*
X+995101Y+2613126D02*
X+994884Y+2607879D01*
X+993119Y+2597384D01*
X+989427Y+2586889D01*
X+983399Y+2576394D01*
X+974177Y+2566014D01*
X+963682Y+2558326D01*
X+953187Y+2553408D01*
X+942692Y+2550602D01*
X+932197Y+2549629D01*
X+931601Y+2549626D01*
X+931601Y+2676626D02*
X+931601Y+2549626D01*
X+868101Y+2613126D02*
X+995101Y+2613126D01*
X+1249101Y+2613126D02*
X+1248884Y+2618373D01*
X+1247119Y+2628868D01*
X+1243427Y+2639363D01*
X+1237399Y+2649858D01*
X+1228177Y+2660238D01*
X+1217682Y+2667926D01*
X+1207187Y+2672844D01*
X+1196692Y+2675650D01*
X+1186197Y+2676623D01*
X+1185601Y+2676626D01*
X+1122101Y+2613126D02*
X+1122318Y+2618373D01*
X+1124083Y+2628868D01*
X+1127775Y+2639363D01*
X+1133803Y+2649858D01*
X+1143025Y+2660238D01*
X+1153520Y+2667926D01*
X+1164015Y+2672844D01*
X+1174510Y+2675650D01*
X+1185005Y+2676623D01*
X+1185601Y+2676626D01*
X+1122101Y+2613126D02*
X+1122318Y+2607879D01*
X+1124083Y+2597384D01*
X+1127775Y+2586889D01*
X+1133803Y+2576394D01*
X+1143025Y+2566014D01*
X+1153520Y+2558326D01*
X+1164015Y+2553408D01*
X+1174510Y+2550602D01*
X+1185005Y+2549629D01*
X+1185601Y+2549626D01*
X+1249101Y+2613126D02*
X+1248884Y+2607879D01*
X+1247119Y+2597384D01*
X+1243427Y+2586889D01*
X+1237399Y+2576394D01*
X+1228177Y+2566014D01*
X+1217682Y+2558326D01*
X+1207187Y+2553408D01*
X+1196692Y+2550602D01*
X+1186197Y+2549629D01*
X+1185601Y+2549626D01*
X+1185601Y+2676626D02*
X+1185601Y+2549626D01*
X+1122101Y+2613126D02*
X+1249101Y+2613126D01*
X+1503101Y+2613126D02*
X+1502884Y+2618373D01*
X+1501119Y+2628868D01*
X+1497427Y+2639363D01*
X+1491399Y+2649858D01*
X+1482177Y+2660238D01*
X+1471682Y+2667926D01*
X+1461187Y+2672844D01*
X+1450692Y+2675650D01*
X+1440197Y+2676623D01*
X+1439601Y+2676626D01*
X+1376101Y+2613126D02*
X+1376318Y+2618373D01*
X+1378083Y+2628868D01*
X+1381775Y+2639363D01*
X+1387803Y+2649858D01*
X+1397025Y+2660238D01*
X+1407520Y+2667926D01*
X+1418015Y+2672844D01*
X+1428510Y+2675650D01*
X+1439005Y+2676623D01*
X+1439601Y+2676626D01*
X+1376101Y+2613126D02*
X+1376318Y+2607879D01*
X+1378083Y+2597384D01*
X+1381775Y+2586889D01*
X+1387803Y+2576394D01*
X+1397025Y+2566014D01*
X+1407520Y+2558326D01*
X+1418015Y+2553408D01*
X+1428510Y+2550602D01*
X+1439005Y+2549629D01*
X+1439601Y+2549626D01*
X+1503101Y+2613126D02*
X+1502884Y+2607879D01*
X+1501119Y+2597384D01*
X+1497427Y+2586889D01*
X+1491399Y+2576394D01*
X+1482177Y+2566014D01*
X+1471682Y+2558326D01*
X+1461187Y+2553408D01*
X+1450692Y+2550602D01*
X+1440197Y+2549629D01*
X+1439601Y+2549626D01*
X+1439601Y+2676626D02*
X+1439601Y+2549626D01*
X+1376101Y+2613126D02*
X+1503101Y+2613126D01*
X+1757101Y+2613126D02*
X+1756884Y+2618373D01*
X+1755119Y+2628868D01*
X+1751427Y+2639363D01*
X+1745399Y+2649858D01*
X+1736177Y+2660238D01*
X+1725682Y+2667926D01*
X+1715187Y+2672844D01*
X+1704692Y+2675650D01*
X+1694197Y+2676623D01*
X+1693601Y+2676626D01*
X+1630101Y+2613126D02*
X+1630318Y+2618373D01*
X+1632083Y+2628868D01*
X+1635775Y+2639363D01*
X+1641803Y+2649858D01*
X+1651025Y+2660238D01*
X+1661520Y+2667926D01*
X+1672015Y+2672844D01*
X+1682510Y+2675650D01*
X+1693005Y+2676623D01*
X+1693601Y+2676626D01*
X+1630101Y+2613126D02*
X+1630318Y+2607879D01*
X+1632083Y+2597384D01*
X+1635775Y+2586889D01*
X+1641803Y+2576394D01*
X+1651025Y+2566014D01*
X+1661520Y+2558326D01*
X+1672015Y+2553408D01*
X+1682510Y+2550602D01*
X+1693005Y+2549629D01*
X+1693601Y+2549626D01*
X+1757101Y+2613126D02*
X+1756884Y+2607879D01*
X+1755119Y+2597384D01*
X+1751427Y+2586889D01*
X+1745399Y+2576394D01*
X+1736177Y+2566014D01*
X+1725682Y+2558326D01*
X+1715187Y+2553408D01*
X+1704692Y+2550602D01*
X+1694197Y+2549629D01*
X+1693601Y+2549626D01*
X+1693601Y+2676626D02*
X+1693601Y+2549626D01*
X+1630101Y+2613126D02*
X+1757101Y+2613126D01*
X+2011101Y+2613126D02*
X+2010884Y+2618373D01*
X+2009119Y+2628868D01*
X+2005427Y+2639363D01*
X+1999399Y+2649858D01*
X+1990177Y+2660238D01*
X+1979682Y+2667926D01*
X+1969187Y+2672844D01*
X+1958692Y+2675650D01*
X+1948197Y+2676623D01*
X+1947601Y+2676626D01*
X+1884101Y+2613126D02*
X+1884318Y+2618373D01*
X+1886083Y+2628868D01*
X+1889775Y+2639363D01*
X+1895803Y+2649858D01*
X+1905025Y+2660238D01*
X+1915520Y+2667926D01*
X+1926015Y+2672844D01*
X+1936510Y+2675650D01*
X+1947005Y+2676623D01*
X+1947601Y+2676626D01*
X+1884101Y+2613126D02*
X+1884318Y+2607879D01*
X+1886083Y+2597384D01*
X+1889775Y+2586889D01*
X+1895803Y+2576394D01*
X+1905025Y+2566014D01*
X+1915520Y+2558326D01*
X+1926015Y+2553408D01*
X+1936510Y+2550602D01*
X+1947005Y+2549629D01*
X+1947601Y+2549626D01*
X+2011101Y+2613126D02*
X+2010884Y+2607879D01*
X+2009119Y+2597384D01*
X+2005427Y+2586889D01*
X+1999399Y+2576394D01*
X+1990177Y+2566014D01*
X+1979682Y+2558326D01*
X+1969187Y+2553408D01*
X+1958692Y+2550602D01*
X+1948197Y+2549629D01*
X+1947601Y+2549626D01*
X+1947601Y+2676626D02*
X+1947601Y+2549626D01*
X+1884101Y+2613126D02*
X+2011101Y+2613126D01*
X+2265101Y+2613126D02*
X+2264884Y+2618373D01*
X+2263119Y+2628868D01*
X+2259427Y+2639363D01*
X+2253399Y+2649858D01*
X+2244177Y+2660238D01*
X+2233682Y+2667926D01*
X+2223187Y+2672844D01*
X+2212692Y+2675650D01*
X+2202197Y+2676623D01*
X+2201601Y+2676626D01*
X+2138101Y+2613126D02*
X+2138318Y+2618373D01*
X+2140083Y+2628868D01*
X+2143775Y+2639363D01*
X+2149803Y+2649858D01*
X+2159025Y+2660238D01*
X+2169520Y+2667926D01*
X+2180015Y+2672844D01*
X+2190510Y+2675650D01*
X+2201005Y+2676623D01*
X+2201601Y+2676626D01*
X+2138101Y+2613126D02*
X+2138318Y+2607879D01*
X+2140083Y+2597384D01*
X+2143775Y+2586889D01*
X+2149803Y+2576394D01*
X+2159025Y+2566014D01*
X+2169520Y+2558326D01*
X+2180015Y+2553408D01*
X+2190510Y+2550602D01*
X+2201005Y+2549629D01*
X+2201601Y+2549626D01*
X+2265101Y+2613126D02*
X+2264884Y+2607879D01*
X+2263119Y+2597384D01*
X+2259427Y+2586889D01*
X+2253399Y+2576394D01*
X+2244177Y+2566014D01*
X+2233682Y+2558326D01*
X+2223187Y+2553408D01*
X+2212692Y+2550602D01*
X+2202197Y+2549629D01*
X+2201601Y+2549626D01*
X+2201601Y+2676626D02*
X+2201601Y+2549626D01*
X+2138101Y+2613126D02*
X+2265101Y+2613126D01*
X+2519101Y+2613126D02*
X+2518884Y+2618373D01*
X+2517119Y+2628868D01*
X+2513427Y+2639363D01*
X+2507399Y+2649858D01*
X+2498177Y+2660238D01*
X+2487682Y+2667926D01*
X+2477187Y+2672844D01*
X+2466692Y+2675650D01*
X+2456197Y+2676623D01*
X+2455601Y+2676626D01*
X+2392101Y+2613126D02*
X+2392318Y+2618373D01*
X+2394083Y+2628868D01*
X+2397775Y+2639363D01*
X+2403803Y+2649858D01*
X+2413025Y+2660238D01*
X+2423520Y+2667926D01*
X+2434015Y+2672844D01*
X+2444510Y+2675650D01*
X+2455005Y+2676623D01*
X+2455601Y+2676626D01*
X+2392101Y+2613126D02*
X+2392318Y+2607879D01*
X+2394083Y+2597384D01*
X+2397775Y+2586889D01*
X+2403803Y+2576394D01*
X+2413025Y+2566014D01*
X+2423520Y+2558326D01*
X+2434015Y+2553408D01*
X+2444510Y+2550602D01*
X+2455005Y+2549629D01*
X+2455601Y+2549626D01*
X+2519101Y+2613126D02*
X+2518884Y+2607879D01*
X+2517119Y+2597384D01*
X+2513427Y+2586889D01*
X+2507399Y+2576394D01*
X+2498177Y+2566014D01*
X+2487682Y+2558326D01*
X+2477187Y+2553408D01*
X+2466692Y+2550602D01*
X+2456197Y+2549629D01*
X+2455601Y+2549626D01*
X+2455601Y+2676626D02*
X+2455601Y+2549626D01*
X+2392101Y+2613126D02*
X+2519101Y+2613126D01*
X+2773101Y+2613126D02*
X+2772884Y+2618373D01*
X+2771119Y+2628868D01*
X+2767427Y+2639363D01*
X+2761399Y+2649858D01*
X+2752177Y+2660238D01*
X+2741682Y+2667926D01*
X+2731187Y+2672844D01*
X+2720692Y+2675650D01*
X+2710197Y+2676623D01*
X+2709601Y+2676626D01*
X+2646101Y+2613126D02*
X+2646318Y+2618373D01*
X+2648083Y+2628868D01*
X+2651775Y+2639363D01*
X+2657803Y+2649858D01*
X+2667025Y+2660238D01*
X+2677520Y+2667926D01*
X+2688015Y+2672844D01*
X+2698510Y+2675650D01*
X+2709005Y+2676623D01*
X+2709601Y+2676626D01*
X+2646101Y+2613126D02*
X+2646318Y+2607879D01*
X+2648083Y+2597384D01*
X+2651775Y+2586889D01*
X+2657803Y+2576394D01*
X+2667025Y+2566014D01*
X+2677520Y+2558326D01*
X+2688015Y+2553408D01*
X+2698510Y+2550602D01*
X+2709005Y+2549629D01*
X+2709601Y+2549626D01*
X+2773101Y+2613126D02*
X+2772884Y+2607879D01*
X+2771119Y+2597384D01*
X+2767427Y+2586889D01*
X+2761399Y+2576394D01*
X+2752177Y+2566014D01*
X+2741682Y+2558326D01*
X+2731187Y+2553408D01*
X+2720692Y+2550602D01*
X+2710197Y+2549629D01*
X+2709601Y+2549626D01*
X+2709601Y+2676626D02*
X+2709601Y+2549626D01*
X+2646101Y+2613126D02*
X+2773101Y+2613126D01*
X+3027101Y+2613126D02*
X+3026884Y+2618373D01*
X+3025119Y+2628868D01*
X+3021427Y+2639363D01*
X+3015399Y+2649858D01*
X+3006177Y+2660238D01*
X+2995682Y+2667926D01*
X+2985187Y+2672844D01*
X+2974692Y+2675650D01*
X+2964197Y+2676623D01*
X+2963601Y+2676626D01*
X+2900101Y+2613126D02*
X+2900318Y+2618373D01*
X+2902083Y+2628868D01*
X+2905775Y+2639363D01*
X+2911803Y+2649858D01*
X+2921025Y+2660238D01*
X+2931520Y+2667926D01*
X+2942015Y+2672844D01*
X+2952510Y+2675650D01*
X+2963005Y+2676623D01*
X+2963601Y+2676626D01*
X+2900101Y+2613126D02*
X+2900318Y+2607879D01*
X+2902083Y+2597384D01*
X+2905775Y+2586889D01*
X+2911803Y+2576394D01*
X+2921025Y+2566014D01*
X+2931520Y+2558326D01*
X+2942015Y+2553408D01*
X+2952510Y+2550602D01*
X+2963005Y+2549629D01*
X+2963601Y+2549626D01*
X+3027101Y+2613126D02*
X+3026884Y+2607879D01*
X+3025119Y+2597384D01*
X+3021427Y+2586889D01*
X+3015399Y+2576394D01*
X+3006177Y+2566014D01*
X+2995682Y+2558326D01*
X+2985187Y+2553408D01*
X+2974692Y+2550602D01*
X+2964197Y+2549629D01*
X+2963601Y+2549626D01*
X+2963601Y+2676626D02*
X+2963601Y+2549626D01*
X+2900101Y+2613126D02*
X+3027101Y+2613126D01*
X+3281101Y+2613126D02*
X+3280884Y+2618373D01*
X+3279119Y+2628868D01*
X+3275427Y+2639363D01*
X+3269399Y+2649858D01*
X+3260177Y+2660238D01*
X+3249682Y+2667926D01*
X+3239187Y+2672844D01*
X+3228692Y+2675650D01*
X+3218197Y+2676623D01*
X+3217601Y+2676626D01*
X+3154101Y+2613126D02*
X+3154318Y+2618373D01*
X+3156083Y+2628868D01*
X+3159775Y+2639363D01*
X+3165803Y+2649858D01*
X+3175025Y+2660238D01*
X+3185520Y+2667926D01*
X+3196015Y+2672844D01*
X+3206510Y+2675650D01*
X+3217005Y+2676623D01*
X+3217601Y+2676626D01*
X+3154101Y+2613126D02*
X+3154318Y+2607879D01*
X+3156083Y+2597384D01*
X+3159775Y+2586889D01*
X+3165803Y+2576394D01*
X+3175025Y+2566014D01*
X+3185520Y+2558326D01*
X+3196015Y+2553408D01*
X+3206510Y+2550602D01*
X+3217005Y+2549629D01*
X+3217601Y+2549626D01*
X+3281101Y+2613126D02*
X+3280884Y+2607879D01*
X+3279119Y+2597384D01*
X+3275427Y+2586889D01*
X+3269399Y+2576394D01*
X+3260177Y+2566014D01*
X+3249682Y+2558326D01*
X+3239187Y+2553408D01*
X+3228692Y+2550602D01*
X+3218197Y+2549629D01*
X+3217601Y+2549626D01*
X+3217601Y+2676626D02*
X+3217601Y+2549626D01*
X+3154101Y+2613126D02*
X+3281101Y+2613126D01*
X+3535101Y+2613126D02*
X+3534884Y+2618373D01*
X+3533119Y+2628868D01*
X+3529427Y+2639363D01*
X+3523399Y+2649858D01*
X+3514177Y+2660238D01*
X+3503682Y+2667926D01*
X+3493187Y+2672844D01*
X+3482692Y+2675650D01*
X+3472197Y+2676623D01*
X+3471601Y+2676626D01*
X+3408101Y+2613126D02*
X+3408318Y+2618373D01*
X+3410083Y+2628868D01*
X+3413775Y+2639363D01*
X+3419803Y+2649858D01*
X+3429025Y+2660238D01*
X+3439520Y+2667926D01*
X+3450015Y+2672844D01*
X+3460510Y+2675650D01*
X+3471005Y+2676623D01*
X+3471601Y+2676626D01*
X+3408101Y+2613126D02*
X+3408318Y+2607879D01*
X+3410083Y+2597384D01*
X+3413775Y+2586889D01*
X+3419803Y+2576394D01*
X+3429025Y+2566014D01*
X+3439520Y+2558326D01*
X+3450015Y+2553408D01*
X+3460510Y+2550602D01*
X+3471005Y+2549629D01*
X+3471601Y+2549626D01*
X+3535101Y+2613126D02*
X+3534884Y+2607879D01*
X+3533119Y+2597384D01*
X+3529427Y+2586889D01*
X+3523399Y+2576394D01*
X+3514177Y+2566014D01*
X+3503682Y+2558326D01*
X+3493187Y+2553408D01*
X+3482692Y+2550602D01*
X+3472197Y+2549629D01*
X+3471601Y+2549626D01*
X+3471601Y+2676626D02*
X+3471601Y+2549626D01*
X+3408101Y+2613126D02*
X+3535101Y+2613126D01*
X+3789101Y+2613126D02*
X+3788884Y+2618373D01*
X+3787119Y+2628868D01*
X+3783427Y+2639363D01*
X+3777399Y+2649858D01*
X+3768177Y+2660238D01*
X+3757682Y+2667926D01*
X+3747187Y+2672844D01*
X+3736692Y+2675650D01*
X+3726197Y+2676623D01*
X+3725601Y+2676626D01*
X+3662101Y+2613126D02*
X+3662318Y+2618373D01*
X+3664083Y+2628868D01*
X+3667775Y+2639363D01*
X+3673803Y+2649858D01*
X+3683025Y+2660238D01*
X+3693520Y+2667926D01*
X+3704015Y+2672844D01*
X+3714510Y+2675650D01*
X+3725005Y+2676623D01*
X+3725601Y+2676626D01*
X+3662101Y+2613126D02*
X+3662318Y+2607879D01*
X+3664083Y+2597384D01*
X+3667775Y+2586889D01*
X+3673803Y+2576394D01*
X+3683025Y+2566014D01*
X+3693520Y+2558326D01*
X+3704015Y+2553408D01*
X+3714510Y+2550602D01*
X+3725005Y+2549629D01*
X+3725601Y+2549626D01*
X+3789101Y+2613126D02*
X+3788884Y+2607879D01*
X+3787119Y+2597384D01*
X+3783427Y+2586889D01*
X+3777399Y+2576394D01*
X+3768177Y+2566014D01*
X+3757682Y+2558326D01*
X+3747187Y+2553408D01*
X+3736692Y+2550602D01*
X+3726197Y+2549629D01*
X+3725601Y+2549626D01*
X+3725601Y+2676626D02*
X+3725601Y+2549626D01*
X+3662101Y+2613126D02*
X+3789101Y+2613126D01*
X+3789101Y+3375126D02*
X+3788884Y+3380373D01*
X+3787119Y+3390868D01*
X+3783427Y+3401363D01*
X+3777399Y+3411858D01*
X+3768177Y+3422238D01*
X+3757682Y+3429926D01*
X+3747187Y+3434844D01*
X+3736692Y+3437650D01*
X+3726197Y+3438623D01*
X+3725601Y+3438626D01*
X+3662101Y+3375126D02*
X+3662318Y+3380373D01*
X+3664083Y+3390868D01*
X+3667775Y+3401363D01*
X+3673803Y+3411858D01*
X+3683025Y+3422238D01*
X+3693520Y+3429926D01*
X+3704015Y+3434844D01*
X+3714510Y+3437650D01*
X+3725005Y+3438623D01*
X+3725601Y+3438626D01*
X+3662101Y+3375126D02*
X+3662318Y+3369879D01*
X+3664083Y+3359384D01*
X+3667775Y+3348889D01*
X+3673803Y+3338394D01*
X+3683025Y+3328014D01*
X+3693520Y+3320326D01*
X+3704015Y+3315408D01*
X+3714510Y+3312602D01*
X+3725005Y+3311629D01*
X+3725601Y+3311626D01*
X+3789101Y+3375126D02*
X+3788884Y+3369879D01*
X+3787119Y+3359384D01*
X+3783427Y+3348889D01*
X+3777399Y+3338394D01*
X+3768177Y+3328014D01*
X+3757682Y+3320326D01*
X+3747187Y+3315408D01*
X+3736692Y+3312602D01*
X+3726197Y+3311629D01*
X+3725601Y+3311626D01*
X+3725601Y+3438626D02*
X+3725601Y+3311626D01*
X+3662101Y+3375126D02*
X+3789101Y+3375126D01*
X+3535101Y+3375126D02*
X+3534884Y+3380373D01*
X+3533119Y+3390868D01*
X+3529427Y+3401363D01*
X+3523399Y+3411858D01*
X+3514177Y+3422238D01*
X+3503682Y+3429926D01*
X+3493187Y+3434844D01*
X+3482692Y+3437650D01*
X+3472197Y+3438623D01*
X+3471601Y+3438626D01*
X+3408101Y+3375126D02*
X+3408318Y+3380373D01*
X+3410083Y+3390868D01*
X+3413775Y+3401363D01*
X+3419803Y+3411858D01*
X+3429025Y+3422238D01*
X+3439520Y+3429926D01*
X+3450015Y+3434844D01*
X+3460510Y+3437650D01*
X+3471005Y+3438623D01*
X+3471601Y+3438626D01*
X+3408101Y+3375126D02*
X+3408318Y+3369879D01*
X+3410083Y+3359384D01*
X+3413775Y+3348889D01*
X+3419803Y+3338394D01*
X+3429025Y+3328014D01*
X+3439520Y+3320326D01*
X+3450015Y+3315408D01*
X+3460510Y+3312602D01*
X+3471005Y+3311629D01*
X+3471601Y+3311626D01*
X+3535101Y+3375126D02*
X+3534884Y+3369879D01*
X+3533119Y+3359384D01*
X+3529427Y+3348889D01*
X+3523399Y+3338394D01*
X+3514177Y+3328014D01*
X+3503682Y+3320326D01*
X+3493187Y+3315408D01*
X+3482692Y+3312602D01*
X+3472197Y+3311629D01*
X+3471601Y+3311626D01*
X+3471601Y+3438626D02*
X+3471601Y+3311626D01*
X+3408101Y+3375126D02*
X+3535101Y+3375126D01*
X+3281101Y+3375126D02*
X+3280884Y+3380373D01*
X+3279119Y+3390868D01*
X+3275427Y+3401363D01*
X+3269399Y+3411858D01*
X+3260177Y+3422238D01*
X+3249682Y+3429926D01*
X+3239187Y+3434844D01*
X+3228692Y+3437650D01*
X+3218197Y+3438623D01*
X+3217601Y+3438626D01*
X+3154101Y+3375126D02*
X+3154318Y+3380373D01*
X+3156083Y+3390868D01*
X+3159775Y+3401363D01*
X+3165803Y+3411858D01*
X+3175025Y+3422238D01*
X+3185520Y+3429926D01*
X+3196015Y+3434844D01*
X+3206510Y+3437650D01*
X+3217005Y+3438623D01*
X+3217601Y+3438626D01*
X+3154101Y+3375126D02*
X+3154318Y+3369879D01*
X+3156083Y+3359384D01*
X+3159775Y+3348889D01*
X+3165803Y+3338394D01*
X+3175025Y+3328014D01*
X+3185520Y+3320326D01*
X+3196015Y+3315408D01*
X+3206510Y+3312602D01*
X+3217005Y+3311629D01*
X+3217601Y+3311626D01*
X+3281101Y+3375126D02*
X+3280884Y+3369879D01*
X+3279119Y+3359384D01*
X+3275427Y+3348889D01*
X+3269399Y+3338394D01*
X+3260177Y+3328014D01*
X+3249682Y+3320326D01*
X+3239187Y+3315408D01*
X+3228692Y+3312602D01*
X+3218197Y+3311629D01*
X+3217601Y+3311626D01*
X+3217601Y+3438626D02*
X+3217601Y+3311626D01*
X+3154101Y+3375126D02*
X+3281101Y+3375126D01*
X+3027101Y+3375126D02*
X+3026884Y+3380373D01*
X+3025119Y+3390868D01*
X+3021427Y+3401363D01*
X+3015399Y+3411858D01*
X+3006177Y+3422238D01*
X+2995682Y+3429926D01*
X+2985187Y+3434844D01*
X+2974692Y+3437650D01*
X+2964197Y+3438623D01*
X+2963601Y+3438626D01*
X+2900101Y+3375126D02*
X+2900318Y+3380373D01*
X+2902083Y+3390868D01*
X+2905775Y+3401363D01*
X+2911803Y+3411858D01*
X+2921025Y+3422238D01*
X+2931520Y+3429926D01*
X+2942015Y+3434844D01*
X+2952510Y+3437650D01*
X+2963005Y+3438623D01*
X+2963601Y+3438626D01*
X+2900101Y+3375126D02*
X+2900318Y+3369879D01*
X+2902083Y+3359384D01*
X+2905775Y+3348889D01*
X+2911803Y+3338394D01*
X+2921025Y+3328014D01*
X+2931520Y+3320326D01*
X+2942015Y+3315408D01*
X+2952510Y+3312602D01*
X+2963005Y+3311629D01*
X+2963601Y+3311626D01*
X+3027101Y+3375126D02*
X+3026884Y+3369879D01*
X+3025119Y+3359384D01*
X+3021427Y+3348889D01*
X+3015399Y+3338394D01*
X+3006177Y+3328014D01*
X+2995682Y+3320326D01*
X+2985187Y+3315408D01*
X+2974692Y+3312602D01*
X+2964197Y+3311629D01*
X+2963601Y+3311626D01*
X+2963601Y+3438626D02*
X+2963601Y+3311626D01*
X+2900101Y+3375126D02*
X+3027101Y+3375126D01*
X+2773101Y+3375126D02*
X+2772884Y+3380373D01*
X+2771119Y+3390868D01*
X+2767427Y+3401363D01*
X+2761399Y+3411858D01*
X+2752177Y+3422238D01*
X+2741682Y+3429926D01*
X+2731187Y+3434844D01*
X+2720692Y+3437650D01*
X+2710197Y+3438623D01*
X+2709601Y+3438626D01*
X+2646101Y+3375126D02*
X+2646318Y+3380373D01*
X+2648083Y+3390868D01*
X+2651775Y+3401363D01*
X+2657803Y+3411858D01*
X+2667025Y+3422238D01*
X+2677520Y+3429926D01*
X+2688015Y+3434844D01*
X+2698510Y+3437650D01*
X+2709005Y+3438623D01*
X+2709601Y+3438626D01*
X+2646101Y+3375126D02*
X+2646318Y+3369879D01*
X+2648083Y+3359384D01*
X+2651775Y+3348889D01*
X+2657803Y+3338394D01*
X+2667025Y+3328014D01*
X+2677520Y+3320326D01*
X+2688015Y+3315408D01*
X+2698510Y+3312602D01*
X+2709005Y+3311629D01*
X+2709601Y+3311626D01*
X+2773101Y+3375126D02*
X+2772884Y+3369879D01*
X+2771119Y+3359384D01*
X+2767427Y+3348889D01*
X+2761399Y+3338394D01*
X+2752177Y+3328014D01*
X+2741682Y+3320326D01*
X+2731187Y+3315408D01*
X+2720692Y+3312602D01*
X+2710197Y+3311629D01*
X+2709601Y+3311626D01*
X+2709601Y+3438626D02*
X+2709601Y+3311626D01*
X+2646101Y+3375126D02*
X+2773101Y+3375126D01*
X+2519101Y+3375126D02*
X+2518884Y+3380373D01*
X+2517119Y+3390868D01*
X+2513427Y+3401363D01*
X+2507399Y+3411858D01*
X+2498177Y+3422238D01*
X+2487682Y+3429926D01*
X+2477187Y+3434844D01*
X+2466692Y+3437650D01*
X+2456197Y+3438623D01*
X+2455601Y+3438626D01*
X+2392101Y+3375126D02*
X+2392318Y+3380373D01*
X+2394083Y+3390868D01*
X+2397775Y+3401363D01*
X+2403803Y+3411858D01*
X+2413025Y+3422238D01*
X+2423520Y+3429926D01*
X+2434015Y+3434844D01*
X+2444510Y+3437650D01*
X+2455005Y+3438623D01*
X+2455601Y+3438626D01*
X+2392101Y+3375126D02*
X+2392318Y+3369879D01*
X+2394083Y+3359384D01*
X+2397775Y+3348889D01*
X+2403803Y+3338394D01*
X+2413025Y+3328014D01*
X+2423520Y+3320326D01*
X+2434015Y+3315408D01*
X+2444510Y+3312602D01*
X+2455005Y+3311629D01*
X+2455601Y+3311626D01*
X+2519101Y+3375126D02*
X+2518884Y+3369879D01*
X+2517119Y+3359384D01*
X+2513427Y+3348889D01*
X+2507399Y+3338394D01*
X+2498177Y+3328014D01*
X+2487682Y+3320326D01*
X+2477187Y+3315408D01*
X+2466692Y+3312602D01*
X+2456197Y+3311629D01*
X+2455601Y+3311626D01*
X+2455601Y+3438626D02*
X+2455601Y+3311626D01*
X+2392101Y+3375126D02*
X+2519101Y+3375126D01*
X+2265101Y+3375126D02*
X+2264884Y+3380373D01*
X+2263119Y+3390868D01*
X+2259427Y+3401363D01*
X+2253399Y+3411858D01*
X+2244177Y+3422238D01*
X+2233682Y+3429926D01*
X+2223187Y+3434844D01*
X+2212692Y+3437650D01*
X+2202197Y+3438623D01*
X+2201601Y+3438626D01*
X+2138101Y+3375126D02*
X+2138318Y+3380373D01*
X+2140083Y+3390868D01*
X+2143775Y+3401363D01*
X+2149803Y+3411858D01*
X+2159025Y+3422238D01*
X+2169520Y+3429926D01*
X+2180015Y+3434844D01*
X+2190510Y+3437650D01*
X+2201005Y+3438623D01*
X+2201601Y+3438626D01*
X+2138101Y+3375126D02*
X+2138318Y+3369879D01*
X+2140083Y+3359384D01*
X+2143775Y+3348889D01*
X+2149803Y+3338394D01*
X+2159025Y+3328014D01*
X+2169520Y+3320326D01*
X+2180015Y+3315408D01*
X+2190510Y+3312602D01*
X+2201005Y+3311629D01*
X+2201601Y+3311626D01*
X+2265101Y+3375126D02*
X+2264884Y+3369879D01*
X+2263119Y+3359384D01*
X+2259427Y+3348889D01*
X+2253399Y+3338394D01*
X+2244177Y+3328014D01*
X+2233682Y+3320326D01*
X+2223187Y+3315408D01*
X+2212692Y+3312602D01*
X+2202197Y+3311629D01*
X+2201601Y+3311626D01*
X+2201601Y+3438626D02*
X+2201601Y+3311626D01*
X+2138101Y+3375126D02*
X+2265101Y+3375126D01*
X+2011101Y+3375126D02*
X+2010884Y+3380373D01*
X+2009119Y+3390868D01*
X+2005427Y+3401363D01*
X+1999399Y+3411858D01*
X+1990177Y+3422238D01*
X+1979682Y+3429926D01*
X+1969187Y+3434844D01*
X+1958692Y+3437650D01*
X+1948197Y+3438623D01*
X+1947601Y+3438626D01*
X+1884101Y+3375126D02*
X+1884318Y+3380373D01*
X+1886083Y+3390868D01*
X+1889775Y+3401363D01*
X+1895803Y+3411858D01*
X+1905025Y+3422238D01*
X+1915520Y+3429926D01*
X+1926015Y+3434844D01*
X+1936510Y+3437650D01*
X+1947005Y+3438623D01*
X+1947601Y+3438626D01*
X+1884101Y+3375126D02*
X+1884318Y+3369879D01*
X+1886083Y+3359384D01*
X+1889775Y+3348889D01*
X+1895803Y+3338394D01*
X+1905025Y+3328014D01*
X+1915520Y+3320326D01*
X+1926015Y+3315408D01*
X+1936510Y+3312602D01*
X+1947005Y+3311629D01*
X+1947601Y+3311626D01*
X+2011101Y+3375126D02*
X+2010884Y+3369879D01*
X+2009119Y+3359384D01*
X+2005427Y+3348889D01*
X+1999399Y+3338394D01*
X+1990177Y+3328014D01*
X+1979682Y+3320326D01*
X+1969187Y+3315408D01*
X+1958692Y+3312602D01*
X+1948197Y+3311629D01*
X+1947601Y+3311626D01*
X+1947601Y+3438626D02*
X+1947601Y+3311626D01*
X+1884101Y+3375126D02*
X+2011101Y+3375126D01*
X+1757101Y+3375126D02*
X+1756884Y+3380373D01*
X+1755119Y+3390868D01*
X+1751427Y+3401363D01*
X+1745399Y+3411858D01*
X+1736177Y+3422238D01*
X+1725682Y+3429926D01*
X+1715187Y+3434844D01*
X+1704692Y+3437650D01*
X+1694197Y+3438623D01*
X+1693601Y+3438626D01*
X+1630101Y+3375126D02*
X+1630318Y+3380373D01*
X+1632083Y+3390868D01*
X+1635775Y+3401363D01*
X+1641803Y+3411858D01*
X+1651025Y+3422238D01*
X+1661520Y+3429926D01*
X+1672015Y+3434844D01*
X+1682510Y+3437650D01*
X+1693005Y+3438623D01*
X+1693601Y+3438626D01*
X+1630101Y+3375126D02*
X+1630318Y+3369879D01*
X+1632083Y+3359384D01*
X+1635775Y+3348889D01*
X+1641803Y+3338394D01*
X+1651025Y+3328014D01*
X+1661520Y+3320326D01*
X+1672015Y+3315408D01*
X+1682510Y+3312602D01*
X+1693005Y+3311629D01*
X+1693601Y+3311626D01*
X+1757101Y+3375126D02*
X+1756884Y+3369879D01*
X+1755119Y+3359384D01*
X+1751427Y+3348889D01*
X+1745399Y+3338394D01*
X+1736177Y+3328014D01*
X+1725682Y+3320326D01*
X+1715187Y+3315408D01*
X+1704692Y+3312602D01*
X+1694197Y+3311629D01*
X+1693601Y+3311626D01*
X+1693601Y+3438626D02*
X+1693601Y+3311626D01*
X+1630101Y+3375126D02*
X+1757101Y+3375126D01*
X+1503101Y+3375126D02*
X+1502884Y+3380373D01*
X+1501119Y+3390868D01*
X+1497427Y+3401363D01*
X+1491399Y+3411858D01*
X+1482177Y+3422238D01*
X+1471682Y+3429926D01*
X+1461187Y+3434844D01*
X+1450692Y+3437650D01*
X+1440197Y+3438623D01*
X+1439601Y+3438626D01*
X+1376101Y+3375126D02*
X+1376318Y+3380373D01*
X+1378083Y+3390868D01*
X+1381775Y+3401363D01*
X+1387803Y+3411858D01*
X+1397025Y+3422238D01*
X+1407520Y+3429926D01*
X+1418015Y+3434844D01*
X+1428510Y+3437650D01*
X+1439005Y+3438623D01*
X+1439601Y+3438626D01*
X+1376101Y+3375126D02*
X+1376318Y+3369879D01*
X+1378083Y+3359384D01*
X+1381775Y+3348889D01*
X+1387803Y+3338394D01*
X+1397025Y+3328014D01*
X+1407520Y+3320326D01*
X+1418015Y+3315408D01*
X+1428510Y+3312602D01*
X+1439005Y+3311629D01*
X+1439601Y+3311626D01*
X+1503101Y+3375126D02*
X+1502884Y+3369879D01*
X+1501119Y+3359384D01*
X+1497427Y+3348889D01*
X+1491399Y+3338394D01*
X+1482177Y+3328014D01*
X+1471682Y+3320326D01*
X+1461187Y+3315408D01*
X+1450692Y+3312602D01*
X+1440197Y+3311629D01*
X+1439601Y+3311626D01*
X+1439601Y+3438626D02*
X+1439601Y+3311626D01*
X+1376101Y+3375126D02*
X+1503101Y+3375126D01*
X+1249101Y+3375126D02*
X+1248884Y+3380373D01*
X+1247119Y+3390868D01*
X+1243427Y+3401363D01*
X+1237399Y+3411858D01*
X+1228177Y+3422238D01*
X+1217682Y+3429926D01*
X+1207187Y+3434844D01*
X+1196692Y+3437650D01*
X+1186197Y+3438623D01*
X+1185601Y+3438626D01*
X+1122101Y+3375126D02*
X+1122318Y+3380373D01*
X+1124083Y+3390868D01*
X+1127775Y+3401363D01*
X+1133803Y+3411858D01*
X+1143025Y+3422238D01*
X+1153520Y+3429926D01*
X+1164015Y+3434844D01*
X+1174510Y+3437650D01*
X+1185005Y+3438623D01*
X+1185601Y+3438626D01*
X+1122101Y+3375126D02*
X+1122318Y+3369879D01*
X+1124083Y+3359384D01*
X+1127775Y+3348889D01*
X+1133803Y+3338394D01*
X+1143025Y+3328014D01*
X+1153520Y+3320326D01*
X+1164015Y+3315408D01*
X+1174510Y+3312602D01*
X+1185005Y+3311629D01*
X+1185601Y+3311626D01*
X+1249101Y+3375126D02*
X+1248884Y+3369879D01*
X+1247119Y+3359384D01*
X+1243427Y+3348889D01*
X+1237399Y+3338394D01*
X+1228177Y+3328014D01*
X+1217682Y+3320326D01*
X+1207187Y+3315408D01*
X+1196692Y+3312602D01*
X+1186197Y+3311629D01*
X+1185601Y+3311626D01*
X+1185601Y+3438626D02*
X+1185601Y+3311626D01*
X+1122101Y+3375126D02*
X+1249101Y+3375126D01*
X+995101Y+3375126D02*
X+994884Y+3380373D01*
X+993119Y+3390868D01*
X+989427Y+3401363D01*
X+983399Y+3411858D01*
X+974177Y+3422238D01*
X+963682Y+3429926D01*
X+953187Y+3434844D01*
X+942692Y+3437650D01*
X+932197Y+3438623D01*
X+931601Y+3438626D01*
X+868101Y+3375126D02*
X+868318Y+3380373D01*
X+870083Y+3390868D01*
X+873775Y+3401363D01*
X+879803Y+3411858D01*
X+889025Y+3422238D01*
X+899520Y+3429926D01*
X+910015Y+3434844D01*
X+920510Y+3437650D01*
X+931005Y+3438623D01*
X+931601Y+3438626D01*
X+868101Y+3375126D02*
X+868318Y+3369879D01*
X+870083Y+3359384D01*
X+873775Y+3348889D01*
X+879803Y+3338394D01*
X+889025Y+3328014D01*
X+899520Y+3320326D01*
X+910015Y+3315408D01*
X+920510Y+3312602D01*
X+931005Y+3311629D01*
X+931601Y+3311626D01*
X+995101Y+3375126D02*
X+994884Y+3369879D01*
X+993119Y+3359384D01*
X+989427Y+3348889D01*
X+983399Y+3338394D01*
X+974177Y+3328014D01*
X+963682Y+3320326D01*
X+953187Y+3315408D01*
X+942692Y+3312602D01*
X+932197Y+3311629D01*
X+931601Y+3311626D01*
X+931601Y+3438626D02*
X+931601Y+3311626D01*
X+868101Y+3375126D02*
X+995101Y+3375126D01*
X+741101Y+3375126D02*
X+740884Y+3380373D01*
X+739119Y+3390868D01*
X+735427Y+3401363D01*
X+729399Y+3411858D01*
X+720177Y+3422238D01*
X+709682Y+3429926D01*
X+699187Y+3434844D01*
X+688692Y+3437650D01*
X+678197Y+3438623D01*
X+677601Y+3438626D01*
X+614101Y+3375126D02*
X+614318Y+3380373D01*
X+616083Y+3390868D01*
X+619775Y+3401363D01*
X+625803Y+3411858D01*
X+635025Y+3422238D01*
X+645520Y+3429926D01*
X+656015Y+3434844D01*
X+666510Y+3437650D01*
X+677005Y+3438623D01*
X+677601Y+3438626D01*
X+614101Y+3375126D02*
X+614318Y+3369879D01*
X+616083Y+3359384D01*
X+619775Y+3348889D01*
X+625803Y+3338394D01*
X+635025Y+3328014D01*
X+645520Y+3320326D01*
X+656015Y+3315408D01*
X+666510Y+3312602D01*
X+677005Y+3311629D01*
X+677601Y+3311626D01*
X+741101Y+3375126D02*
X+740884Y+3369879D01*
X+739119Y+3359384D01*
X+735427Y+3348889D01*
X+729399Y+3338394D01*
X+720177Y+3328014D01*
X+709682Y+3320326D01*
X+699187Y+3315408D01*
X+688692Y+3312602D01*
X+678197Y+3311629D01*
X+677601Y+3311626D01*
X+677601Y+3438626D02*
X+677601Y+3311626D01*
X+614101Y+3375126D02*
X+741101Y+3375126D01*
X+489101Y+3375126D02*
X+488884Y+3380373D01*
X+487119Y+3390868D01*
X+483427Y+3401363D01*
X+477399Y+3411858D01*
X+468177Y+3422238D01*
X+457682Y+3429926D01*
X+447187Y+3434844D01*
X+436692Y+3437650D01*
X+426197Y+3438623D01*
X+425601Y+3438626D01*
X+362101Y+3375126D02*
X+362318Y+3380373D01*
X+364083Y+3390868D01*
X+367775Y+3401363D01*
X+373803Y+3411858D01*
X+383025Y+3422238D01*
X+393520Y+3429926D01*
X+404015Y+3434844D01*
X+414510Y+3437650D01*
X+425005Y+3438623D01*
X+425601Y+3438626D01*
X+362101Y+3375126D02*
X+362318Y+3369879D01*
X+364083Y+3359384D01*
X+367775Y+3348889D01*
X+373803Y+3338394D01*
X+383025Y+3328014D01*
X+393520Y+3320326D01*
X+404015Y+3315408D01*
X+414510Y+3312602D01*
X+425005Y+3311629D01*
X+425601Y+3311626D01*
X+489101Y+3375126D02*
X+488884Y+3369879D01*
X+487119Y+3359384D01*
X+483427Y+3348889D01*
X+477399Y+3338394D01*
X+468177Y+3328014D01*
X+457682Y+3320326D01*
X+447187Y+3315408D01*
X+436692Y+3312602D01*
X+426197Y+3311629D01*
X+425601Y+3311626D01*
X+425601Y+3438626D02*
X+425601Y+3311626D01*
X+362101Y+3375126D02*
X+489101Y+3375126D01*
X+2173101Y+6263126D02*
X+2172884Y+6268373D01*
X+2171119Y+6278868D01*
X+2167427Y+6289363D01*
X+2161399Y+6299858D01*
X+2152177Y+6310238D01*
X+2141682Y+6317926D01*
X+2131187Y+6322844D01*
X+2120692Y+6325650D01*
X+2110197Y+6326623D01*
X+2109601Y+6326626D01*
X+2046101Y+6263126D02*
X+2046318Y+6268373D01*
X+2048083Y+6278868D01*
X+2051775Y+6289363D01*
X+2057803Y+6299858D01*
X+2067025Y+6310238D01*
X+2077520Y+6317926D01*
X+2088015Y+6322844D01*
X+2098510Y+6325650D01*
X+2109005Y+6326623D01*
X+2109601Y+6326626D01*
X+2046101Y+6263126D02*
X+2046318Y+6257879D01*
X+2048083Y+6247384D01*
X+2051775Y+6236889D01*
X+2057803Y+6226394D01*
X+2067025Y+6216014D01*
X+2077520Y+6208326D01*
X+2088015Y+6203408D01*
X+2098510Y+6200602D01*
X+2109005Y+6199629D01*
X+2109601Y+6199626D01*
X+2173101Y+6263126D02*
X+2172884Y+6257879D01*
X+2171119Y+6247384D01*
X+2167427Y+6236889D01*
X+2161399Y+6226394D01*
X+2152177Y+6216014D01*
X+2141682Y+6208326D01*
X+2131187Y+6203408D01*
X+2120692Y+6200602D01*
X+2110197Y+6199629D01*
X+2109601Y+6199626D01*
X+2064700Y+6308027D02*
X+2154502Y+6218225D01*
X+2064700Y+6218225D02*
X+2154502Y+6308027D01*
X+2427101Y+6263126D02*
X+2426884Y+6268373D01*
X+2425119Y+6278868D01*
X+2421427Y+6289363D01*
X+2415399Y+6299858D01*
X+2406177Y+6310238D01*
X+2395682Y+6317926D01*
X+2385187Y+6322844D01*
X+2374692Y+6325650D01*
X+2364197Y+6326623D01*
X+2363601Y+6326626D01*
X+2300101Y+6263126D02*
X+2300318Y+6268373D01*
X+2302083Y+6278868D01*
X+2305775Y+6289363D01*
X+2311803Y+6299858D01*
X+2321025Y+6310238D01*
X+2331520Y+6317926D01*
X+2342015Y+6322844D01*
X+2352510Y+6325650D01*
X+2363005Y+6326623D01*
X+2363601Y+6326626D01*
X+2300101Y+6263126D02*
X+2300318Y+6257879D01*
X+2302083Y+6247384D01*
X+2305775Y+6236889D01*
X+2311803Y+6226394D01*
X+2321025Y+6216014D01*
X+2331520Y+6208326D01*
X+2342015Y+6203408D01*
X+2352510Y+6200602D01*
X+2363005Y+6199629D01*
X+2363601Y+6199626D01*
X+2427101Y+6263126D02*
X+2426884Y+6257879D01*
X+2425119Y+6247384D01*
X+2421427Y+6236889D01*
X+2415399Y+6226394D01*
X+2406177Y+6216014D01*
X+2395682Y+6208326D01*
X+2385187Y+6203408D01*
X+2374692Y+6200602D01*
X+2364197Y+6199629D01*
X+2363601Y+6199626D01*
X+2318700Y+6308027D02*
X+2408502Y+6218225D01*
X+2318700Y+6218225D02*
X+2408502Y+6308027D01*
X+2681101Y+6263126D02*
X+2680884Y+6268373D01*
X+2679119Y+6278868D01*
X+2675427Y+6289363D01*
X+2669399Y+6299858D01*
X+2660177Y+6310238D01*
X+2649682Y+6317926D01*
X+2639187Y+6322844D01*
X+2628692Y+6325650D01*
X+2618197Y+6326623D01*
X+2617601Y+6326626D01*
X+2554101Y+6263126D02*
X+2554318Y+6268373D01*
X+2556083Y+6278868D01*
X+2559775Y+6289363D01*
X+2565803Y+6299858D01*
X+2575025Y+6310238D01*
X+2585520Y+6317926D01*
X+2596015Y+6322844D01*
X+2606510Y+6325650D01*
X+2617005Y+6326623D01*
X+2617601Y+6326626D01*
X+2554101Y+6263126D02*
X+2554318Y+6257879D01*
X+2556083Y+6247384D01*
X+2559775Y+6236889D01*
X+2565803Y+6226394D01*
X+2575025Y+6216014D01*
X+2585520Y+6208326D01*
X+2596015Y+6203408D01*
X+2606510Y+6200602D01*
X+2617005Y+6199629D01*
X+2617601Y+6199626D01*
X+2681101Y+6263126D02*
X+2680884Y+6257879D01*
X+2679119Y+6247384D01*
X+2675427Y+6236889D01*
X+2669399Y+6226394D01*
X+2660177Y+6216014D01*
X+2649682Y+6208326D01*
X+2639187Y+6203408D01*
X+2628692Y+6200602D01*
X+2618197Y+6199629D01*
X+2617601Y+6199626D01*
X+2572700Y+6308027D02*
X+2662502Y+6218225D01*
X+2572700Y+6218225D02*
X+2662502Y+6308027D01*
X+2427101Y+6813126D02*
X+2426884Y+6818373D01*
X+2425119Y+6828868D01*
X+2421427Y+6839363D01*
X+2415399Y+6849858D01*
X+2406177Y+6860238D01*
X+2395682Y+6867926D01*
X+2385187Y+6872844D01*
X+2374692Y+6875650D01*
X+2364197Y+6876623D01*
X+2363601Y+6876626D01*
X+2300101Y+6813126D02*
X+2300318Y+6818373D01*
X+2302083Y+6828868D01*
X+2305775Y+6839363D01*
X+2311803Y+6849858D01*
X+2321025Y+6860238D01*
X+2331520Y+6867926D01*
X+2342015Y+6872844D01*
X+2352510Y+6875650D01*
X+2363005Y+6876623D01*
X+2363601Y+6876626D01*
X+2300101Y+6813126D02*
X+2300318Y+6807879D01*
X+2302083Y+6797384D01*
X+2305775Y+6786889D01*
X+2311803Y+6776394D01*
X+2321025Y+6766014D01*
X+2331520Y+6758326D01*
X+2342015Y+6753408D01*
X+2352510Y+6750602D01*
X+2363005Y+6749629D01*
X+2363601Y+6749626D01*
X+2427101Y+6813126D02*
X+2426884Y+6807879D01*
X+2425119Y+6797384D01*
X+2421427Y+6786889D01*
X+2415399Y+6776394D01*
X+2406177Y+6766014D01*
X+2395682Y+6758326D01*
X+2385187Y+6753408D01*
X+2374692Y+6750602D01*
X+2364197Y+6749629D01*
X+2363601Y+6749626D01*
X+2318700Y+6858027D02*
X+2408502Y+6768225D01*
X+2318700Y+6768225D02*
X+2408502Y+6858027D01*
X+3443101Y+6813126D02*
X+3442884Y+6818373D01*
X+3441119Y+6828868D01*
X+3437427Y+6839363D01*
X+3431399Y+6849858D01*
X+3422177Y+6860238D01*
X+3411682Y+6867926D01*
X+3401187Y+6872844D01*
X+3390692Y+6875650D01*
X+3380197Y+6876623D01*
X+3379601Y+6876626D01*
X+3316101Y+6813126D02*
X+3316318Y+6818373D01*
X+3318083Y+6828868D01*
X+3321775Y+6839363D01*
X+3327803Y+6849858D01*
X+3337025Y+6860238D01*
X+3347520Y+6867926D01*
X+3358015Y+6872844D01*
X+3368510Y+6875650D01*
X+3379005Y+6876623D01*
X+3379601Y+6876626D01*
X+3316101Y+6813126D02*
X+3316318Y+6807879D01*
X+3318083Y+6797384D01*
X+3321775Y+6786889D01*
X+3327803Y+6776394D01*
X+3337025Y+6766014D01*
X+3347520Y+6758326D01*
X+3358015Y+6753408D01*
X+3368510Y+6750602D01*
X+3379005Y+6749629D01*
X+3379601Y+6749626D01*
X+3443101Y+6813126D02*
X+3442884Y+6807879D01*
X+3441119Y+6797384D01*
X+3437427Y+6786889D01*
X+3431399Y+6776394D01*
X+3422177Y+6766014D01*
X+3411682Y+6758326D01*
X+3401187Y+6753408D01*
X+3390692Y+6750602D01*
X+3380197Y+6749629D01*
X+3379601Y+6749626D01*
X+3334700Y+6858027D02*
X+3424502Y+6768225D01*
X+3334700Y+6768225D02*
X+3424502Y+6858027D01*
X+5277101Y+7013126D02*
X+5276884Y+7018373D01*
X+5275119Y+7028868D01*
X+5271427Y+7039363D01*
X+5265399Y+7049858D01*
X+5256177Y+7060238D01*
X+5245682Y+7067926D01*
X+5235187Y+7072844D01*
X+5224692Y+7075650D01*
X+5214197Y+7076623D01*
X+5213601Y+7076626D01*
X+5150101Y+7013126D02*
X+5150318Y+7018373D01*
X+5152083Y+7028868D01*
X+5155775Y+7039363D01*
X+5161803Y+7049858D01*
X+5171025Y+7060238D01*
X+5181520Y+7067926D01*
X+5192015Y+7072844D01*
X+5202510Y+7075650D01*
X+5213005Y+7076623D01*
X+5213601Y+7076626D01*
X+5150101Y+7013126D02*
X+5150318Y+7007879D01*
X+5152083Y+6997384D01*
X+5155775Y+6986889D01*
X+5161803Y+6976394D01*
X+5171025Y+6966014D01*
X+5181520Y+6958326D01*
X+5192015Y+6953408D01*
X+5202510Y+6950602D01*
X+5213005Y+6949629D01*
X+5213601Y+6949626D01*
X+5277101Y+7013126D02*
X+5276884Y+7007879D01*
X+5275119Y+6997384D01*
X+5271427Y+6986889D01*
X+5265399Y+6976394D01*
X+5256177Y+6966014D01*
X+5245682Y+6958326D01*
X+5235187Y+6953408D01*
X+5224692Y+6950602D01*
X+5214197Y+6949629D01*
X+5213601Y+6949626D01*
X+5168700Y+7058027D02*
X+5258502Y+6968225D01*
X+5168700Y+6968225D02*
X+5258502Y+7058027D01*
X+5023101Y+7013126D02*
X+5022884Y+7018373D01*
X+5021119Y+7028868D01*
X+5017427Y+7039363D01*
X+5011399Y+7049858D01*
X+5002177Y+7060238D01*
X+4991682Y+7067926D01*
X+4981187Y+7072844D01*
X+4970692Y+7075650D01*
X+4960197Y+7076623D01*
X+4959601Y+7076626D01*
X+4896101Y+7013126D02*
X+4896318Y+7018373D01*
X+4898083Y+7028868D01*
X+4901775Y+7039363D01*
X+4907803Y+7049858D01*
X+4917025Y+7060238D01*
X+4927520Y+7067926D01*
X+4938015Y+7072844D01*
X+4948510Y+7075650D01*
X+4959005Y+7076623D01*
X+4959601Y+7076626D01*
X+4896101Y+7013126D02*
X+4896318Y+7007879D01*
X+4898083Y+6997384D01*
X+4901775Y+6986889D01*
X+4907803Y+6976394D01*
X+4917025Y+6966014D01*
X+4927520Y+6958326D01*
X+4938015Y+6953408D01*
X+4948510Y+6950602D01*
X+4959005Y+6949629D01*
X+4959601Y+6949626D01*
X+5023101Y+7013126D02*
X+5022884Y+7007879D01*
X+5021119Y+6997384D01*
X+5017427Y+6986889D01*
X+5011399Y+6976394D01*
X+5002177Y+6966014D01*
X+4991682Y+6958326D01*
X+4981187Y+6953408D01*
X+4970692Y+6950602D01*
X+4960197Y+6949629D01*
X+4959601Y+6949626D01*
X+4914700Y+7058027D02*
X+5004502Y+6968225D01*
X+4914700Y+6968225D02*
X+5004502Y+7058027D01*
X+2568700Y+5608027D02*
X+2658502Y+5518225D01*
X+2568700Y+5518225D02*
X+2658502Y+5608027D01*
X+2568700Y+5108027D02*
X+2658502Y+5018225D01*
X+2568700Y+5018225D02*
X+2658502Y+5108027D01*
X+1563601Y+5301626D02*
X+1563601Y+5174626D01*
X+1500101Y+5238126D02*
X+1627101Y+5238126D01*
X+1563601Y+5151626D02*
X+1563601Y+5024626D01*
X+1500101Y+5088126D02*
X+1627101Y+5088126D01*
X+3477101Y+6263126D02*
X+3476884Y+6268373D01*
X+3475119Y+6278868D01*
X+3471427Y+6289363D01*
X+3465399Y+6299858D01*
X+3456177Y+6310238D01*
X+3445682Y+6317926D01*
X+3435187Y+6322844D01*
X+3424692Y+6325650D01*
X+3414197Y+6326623D01*
X+3413601Y+6326626D01*
X+3350101Y+6263126D02*
X+3350318Y+6268373D01*
X+3352083Y+6278868D01*
X+3355775Y+6289363D01*
X+3361803Y+6299858D01*
X+3371025Y+6310238D01*
X+3381520Y+6317926D01*
X+3392015Y+6322844D01*
X+3402510Y+6325650D01*
X+3413005Y+6326623D01*
X+3413601Y+6326626D01*
X+3350101Y+6263126D02*
X+3350318Y+6257879D01*
X+3352083Y+6247384D01*
X+3355775Y+6236889D01*
X+3361803Y+6226394D01*
X+3371025Y+6216014D01*
X+3381520Y+6208326D01*
X+3392015Y+6203408D01*
X+3402510Y+6200602D01*
X+3413005Y+6199629D01*
X+3413601Y+6199626D01*
X+3477101Y+6263126D02*
X+3476884Y+6257879D01*
X+3475119Y+6247384D01*
X+3471427Y+6236889D01*
X+3465399Y+6226394D01*
X+3456177Y+6216014D01*
X+3445682Y+6208326D01*
X+3435187Y+6203408D01*
X+3424692Y+6200602D01*
X+3414197Y+6199629D01*
X+3413601Y+6199626D01*
X+3368700Y+6308027D02*
X+3458502Y+6218225D01*
X+3368700Y+6218225D02*
X+3458502Y+6308027D01*
X+3223101Y+6263126D02*
X+3222884Y+6268373D01*
X+3221119Y+6278868D01*
X+3217427Y+6289363D01*
X+3211399Y+6299858D01*
X+3202177Y+6310238D01*
X+3191682Y+6317926D01*
X+3181187Y+6322844D01*
X+3170692Y+6325650D01*
X+3160197Y+6326623D01*
X+3159601Y+6326626D01*
X+3096101Y+6263126D02*
X+3096318Y+6268373D01*
X+3098083Y+6278868D01*
X+3101775Y+6289363D01*
X+3107803Y+6299858D01*
X+3117025Y+6310238D01*
X+3127520Y+6317926D01*
X+3138015Y+6322844D01*
X+3148510Y+6325650D01*
X+3159005Y+6326623D01*
X+3159601Y+6326626D01*
X+3096101Y+6263126D02*
X+3096318Y+6257879D01*
X+3098083Y+6247384D01*
X+3101775Y+6236889D01*
X+3107803Y+6226394D01*
X+3117025Y+6216014D01*
X+3127520Y+6208326D01*
X+3138015Y+6203408D01*
X+3148510Y+6200602D01*
X+3159005Y+6199629D01*
X+3159601Y+6199626D01*
X+3223101Y+6263126D02*
X+3222884Y+6257879D01*
X+3221119Y+6247384D01*
X+3217427Y+6236889D01*
X+3211399Y+6226394D01*
X+3202177Y+6216014D01*
X+3191682Y+6208326D01*
X+3181187Y+6203408D01*
X+3170692Y+6200602D01*
X+3160197Y+6199629D01*
X+3159601Y+6199626D01*
X+3114700Y+6308027D02*
X+3204502Y+6218225D01*
X+3114700Y+6218225D02*
X+3204502Y+6308027D01*
X+3813601Y+5851626D02*
X+3813601Y+5724626D01*
X+3750101Y+5788126D02*
X+3877101Y+5788126D01*
X+3813601Y+6001626D02*
X+3813601Y+5874626D01*
X+3750101Y+5938126D02*
X+3877101Y+5938126D01*
X+3738601Y+4776626D02*
X+3738601Y+4649626D01*
X+3675101Y+4713126D02*
X+3802101Y+4713126D01*
X+3588601Y+4776626D02*
X+3588601Y+4649626D01*
X+3525101Y+4713126D02*
X+3652101Y+4713126D01*
X+6077101Y+6613126D02*
X+6076884Y+6618373D01*
X+6075119Y+6628868D01*
X+6071427Y+6639363D01*
X+6065399Y+6649858D01*
X+6056177Y+6660238D01*
X+6045682Y+6667926D01*
X+6035187Y+6672844D01*
X+6024692Y+6675650D01*
X+6014197Y+6676623D01*
X+6013601Y+6676626D01*
X+5950101Y+6613126D02*
X+5950318Y+6618373D01*
X+5952083Y+6628868D01*
X+5955775Y+6639363D01*
X+5961803Y+6649858D01*
X+5971025Y+6660238D01*
X+5981520Y+6667926D01*
X+5992015Y+6672844D01*
X+6002510Y+6675650D01*
X+6013005Y+6676623D01*
X+6013601Y+6676626D01*
X+5950101Y+6613126D02*
X+5950318Y+6607879D01*
X+5952083Y+6597384D01*
X+5955775Y+6586889D01*
X+5961803Y+6576394D01*
X+5971025Y+6566014D01*
X+5981520Y+6558326D01*
X+5992015Y+6553408D01*
X+6002510Y+6550602D01*
X+6013005Y+6549629D01*
X+6013601Y+6549626D01*
X+6077101Y+6613126D02*
X+6076884Y+6607879D01*
X+6075119Y+6597384D01*
X+6071427Y+6586889D01*
X+6065399Y+6576394D01*
X+6056177Y+6566014D01*
X+6045682Y+6558326D01*
X+6035187Y+6553408D01*
X+6024692Y+6550602D01*
X+6014197Y+6549629D01*
X+6013601Y+6549626D01*
X+6013601Y+6676626D02*
X+6013601Y+6549626D01*
X+5950101Y+6613126D02*
X+6077101Y+6613126D01*
X+4277101Y+6613126D02*
X+4276884Y+6618373D01*
X+4275119Y+6628868D01*
X+4271427Y+6639363D01*
X+4265399Y+6649858D01*
X+4256177Y+6660238D01*
X+4245682Y+6667926D01*
X+4235187Y+6672844D01*
X+4224692Y+6675650D01*
X+4214197Y+6676623D01*
X+4213601Y+6676626D01*
X+4150101Y+6613126D02*
X+4150318Y+6618373D01*
X+4152083Y+6628868D01*
X+4155775Y+6639363D01*
X+4161803Y+6649858D01*
X+4171025Y+6660238D01*
X+4181520Y+6667926D01*
X+4192015Y+6672844D01*
X+4202510Y+6675650D01*
X+4213005Y+6676623D01*
X+4213601Y+6676626D01*
X+4150101Y+6613126D02*
X+4150318Y+6607879D01*
X+4152083Y+6597384D01*
X+4155775Y+6586889D01*
X+4161803Y+6576394D01*
X+4171025Y+6566014D01*
X+4181520Y+6558326D01*
X+4192015Y+6553408D01*
X+4202510Y+6550602D01*
X+4213005Y+6549629D01*
X+4213601Y+6549626D01*
X+4277101Y+6613126D02*
X+4276884Y+6607879D01*
X+4275119Y+6597384D01*
X+4271427Y+6586889D01*
X+4265399Y+6576394D01*
X+4256177Y+6566014D01*
X+4245682Y+6558326D01*
X+4235187Y+6553408D01*
X+4224692Y+6550602D01*
X+4214197Y+6549629D01*
X+4213601Y+6549626D01*
X+4213601Y+6676626D02*
X+4213601Y+6549626D01*
X+4150101Y+6613126D02*
X+4277101Y+6613126D01*
X+6077101Y+2613126D02*
X+6076884Y+2618373D01*
X+6075119Y+2628868D01*
X+6071427Y+2639363D01*
X+6065399Y+2649858D01*
X+6056177Y+2660238D01*
X+6045682Y+2667926D01*
X+6035187Y+2672844D01*
X+6024692Y+2675650D01*
X+6014197Y+2676623D01*
X+6013601Y+2676626D01*
X+5950101Y+2613126D02*
X+5950318Y+2618373D01*
X+5952083Y+2628868D01*
X+5955775Y+2639363D01*
X+5961803Y+2649858D01*
X+5971025Y+2660238D01*
X+5981520Y+2667926D01*
X+5992015Y+2672844D01*
X+6002510Y+2675650D01*
X+6013005Y+2676623D01*
X+6013601Y+2676626D01*
X+5950101Y+2613126D02*
X+5950318Y+2607879D01*
X+5952083Y+2597384D01*
X+5955775Y+2586889D01*
X+5961803Y+2576394D01*
X+5971025Y+2566014D01*
X+5981520Y+2558326D01*
X+5992015Y+2553408D01*
X+6002510Y+2550602D01*
X+6013005Y+2549629D01*
X+6013601Y+2549626D01*
X+6077101Y+2613126D02*
X+6076884Y+2607879D01*
X+6075119Y+2597384D01*
X+6071427Y+2586889D01*
X+6065399Y+2576394D01*
X+6056177Y+2566014D01*
X+6045682Y+2558326D01*
X+6035187Y+2553408D01*
X+6024692Y+2550602D01*
X+6014197Y+2549629D01*
X+6013601Y+2549626D01*
X+6013601Y+2676626D02*
X+6013601Y+2549626D01*
X+5950101Y+2613126D02*
X+6077101Y+2613126D01*
X+4277101Y+2613126D02*
X+4276884Y+2618373D01*
X+4275119Y+2628868D01*
X+4271427Y+2639363D01*
X+4265399Y+2649858D01*
X+4256177Y+2660238D01*
X+4245682Y+2667926D01*
X+4235187Y+2672844D01*
X+4224692Y+2675650D01*
X+4214197Y+2676623D01*
X+4213601Y+2676626D01*
X+4150101Y+2613126D02*
X+4150318Y+2618373D01*
X+4152083Y+2628868D01*
X+4155775Y+2639363D01*
X+4161803Y+2649858D01*
X+4171025Y+2660238D01*
X+4181520Y+2667926D01*
X+4192015Y+2672844D01*
X+4202510Y+2675650D01*
X+4213005Y+2676623D01*
X+4213601Y+2676626D01*
X+4150101Y+2613126D02*
X+4150318Y+2607879D01*
X+4152083Y+2597384D01*
X+4155775Y+2586889D01*
X+4161803Y+2576394D01*
X+4171025Y+2566014D01*
X+4181520Y+2558326D01*
X+4192015Y+2553408D01*
X+4202510Y+2550602D01*
X+4213005Y+2549629D01*
X+4213601Y+2549626D01*
X+4277101Y+2613126D02*
X+4276884Y+2607879D01*
X+4275119Y+2597384D01*
X+4271427Y+2586889D01*
X+4265399Y+2576394D01*
X+4256177Y+2566014D01*
X+4245682Y+2558326D01*
X+4235187Y+2553408D01*
X+4224692Y+2550602D01*
X+4214197Y+2549629D01*
X+4213601Y+2549626D01*
X+4213601Y+2676626D02*
X+4213601Y+2549626D01*
X+4150101Y+2613126D02*
X+4277101Y+2613126D01*
X+2411101Y+2063126D02*
X+2410884Y+2068373D01*
X+2409119Y+2078868D01*
X+2405427Y+2089363D01*
X+2399399Y+2099858D01*
X+2390177Y+2110238D01*
X+2379682Y+2117926D01*
X+2369187Y+2122844D01*
X+2358692Y+2125650D01*
X+2348197Y+2126623D01*
X+2347601Y+2126626D01*
X+2284101Y+2063126D02*
X+2284318Y+2068373D01*
X+2286083Y+2078868D01*
X+2289775Y+2089363D01*
X+2295803Y+2099858D01*
X+2305025Y+2110238D01*
X+2315520Y+2117926D01*
X+2326015Y+2122844D01*
X+2336510Y+2125650D01*
X+2347005Y+2126623D01*
X+2347601Y+2126626D01*
X+2284101Y+2063126D02*
X+2284318Y+2057879D01*
X+2286083Y+2047384D01*
X+2289775Y+2036889D01*
X+2295803Y+2026394D01*
X+2305025Y+2016014D01*
X+2315520Y+2008326D01*
X+2326015Y+2003408D01*
X+2336510Y+2000602D01*
X+2347005Y+1999629D01*
X+2347601Y+1999626D01*
X+2411101Y+2063126D02*
X+2410884Y+2057879D01*
X+2409119Y+2047384D01*
X+2405427Y+2036889D01*
X+2399399Y+2026394D01*
X+2390177Y+2016014D01*
X+2379682Y+2008326D01*
X+2369187Y+2003408D01*
X+2358692Y+2000602D01*
X+2348197Y+1999629D01*
X+2347601Y+1999626D01*
X+2347601Y+2126626D02*
X+2347601Y+1999626D01*
X+2284101Y+2063126D02*
X+2411101Y+2063126D01*
X+2919101Y+2063126D02*
X+2918884Y+2068373D01*
X+2917119Y+2078868D01*
X+2913427Y+2089363D01*
X+2907399Y+2099858D01*
X+2898177Y+2110238D01*
X+2887682Y+2117926D01*
X+2877187Y+2122844D01*
X+2866692Y+2125650D01*
X+2856197Y+2126623D01*
X+2855601Y+2126626D01*
X+2792101Y+2063126D02*
X+2792318Y+2068373D01*
X+2794083Y+2078868D01*
X+2797775Y+2089363D01*
X+2803803Y+2099858D01*
X+2813025Y+2110238D01*
X+2823520Y+2117926D01*
X+2834015Y+2122844D01*
X+2844510Y+2125650D01*
X+2855005Y+2126623D01*
X+2855601Y+2126626D01*
X+2792101Y+2063126D02*
X+2792318Y+2057879D01*
X+2794083Y+2047384D01*
X+2797775Y+2036889D01*
X+2803803Y+2026394D01*
X+2813025Y+2016014D01*
X+2823520Y+2008326D01*
X+2834015Y+2003408D01*
X+2844510Y+2000602D01*
X+2855005Y+1999629D01*
X+2855601Y+1999626D01*
X+2919101Y+2063126D02*
X+2918884Y+2057879D01*
X+2917119Y+2047384D01*
X+2913427Y+2036889D01*
X+2907399Y+2026394D01*
X+2898177Y+2016014D01*
X+2887682Y+2008326D01*
X+2877187Y+2003408D01*
X+2866692Y+2000602D01*
X+2856197Y+1999629D01*
X+2855601Y+1999626D01*
X+2855601Y+2126626D02*
X+2855601Y+1999626D01*
X+2792101Y+2063126D02*
X+2919101Y+2063126D01*
X+2411101Y+1563126D02*
X+2410884Y+1568373D01*
X+2409119Y+1578868D01*
X+2405427Y+1589363D01*
X+2399399Y+1599858D01*
X+2390177Y+1610238D01*
X+2379682Y+1617926D01*
X+2369187Y+1622844D01*
X+2358692Y+1625650D01*
X+2348197Y+1626623D01*
X+2347601Y+1626626D01*
X+2284101Y+1563126D02*
X+2284318Y+1568373D01*
X+2286083Y+1578868D01*
X+2289775Y+1589363D01*
X+2295803Y+1599858D01*
X+2305025Y+1610238D01*
X+2315520Y+1617926D01*
X+2326015Y+1622844D01*
X+2336510Y+1625650D01*
X+2347005Y+1626623D01*
X+2347601Y+1626626D01*
X+2284101Y+1563126D02*
X+2284318Y+1557879D01*
X+2286083Y+1547384D01*
X+2289775Y+1536889D01*
X+2295803Y+1526394D01*
X+2305025Y+1516014D01*
X+2315520Y+1508326D01*
X+2326015Y+1503408D01*
X+2336510Y+1500602D01*
X+2347005Y+1499629D01*
X+2347601Y+1499626D01*
X+2411101Y+1563126D02*
X+2410884Y+1557879D01*
X+2409119Y+1547384D01*
X+2405427Y+1536889D01*
X+2399399Y+1526394D01*
X+2390177Y+1516014D01*
X+2379682Y+1508326D01*
X+2369187Y+1503408D01*
X+2358692Y+1500602D01*
X+2348197Y+1499629D01*
X+2347601Y+1499626D01*
X+2347601Y+1626626D02*
X+2347601Y+1499626D01*
X+2284101Y+1563126D02*
X+2411101Y+1563126D01*
X+2411101Y+1055126D02*
X+2410884Y+1060373D01*
X+2409119Y+1070868D01*
X+2405427Y+1081363D01*
X+2399399Y+1091858D01*
X+2390177Y+1102238D01*
X+2379682Y+1109926D01*
X+2369187Y+1114844D01*
X+2358692Y+1117650D01*
X+2348197Y+1118623D01*
X+2347601Y+1118626D01*
X+2284101Y+1055126D02*
X+2284318Y+1060373D01*
X+2286083Y+1070868D01*
X+2289775Y+1081363D01*
X+2295803Y+1091858D01*
X+2305025Y+1102238D01*
X+2315520Y+1109926D01*
X+2326015Y+1114844D01*
X+2336510Y+1117650D01*
X+2347005Y+1118623D01*
X+2347601Y+1118626D01*
X+2284101Y+1055126D02*
X+2284318Y+1049879D01*
X+2286083Y+1039384D01*
X+2289775Y+1028889D01*
X+2295803Y+1018394D01*
X+2305025Y+1008014D01*
X+2315520Y+1000326D01*
X+2326015Y+995408D01*
X+2336510Y+992602D01*
X+2347005Y+991629D01*
X+2347601Y+991626D01*
X+2411101Y+1055126D02*
X+2410884Y+1049879D01*
X+2409119Y+1039384D01*
X+2405427Y+1028889D01*
X+2399399Y+1018394D01*
X+2390177Y+1008014D01*
X+2379682Y+1000326D01*
X+2369187Y+995408D01*
X+2358692Y+992602D01*
X+2348197Y+991629D01*
X+2347601Y+991626D01*
X+2347601Y+1118626D02*
X+2347601Y+991626D01*
X+2284101Y+1055126D02*
X+2411101Y+1055126D01*
X+2911101Y+1563126D02*
X+2910884Y+1568373D01*
X+2909119Y+1578868D01*
X+2905427Y+1589363D01*
X+2899399Y+1599858D01*
X+2890177Y+1610238D01*
X+2879682Y+1617926D01*
X+2869187Y+1622844D01*
X+2858692Y+1625650D01*
X+2848197Y+1626623D01*
X+2847601Y+1626626D01*
X+2784101Y+1563126D02*
X+2784318Y+1568373D01*
X+2786083Y+1578868D01*
X+2789775Y+1589363D01*
X+2795803Y+1599858D01*
X+2805025Y+1610238D01*
X+2815520Y+1617926D01*
X+2826015Y+1622844D01*
X+2836510Y+1625650D01*
X+2847005Y+1626623D01*
X+2847601Y+1626626D01*
X+2784101Y+1563126D02*
X+2784318Y+1557879D01*
X+2786083Y+1547384D01*
X+2789775Y+1536889D01*
X+2795803Y+1526394D01*
X+2805025Y+1516014D01*
X+2815520Y+1508326D01*
X+2826015Y+1503408D01*
X+2836510Y+1500602D01*
X+2847005Y+1499629D01*
X+2847601Y+1499626D01*
X+2911101Y+1563126D02*
X+2910884Y+1557879D01*
X+2909119Y+1547384D01*
X+2905427Y+1536889D01*
X+2899399Y+1526394D01*
X+2890177Y+1516014D01*
X+2879682Y+1508326D01*
X+2869187Y+1503408D01*
X+2858692Y+1500602D01*
X+2848197Y+1499629D01*
X+2847601Y+1499626D01*
X+2847601Y+1626626D02*
X+2847601Y+1499626D01*
X+2784101Y+1563126D02*
X+2911101Y+1563126D01*
X+2911101Y+1055126D02*
X+2910884Y+1060373D01*
X+2909119Y+1070868D01*
X+2905427Y+1081363D01*
X+2899399Y+1091858D01*
X+2890177Y+1102238D01*
X+2879682Y+1109926D01*
X+2869187Y+1114844D01*
X+2858692Y+1117650D01*
X+2848197Y+1118623D01*
X+2847601Y+1118626D01*
X+2784101Y+1055126D02*
X+2784318Y+1060373D01*
X+2786083Y+1070868D01*
X+2789775Y+1081363D01*
X+2795803Y+1091858D01*
X+2805025Y+1102238D01*
X+2815520Y+1109926D01*
X+2826015Y+1114844D01*
X+2836510Y+1117650D01*
X+2847005Y+1118623D01*
X+2847601Y+1118626D01*
X+2784101Y+1055126D02*
X+2784318Y+1049879D01*
X+2786083Y+1039384D01*
X+2789775Y+1028889D01*
X+2795803Y+1018394D01*
X+2805025Y+1008014D01*
X+2815520Y+1000326D01*
X+2826015Y+995408D01*
X+2836510Y+992602D01*
X+2847005Y+991629D01*
X+2847601Y+991626D01*
X+2911101Y+1055126D02*
X+2910884Y+1049879D01*
X+2909119Y+1039384D01*
X+2905427Y+1028889D01*
X+2899399Y+1018394D01*
X+2890177Y+1008014D01*
X+2879682Y+1000326D01*
X+2869187Y+995408D01*
X+2858692Y+992602D01*
X+2848197Y+991629D01*
X+2847601Y+991626D01*
X+2847601Y+1118626D02*
X+2847601Y+991626D01*
X+2784101Y+1055126D02*
X+2911101Y+1055126D01*
X+1181101Y+5113126D02*
X+1180884Y+5118373D01*
X+1179119Y+5128868D01*
X+1175427Y+5139363D01*
X+1169399Y+5149858D01*
X+1160177Y+5160238D01*
X+1149682Y+5167926D01*
X+1139187Y+5172844D01*
X+1128692Y+5175650D01*
X+1118197Y+5176623D01*
X+1117601Y+5176626D01*
X+1054101Y+5113126D02*
X+1054318Y+5118373D01*
X+1056083Y+5128868D01*
X+1059775Y+5139363D01*
X+1065803Y+5149858D01*
X+1075025Y+5160238D01*
X+1085520Y+5167926D01*
X+1096015Y+5172844D01*
X+1106510Y+5175650D01*
X+1117005Y+5176623D01*
X+1117601Y+5176626D01*
X+1054101Y+5113126D02*
X+1054318Y+5107879D01*
X+1056083Y+5097384D01*
X+1059775Y+5086889D01*
X+1065803Y+5076394D01*
X+1075025Y+5066014D01*
X+1085520Y+5058326D01*
X+1096015Y+5053408D01*
X+1106510Y+5050602D01*
X+1117005Y+5049629D01*
X+1117601Y+5049626D01*
X+1181101Y+5113126D02*
X+1180884Y+5107879D01*
X+1179119Y+5097384D01*
X+1175427Y+5086889D01*
X+1169399Y+5076394D01*
X+1160177Y+5066014D01*
X+1149682Y+5058326D01*
X+1139187Y+5053408D01*
X+1128692Y+5050602D01*
X+1118197Y+5049629D01*
X+1117601Y+5049626D01*
X+1072700Y+5158027D02*
X+1162502Y+5068225D01*
X+1072700Y+5068225D02*
X+1162502Y+5158027D01*
X+927101Y+5113126D02*
X+926884Y+5118373D01*
X+925119Y+5128868D01*
X+921427Y+5139363D01*
X+915399Y+5149858D01*
X+906177Y+5160238D01*
X+895682Y+5167926D01*
X+885187Y+5172844D01*
X+874692Y+5175650D01*
X+864197Y+5176623D01*
X+863601Y+5176626D01*
X+800101Y+5113126D02*
X+800318Y+5118373D01*
X+802083Y+5128868D01*
X+805775Y+5139363D01*
X+811803Y+5149858D01*
X+821025Y+5160238D01*
X+831520Y+5167926D01*
X+842015Y+5172844D01*
X+852510Y+5175650D01*
X+863005Y+5176623D01*
X+863601Y+5176626D01*
X+800101Y+5113126D02*
X+800318Y+5107879D01*
X+802083Y+5097384D01*
X+805775Y+5086889D01*
X+811803Y+5076394D01*
X+821025Y+5066014D01*
X+831520Y+5058326D01*
X+842015Y+5053408D01*
X+852510Y+5050602D01*
X+863005Y+5049629D01*
X+863601Y+5049626D01*
X+927101Y+5113126D02*
X+926884Y+5107879D01*
X+925119Y+5097384D01*
X+921427Y+5086889D01*
X+915399Y+5076394D01*
X+906177Y+5066014D01*
X+895682Y+5058326D01*
X+885187Y+5053408D01*
X+874692Y+5050602D01*
X+864197Y+5049629D01*
X+863601Y+5049626D01*
X+818700Y+5158027D02*
X+908502Y+5068225D01*
X+818700Y+5068225D02*
X+908502Y+5158027D01*
X+1177101Y+5713126D02*
X+1176884Y+5718373D01*
X+1175119Y+5728868D01*
X+1171427Y+5739363D01*
X+1165399Y+5749858D01*
X+1156177Y+5760238D01*
X+1145682Y+5767926D01*
X+1135187Y+5772844D01*
X+1124692Y+5775650D01*
X+1114197Y+5776623D01*
X+1113601Y+5776626D01*
X+1050101Y+5713126D02*
X+1050318Y+5718373D01*
X+1052083Y+5728868D01*
X+1055775Y+5739363D01*
X+1061803Y+5749858D01*
X+1071025Y+5760238D01*
X+1081520Y+5767926D01*
X+1092015Y+5772844D01*
X+1102510Y+5775650D01*
X+1113005Y+5776623D01*
X+1113601Y+5776626D01*
X+1050101Y+5713126D02*
X+1050318Y+5707879D01*
X+1052083Y+5697384D01*
X+1055775Y+5686889D01*
X+1061803Y+5676394D01*
X+1071025Y+5666014D01*
X+1081520Y+5658326D01*
X+1092015Y+5653408D01*
X+1102510Y+5650602D01*
X+1113005Y+5649629D01*
X+1113601Y+5649626D01*
X+1177101Y+5713126D02*
X+1176884Y+5707879D01*
X+1175119Y+5697384D01*
X+1171427Y+5686889D01*
X+1165399Y+5676394D01*
X+1156177Y+5666014D01*
X+1145682Y+5658326D01*
X+1135187Y+5653408D01*
X+1124692Y+5650602D01*
X+1114197Y+5649629D01*
X+1113601Y+5649626D01*
X+1068700Y+5758027D02*
X+1158502Y+5668225D01*
X+1068700Y+5668225D02*
X+1158502Y+5758027D01*
X+923101Y+5713126D02*
X+922884Y+5718373D01*
X+921119Y+5728868D01*
X+917427Y+5739363D01*
X+911399Y+5749858D01*
X+902177Y+5760238D01*
X+891682Y+5767926D01*
X+881187Y+5772844D01*
X+870692Y+5775650D01*
X+860197Y+5776623D01*
X+859601Y+5776626D01*
X+796101Y+5713126D02*
X+796318Y+5718373D01*
X+798083Y+5728868D01*
X+801775Y+5739363D01*
X+807803Y+5749858D01*
X+817025Y+5760238D01*
X+827520Y+5767926D01*
X+838015Y+5772844D01*
X+848510Y+5775650D01*
X+859005Y+5776623D01*
X+859601Y+5776626D01*
X+796101Y+5713126D02*
X+796318Y+5707879D01*
X+798083Y+5697384D01*
X+801775Y+5686889D01*
X+807803Y+5676394D01*
X+817025Y+5666014D01*
X+827520Y+5658326D01*
X+838015Y+5653408D01*
X+848510Y+5650602D01*
X+859005Y+5649629D01*
X+859601Y+5649626D01*
X+923101Y+5713126D02*
X+922884Y+5707879D01*
X+921119Y+5697384D01*
X+917427Y+5686889D01*
X+911399Y+5676394D01*
X+902177Y+5666014D01*
X+891682Y+5658326D01*
X+881187Y+5653408D01*
X+870692Y+5650602D01*
X+860197Y+5649629D01*
X+859601Y+5649626D01*
X+814700Y+5758027D02*
X+904502Y+5668225D01*
X+814700Y+5668225D02*
X+904502Y+5758027D01*
X+1177101Y+6313126D02*
X+1176884Y+6318373D01*
X+1175119Y+6328868D01*
X+1171427Y+6339363D01*
X+1165399Y+6349858D01*
X+1156177Y+6360238D01*
X+1145682Y+6367926D01*
X+1135187Y+6372844D01*
X+1124692Y+6375650D01*
X+1114197Y+6376623D01*
X+1113601Y+6376626D01*
X+1050101Y+6313126D02*
X+1050318Y+6318373D01*
X+1052083Y+6328868D01*
X+1055775Y+6339363D01*
X+1061803Y+6349858D01*
X+1071025Y+6360238D01*
X+1081520Y+6367926D01*
X+1092015Y+6372844D01*
X+1102510Y+6375650D01*
X+1113005Y+6376623D01*
X+1113601Y+6376626D01*
X+1050101Y+6313126D02*
X+1050318Y+6307879D01*
X+1052083Y+6297384D01*
X+1055775Y+6286889D01*
X+1061803Y+6276394D01*
X+1071025Y+6266014D01*
X+1081520Y+6258326D01*
X+1092015Y+6253408D01*
X+1102510Y+6250602D01*
X+1113005Y+6249629D01*
X+1113601Y+6249626D01*
X+1177101Y+6313126D02*
X+1176884Y+6307879D01*
X+1175119Y+6297384D01*
X+1171427Y+6286889D01*
X+1165399Y+6276394D01*
X+1156177Y+6266014D01*
X+1145682Y+6258326D01*
X+1135187Y+6253408D01*
X+1124692Y+6250602D01*
X+1114197Y+6249629D01*
X+1113601Y+6249626D01*
X+1068700Y+6358027D02*
X+1158502Y+6268225D01*
X+1068700Y+6268225D02*
X+1158502Y+6358027D01*
X+923101Y+6313126D02*
X+922884Y+6318373D01*
X+921119Y+6328868D01*
X+917427Y+6339363D01*
X+911399Y+6349858D01*
X+902177Y+6360238D01*
X+891682Y+6367926D01*
X+881187Y+6372844D01*
X+870692Y+6375650D01*
X+860197Y+6376623D01*
X+859601Y+6376626D01*
X+796101Y+6313126D02*
X+796318Y+6318373D01*
X+798083Y+6328868D01*
X+801775Y+6339363D01*
X+807803Y+6349858D01*
X+817025Y+6360238D01*
X+827520Y+6367926D01*
X+838015Y+6372844D01*
X+848510Y+6375650D01*
X+859005Y+6376623D01*
X+859601Y+6376626D01*
X+796101Y+6313126D02*
X+796318Y+6307879D01*
X+798083Y+6297384D01*
X+801775Y+6286889D01*
X+807803Y+6276394D01*
X+817025Y+6266014D01*
X+827520Y+6258326D01*
X+838015Y+6253408D01*
X+848510Y+6250602D01*
X+859005Y+6249629D01*
X+859601Y+6249626D01*
X+923101Y+6313126D02*
X+922884Y+6307879D01*
X+921119Y+6297384D01*
X+917427Y+6286889D01*
X+911399Y+6276394D01*
X+902177Y+6266014D01*
X+891682Y+6258326D01*
X+881187Y+6253408D01*
X+870692Y+6250602D01*
X+860197Y+6249629D01*
X+859601Y+6249626D01*
X+814700Y+6358027D02*
X+904502Y+6268225D01*
X+814700Y+6268225D02*
X+904502Y+6358027D01*
X+6127101Y+847126D02*
X+6126884Y+852373D01*
X+6125119Y+862868D01*
X+6121427Y+873363D01*
X+6115399Y+883858D01*
X+6106177Y+894238D01*
X+6095682Y+901926D01*
X+6085187Y+906844D01*
X+6074692Y+909650D01*
X+6064197Y+910623D01*
X+6063601Y+910626D01*
X+6000101Y+847126D02*
X+6000318Y+852373D01*
X+6002083Y+862868D01*
X+6005775Y+873363D01*
X+6011803Y+883858D01*
X+6021025Y+894238D01*
X+6031520Y+901926D01*
X+6042015Y+906844D01*
X+6052510Y+909650D01*
X+6063005Y+910623D01*
X+6063601Y+910626D01*
X+6000101Y+847126D02*
X+6000318Y+841879D01*
X+6002083Y+831384D01*
X+6005775Y+820889D01*
X+6011803Y+810394D01*
X+6021025Y+800014D01*
X+6031520Y+792326D01*
X+6042015Y+787408D01*
X+6052510Y+784602D01*
X+6063005Y+783629D01*
X+6063601Y+783626D01*
X+6127101Y+847126D02*
X+6126884Y+841879D01*
X+6125119Y+831384D01*
X+6121427Y+820889D01*
X+6115399Y+810394D01*
X+6106177Y+800014D01*
X+6095682Y+792326D01*
X+6085187Y+787408D01*
X+6074692Y+784602D01*
X+6064197Y+783629D01*
X+6063601Y+783626D01*
X+6063601Y+910626D02*
X+6063601Y+783626D01*
X+6000101Y+847126D02*
X+6127101Y+847126D01*
X+6127101Y+1101126D02*
X+6126884Y+1106373D01*
X+6125119Y+1116868D01*
X+6121427Y+1127363D01*
X+6115399Y+1137858D01*
X+6106177Y+1148238D01*
X+6095682Y+1155926D01*
X+6085187Y+1160844D01*
X+6074692Y+1163650D01*
X+6064197Y+1164623D01*
X+6063601Y+1164626D01*
X+6000101Y+1101126D02*
X+6000318Y+1106373D01*
X+6002083Y+1116868D01*
X+6005775Y+1127363D01*
X+6011803Y+1137858D01*
X+6021025Y+1148238D01*
X+6031520Y+1155926D01*
X+6042015Y+1160844D01*
X+6052510Y+1163650D01*
X+6063005Y+1164623D01*
X+6063601Y+1164626D01*
X+6000101Y+1101126D02*
X+6000318Y+1095879D01*
X+6002083Y+1085384D01*
X+6005775Y+1074889D01*
X+6011803Y+1064394D01*
X+6021025Y+1054014D01*
X+6031520Y+1046326D01*
X+6042015Y+1041408D01*
X+6052510Y+1038602D01*
X+6063005Y+1037629D01*
X+6063601Y+1037626D01*
X+6127101Y+1101126D02*
X+6126884Y+1095879D01*
X+6125119Y+1085384D01*
X+6121427Y+1074889D01*
X+6115399Y+1064394D01*
X+6106177Y+1054014D01*
X+6095682Y+1046326D01*
X+6085187Y+1041408D01*
X+6074692Y+1038602D01*
X+6064197Y+1037629D01*
X+6063601Y+1037626D01*
X+6063601Y+1164626D02*
X+6063601Y+1037626D01*
X+6000101Y+1101126D02*
X+6127101Y+1101126D01*
X+6127101Y+1355126D02*
X+6126884Y+1360373D01*
X+6125119Y+1370868D01*
X+6121427Y+1381363D01*
X+6115399Y+1391858D01*
X+6106177Y+1402238D01*
X+6095682Y+1409926D01*
X+6085187Y+1414844D01*
X+6074692Y+1417650D01*
X+6064197Y+1418623D01*
X+6063601Y+1418626D01*
X+6000101Y+1355126D02*
X+6000318Y+1360373D01*
X+6002083Y+1370868D01*
X+6005775Y+1381363D01*
X+6011803Y+1391858D01*
X+6021025Y+1402238D01*
X+6031520Y+1409926D01*
X+6042015Y+1414844D01*
X+6052510Y+1417650D01*
X+6063005Y+1418623D01*
X+6063601Y+1418626D01*
X+6000101Y+1355126D02*
X+6000318Y+1349879D01*
X+6002083Y+1339384D01*
X+6005775Y+1328889D01*
X+6011803Y+1318394D01*
X+6021025Y+1308014D01*
X+6031520Y+1300326D01*
X+6042015Y+1295408D01*
X+6052510Y+1292602D01*
X+6063005Y+1291629D01*
X+6063601Y+1291626D01*
X+6127101Y+1355126D02*
X+6126884Y+1349879D01*
X+6125119Y+1339384D01*
X+6121427Y+1328889D01*
X+6115399Y+1318394D01*
X+6106177Y+1308014D01*
X+6095682Y+1300326D01*
X+6085187Y+1295408D01*
X+6074692Y+1292602D01*
X+6064197Y+1291629D01*
X+6063601Y+1291626D01*
X+6063601Y+1418626D02*
X+6063601Y+1291626D01*
X+6000101Y+1355126D02*
X+6127101Y+1355126D01*
X+6127101Y+1609126D02*
X+6126884Y+1614373D01*
X+6125119Y+1624868D01*
X+6121427Y+1635363D01*
X+6115399Y+1645858D01*
X+6106177Y+1656238D01*
X+6095682Y+1663926D01*
X+6085187Y+1668844D01*
X+6074692Y+1671650D01*
X+6064197Y+1672623D01*
X+6063601Y+1672626D01*
X+6000101Y+1609126D02*
X+6000318Y+1614373D01*
X+6002083Y+1624868D01*
X+6005775Y+1635363D01*
X+6011803Y+1645858D01*
X+6021025Y+1656238D01*
X+6031520Y+1663926D01*
X+6042015Y+1668844D01*
X+6052510Y+1671650D01*
X+6063005Y+1672623D01*
X+6063601Y+1672626D01*
X+6000101Y+1609126D02*
X+6000318Y+1603879D01*
X+6002083Y+1593384D01*
X+6005775Y+1582889D01*
X+6011803Y+1572394D01*
X+6021025Y+1562014D01*
X+6031520Y+1554326D01*
X+6042015Y+1549408D01*
X+6052510Y+1546602D01*
X+6063005Y+1545629D01*
X+6063601Y+1545626D01*
X+6127101Y+1609126D02*
X+6126884Y+1603879D01*
X+6125119Y+1593384D01*
X+6121427Y+1582889D01*
X+6115399Y+1572394D01*
X+6106177Y+1562014D01*
X+6095682Y+1554326D01*
X+6085187Y+1549408D01*
X+6074692Y+1546602D01*
X+6064197Y+1545629D01*
X+6063601Y+1545626D01*
X+6063601Y+1672626D02*
X+6063601Y+1545626D01*
X+6000101Y+1609126D02*
X+6127101Y+1609126D01*
X+6127101Y+1863126D02*
X+6126884Y+1868373D01*
X+6125119Y+1878868D01*
X+6121427Y+1889363D01*
X+6115399Y+1899858D01*
X+6106177Y+1910238D01*
X+6095682Y+1917926D01*
X+6085187Y+1922844D01*
X+6074692Y+1925650D01*
X+6064197Y+1926623D01*
X+6063601Y+1926626D01*
X+6000101Y+1863126D02*
X+6000318Y+1868373D01*
X+6002083Y+1878868D01*
X+6005775Y+1889363D01*
X+6011803Y+1899858D01*
X+6021025Y+1910238D01*
X+6031520Y+1917926D01*
X+6042015Y+1922844D01*
X+6052510Y+1925650D01*
X+6063005Y+1926623D01*
X+6063601Y+1926626D01*
X+6000101Y+1863126D02*
X+6000318Y+1857879D01*
X+6002083Y+1847384D01*
X+6005775Y+1836889D01*
X+6011803Y+1826394D01*
X+6021025Y+1816014D01*
X+6031520Y+1808326D01*
X+6042015Y+1803408D01*
X+6052510Y+1800602D01*
X+6063005Y+1799629D01*
X+6063601Y+1799626D01*
X+6127101Y+1863126D02*
X+6126884Y+1857879D01*
X+6125119Y+1847384D01*
X+6121427Y+1836889D01*
X+6115399Y+1826394D01*
X+6106177Y+1816014D01*
X+6095682Y+1808326D01*
X+6085187Y+1803408D01*
X+6074692Y+1800602D01*
X+6064197Y+1799629D01*
X+6063601Y+1799626D01*
X+6063601Y+1926626D02*
X+6063601Y+1799626D01*
X+6000101Y+1863126D02*
X+6127101Y+1863126D01*
X+3968101Y+847126D02*
X+3967884Y+852373D01*
X+3966119Y+862868D01*
X+3962427Y+873363D01*
X+3956399Y+883858D01*
X+3947177Y+894238D01*
X+3936682Y+901926D01*
X+3926187Y+906844D01*
X+3915692Y+909650D01*
X+3905197Y+910623D01*
X+3904601Y+910626D01*
X+3841101Y+847126D02*
X+3841318Y+852373D01*
X+3843083Y+862868D01*
X+3846775Y+873363D01*
X+3852803Y+883858D01*
X+3862025Y+894238D01*
X+3872520Y+901926D01*
X+3883015Y+906844D01*
X+3893510Y+909650D01*
X+3904005Y+910623D01*
X+3904601Y+910626D01*
X+3841101Y+847126D02*
X+3841318Y+841879D01*
X+3843083Y+831384D01*
X+3846775Y+820889D01*
X+3852803Y+810394D01*
X+3862025Y+800014D01*
X+3872520Y+792326D01*
X+3883015Y+787408D01*
X+3893510Y+784602D01*
X+3904005Y+783629D01*
X+3904601Y+783626D01*
X+3968101Y+847126D02*
X+3967884Y+841879D01*
X+3966119Y+831384D01*
X+3962427Y+820889D01*
X+3956399Y+810394D01*
X+3947177Y+800014D01*
X+3936682Y+792326D01*
X+3926187Y+787408D01*
X+3915692Y+784602D01*
X+3905197Y+783629D01*
X+3904601Y+783626D01*
X+3904601Y+910626D02*
X+3904601Y+783626D01*
X+3841101Y+847126D02*
X+3968101Y+847126D01*
X+3968101Y+1101126D02*
X+3967884Y+1106373D01*
X+3966119Y+1116868D01*
X+3962427Y+1127363D01*
X+3956399Y+1137858D01*
X+3947177Y+1148238D01*
X+3936682Y+1155926D01*
X+3926187Y+1160844D01*
X+3915692Y+1163650D01*
X+3905197Y+1164623D01*
X+3904601Y+1164626D01*
X+3841101Y+1101126D02*
X+3841318Y+1106373D01*
X+3843083Y+1116868D01*
X+3846775Y+1127363D01*
X+3852803Y+1137858D01*
X+3862025Y+1148238D01*
X+3872520Y+1155926D01*
X+3883015Y+1160844D01*
X+3893510Y+1163650D01*
X+3904005Y+1164623D01*
X+3904601Y+1164626D01*
X+3841101Y+1101126D02*
X+3841318Y+1095879D01*
X+3843083Y+1085384D01*
X+3846775Y+1074889D01*
X+3852803Y+1064394D01*
X+3862025Y+1054014D01*
X+3872520Y+1046326D01*
X+3883015Y+1041408D01*
X+3893510Y+1038602D01*
X+3904005Y+1037629D01*
X+3904601Y+1037626D01*
X+3968101Y+1101126D02*
X+3967884Y+1095879D01*
X+3966119Y+1085384D01*
X+3962427Y+1074889D01*
X+3956399Y+1064394D01*
X+3947177Y+1054014D01*
X+3936682Y+1046326D01*
X+3926187Y+1041408D01*
X+3915692Y+1038602D01*
X+3905197Y+1037629D01*
X+3904601Y+1037626D01*
X+3904601Y+1164626D02*
X+3904601Y+1037626D01*
X+3841101Y+1101126D02*
X+3968101Y+1101126D01*
X+3968101Y+1355126D02*
X+3967884Y+1360373D01*
X+3966119Y+1370868D01*
X+3962427Y+1381363D01*
X+3956399Y+1391858D01*
X+3947177Y+1402238D01*
X+3936682Y+1409926D01*
X+3926187Y+1414844D01*
X+3915692Y+1417650D01*
X+3905197Y+1418623D01*
X+3904601Y+1418626D01*
X+3841101Y+1355126D02*
X+3841318Y+1360373D01*
X+3843083Y+1370868D01*
X+3846775Y+1381363D01*
X+3852803Y+1391858D01*
X+3862025Y+1402238D01*
X+3872520Y+1409926D01*
X+3883015Y+1414844D01*
X+3893510Y+1417650D01*
X+3904005Y+1418623D01*
X+3904601Y+1418626D01*
X+3841101Y+1355126D02*
X+3841318Y+1349879D01*
X+3843083Y+1339384D01*
X+3846775Y+1328889D01*
X+3852803Y+1318394D01*
X+3862025Y+1308014D01*
X+3872520Y+1300326D01*
X+3883015Y+1295408D01*
X+3893510Y+1292602D01*
X+3904005Y+1291629D01*
X+3904601Y+1291626D01*
X+3968101Y+1355126D02*
X+3967884Y+1349879D01*
X+3966119Y+1339384D01*
X+3962427Y+1328889D01*
X+3956399Y+1318394D01*
X+3947177Y+1308014D01*
X+3936682Y+1300326D01*
X+3926187Y+1295408D01*
X+3915692Y+1292602D01*
X+3905197Y+1291629D01*
X+3904601Y+1291626D01*
X+3904601Y+1418626D02*
X+3904601Y+1291626D01*
X+3841101Y+1355126D02*
X+3968101Y+1355126D01*
X+3968101Y+1609126D02*
X+3967884Y+1614373D01*
X+3966119Y+1624868D01*
X+3962427Y+1635363D01*
X+3956399Y+1645858D01*
X+3947177Y+1656238D01*
X+3936682Y+1663926D01*
X+3926187Y+1668844D01*
X+3915692Y+1671650D01*
X+3905197Y+1672623D01*
X+3904601Y+1672626D01*
X+3841101Y+1609126D02*
X+3841318Y+1614373D01*
X+3843083Y+1624868D01*
X+3846775Y+1635363D01*
X+3852803Y+1645858D01*
X+3862025Y+1656238D01*
X+3872520Y+1663926D01*
X+3883015Y+1668844D01*
X+3893510Y+1671650D01*
X+3904005Y+1672623D01*
X+3904601Y+1672626D01*
X+3841101Y+1609126D02*
X+3841318Y+1603879D01*
X+3843083Y+1593384D01*
X+3846775Y+1582889D01*
X+3852803Y+1572394D01*
X+3862025Y+1562014D01*
X+3872520Y+1554326D01*
X+3883015Y+1549408D01*
X+3893510Y+1546602D01*
X+3904005Y+1545629D01*
X+3904601Y+1545626D01*
X+3968101Y+1609126D02*
X+3967884Y+1603879D01*
X+3966119Y+1593384D01*
X+3962427Y+1582889D01*
X+3956399Y+1572394D01*
X+3947177Y+1562014D01*
X+3936682Y+1554326D01*
X+3926187Y+1549408D01*
X+3915692Y+1546602D01*
X+3905197Y+1545629D01*
X+3904601Y+1545626D01*
X+3904601Y+1672626D02*
X+3904601Y+1545626D01*
X+3841101Y+1609126D02*
X+3968101Y+1609126D01*
X+3968101Y+1863126D02*
X+3967884Y+1868373D01*
X+3966119Y+1878868D01*
X+3962427Y+1889363D01*
X+3956399Y+1899858D01*
X+3947177Y+1910238D01*
X+3936682Y+1917926D01*
X+3926187Y+1922844D01*
X+3915692Y+1925650D01*
X+3905197Y+1926623D01*
X+3904601Y+1926626D01*
X+3841101Y+1863126D02*
X+3841318Y+1868373D01*
X+3843083Y+1878868D01*
X+3846775Y+1889363D01*
X+3852803Y+1899858D01*
X+3862025Y+1910238D01*
X+3872520Y+1917926D01*
X+3883015Y+1922844D01*
X+3893510Y+1925650D01*
X+3904005Y+1926623D01*
X+3904601Y+1926626D01*
X+3841101Y+1863126D02*
X+3841318Y+1857879D01*
X+3843083Y+1847384D01*
X+3846775Y+1836889D01*
X+3852803Y+1826394D01*
X+3862025Y+1816014D01*
X+3872520Y+1808326D01*
X+3883015Y+1803408D01*
X+3893510Y+1800602D01*
X+3904005Y+1799629D01*
X+3904601Y+1799626D01*
X+3968101Y+1863126D02*
X+3967884Y+1857879D01*
X+3966119Y+1847384D01*
X+3962427Y+1836889D01*
X+3956399Y+1826394D01*
X+3947177Y+1816014D01*
X+3936682Y+1808326D01*
X+3926187Y+1803408D01*
X+3915692Y+1800602D01*
X+3905197Y+1799629D01*
X+3904601Y+1799626D01*
X+3904601Y+1926626D02*
X+3904601Y+1799626D01*
X+3841101Y+1863126D02*
X+3968101Y+1863126D01*
X+3968101Y+2117126D02*
X+3967884Y+2122373D01*
X+3966119Y+2132868D01*
X+3962427Y+2143363D01*
X+3956399Y+2153858D01*
X+3947177Y+2164238D01*
X+3936682Y+2171926D01*
X+3926187Y+2176844D01*
X+3915692Y+2179650D01*
X+3905197Y+2180623D01*
X+3904601Y+2180626D01*
X+3841101Y+2117126D02*
X+3841318Y+2122373D01*
X+3843083Y+2132868D01*
X+3846775Y+2143363D01*
X+3852803Y+2153858D01*
X+3862025Y+2164238D01*
X+3872520Y+2171926D01*
X+3883015Y+2176844D01*
X+3893510Y+2179650D01*
X+3904005Y+2180623D01*
X+3904601Y+2180626D01*
X+3841101Y+2117126D02*
X+3841318Y+2111879D01*
X+3843083Y+2101384D01*
X+3846775Y+2090889D01*
X+3852803Y+2080394D01*
X+3862025Y+2070014D01*
X+3872520Y+2062326D01*
X+3883015Y+2057408D01*
X+3893510Y+2054602D01*
X+3904005Y+2053629D01*
X+3904601Y+2053626D01*
X+3968101Y+2117126D02*
X+3967884Y+2111879D01*
X+3966119Y+2101384D01*
X+3962427Y+2090889D01*
X+3956399Y+2080394D01*
X+3947177Y+2070014D01*
X+3936682Y+2062326D01*
X+3926187Y+2057408D01*
X+3915692Y+2054602D01*
X+3905197Y+2053629D01*
X+3904601Y+2053626D01*
X+3904601Y+2180626D02*
X+3904601Y+2053626D01*
X+3841101Y+2117126D02*
X+3968101Y+2117126D01*
X+1427101Y+563126D02*
X+1426884Y+568373D01*
X+1425119Y+578868D01*
X+1421427Y+589363D01*
X+1415399Y+599858D01*
X+1406177Y+610238D01*
X+1395682Y+617926D01*
X+1385187Y+622844D01*
X+1374692Y+625650D01*
X+1364197Y+626623D01*
X+1363601Y+626626D01*
X+1300101Y+563126D02*
X+1300318Y+568373D01*
X+1302083Y+578868D01*
X+1305775Y+589363D01*
X+1311803Y+599858D01*
X+1321025Y+610238D01*
X+1331520Y+617926D01*
X+1342015Y+622844D01*
X+1352510Y+625650D01*
X+1363005Y+626623D01*
X+1363601Y+626626D01*
X+1300101Y+563126D02*
X+1300318Y+557879D01*
X+1302083Y+547384D01*
X+1305775Y+536889D01*
X+1311803Y+526394D01*
X+1321025Y+516014D01*
X+1331520Y+508326D01*
X+1342015Y+503408D01*
X+1352510Y+500602D01*
X+1363005Y+499629D01*
X+1363601Y+499626D01*
X+1427101Y+563126D02*
X+1426884Y+557879D01*
X+1425119Y+547384D01*
X+1421427Y+536889D01*
X+1415399Y+526394D01*
X+1406177Y+516014D01*
X+1395682Y+508326D01*
X+1385187Y+503408D01*
X+1374692Y+500602D01*
X+1364197Y+499629D01*
X+1363601Y+499626D01*
X+1363601Y+626626D02*
X+1363601Y+499626D01*
X+1300101Y+563126D02*
X+1427101Y+563126D01*
X+2573101Y+3809126D02*
X+2572884Y+3814373D01*
X+2571119Y+3824868D01*
X+2567427Y+3835363D01*
X+2561399Y+3845858D01*
X+2552177Y+3856238D01*
X+2541682Y+3863926D01*
X+2531187Y+3868844D01*
X+2520692Y+3871650D01*
X+2510197Y+3872623D01*
X+2509601Y+3872626D01*
X+2446101Y+3809126D02*
X+2446318Y+3814373D01*
X+2448083Y+3824868D01*
X+2451775Y+3835363D01*
X+2457803Y+3845858D01*
X+2467025Y+3856238D01*
X+2477520Y+3863926D01*
X+2488015Y+3868844D01*
X+2498510Y+3871650D01*
X+2509005Y+3872623D01*
X+2509601Y+3872626D01*
X+2446101Y+3809126D02*
X+2446318Y+3803879D01*
X+2448083Y+3793384D01*
X+2451775Y+3782889D01*
X+2457803Y+3772394D01*
X+2467025Y+3762014D01*
X+2477520Y+3754326D01*
X+2488015Y+3749408D01*
X+2498510Y+3746602D01*
X+2509005Y+3745629D01*
X+2509601Y+3745626D01*
X+2573101Y+3809126D02*
X+2572884Y+3803879D01*
X+2571119Y+3793384D01*
X+2567427Y+3782889D01*
X+2561399Y+3772394D01*
X+2552177Y+3762014D01*
X+2541682Y+3754326D01*
X+2531187Y+3749408D01*
X+2520692Y+3746602D01*
X+2510197Y+3745629D01*
X+2509601Y+3745626D01*
X+2464700Y+3854027D02*
X+2554502Y+3764225D01*
X+2464700Y+3764225D02*
X+2554502Y+3854027D01*
X+2827101Y+3809126D02*
X+2826884Y+3814373D01*
X+2825119Y+3824868D01*
X+2821427Y+3835363D01*
X+2815399Y+3845858D01*
X+2806177Y+3856238D01*
X+2795682Y+3863926D01*
X+2785187Y+3868844D01*
X+2774692Y+3871650D01*
X+2764197Y+3872623D01*
X+2763601Y+3872626D01*
X+2700101Y+3809126D02*
X+2700318Y+3814373D01*
X+2702083Y+3824868D01*
X+2705775Y+3835363D01*
X+2711803Y+3845858D01*
X+2721025Y+3856238D01*
X+2731520Y+3863926D01*
X+2742015Y+3868844D01*
X+2752510Y+3871650D01*
X+2763005Y+3872623D01*
X+2763601Y+3872626D01*
X+2700101Y+3809126D02*
X+2700318Y+3803879D01*
X+2702083Y+3793384D01*
X+2705775Y+3782889D01*
X+2711803Y+3772394D01*
X+2721025Y+3762014D01*
X+2731520Y+3754326D01*
X+2742015Y+3749408D01*
X+2752510Y+3746602D01*
X+2763005Y+3745629D01*
X+2763601Y+3745626D01*
X+2827101Y+3809126D02*
X+2826884Y+3803879D01*
X+2825119Y+3793384D01*
X+2821427Y+3782889D01*
X+2815399Y+3772394D01*
X+2806177Y+3762014D01*
X+2795682Y+3754326D01*
X+2785187Y+3749408D01*
X+2774692Y+3746602D01*
X+2764197Y+3745629D01*
X+2763601Y+3745626D01*
X+2718700Y+3854027D02*
X+2808502Y+3764225D01*
X+2718700Y+3764225D02*
X+2808502Y+3854027D01*
X+3081101Y+3809126D02*
X+3080884Y+3814373D01*
X+3079119Y+3824868D01*
X+3075427Y+3835363D01*
X+3069399Y+3845858D01*
X+3060177Y+3856238D01*
X+3049682Y+3863926D01*
X+3039187Y+3868844D01*
X+3028692Y+3871650D01*
X+3018197Y+3872623D01*
X+3017601Y+3872626D01*
X+2954101Y+3809126D02*
X+2954318Y+3814373D01*
X+2956083Y+3824868D01*
X+2959775Y+3835363D01*
X+2965803Y+3845858D01*
X+2975025Y+3856238D01*
X+2985520Y+3863926D01*
X+2996015Y+3868844D01*
X+3006510Y+3871650D01*
X+3017005Y+3872623D01*
X+3017601Y+3872626D01*
X+2954101Y+3809126D02*
X+2954318Y+3803879D01*
X+2956083Y+3793384D01*
X+2959775Y+3782889D01*
X+2965803Y+3772394D01*
X+2975025Y+3762014D01*
X+2985520Y+3754326D01*
X+2996015Y+3749408D01*
X+3006510Y+3746602D01*
X+3017005Y+3745629D01*
X+3017601Y+3745626D01*
X+3081101Y+3809126D02*
X+3080884Y+3803879D01*
X+3079119Y+3793384D01*
X+3075427Y+3782889D01*
X+3069399Y+3772394D01*
X+3060177Y+3762014D01*
X+3049682Y+3754326D01*
X+3039187Y+3749408D01*
X+3028692Y+3746602D01*
X+3018197Y+3745629D01*
X+3017601Y+3745626D01*
X+2972700Y+3854027D02*
X+3062502Y+3764225D01*
X+2972700Y+3764225D02*
X+3062502Y+3854027D01*
X+3335101Y+3809126D02*
X+3334884Y+3814373D01*
X+3333119Y+3824868D01*
X+3329427Y+3835363D01*
X+3323399Y+3845858D01*
X+3314177Y+3856238D01*
X+3303682Y+3863926D01*
X+3293187Y+3868844D01*
X+3282692Y+3871650D01*
X+3272197Y+3872623D01*
X+3271601Y+3872626D01*
X+3208101Y+3809126D02*
X+3208318Y+3814373D01*
X+3210083Y+3824868D01*
X+3213775Y+3835363D01*
X+3219803Y+3845858D01*
X+3229025Y+3856238D01*
X+3239520Y+3863926D01*
X+3250015Y+3868844D01*
X+3260510Y+3871650D01*
X+3271005Y+3872623D01*
X+3271601Y+3872626D01*
X+3208101Y+3809126D02*
X+3208318Y+3803879D01*
X+3210083Y+3793384D01*
X+3213775Y+3782889D01*
X+3219803Y+3772394D01*
X+3229025Y+3762014D01*
X+3239520Y+3754326D01*
X+3250015Y+3749408D01*
X+3260510Y+3746602D01*
X+3271005Y+3745629D01*
X+3271601Y+3745626D01*
X+3335101Y+3809126D02*
X+3334884Y+3803879D01*
X+3333119Y+3793384D01*
X+3329427Y+3782889D01*
X+3323399Y+3772394D01*
X+3314177Y+3762014D01*
X+3303682Y+3754326D01*
X+3293187Y+3749408D01*
X+3282692Y+3746602D01*
X+3272197Y+3745629D01*
X+3271601Y+3745626D01*
X+3226700Y+3854027D02*
X+3316502Y+3764225D01*
X+3226700Y+3764225D02*
X+3316502Y+3854027D01*
X+3335101Y+4063126D02*
X+3334884Y+4068373D01*
X+3333119Y+4078868D01*
X+3329427Y+4089363D01*
X+3323399Y+4099858D01*
X+3314177Y+4110238D01*
X+3303682Y+4117926D01*
X+3293187Y+4122844D01*
X+3282692Y+4125650D01*
X+3272197Y+4126623D01*
X+3271601Y+4126626D01*
X+3208101Y+4063126D02*
X+3208318Y+4068373D01*
X+3210083Y+4078868D01*
X+3213775Y+4089363D01*
X+3219803Y+4099858D01*
X+3229025Y+4110238D01*
X+3239520Y+4117926D01*
X+3250015Y+4122844D01*
X+3260510Y+4125650D01*
X+3271005Y+4126623D01*
X+3271601Y+4126626D01*
X+3208101Y+4063126D02*
X+3208318Y+4057879D01*
X+3210083Y+4047384D01*
X+3213775Y+4036889D01*
X+3219803Y+4026394D01*
X+3229025Y+4016014D01*
X+3239520Y+4008326D01*
X+3250015Y+4003408D01*
X+3260510Y+4000602D01*
X+3271005Y+3999629D01*
X+3271601Y+3999626D01*
X+3335101Y+4063126D02*
X+3334884Y+4057879D01*
X+3333119Y+4047384D01*
X+3329427Y+4036889D01*
X+3323399Y+4026394D01*
X+3314177Y+4016014D01*
X+3303682Y+4008326D01*
X+3293187Y+4003408D01*
X+3282692Y+4000602D01*
X+3272197Y+3999629D01*
X+3271601Y+3999626D01*
X+3226700Y+4108027D02*
X+3316502Y+4018225D01*
X+3226700Y+4018225D02*
X+3316502Y+4108027D01*
X+3081101Y+4063126D02*
X+3080884Y+4068373D01*
X+3079119Y+4078868D01*
X+3075427Y+4089363D01*
X+3069399Y+4099858D01*
X+3060177Y+4110238D01*
X+3049682Y+4117926D01*
X+3039187Y+4122844D01*
X+3028692Y+4125650D01*
X+3018197Y+4126623D01*
X+3017601Y+4126626D01*
X+2954101Y+4063126D02*
X+2954318Y+4068373D01*
X+2956083Y+4078868D01*
X+2959775Y+4089363D01*
X+2965803Y+4099858D01*
X+2975025Y+4110238D01*
X+2985520Y+4117926D01*
X+2996015Y+4122844D01*
X+3006510Y+4125650D01*
X+3017005Y+4126623D01*
X+3017601Y+4126626D01*
X+2954101Y+4063126D02*
X+2954318Y+4057879D01*
X+2956083Y+4047384D01*
X+2959775Y+4036889D01*
X+2965803Y+4026394D01*
X+2975025Y+4016014D01*
X+2985520Y+4008326D01*
X+2996015Y+4003408D01*
X+3006510Y+4000602D01*
X+3017005Y+3999629D01*
X+3017601Y+3999626D01*
X+3081101Y+4063126D02*
X+3080884Y+4057879D01*
X+3079119Y+4047384D01*
X+3075427Y+4036889D01*
X+3069399Y+4026394D01*
X+3060177Y+4016014D01*
X+3049682Y+4008326D01*
X+3039187Y+4003408D01*
X+3028692Y+4000602D01*
X+3018197Y+3999629D01*
X+3017601Y+3999626D01*
X+2972700Y+4108027D02*
X+3062502Y+4018225D01*
X+2972700Y+4018225D02*
X+3062502Y+4108027D01*
X+2827101Y+4063126D02*
X+2826884Y+4068373D01*
X+2825119Y+4078868D01*
X+2821427Y+4089363D01*
X+2815399Y+4099858D01*
X+2806177Y+4110238D01*
X+2795682Y+4117926D01*
X+2785187Y+4122844D01*
X+2774692Y+4125650D01*
X+2764197Y+4126623D01*
X+2763601Y+4126626D01*
X+2700101Y+4063126D02*
X+2700318Y+4068373D01*
X+2702083Y+4078868D01*
X+2705775Y+4089363D01*
X+2711803Y+4099858D01*
X+2721025Y+4110238D01*
X+2731520Y+4117926D01*
X+2742015Y+4122844D01*
X+2752510Y+4125650D01*
X+2763005Y+4126623D01*
X+2763601Y+4126626D01*
X+2700101Y+4063126D02*
X+2700318Y+4057879D01*
X+2702083Y+4047384D01*
X+2705775Y+4036889D01*
X+2711803Y+4026394D01*
X+2721025Y+4016014D01*
X+2731520Y+4008326D01*
X+2742015Y+4003408D01*
X+2752510Y+4000602D01*
X+2763005Y+3999629D01*
X+2763601Y+3999626D01*
X+2827101Y+4063126D02*
X+2826884Y+4057879D01*
X+2825119Y+4047384D01*
X+2821427Y+4036889D01*
X+2815399Y+4026394D01*
X+2806177Y+4016014D01*
X+2795682Y+4008326D01*
X+2785187Y+4003408D01*
X+2774692Y+4000602D01*
X+2764197Y+3999629D01*
X+2763601Y+3999626D01*
X+2718700Y+4108027D02*
X+2808502Y+4018225D01*
X+2718700Y+4018225D02*
X+2808502Y+4108027D01*
X+2573101Y+4063126D02*
X+2572884Y+4068373D01*
X+2571119Y+4078868D01*
X+2567427Y+4089363D01*
X+2561399Y+4099858D01*
X+2552177Y+4110238D01*
X+2541682Y+4117926D01*
X+2531187Y+4122844D01*
X+2520692Y+4125650D01*
X+2510197Y+4126623D01*
X+2509601Y+4126626D01*
X+2446101Y+4063126D02*
X+2446318Y+4068373D01*
X+2448083Y+4078868D01*
X+2451775Y+4089363D01*
X+2457803Y+4099858D01*
X+2467025Y+4110238D01*
X+2477520Y+4117926D01*
X+2488015Y+4122844D01*
X+2498510Y+4125650D01*
X+2509005Y+4126623D01*
X+2509601Y+4126626D01*
X+2446101Y+4063126D02*
X+2446318Y+4057879D01*
X+2448083Y+4047384D01*
X+2451775Y+4036889D01*
X+2457803Y+4026394D01*
X+2467025Y+4016014D01*
X+2477520Y+4008326D01*
X+2488015Y+4003408D01*
X+2498510Y+4000602D01*
X+2509005Y+3999629D01*
X+2509601Y+3999626D01*
X+2573101Y+4063126D02*
X+2572884Y+4057879D01*
X+2571119Y+4047384D01*
X+2567427Y+4036889D01*
X+2561399Y+4026394D01*
X+2552177Y+4016014D01*
X+2541682Y+4008326D01*
X+2531187Y+4003408D01*
X+2520692Y+4000602D01*
X+2510197Y+3999629D01*
X+2509601Y+3999626D01*
X+2464700Y+4108027D02*
X+2554502Y+4018225D01*
X+2464700Y+4018225D02*
X+2554502Y+4108027D01*
X+727101Y+1513126D02*
X+726884Y+1518373D01*
X+725119Y+1528868D01*
X+721427Y+1539363D01*
X+715399Y+1549858D01*
X+706177Y+1560238D01*
X+695682Y+1567926D01*
X+685187Y+1572844D01*
X+674692Y+1575650D01*
X+664197Y+1576623D01*
X+663601Y+1576626D01*
X+600101Y+1513126D02*
X+600318Y+1518373D01*
X+602083Y+1528868D01*
X+605775Y+1539363D01*
X+611803Y+1549858D01*
X+621025Y+1560238D01*
X+631520Y+1567926D01*
X+642015Y+1572844D01*
X+652510Y+1575650D01*
X+663005Y+1576623D01*
X+663601Y+1576626D01*
X+600101Y+1513126D02*
X+600318Y+1507879D01*
X+602083Y+1497384D01*
X+605775Y+1486889D01*
X+611803Y+1476394D01*
X+621025Y+1466014D01*
X+631520Y+1458326D01*
X+642015Y+1453408D01*
X+652510Y+1450602D01*
X+663005Y+1449629D01*
X+663601Y+1449626D01*
X+727101Y+1513126D02*
X+726884Y+1507879D01*
X+725119Y+1497384D01*
X+721427Y+1486889D01*
X+715399Y+1476394D01*
X+706177Y+1466014D01*
X+695682Y+1458326D01*
X+685187Y+1453408D01*
X+674692Y+1450602D01*
X+664197Y+1449629D01*
X+663601Y+1449626D01*
X+618700Y+1558027D02*
X+708502Y+1468225D01*
X+618700Y+1468225D02*
X+708502Y+1558027D01*
X+981101Y+1513126D02*
X+980884Y+1518373D01*
X+979119Y+1528868D01*
X+975427Y+1539363D01*
X+969399Y+1549858D01*
X+960177Y+1560238D01*
X+949682Y+1567926D01*
X+939187Y+1572844D01*
X+928692Y+1575650D01*
X+918197Y+1576623D01*
X+917601Y+1576626D01*
X+854101Y+1513126D02*
X+854318Y+1518373D01*
X+856083Y+1528868D01*
X+859775Y+1539363D01*
X+865803Y+1549858D01*
X+875025Y+1560238D01*
X+885520Y+1567926D01*
X+896015Y+1572844D01*
X+906510Y+1575650D01*
X+917005Y+1576623D01*
X+917601Y+1576626D01*
X+854101Y+1513126D02*
X+854318Y+1507879D01*
X+856083Y+1497384D01*
X+859775Y+1486889D01*
X+865803Y+1476394D01*
X+875025Y+1466014D01*
X+885520Y+1458326D01*
X+896015Y+1453408D01*
X+906510Y+1450602D01*
X+917005Y+1449629D01*
X+917601Y+1449626D01*
X+981101Y+1513126D02*
X+980884Y+1507879D01*
X+979119Y+1497384D01*
X+975427Y+1486889D01*
X+969399Y+1476394D01*
X+960177Y+1466014D01*
X+949682Y+1458326D01*
X+939187Y+1453408D01*
X+928692Y+1450602D01*
X+918197Y+1449629D01*
X+917601Y+1449626D01*
X+872700Y+1558027D02*
X+962502Y+1468225D01*
X+872700Y+1468225D02*
X+962502Y+1558027D01*
X+1235101Y+1513126D02*
X+1234884Y+1518373D01*
X+1233119Y+1528868D01*
X+1229427Y+1539363D01*
X+1223399Y+1549858D01*
X+1214177Y+1560238D01*
X+1203682Y+1567926D01*
X+1193187Y+1572844D01*
X+1182692Y+1575650D01*
X+1172197Y+1576623D01*
X+1171601Y+1576626D01*
X+1108101Y+1513126D02*
X+1108318Y+1518373D01*
X+1110083Y+1528868D01*
X+1113775Y+1539363D01*
X+1119803Y+1549858D01*
X+1129025Y+1560238D01*
X+1139520Y+1567926D01*
X+1150015Y+1572844D01*
X+1160510Y+1575650D01*
X+1171005Y+1576623D01*
X+1171601Y+1576626D01*
X+1108101Y+1513126D02*
X+1108318Y+1507879D01*
X+1110083Y+1497384D01*
X+1113775Y+1486889D01*
X+1119803Y+1476394D01*
X+1129025Y+1466014D01*
X+1139520Y+1458326D01*
X+1150015Y+1453408D01*
X+1160510Y+1450602D01*
X+1171005Y+1449629D01*
X+1171601Y+1449626D01*
X+1235101Y+1513126D02*
X+1234884Y+1507879D01*
X+1233119Y+1497384D01*
X+1229427Y+1486889D01*
X+1223399Y+1476394D01*
X+1214177Y+1466014D01*
X+1203682Y+1458326D01*
X+1193187Y+1453408D01*
X+1182692Y+1450602D01*
X+1172197Y+1449629D01*
X+1171601Y+1449626D01*
X+1126700Y+1558027D02*
X+1216502Y+1468225D01*
X+1126700Y+1468225D02*
X+1216502Y+1558027D01*
X+527101Y+363126D02*
X+526884Y+368373D01*
X+525119Y+378868D01*
X+521427Y+389363D01*
X+515399Y+399858D01*
X+506177Y+410238D01*
X+495682Y+417926D01*
X+485187Y+422844D01*
X+474692Y+425650D01*
X+464197Y+426623D01*
X+463601Y+426626D01*
X+400101Y+363126D02*
X+400318Y+368373D01*
X+402083Y+378868D01*
X+405775Y+389363D01*
X+411803Y+399858D01*
X+421025Y+410238D01*
X+431520Y+417926D01*
X+442015Y+422844D01*
X+452510Y+425650D01*
X+463005Y+426623D01*
X+463601Y+426626D01*
X+400101Y+363126D02*
X+400318Y+357879D01*
X+402083Y+347384D01*
X+405775Y+336889D01*
X+411803Y+326394D01*
X+421025Y+316014D01*
X+431520Y+308326D01*
X+442015Y+303408D01*
X+452510Y+300602D01*
X+463005Y+299629D01*
X+463601Y+299626D01*
X+527101Y+363126D02*
X+526884Y+357879D01*
X+525119Y+347384D01*
X+521427Y+336889D01*
X+515399Y+326394D01*
X+506177Y+316014D01*
X+495682Y+308326D01*
X+485187Y+303408D01*
X+474692Y+300602D01*
X+464197Y+299629D01*
X+463601Y+299626D01*
X+418700Y+408027D02*
X+508502Y+318225D01*
X+418700Y+318225D02*
X+508502Y+408027D01*
X+527101Y+1063126D02*
X+526884Y+1068373D01*
X+525119Y+1078868D01*
X+521427Y+1089363D01*
X+515399Y+1099858D01*
X+506177Y+1110238D01*
X+495682Y+1117926D01*
X+485187Y+1122844D01*
X+474692Y+1125650D01*
X+464197Y+1126623D01*
X+463601Y+1126626D01*
X+400101Y+1063126D02*
X+400318Y+1068373D01*
X+402083Y+1078868D01*
X+405775Y+1089363D01*
X+411803Y+1099858D01*
X+421025Y+1110238D01*
X+431520Y+1117926D01*
X+442015Y+1122844D01*
X+452510Y+1125650D01*
X+463005Y+1126623D01*
X+463601Y+1126626D01*
X+400101Y+1063126D02*
X+400318Y+1057879D01*
X+402083Y+1047384D01*
X+405775Y+1036889D01*
X+411803Y+1026394D01*
X+421025Y+1016014D01*
X+431520Y+1008326D01*
X+442015Y+1003408D01*
X+452510Y+1000602D01*
X+463005Y+999629D01*
X+463601Y+999626D01*
X+527101Y+1063126D02*
X+526884Y+1057879D01*
X+525119Y+1047384D01*
X+521427Y+1036889D01*
X+515399Y+1026394D01*
X+506177Y+1016014D01*
X+495682Y+1008326D01*
X+485187Y+1003408D01*
X+474692Y+1000602D01*
X+464197Y+999629D01*
X+463601Y+999626D01*
X+418700Y+1108027D02*
X+508502Y+1018225D01*
X+418700Y+1018225D02*
X+508502Y+1108027D01*
X+977101Y+363126D02*
X+976884Y+368373D01*
X+975119Y+378868D01*
X+971427Y+389363D01*
X+965399Y+399858D01*
X+956177Y+410238D01*
X+945682Y+417926D01*
X+935187Y+422844D01*
X+924692Y+425650D01*
X+914197Y+426623D01*
X+913601Y+426626D01*
X+850101Y+363126D02*
X+850318Y+368373D01*
X+852083Y+378868D01*
X+855775Y+389363D01*
X+861803Y+399858D01*
X+871025Y+410238D01*
X+881520Y+417926D01*
X+892015Y+422844D01*
X+902510Y+425650D01*
X+913005Y+426623D01*
X+913601Y+426626D01*
X+850101Y+363126D02*
X+850318Y+357879D01*
X+852083Y+347384D01*
X+855775Y+336889D01*
X+861803Y+326394D01*
X+871025Y+316014D01*
X+881520Y+308326D01*
X+892015Y+303408D01*
X+902510Y+300602D01*
X+913005Y+299629D01*
X+913601Y+299626D01*
X+977101Y+363126D02*
X+976884Y+357879D01*
X+975119Y+347384D01*
X+971427Y+336889D01*
X+965399Y+326394D01*
X+956177Y+316014D01*
X+945682Y+308326D01*
X+935187Y+303408D01*
X+924692Y+300602D01*
X+914197Y+299629D01*
X+913601Y+299626D01*
X+868700Y+408027D02*
X+958502Y+318225D01*
X+868700Y+318225D02*
X+958502Y+408027D01*
X+977101Y+1063126D02*
X+976884Y+1068373D01*
X+975119Y+1078868D01*
X+971427Y+1089363D01*
X+965399Y+1099858D01*
X+956177Y+1110238D01*
X+945682Y+1117926D01*
X+935187Y+1122844D01*
X+924692Y+1125650D01*
X+914197Y+1126623D01*
X+913601Y+1126626D01*
X+850101Y+1063126D02*
X+850318Y+1068373D01*
X+852083Y+1078868D01*
X+855775Y+1089363D01*
X+861803Y+1099858D01*
X+871025Y+1110238D01*
X+881520Y+1117926D01*
X+892015Y+1122844D01*
X+902510Y+1125650D01*
X+913005Y+1126623D01*
X+913601Y+1126626D01*
X+850101Y+1063126D02*
X+850318Y+1057879D01*
X+852083Y+1047384D01*
X+855775Y+1036889D01*
X+861803Y+1026394D01*
X+871025Y+1016014D01*
X+881520Y+1008326D01*
X+892015Y+1003408D01*
X+902510Y+1000602D01*
X+913005Y+999629D01*
X+913601Y+999626D01*
X+977101Y+1063126D02*
X+976884Y+1057879D01*
X+975119Y+1047384D01*
X+971427Y+1036889D01*
X+965399Y+1026394D01*
X+956177Y+1016014D01*
X+945682Y+1008326D01*
X+935187Y+1003408D01*
X+924692Y+1000602D01*
X+914197Y+999629D01*
X+913601Y+999626D01*
X+868700Y+1108027D02*
X+958502Y+1018225D01*
X+868700Y+1018225D02*
X+958502Y+1108027D01*
X+39941Y+39466D02*
X+6637261Y+39466D01*
X+6637261Y+7313126D01*
X+39941Y+7313126D01*
X+39941Y+39466D01*
D58*
X+14541Y-1725834D02*
X+2658681Y-1725834D01*
X+2658681Y-239934D01*
X+14541Y-239934D01*
X+14541Y-1725834D01*
D59*
X+481903Y-239934D02*
X+481903Y-1725834D01*
X+1294703Y-239934D02*
X+1294703Y-1725834D01*
X+2127823Y-239934D02*
X+2127823Y-1725834D01*
X+14541Y-512984D02*
X+2658681Y-512984D01*
X+14541Y-754284D02*
X+2658681Y-754284D01*
X+14541Y-995584D02*
X+2658681Y-995584D01*
X+14541Y-1236884D02*
X+2658681Y-1236884D01*
X+14541Y-1478184D02*
X+2658681Y-1478184D01*
D58*
X+71691Y-403764D02*
X+86931Y-419004D01*
X+147891Y-419004D01*
X+163131Y-403764D01*
X+163131Y-388524D01*
X+147891Y-373284D01*
X+86931Y-373284D01*
X+71691Y-358044D01*
X+71691Y-342804D01*
X+86931Y-327564D01*
X+147891Y-327564D01*
X+163131Y-342804D01*
X+285051Y-327564D02*
X+193611Y-419004D01*
X+193611Y-327564D02*
X+239331Y-373284D01*
X+315531Y-419004D02*
X+315531Y-327564D01*
X+361251Y-373284D01*
X+406971Y-327564D01*
X+406971Y-419004D01*
X+539051Y-403764D02*
X+554291Y-419004D01*
X+615251Y-419004D01*
X+630491Y-403764D01*
X+630491Y-388524D01*
X+615251Y-373284D01*
X+554291Y-373284D01*
X+539051Y-358044D01*
X+539051Y-342804D01*
X+554291Y-327564D01*
X+615251Y-327564D01*
X+630491Y-342804D01*
X+676211Y-327564D02*
X+737171Y-327564D01*
X+706691Y-327564D02*
X+706691Y-419004D01*
X+676211Y-419004D02*
X+737171Y-419004D01*
X+782891Y-327564D02*
X+874331Y-327564D01*
X+782891Y-419004D01*
X+874331Y-419004D01*
X+996251Y-419004D02*
X+904811Y-419004D01*
X+904811Y-327564D01*
X+996251Y-327564D01*
X+904811Y-373284D02*
X+965771Y-373284D01*
X+1351851Y-419004D02*
X+1351851Y-327564D01*
X+1428051Y-327564D01*
X+1443291Y-342804D01*
X+1443291Y-358044D01*
X+1428051Y-373284D01*
X+1351851Y-373284D01*
X+1473771Y-327564D02*
X+1473771Y-419004D01*
X+1565211Y-419004D01*
X+1595691Y-419004D02*
X+1595691Y-358044D01*
X+1626171Y-327564D01*
X+1656651Y-327564D01*
X+1687131Y-358044D01*
X+1687131Y-419004D01*
X+1595691Y-388524D02*
X+1687131Y-388524D01*
X+1717611Y-327564D02*
X+1809051Y-327564D01*
X+1763331Y-327564D02*
X+1763331Y-419004D01*
X+1930971Y-419004D02*
X+1839531Y-419004D01*
X+1839531Y-327564D01*
X+1930971Y-327564D01*
X+1839531Y-373284D02*
X+1900491Y-373284D01*
X+1961451Y-419004D02*
X+1961451Y-327564D01*
X+2022411Y-327564D01*
X+2052891Y-358044D01*
X+2052891Y-388524D01*
X+2022411Y-419004D01*
X+1961451Y-419004D01*
X+2184971Y-358044D02*
X+2215451Y-327564D01*
X+2245931Y-327564D01*
X+2276411Y-358044D01*
X+2276411Y-388524D01*
X+2245931Y-419004D01*
X+2215451Y-419004D01*
X+2184971Y-388524D01*
X+2184971Y-358044D01*
X+2245931Y-388524D02*
X+2276411Y-419004D01*
X+2306891Y-327564D02*
X+2398331Y-327564D01*
X+2352611Y-327564D02*
X+2352611Y-419004D01*
X+2520251Y-327564D02*
X+2428811Y-419004D01*
X+2428811Y-327564D02*
X+2474531Y-373284D01*
D20*
X+260921Y-563784D02*
X+260921Y-690784D01*
X+197421Y-627284D02*
X+324421Y-627284D01*
D58*
X+558101Y-652684D02*
X+558101Y-601884D01*
X+570801Y-589184D01*
X+621601Y-589184D01*
X+634301Y-601884D01*
X+634301Y-652684D01*
X+621601Y-665384D01*
X+570801Y-665384D01*
X+558101Y-652684D01*
X+558101Y-665384D02*
X+634301Y-589184D01*
X+697801Y-652684D02*
X+710501Y-652684D01*
X+710501Y-665384D01*
X+697801Y-665384D01*
X+697801Y-652684D01*
X+774001Y-589184D02*
X+837501Y-589184D01*
X+837501Y-601884D01*
X+774001Y-665384D01*
X+862901Y-665384D02*
X+862901Y-614584D01*
X+862901Y-627284D02*
X+875601Y-614584D01*
X+901001Y-639984D01*
X+926401Y-614584D01*
X+939101Y-627284D01*
X+939101Y-665384D01*
X+964501Y-665384D02*
X+964501Y-614584D01*
X+964501Y-627284D02*
X+977201Y-614584D01*
X+1002601Y-639984D01*
X+1028001Y-614584D01*
X+1040701Y-627284D01*
X+1040701Y-665384D01*
X+1459801Y-589184D02*
X+1383601Y-665384D01*
X+1383601Y-589184D02*
X+1421701Y-627284D01*
X+1561401Y-665384D02*
X+1485201Y-665384D01*
X+1485201Y-589184D01*
X+1561401Y-589184D01*
X+1485201Y-627284D02*
X+1536001Y-627284D01*
X+1586801Y-652684D02*
X+1599501Y-665384D01*
X+1650301Y-665384D01*
X+1663001Y-652684D01*
X+1663001Y-639984D01*
X+1650301Y-627284D01*
X+1599501Y-627284D01*
X+1586801Y-614584D01*
X+1586801Y-601884D01*
X+1599501Y-589184D01*
X+1650301Y-589184D01*
X+1663001Y-601884D01*
X+2305621Y-601884D02*
X+2292921Y-589184D01*
X+2254821Y-589184D01*
X+2242121Y-601884D01*
X+2242121Y-652684D01*
X+2254821Y-665384D01*
X+2292921Y-665384D01*
X+2305621Y-652684D01*
X+2305621Y-639984D01*
X+2292921Y-627284D01*
X+2242121Y-627284D01*
D20*
X+216020Y-823683D02*
X+305822Y-913485D01*
X+216020Y-913485D02*
X+305822Y-823683D01*
D58*
X+558101Y-893984D02*
X+558101Y-843184D01*
X+570801Y-830484D01*
X+621601Y-830484D01*
X+634301Y-843184D01*
X+634301Y-893984D01*
X+621601Y-906684D01*
X+570801Y-906684D01*
X+558101Y-893984D01*
X+558101Y-906684D02*
X+634301Y-830484D01*
X+697801Y-893984D02*
X+710501Y-893984D01*
X+710501Y-906684D01*
X+697801Y-906684D01*
X+697801Y-893984D01*
X+786701Y-868584D02*
X+774001Y-855884D01*
X+774001Y-843184D01*
X+786701Y-830484D01*
X+824801Y-830484D01*
X+837501Y-843184D01*
X+837501Y-855884D01*
X+824801Y-868584D01*
X+786701Y-868584D01*
X+774001Y-881284D01*
X+774001Y-893984D01*
X+786701Y-906684D01*
X+824801Y-906684D01*
X+837501Y-893984D01*
X+837501Y-881284D01*
X+824801Y-868584D01*
X+939101Y-830484D02*
X+875601Y-830484D01*
X+875601Y-855884D01*
X+926401Y-855884D01*
X+939101Y-868584D01*
X+939101Y-893984D01*
X+926401Y-906684D01*
X+888301Y-906684D01*
X+875601Y-893984D01*
X+964501Y-906684D02*
X+964501Y-855884D01*
X+964501Y-868584D02*
X+977201Y-855884D01*
X+1002601Y-881284D01*
X+1028001Y-855884D01*
X+1040701Y-868584D01*
X+1040701Y-906684D01*
X+1066101Y-906684D02*
X+1066101Y-855884D01*
X+1066101Y-868584D02*
X+1078801Y-855884D01*
X+1104201Y-881284D01*
X+1129601Y-855884D01*
X+1142301Y-868584D01*
X+1142301Y-906684D01*
X+1459801Y-830484D02*
X+1383601Y-906684D01*
X+1383601Y-830484D02*
X+1421701Y-868584D01*
X+1561401Y-906684D02*
X+1485201Y-906684D01*
X+1485201Y-830484D01*
X+1561401Y-830484D01*
X+1485201Y-868584D02*
X+1536001Y-868584D01*
X+1586801Y-893984D02*
X+1599501Y-906684D01*
X+1650301Y-906684D01*
X+1663001Y-893984D01*
X+1663001Y-881284D01*
X+1650301Y-868584D01*
X+1599501Y-868584D01*
X+1586801Y-855884D01*
X+1586801Y-843184D01*
X+1599501Y-830484D01*
X+1650301Y-830484D01*
X+1663001Y-843184D01*
X+2242121Y-843184D02*
X+2254821Y-830484D01*
X+2292921Y-830484D01*
X+2305621Y-843184D01*
X+2305621Y-855884D01*
X+2292921Y-868584D01*
X+2254821Y-868584D01*
X+2242121Y-881284D01*
X+2242121Y-906684D01*
X+2305621Y-906684D01*
D20*
X+260921Y-1046384D02*
X+260921Y-1173384D01*
X+197421Y-1109884D02*
X+324421Y-1109884D01*
X+216020Y-1064983D02*
X+305822Y-1154785D01*
X+216020Y-1154785D02*
X+305822Y-1064983D01*
D58*
X+558101Y-1135284D02*
X+558101Y-1084484D01*
X+570801Y-1071784D01*
X+621601Y-1071784D01*
X+634301Y-1084484D01*
X+634301Y-1135284D01*
X+621601Y-1147984D01*
X+570801Y-1147984D01*
X+558101Y-1135284D01*
X+558101Y-1147984D02*
X+634301Y-1071784D01*
X+697801Y-1135284D02*
X+710501Y-1135284D01*
X+710501Y-1147984D01*
X+697801Y-1147984D01*
X+697801Y-1135284D01*
X+837501Y-1071784D02*
X+774001Y-1071784D01*
X+774001Y-1097184D01*
X+824801Y-1097184D01*
X+837501Y-1109884D01*
X+837501Y-1135284D01*
X+824801Y-1147984D01*
X+786701Y-1147984D01*
X+774001Y-1135284D01*
X+862901Y-1135284D02*
X+862901Y-1084484D01*
X+875601Y-1071784D01*
X+926401Y-1071784D01*
X+939101Y-1084484D01*
X+939101Y-1135284D01*
X+926401Y-1147984D01*
X+875601Y-1147984D01*
X+862901Y-1135284D01*
X+862901Y-1147984D02*
X+939101Y-1071784D01*
X+989901Y-1109884D02*
X+977201Y-1097184D01*
X+977201Y-1084484D01*
X+989901Y-1071784D01*
X+1028001Y-1071784D01*
X+1040701Y-1084484D01*
X+1040701Y-1097184D01*
X+1028001Y-1109884D01*
X+989901Y-1109884D01*
X+977201Y-1122584D01*
X+977201Y-1135284D01*
X+989901Y-1147984D01*
X+1028001Y-1147984D01*
X+1040701Y-1135284D01*
X+1040701Y-1122584D01*
X+1028001Y-1109884D01*
X+1066101Y-1147984D02*
X+1066101Y-1097184D01*
X+1066101Y-1109884D02*
X+1078801Y-1097184D01*
X+1104201Y-1122584D01*
X+1129601Y-1097184D01*
X+1142301Y-1109884D01*
X+1142301Y-1147984D01*
X+1167701Y-1147984D02*
X+1167701Y-1097184D01*
X+1167701Y-1109884D02*
X+1180401Y-1097184D01*
X+1205801Y-1122584D01*
X+1231201Y-1097184D01*
X+1243901Y-1109884D01*
X+1243901Y-1147984D01*
X+1459801Y-1071784D02*
X+1383601Y-1147984D01*
X+1383601Y-1071784D02*
X+1421701Y-1109884D01*
X+1561401Y-1147984D02*
X+1485201Y-1147984D01*
X+1485201Y-1071784D01*
X+1561401Y-1071784D01*
X+1485201Y-1109884D02*
X+1536001Y-1109884D01*
X+1586801Y-1135284D02*
X+1599501Y-1147984D01*
X+1650301Y-1147984D01*
X+1663001Y-1135284D01*
X+1663001Y-1122584D01*
X+1650301Y-1109884D01*
X+1599501Y-1109884D01*
X+1586801Y-1097184D01*
X+1586801Y-1084484D01*
X+1599501Y-1071784D01*
X+1650301Y-1071784D01*
X+1663001Y-1084484D01*
X+2242121Y-1084484D02*
X+2254821Y-1071784D01*
X+2292921Y-1071784D01*
X+2305621Y-1084484D01*
X+2305621Y-1097184D01*
X+2292921Y-1109884D01*
X+2254821Y-1109884D01*
X+2242121Y-1122584D01*
X+2242121Y-1147984D01*
X+2305621Y-1147984D01*
X+2343721Y-1084484D02*
X+2356421Y-1071784D01*
X+2394521Y-1071784D01*
X+2407221Y-1084484D01*
X+2407221Y-1097184D01*
X+2394521Y-1109884D01*
X+2356421Y-1109884D01*
X+2343721Y-1122584D01*
X+2343721Y-1147984D01*
X+2407221Y-1147984D01*
D20*
X+324421Y-1351184D02*
X+324204Y-1345937D01*
X+322439Y-1335442D01*
X+318747Y-1324947D01*
X+312719Y-1314452D01*
X+303497Y-1304072D01*
X+293002Y-1296384D01*
X+282507Y-1291466D01*
X+272012Y-1288660D01*
X+261517Y-1287687D01*
X+260921Y-1287684D01*
X+197421Y-1351184D02*
X+197638Y-1345937D01*
X+199403Y-1335442D01*
X+203095Y-1324947D01*
X+209123Y-1314452D01*
X+218345Y-1304072D01*
X+228840Y-1296384D01*
X+239335Y-1291466D01*
X+249830Y-1288660D01*
X+260325Y-1287687D01*
X+260921Y-1287684D01*
X+197421Y-1351184D02*
X+197638Y-1356431D01*
X+199403Y-1366926D01*
X+203095Y-1377421D01*
X+209123Y-1387916D01*
X+218345Y-1398296D01*
X+228840Y-1405984D01*
X+239335Y-1410902D01*
X+249830Y-1413708D01*
X+260325Y-1414681D01*
X+260921Y-1414684D01*
X+324421Y-1351184D02*
X+324204Y-1356431D01*
X+322439Y-1366926D01*
X+318747Y-1377421D01*
X+312719Y-1387916D01*
X+303497Y-1398296D01*
X+293002Y-1405984D01*
X+282507Y-1410902D01*
X+272012Y-1413708D01*
X+261517Y-1414681D01*
X+260921Y-1414684D01*
X+260921Y-1287684D02*
X+260921Y-1414684D01*
X+197421Y-1351184D02*
X+324421Y-1351184D01*
D58*
X+558101Y-1376584D02*
X+558101Y-1325784D01*
X+570801Y-1313084D01*
X+621601Y-1313084D01*
X+634301Y-1325784D01*
X+634301Y-1376584D01*
X+621601Y-1389284D01*
X+570801Y-1389284D01*
X+558101Y-1376584D01*
X+558101Y-1389284D02*
X+634301Y-1313084D01*
X+697801Y-1376584D02*
X+710501Y-1376584D01*
X+710501Y-1389284D01*
X+697801Y-1389284D01*
X+697801Y-1376584D01*
X+774001Y-1313084D02*
X+837501Y-1313084D01*
X+837501Y-1325784D01*
X+774001Y-1389284D01*
X+939101Y-1325784D02*
X+926401Y-1313084D01*
X+888301Y-1313084D01*
X+875601Y-1325784D01*
X+875601Y-1376584D01*
X+888301Y-1389284D01*
X+926401Y-1389284D01*
X+939101Y-1376584D01*
X+939101Y-1363884D01*
X+926401Y-1351184D01*
X+875601Y-1351184D01*
X+977201Y-1325784D02*
X+989901Y-1313084D01*
X+1028001Y-1313084D01*
X+1040701Y-1325784D01*
X+1040701Y-1338484D01*
X+1028001Y-1351184D01*
X+989901Y-1351184D01*
X+977201Y-1363884D01*
X+977201Y-1389284D01*
X+1040701Y-1389284D01*
X+1066101Y-1389284D02*
X+1066101Y-1338484D01*
X+1066101Y-1351184D02*
X+1078801Y-1338484D01*
X+1104201Y-1363884D01*
X+1129601Y-1338484D01*
X+1142301Y-1351184D01*
X+1142301Y-1389284D01*
X+1167701Y-1389284D02*
X+1167701Y-1338484D01*
X+1167701Y-1351184D02*
X+1180401Y-1338484D01*
X+1205801Y-1363884D01*
X+1231201Y-1338484D01*
X+1243901Y-1351184D01*
X+1243901Y-1389284D01*
X+1459801Y-1313084D02*
X+1383601Y-1389284D01*
X+1383601Y-1313084D02*
X+1421701Y-1351184D01*
X+1561401Y-1389284D02*
X+1485201Y-1389284D01*
X+1485201Y-1313084D01*
X+1561401Y-1313084D01*
X+1485201Y-1351184D02*
X+1536001Y-1351184D01*
X+1586801Y-1376584D02*
X+1599501Y-1389284D01*
X+1650301Y-1389284D01*
X+1663001Y-1376584D01*
X+1663001Y-1363884D01*
X+1650301Y-1351184D01*
X+1599501Y-1351184D01*
X+1586801Y-1338484D01*
X+1586801Y-1325784D01*
X+1599501Y-1313084D01*
X+1650301Y-1313084D01*
X+1663001Y-1325784D01*
X+2305621Y-1313084D02*
X+2242121Y-1313084D01*
X+2242121Y-1338484D01*
X+2292921Y-1338484D01*
X+2305621Y-1351184D01*
X+2305621Y-1376584D01*
X+2292921Y-1389284D01*
X+2254821Y-1389284D01*
X+2242121Y-1376584D01*
X+2331021Y-1376584D02*
X+2331021Y-1325784D01*
X+2343721Y-1313084D01*
X+2394521Y-1313084D01*
X+2407221Y-1325784D01*
X+2407221Y-1376584D01*
X+2394521Y-1389284D01*
X+2343721Y-1389284D01*
X+2331021Y-1376584D01*
X+2331021Y-1389284D02*
X+2407221Y-1313084D01*
D20*
X+324421Y-1592484D02*
X+324204Y-1587237D01*
X+322439Y-1576742D01*
X+318747Y-1566247D01*
X+312719Y-1555752D01*
X+303497Y-1545372D01*
X+293002Y-1537684D01*
X+282507Y-1532766D01*
X+272012Y-1529960D01*
X+261517Y-1528987D01*
X+260921Y-1528984D01*
X+197421Y-1592484D02*
X+197638Y-1587237D01*
X+199403Y-1576742D01*
X+203095Y-1566247D01*
X+209123Y-1555752D01*
X+218345Y-1545372D01*
X+228840Y-1537684D01*
X+239335Y-1532766D01*
X+249830Y-1529960D01*
X+260325Y-1528987D01*
X+260921Y-1528984D01*
X+197421Y-1592484D02*
X+197638Y-1597731D01*
X+199403Y-1608226D01*
X+203095Y-1618721D01*
X+209123Y-1629216D01*
X+218345Y-1639596D01*
X+228840Y-1647284D01*
X+239335Y-1652202D01*
X+249830Y-1655008D01*
X+260325Y-1655981D01*
X+260921Y-1655984D01*
X+324421Y-1592484D02*
X+324204Y-1597731D01*
X+322439Y-1608226D01*
X+318747Y-1618721D01*
X+312719Y-1629216D01*
X+303497Y-1639596D01*
X+293002Y-1647284D01*
X+282507Y-1652202D01*
X+272012Y-1655008D01*
X+261517Y-1655981D01*
X+260921Y-1655984D01*
X+216020Y-1547583D02*
X+305822Y-1637385D01*
X+216020Y-1637385D02*
X+305822Y-1547583D01*
D58*
X+583501Y-1579784D02*
X+608901Y-1554384D01*
X+608901Y-1630584D01*
X+697801Y-1617884D02*
X+710501Y-1617884D01*
X+710501Y-1630584D01*
X+697801Y-1630584D01*
X+697801Y-1617884D01*
X+761301Y-1617884D02*
X+761301Y-1567084D01*
X+774001Y-1554384D01*
X+824801Y-1554384D01*
X+837501Y-1567084D01*
X+837501Y-1617884D01*
X+824801Y-1630584D01*
X+774001Y-1630584D01*
X+761301Y-1617884D01*
X+761301Y-1630584D02*
X+837501Y-1554384D01*
X+888301Y-1579784D02*
X+913701Y-1554384D01*
X+913701Y-1630584D01*
X+1040701Y-1567084D02*
X+1028001Y-1554384D01*
X+989901Y-1554384D01*
X+977201Y-1567084D01*
X+977201Y-1617884D01*
X+989901Y-1630584D01*
X+1028001Y-1630584D01*
X+1040701Y-1617884D01*
X+1040701Y-1605184D01*
X+1028001Y-1592484D01*
X+977201Y-1592484D01*
X+1066101Y-1630584D02*
X+1066101Y-1579784D01*
X+1066101Y-1592484D02*
X+1078801Y-1579784D01*
X+1104201Y-1605184D01*
X+1129601Y-1579784D01*
X+1142301Y-1592484D01*
X+1142301Y-1630584D01*
X+1167701Y-1630584D02*
X+1167701Y-1579784D01*
X+1167701Y-1592484D02*
X+1180401Y-1579784D01*
X+1205801Y-1605184D01*
X+1231201Y-1579784D01*
X+1243901Y-1592484D01*
X+1243901Y-1630584D01*
X+1459801Y-1554384D02*
X+1383601Y-1630584D01*
X+1383601Y-1554384D02*
X+1421701Y-1592484D01*
X+1561401Y-1630584D02*
X+1485201Y-1630584D01*
X+1485201Y-1554384D01*
X+1561401Y-1554384D01*
X+1485201Y-1592484D02*
X+1536001Y-1592484D01*
X+1586801Y-1617884D02*
X+1599501Y-1630584D01*
X+1650301Y-1630584D01*
X+1663001Y-1617884D01*
X+1663001Y-1605184D01*
X+1650301Y-1592484D01*
X+1599501Y-1592484D01*
X+1586801Y-1579784D01*
X+1586801Y-1567084D01*
X+1599501Y-1554384D01*
X+1650301Y-1554384D01*
X+1663001Y-1567084D01*
X+2242121Y-1567084D02*
X+2254821Y-1554384D01*
X+2292921Y-1554384D01*
X+2305621Y-1567084D01*
X+2305621Y-1579784D01*
X+2292921Y-1592484D01*
X+2305621Y-1605184D01*
X+2305621Y-1617884D01*
X+2292921Y-1630584D01*
X+2254821Y-1630584D01*
X+2242121Y-1617884D01*
X+2267521Y-1592484D02*
X+2292921Y-1592484D01*
X+2331021Y-1617884D02*
X+2331021Y-1567084D01*
X+2343721Y-1554384D01*
X+2394521Y-1554384D01*
X+2407221Y-1567084D01*
X+2407221Y-1617884D01*
X+2394521Y-1630584D01*
X+2343721Y-1630584D01*
X+2331021Y-1617884D01*
X+2331021Y-1630584D02*
X+2407221Y-1554384D01*
M02*
