G04 PROTEUS RS274X GERBER FILE*
%FSLAX45Y45*%
%MOMM*%
G01*
%ADD10C,0.508000*%
%ADD11C,1.270000*%
%ADD12R,1.778000X1.778000*%
%ADD13C,1.778000*%
%ADD14R,2.032000X2.032000*%
%ADD15C,2.286000*%
%ADD16R,1.280000X1.280000*%
%ADD17C,0.254000*%
%ADD18C,1.280000*%
%ADD19R,1.050000X1.050000*%
%ADD70C,1.050000*%
%ADD71C,2.032000*%
%ADD20C,0.203200*%
D10*
X+1297627Y+4655399D02*
X+1297627Y+5482823D01*
X+1300376Y+5485572D01*
X+2852969Y+4363554D02*
X+3761749Y+4363554D01*
X+2589378Y+3569447D02*
X+4068499Y+3569447D01*
X+5183326Y+5146345D02*
X+5825623Y+5146345D01*
X+2034157Y+4672826D02*
X+2034157Y+4029751D01*
X+2031221Y+4026815D01*
X+4549975Y+5764082D02*
X+5261917Y+5764082D01*
X+5262570Y+5764735D01*
X+5403855Y+1932120D02*
X+5403855Y+953162D01*
X+4505949Y+5954230D02*
X+4505949Y+6977348D01*
X+3192242Y+4842938D02*
X+4415352Y+4842938D01*
X+4417347Y+4844933D01*
X+2004911Y+4931464D02*
X+2004911Y+5266935D01*
X+2010902Y+5272926D01*
X+3004664Y+5072509D02*
X+3004664Y+6113953D01*
X+3004160Y+6114457D01*
D11*
X+1297627Y+4655399D03*
X+1300376Y+5485572D03*
X+2852969Y+4363554D03*
X+3761749Y+4363554D03*
X+2589378Y+3569447D03*
X+4068499Y+3569447D03*
X+5183326Y+5146345D03*
X+5825623Y+5146345D03*
X+2034157Y+4672826D03*
X+2031221Y+4026815D03*
X+4549975Y+5764082D03*
X+5262570Y+5764735D03*
X+5403855Y+1932120D03*
X+5403855Y+953162D03*
X+4505949Y+5954230D03*
X+4505949Y+6977348D03*
X+3192242Y+4842938D03*
X+4417347Y+4844933D03*
X+2004911Y+4931464D03*
X+2010902Y+5272926D03*
X+3004664Y+5072509D03*
X+3004160Y+6114457D03*
D12*
X+423601Y+2613126D03*
D13*
X+677601Y+2613126D03*
X+931601Y+2613126D03*
X+1185601Y+2613126D03*
X+1439601Y+2613126D03*
X+1693601Y+2613126D03*
X+1947601Y+2613126D03*
X+2201601Y+2613126D03*
X+2455601Y+2613126D03*
X+2709601Y+2613126D03*
X+2963601Y+2613126D03*
X+3217601Y+2613126D03*
X+3471601Y+2613126D03*
X+3725601Y+2613126D03*
X+3725601Y+3375126D03*
X+3471601Y+3375126D03*
X+3217601Y+3375126D03*
X+2963601Y+3375126D03*
X+2709601Y+3375126D03*
X+2455601Y+3375126D03*
X+2201601Y+3375126D03*
X+1947601Y+3375126D03*
X+1693601Y+3375126D03*
X+1439601Y+3375126D03*
X+1185601Y+3375126D03*
X+931601Y+3375126D03*
X+677601Y+3375126D03*
X+425601Y+3375126D03*
D14*
X+2109601Y+6263126D03*
X+2363601Y+6263126D03*
X+2617601Y+6263126D03*
D15*
X+2363601Y+6813126D03*
X+3379601Y+6813126D03*
D14*
X+5213601Y+7013126D03*
X+4959601Y+7013126D03*
D16*
X+2613601Y+5563126D03*
D17*
X+2613601Y+5563126D03*
D18*
X+2613601Y+5063126D03*
D19*
X+1563601Y+5238126D03*
D17*
X+1563601Y+5238126D03*
D70*
X+1563601Y+5088126D03*
D14*
X+3413601Y+6263126D03*
X+3159601Y+6263126D03*
D19*
X+3813601Y+5788126D03*
D17*
X+3813601Y+5788126D03*
D70*
X+3813601Y+5938126D03*
D19*
X+3738601Y+4713126D03*
D17*
X+3738601Y+4713126D03*
D70*
X+3588601Y+4713126D03*
D13*
X+6013601Y+6613126D03*
X+4213601Y+6613126D03*
X+6013601Y+2613126D03*
X+4213601Y+2613126D03*
D71*
X+2347601Y+2063126D03*
X+2855601Y+2063126D03*
D13*
X+2347601Y+1563126D03*
X+2347601Y+1055126D03*
X+2847601Y+1563126D03*
X+2847601Y+1055126D03*
D14*
X+1117601Y+5113126D03*
X+863601Y+5113126D03*
X+1113601Y+5713126D03*
X+859601Y+5713126D03*
X+1113601Y+6313126D03*
X+859601Y+6313126D03*
D11*
X+6063601Y+847126D03*
X+6063601Y+1101126D03*
X+6063601Y+1355126D03*
X+6063601Y+1609126D03*
X+6063601Y+1863126D03*
X+3904601Y+847126D03*
X+3904601Y+1101126D03*
X+3904601Y+1355126D03*
X+3904601Y+1609126D03*
X+3904601Y+1863126D03*
X+3904601Y+2117126D03*
D71*
X+1363601Y+563126D03*
D14*
X+2509601Y+3809126D03*
X+2763601Y+3809126D03*
X+3017601Y+3809126D03*
X+3271601Y+3809126D03*
X+3271601Y+4063126D03*
X+3017601Y+4063126D03*
X+2763601Y+4063126D03*
X+2509601Y+4063126D03*
X+663601Y+1513126D03*
X+917601Y+1513126D03*
X+1171601Y+1513126D03*
D15*
X+463601Y+363126D03*
X+463601Y+1063126D03*
X+913601Y+363126D03*
X+913601Y+1063126D03*
D20*
X+39941Y+39466D02*
X+6637261Y+39466D01*
X+6637261Y+7313126D01*
X+39941Y+7313126D01*
X+39941Y+39466D01*
M02*
