G04 PROTEUS RS274X GERBER FILE*
%FSLAX45Y45*%
%MOMM*%
G01*
%ADD20C,0.203200*%
%ADD28C,0.200000*%
%ADD29C,0.250000*%
D20*
X+39941Y+39466D02*
X+6637261Y+39466D01*
X+6637261Y+7313126D01*
X+39941Y+7313126D01*
X+39941Y+39466D01*
D28*
X+2268601Y+5773126D02*
X+2168601Y+5773126D01*
X+2268601Y+5953126D02*
X+2168601Y+5953126D01*
D20*
X+2345601Y+5993606D02*
X+2345601Y+6085046D01*
X+2266226Y+6085046D01*
X+2250351Y+6069806D01*
X+2250351Y+6054566D01*
X+2266226Y+6039326D01*
X+2345601Y+6039326D01*
X+2266226Y+6039326D02*
X+2250351Y+6024086D01*
X+2250351Y+5993606D01*
X+2123351Y+6024086D02*
X+2218601Y+6024086D01*
X+2155101Y+6085046D01*
X+2155101Y+5993606D01*
D28*
X+2203601Y+5468126D02*
X+2203601Y+5368126D01*
X+2023601Y+5468126D02*
X+2023601Y+5368126D01*
D20*
X+1983121Y+5545126D02*
X+1891681Y+5545126D01*
X+1891681Y+5465751D01*
X+1906921Y+5449876D01*
X+1922161Y+5449876D01*
X+1937401Y+5465751D01*
X+1937401Y+5545126D01*
X+1937401Y+5465751D02*
X+1952641Y+5449876D01*
X+1983121Y+5449876D01*
X+1891681Y+5322876D02*
X+1891681Y+5402251D01*
X+1922161Y+5402251D01*
X+1922161Y+5338751D01*
X+1937401Y+5322876D01*
X+1967881Y+5322876D01*
X+1983121Y+5338751D01*
X+1983121Y+5386376D01*
X+1967881Y+5402251D01*
D28*
X+3008601Y+5953126D02*
X+3108601Y+5953126D01*
X+3008601Y+5773126D02*
X+3108601Y+5773126D01*
D20*
X+3185601Y+5641206D02*
X+3185601Y+5732646D01*
X+3106226Y+5732646D01*
X+3090351Y+5717406D01*
X+3090351Y+5702166D01*
X+3106226Y+5686926D01*
X+3185601Y+5686926D01*
X+3106226Y+5686926D02*
X+3090351Y+5671686D01*
X+3090351Y+5641206D01*
X+2963351Y+5717406D02*
X+2979226Y+5732646D01*
X+3026851Y+5732646D01*
X+3042726Y+5717406D01*
X+3042726Y+5656446D01*
X+3026851Y+5641206D01*
X+2979226Y+5641206D01*
X+2963351Y+5656446D01*
X+2963351Y+5671686D01*
X+2979226Y+5686926D01*
X+3042726Y+5686926D01*
D29*
X+3111101Y+4928126D02*
X+3111058Y+4929165D01*
X+3110706Y+4931244D01*
X+3109969Y+4933323D01*
X+3108765Y+4935402D01*
X+3106924Y+4937452D01*
X+3104845Y+4938955D01*
X+3102766Y+4939912D01*
X+3100687Y+4940451D01*
X+3098608Y+4940626D01*
X+3098601Y+4940626D01*
X+3086101Y+4928126D02*
X+3086144Y+4929165D01*
X+3086496Y+4931244D01*
X+3087233Y+4933323D01*
X+3088437Y+4935402D01*
X+3090278Y+4937452D01*
X+3092357Y+4938955D01*
X+3094436Y+4939912D01*
X+3096515Y+4940451D01*
X+3098594Y+4940626D01*
X+3098601Y+4940626D01*
X+3086101Y+4928126D02*
X+3086144Y+4927087D01*
X+3086496Y+4925008D01*
X+3087233Y+4922929D01*
X+3088437Y+4920850D01*
X+3090278Y+4918800D01*
X+3092357Y+4917297D01*
X+3094436Y+4916340D01*
X+3096515Y+4915801D01*
X+3098594Y+4915626D01*
X+3098601Y+4915626D01*
X+3111101Y+4928126D02*
X+3111058Y+4927087D01*
X+3110706Y+4925008D01*
X+3109969Y+4922929D01*
X+3108765Y+4920850D01*
X+3106924Y+4918800D01*
X+3104845Y+4917297D01*
X+3102766Y+4916340D01*
X+3100687Y+4915801D01*
X+3098608Y+4915626D01*
X+3098601Y+4915626D01*
D28*
X+3328601Y+5598126D02*
X+3618601Y+5598126D01*
X+3618601Y+4928126D01*
X+3328601Y+4928126D01*
X+3328601Y+5598126D01*
D20*
X+3600601Y+4872646D02*
X+3600601Y+4796446D01*
X+3584726Y+4781206D01*
X+3521226Y+4781206D01*
X+3505351Y+4796446D01*
X+3505351Y+4872646D01*
X+3457726Y+4857406D02*
X+3441851Y+4872646D01*
X+3394226Y+4872646D01*
X+3378351Y+4857406D01*
X+3378351Y+4842166D01*
X+3394226Y+4826926D01*
X+3378351Y+4811686D01*
X+3378351Y+4796446D01*
X+3394226Y+4781206D01*
X+3441851Y+4781206D01*
X+3457726Y+4796446D01*
X+3425976Y+4826926D02*
X+3394226Y+4826926D01*
D28*
X+2773601Y+4708126D02*
X+2773601Y+4808126D01*
X+2953601Y+4708126D02*
X+2953601Y+4808126D01*
D20*
X+3085521Y+4948626D02*
X+2994081Y+4948626D01*
X+2994081Y+4869251D01*
X+3009321Y+4853376D01*
X+3024561Y+4853376D01*
X+3039801Y+4869251D01*
X+3039801Y+4948626D01*
X+3039801Y+4869251D02*
X+3055041Y+4853376D01*
X+3085521Y+4853376D01*
X+3024561Y+4789876D02*
X+2994081Y+4758126D01*
X+3085521Y+4758126D01*
X+3009321Y+4599376D02*
X+2994081Y+4615251D01*
X+2994081Y+4662876D01*
X+3009321Y+4678751D01*
X+3070281Y+4678751D01*
X+3085521Y+4662876D01*
X+3085521Y+4615251D01*
X+3070281Y+4599376D01*
X+3055041Y+4599376D01*
X+3039801Y+4615251D01*
X+3039801Y+4678751D01*
D28*
X+3318601Y+4373126D02*
X+3218601Y+4373126D01*
X+3318601Y+4553126D02*
X+3218601Y+4553126D01*
D20*
X+3459101Y+4593606D02*
X+3459101Y+4685046D01*
X+3379726Y+4685046D01*
X+3363851Y+4669806D01*
X+3363851Y+4654566D01*
X+3379726Y+4639326D01*
X+3459101Y+4639326D01*
X+3379726Y+4639326D02*
X+3363851Y+4624086D01*
X+3363851Y+4593606D01*
X+3300351Y+4654566D02*
X+3268601Y+4685046D01*
X+3268601Y+4593606D01*
X+3189226Y+4685046D02*
X+3109851Y+4685046D01*
X+3109851Y+4669806D01*
X+3189226Y+4593606D01*
X+4824841Y+5918066D02*
X+4913741Y+5918066D01*
X+4931521Y+5806306D02*
X+5002641Y+5806306D01*
X+4824841Y+5918066D02*
X+4824841Y+5826626D01*
X+5114401Y+5824086D02*
X+5114401Y+5918066D01*
X+5028041Y+5918066D01*
X+5185521Y+5985376D02*
X+5155041Y+5953626D01*
X+5155041Y+5921876D01*
X+5185521Y+5890126D01*
X+5216001Y+5890126D01*
X+5246481Y+5921876D01*
X+5246481Y+5953626D01*
X+5216001Y+5985376D01*
X+5185521Y+5985376D01*
X+5216001Y+5921876D02*
X+5246481Y+5890126D01*
X+5185521Y+5826626D02*
X+5155041Y+5794876D01*
X+5246481Y+5794876D01*
X+5185801Y+6227286D02*
X+5033401Y+6227286D01*
X+5183261Y+6079966D02*
X+5033401Y+6079966D01*
X+5239141Y+6267926D02*
X+5239141Y+6359366D01*
X+5159766Y+6359366D01*
X+5143891Y+6344126D01*
X+5143891Y+6328886D01*
X+5159766Y+6313646D01*
X+5239141Y+6313646D01*
X+5159766Y+6313646D02*
X+5143891Y+6298406D01*
X+5143891Y+6267926D01*
X+5096266Y+6359366D02*
X+5016891Y+6359366D01*
X+5016891Y+6344126D01*
X+5096266Y+6267926D01*
X+5035801Y+5477286D02*
X+4883401Y+5477286D01*
X+5033261Y+5329966D02*
X+4883401Y+5329966D01*
X+5152641Y+5517926D02*
X+5152641Y+5609366D01*
X+5073266Y+5609366D01*
X+5057391Y+5594126D01*
X+5057391Y+5578886D01*
X+5073266Y+5563646D01*
X+5152641Y+5563646D01*
X+5073266Y+5563646D02*
X+5057391Y+5548406D01*
X+5057391Y+5517926D01*
X+4993891Y+5578886D02*
X+4962141Y+5609366D01*
X+4962141Y+5517926D01*
X+4866891Y+5578886D02*
X+4835141Y+5609366D01*
X+4835141Y+5517926D01*
X+5583781Y+5927566D02*
X+5672681Y+5927566D01*
X+5690461Y+5815806D02*
X+5761581Y+5815806D01*
X+5583781Y+5927566D02*
X+5583781Y+5836126D01*
X+5873341Y+5833586D02*
X+5873341Y+5927566D01*
X+5786981Y+5927566D01*
X+5944461Y+5994876D02*
X+5913981Y+5963126D01*
X+5913981Y+5931376D01*
X+5944461Y+5899626D01*
X+5974941Y+5899626D01*
X+6005421Y+5931376D01*
X+6005421Y+5963126D01*
X+5974941Y+5994876D01*
X+5944461Y+5994876D01*
X+5974941Y+5931376D02*
X+6005421Y+5899626D01*
X+5929221Y+5852001D02*
X+5913981Y+5836126D01*
X+5913981Y+5788501D01*
X+5929221Y+5772626D01*
X+5944461Y+5772626D01*
X+5959701Y+5788501D01*
X+5959701Y+5836126D01*
X+5974941Y+5852001D01*
X+6005421Y+5852001D01*
X+6005421Y+5772626D01*
X+5944741Y+6236786D02*
X+5792341Y+6236786D01*
X+5942201Y+6089466D02*
X+5792341Y+6089466D01*
X+6061581Y+6277426D02*
X+6061581Y+6368866D01*
X+5982206Y+6368866D01*
X+5966331Y+6353626D01*
X+5966331Y+6338386D01*
X+5982206Y+6323146D01*
X+6061581Y+6323146D01*
X+5982206Y+6323146D02*
X+5966331Y+6307906D01*
X+5966331Y+6277426D01*
X+5902831Y+6338386D02*
X+5871081Y+6368866D01*
X+5871081Y+6277426D01*
X+5791706Y+6353626D02*
X+5775831Y+6368866D01*
X+5728206Y+6368866D01*
X+5712331Y+6353626D01*
X+5712331Y+6338386D01*
X+5728206Y+6323146D01*
X+5775831Y+6323146D01*
X+5791706Y+6307906D01*
X+5791706Y+6277426D01*
X+5712331Y+6277426D01*
X+5794741Y+5486786D02*
X+5642341Y+5486786D01*
X+5792201Y+5339466D02*
X+5642341Y+5339466D01*
X+5911581Y+5527426D02*
X+5911581Y+5618866D01*
X+5832206Y+5618866D01*
X+5816331Y+5603626D01*
X+5816331Y+5588386D01*
X+5832206Y+5573146D01*
X+5911581Y+5573146D01*
X+5832206Y+5573146D02*
X+5816331Y+5557906D01*
X+5816331Y+5527426D01*
X+5752831Y+5588386D02*
X+5721081Y+5618866D01*
X+5721081Y+5527426D01*
X+5641706Y+5603626D02*
X+5625831Y+5618866D01*
X+5578206Y+5618866D01*
X+5562331Y+5603626D01*
X+5562331Y+5588386D01*
X+5578206Y+5573146D01*
X+5562331Y+5557906D01*
X+5562331Y+5542666D01*
X+5578206Y+5527426D01*
X+5625831Y+5527426D01*
X+5641706Y+5542666D01*
X+5609956Y+5573146D02*
X+5578206Y+5573146D01*
X+4124841Y+5918066D02*
X+4213741Y+5918066D01*
X+4231521Y+5806306D02*
X+4302641Y+5806306D01*
X+4124841Y+5918066D02*
X+4124841Y+5826626D01*
X+4414401Y+5824086D02*
X+4414401Y+5918066D01*
X+4328041Y+5918066D01*
X+4485521Y+5985376D02*
X+4455041Y+5953626D01*
X+4455041Y+5921876D01*
X+4485521Y+5890126D01*
X+4516001Y+5890126D01*
X+4546481Y+5921876D01*
X+4546481Y+5953626D01*
X+4516001Y+5985376D01*
X+4485521Y+5985376D01*
X+4516001Y+5921876D02*
X+4546481Y+5890126D01*
X+4470281Y+5842501D02*
X+4455041Y+5826626D01*
X+4455041Y+5779001D01*
X+4470281Y+5763126D01*
X+4485521Y+5763126D01*
X+4500761Y+5779001D01*
X+4516001Y+5763126D01*
X+4531241Y+5763126D01*
X+4546481Y+5779001D01*
X+4546481Y+5826626D01*
X+4531241Y+5842501D01*
X+4500761Y+5810751D02*
X+4500761Y+5779001D01*
X+4485801Y+6227286D02*
X+4333401Y+6227286D01*
X+4483261Y+6079966D02*
X+4333401Y+6079966D01*
X+4602641Y+6267926D02*
X+4602641Y+6359366D01*
X+4523266Y+6359366D01*
X+4507391Y+6344126D01*
X+4507391Y+6328886D01*
X+4523266Y+6313646D01*
X+4602641Y+6313646D01*
X+4523266Y+6313646D02*
X+4507391Y+6298406D01*
X+4507391Y+6267926D01*
X+4443891Y+6328886D02*
X+4412141Y+6359366D01*
X+4412141Y+6267926D01*
X+4253391Y+6298406D02*
X+4348641Y+6298406D01*
X+4285141Y+6359366D01*
X+4285141Y+6267926D01*
X+4329781Y+5486786D02*
X+4177381Y+5486786D01*
X+4327241Y+5339466D02*
X+4177381Y+5339466D01*
X+4446621Y+5527426D02*
X+4446621Y+5618866D01*
X+4367246Y+5618866D01*
X+4351371Y+5603626D01*
X+4351371Y+5588386D01*
X+4367246Y+5573146D01*
X+4446621Y+5573146D01*
X+4367246Y+5573146D02*
X+4351371Y+5557906D01*
X+4351371Y+5527426D01*
X+4287871Y+5588386D02*
X+4256121Y+5618866D01*
X+4256121Y+5527426D01*
X+4097371Y+5618866D02*
X+4176746Y+5618866D01*
X+4176746Y+5588386D01*
X+4113246Y+5588386D01*
X+4097371Y+5573146D01*
X+4097371Y+5542666D01*
X+4113246Y+5527426D01*
X+4160871Y+5527426D01*
X+4176746Y+5542666D01*
D28*
X+1623601Y+3958126D02*
X+1623601Y+4058126D01*
X+1803601Y+3958126D02*
X+1803601Y+4058126D01*
D20*
X+1935521Y+4135126D02*
X+1844081Y+4135126D01*
X+1844081Y+4055751D01*
X+1859321Y+4039876D01*
X+1874561Y+4039876D01*
X+1889801Y+4055751D01*
X+1889801Y+4135126D01*
X+1889801Y+4055751D02*
X+1905041Y+4039876D01*
X+1935521Y+4039876D01*
X+1889801Y+3976376D02*
X+1874561Y+3992251D01*
X+1859321Y+3992251D01*
X+1844081Y+3976376D01*
X+1844081Y+3928751D01*
X+1859321Y+3912876D01*
X+1874561Y+3912876D01*
X+1889801Y+3928751D01*
X+1889801Y+3976376D01*
X+1905041Y+3992251D01*
X+1920281Y+3992251D01*
X+1935521Y+3976376D01*
X+1935521Y+3928751D01*
X+1920281Y+3912876D01*
X+1905041Y+3912876D01*
X+1889801Y+3928751D01*
D28*
X+1373601Y+4458126D02*
X+1373601Y+4558126D01*
X+1553601Y+4458126D02*
X+1553601Y+4558126D01*
D20*
X+1685521Y+4635126D02*
X+1594081Y+4635126D01*
X+1594081Y+4555751D01*
X+1609321Y+4539876D01*
X+1624561Y+4539876D01*
X+1639801Y+4555751D01*
X+1639801Y+4635126D01*
X+1639801Y+4555751D02*
X+1655041Y+4539876D01*
X+1685521Y+4539876D01*
X+1624561Y+4412876D02*
X+1639801Y+4428751D01*
X+1639801Y+4476376D01*
X+1624561Y+4492251D01*
X+1609321Y+4492251D01*
X+1594081Y+4476376D01*
X+1594081Y+4428751D01*
X+1609321Y+4412876D01*
X+1670281Y+4412876D01*
X+1685521Y+4428751D01*
X+1685521Y+4476376D01*
D28*
X+1123601Y+3958126D02*
X+1123601Y+4058126D01*
X+1303601Y+3958126D02*
X+1303601Y+4058126D01*
D20*
X+1435521Y+4198626D02*
X+1344081Y+4198626D01*
X+1344081Y+4119251D01*
X+1359321Y+4103376D01*
X+1374561Y+4103376D01*
X+1389801Y+4119251D01*
X+1389801Y+4198626D01*
X+1389801Y+4119251D02*
X+1405041Y+4103376D01*
X+1435521Y+4103376D01*
X+1374561Y+4039876D02*
X+1344081Y+4008126D01*
X+1435521Y+4008126D01*
X+1420281Y+3944626D02*
X+1359321Y+3944626D01*
X+1344081Y+3928751D01*
X+1344081Y+3865251D01*
X+1359321Y+3849376D01*
X+1420281Y+3849376D01*
X+1435521Y+3865251D01*
X+1435521Y+3928751D01*
X+1420281Y+3944626D01*
X+1435521Y+3944626D02*
X+1344081Y+3849376D01*
D28*
X+552601Y+3003126D02*
X+652601Y+3003126D01*
X+552601Y+2823126D02*
X+652601Y+2823126D01*
D20*
X+729601Y+2691206D02*
X+729601Y+2782646D01*
X+650226Y+2782646D01*
X+634351Y+2767406D01*
X+634351Y+2752166D01*
X+650226Y+2736926D01*
X+729601Y+2736926D01*
X+650226Y+2736926D02*
X+634351Y+2721686D01*
X+634351Y+2691206D01*
X+586726Y+2767406D02*
X+570851Y+2782646D01*
X+523226Y+2782646D01*
X+507351Y+2767406D01*
X+507351Y+2752166D01*
X+523226Y+2736926D01*
X+507351Y+2721686D01*
X+507351Y+2706446D01*
X+523226Y+2691206D01*
X+570851Y+2691206D01*
X+586726Y+2706446D01*
X+554976Y+2736926D02*
X+523226Y+2736926D01*
D28*
X+557601Y+2058126D02*
X+557601Y+2158126D01*
X+737601Y+2058126D02*
X+737601Y+2158126D01*
D20*
X+869521Y+2235126D02*
X+778081Y+2235126D01*
X+778081Y+2155751D01*
X+793321Y+2139876D01*
X+808561Y+2139876D01*
X+823801Y+2155751D01*
X+823801Y+2235126D01*
X+823801Y+2155751D02*
X+839041Y+2139876D01*
X+869521Y+2139876D01*
X+808561Y+2076376D02*
X+778081Y+2044626D01*
X+869521Y+2044626D01*
D28*
X+907601Y+2058126D02*
X+907601Y+2158126D01*
X+1087601Y+2058126D02*
X+1087601Y+2158126D01*
D20*
X+1219521Y+2235126D02*
X+1128081Y+2235126D01*
X+1128081Y+2155751D01*
X+1143321Y+2139876D01*
X+1158561Y+2139876D01*
X+1173801Y+2155751D01*
X+1173801Y+2235126D01*
X+1173801Y+2155751D02*
X+1189041Y+2139876D01*
X+1219521Y+2139876D01*
X+1143321Y+2092251D02*
X+1128081Y+2076376D01*
X+1128081Y+2028751D01*
X+1143321Y+2012876D01*
X+1158561Y+2012876D01*
X+1173801Y+2028751D01*
X+1173801Y+2076376D01*
X+1189041Y+2092251D01*
X+1219521Y+2092251D01*
X+1219521Y+2012876D01*
M02*
