G04 PROTEUS RS274X GERBER FILE*
%FSLAX45Y45*%
%MOMM*%
G01*
%ADD20C,0.203200*%
%ADD27C,0.120000*%
%ADD28C,0.200000*%
D20*
X+39941Y+39466D02*
X+6637261Y+39466D01*
X+6637261Y+7313126D01*
X+39941Y+7313126D01*
X+39941Y+39466D01*
X+362101Y+2740126D02*
X+3791101Y+2740126D01*
X+3791101Y+3248126D01*
X+362101Y+3248126D01*
X+362101Y+2740126D02*
X+362101Y+2867126D01*
X+362101Y+3248126D02*
X+362101Y+3121126D01*
X+362101Y+2867126D02*
X+388069Y+2869653D01*
X+412083Y+2876924D01*
X+433678Y+2888474D01*
X+452390Y+2903837D01*
X+467753Y+2922549D01*
X+479303Y+2944145D01*
X+486574Y+2968159D01*
X+489101Y+2994126D01*
X+362101Y+3121126D02*
X+388069Y+3118599D01*
X+412083Y+3111328D01*
X+433678Y+3099779D01*
X+452390Y+3084415D01*
X+467753Y+3065703D01*
X+479303Y+3044108D01*
X+486574Y+3020094D01*
X+489101Y+2994126D01*
X+420085Y+2780766D02*
X+420060Y+2781363D01*
X+419858Y+2782559D01*
X+419434Y+2783755D01*
X+418740Y+2784951D01*
X+417680Y+2786130D01*
X+416484Y+2786993D01*
X+415288Y+2787542D01*
X+414092Y+2787851D01*
X+412901Y+2787950D01*
X+405717Y+2780766D02*
X+405742Y+2781363D01*
X+405944Y+2782559D01*
X+406368Y+2783755D01*
X+407062Y+2784951D01*
X+408122Y+2786130D01*
X+409318Y+2786993D01*
X+410514Y+2787542D01*
X+411710Y+2787851D01*
X+412901Y+2787950D01*
X+405717Y+2780766D02*
X+405742Y+2780169D01*
X+405944Y+2778973D01*
X+406368Y+2777777D01*
X+407062Y+2776581D01*
X+408122Y+2775402D01*
X+409318Y+2774539D01*
X+410514Y+2773990D01*
X+411710Y+2773681D01*
X+412901Y+2773582D01*
X+420085Y+2780766D02*
X+420060Y+2780169D01*
X+419858Y+2778973D01*
X+419434Y+2777777D01*
X+418740Y+2776581D01*
X+417680Y+2775402D01*
X+416484Y+2774539D01*
X+415288Y+2773990D01*
X+414092Y+2773681D01*
X+412901Y+2773582D01*
X+230021Y+2867126D02*
X+306221Y+2867126D01*
X+321461Y+2883001D01*
X+321461Y+2946501D01*
X+306221Y+2962376D01*
X+230021Y+2962376D01*
X+260501Y+3025876D02*
X+230021Y+3057626D01*
X+321461Y+3057626D01*
X+1982601Y+6136126D02*
X+2744601Y+6136126D01*
X+2744601Y+6390126D01*
X+1982601Y+6390126D01*
X+1982601Y+6136126D01*
X+1982601Y+6390126D02*
X+1982601Y+6517126D01*
X+2744601Y+6517126D01*
X+2744601Y+6390126D01*
X+1982601Y+6390126D02*
X+2109601Y+6517126D01*
X+2109601Y+6390126D02*
X+2236601Y+6517126D01*
X+2236601Y+6390126D02*
X+2363601Y+6517126D01*
X+2363601Y+6390126D02*
X+2490601Y+6517126D01*
X+2490601Y+6390126D02*
X+2617601Y+6517126D01*
X+2617601Y+6390126D02*
X+2744601Y+6517126D01*
X+2236601Y+6649206D02*
X+2236601Y+6573006D01*
X+2252476Y+6557766D01*
X+2315976Y+6557766D01*
X+2331851Y+6573006D01*
X+2331851Y+6649206D01*
X+2379476Y+6633966D02*
X+2395351Y+6649206D01*
X+2442976Y+6649206D01*
X+2458851Y+6633966D01*
X+2458851Y+6618726D01*
X+2442976Y+6603486D01*
X+2395351Y+6603486D01*
X+2379476Y+6588246D01*
X+2379476Y+6557766D01*
X+2458851Y+6557766D01*
X+2612521Y+6678506D02*
X+3130681Y+6678506D01*
X+3130681Y+6945206D01*
X+2612521Y+6945206D01*
X+2612521Y+6678506D01*
X+3049401Y+6681046D02*
X+3049401Y+6942666D01*
X+3201801Y+6813126D02*
X+3130681Y+6813126D01*
X+2612521Y+6813126D02*
X+2541401Y+6813126D01*
X+2744601Y+6546426D02*
X+2744601Y+6637866D01*
X+2808101Y+6637866D01*
X+2839851Y+6607386D01*
X+2839851Y+6576906D01*
X+2808101Y+6546426D01*
X+2744601Y+6546426D01*
X+2903351Y+6607386D02*
X+2935101Y+6637866D01*
X+2935101Y+6546426D01*
X+4832601Y+6886126D02*
X+5340601Y+6886126D01*
X+5340601Y+7140126D01*
X+4832601Y+7140126D01*
X+4832601Y+6886126D01*
X+4959601Y+6784526D02*
X+4959601Y+6769286D01*
X+4975476Y+6754046D01*
X+5038976Y+6754046D01*
X+5054851Y+6769286D01*
X+5054851Y+6845486D01*
X+5181851Y+6784526D02*
X+5086601Y+6784526D01*
X+5150101Y+6845486D01*
X+5150101Y+6754046D01*
D27*
X+3238601Y+5313126D02*
X+3236745Y+5361260D01*
X+3221690Y+5457530D01*
X+3190403Y+5553800D01*
X+3139998Y+5650070D01*
X+3064101Y+5746340D01*
X+2968000Y+5827933D01*
X+2871730Y+5882331D01*
X+2775460Y+5916804D01*
X+2679190Y+5934675D01*
X+2613601Y+5938126D01*
X+1988601Y+5313126D02*
X+1990457Y+5361260D01*
X+2005512Y+5457530D01*
X+2036799Y+5553800D01*
X+2087204Y+5650070D01*
X+2163101Y+5746340D01*
X+2259202Y+5827933D01*
X+2355472Y+5882331D01*
X+2451742Y+5916804D01*
X+2548012Y+5934675D01*
X+2613601Y+5938126D01*
X+1988601Y+5313126D02*
X+1990457Y+5264992D01*
X+2005512Y+5168722D01*
X+2036799Y+5072452D01*
X+2087204Y+4976182D01*
X+2163101Y+4879912D01*
X+2259202Y+4798319D01*
X+2355472Y+4743921D01*
X+2451742Y+4709448D01*
X+2548012Y+4691577D01*
X+2613601Y+4688126D01*
X+3238601Y+5313126D02*
X+3236745Y+5264992D01*
X+3221690Y+5168722D01*
X+3190403Y+5072452D01*
X+3139998Y+4976182D01*
X+3064101Y+4879912D01*
X+2968000Y+4798319D01*
X+2871730Y+4743921D01*
X+2775460Y+4709448D01*
X+2679190Y+4691577D01*
X+2613601Y+4688126D01*
D28*
X+3087601Y+5777126D02*
X+3087566Y+5777957D01*
X+3087285Y+5779621D01*
X+3086695Y+5781285D01*
X+3085731Y+5782949D01*
X+3084256Y+5784590D01*
X+3082592Y+5785791D01*
X+3080928Y+5786556D01*
X+3079264Y+5786987D01*
X+3077601Y+5787126D01*
X+3067601Y+5777126D02*
X+3067636Y+5777957D01*
X+3067917Y+5779621D01*
X+3068507Y+5781285D01*
X+3069471Y+5782949D01*
X+3070946Y+5784590D01*
X+3072610Y+5785791D01*
X+3074274Y+5786556D01*
X+3075938Y+5786987D01*
X+3077601Y+5787126D01*
X+3067601Y+5777126D02*
X+3067636Y+5776295D01*
X+3067917Y+5774631D01*
X+3068507Y+5772967D01*
X+3069471Y+5771303D01*
X+3070946Y+5769662D01*
X+3072610Y+5768461D01*
X+3074274Y+5767696D01*
X+3075938Y+5767265D01*
X+3077601Y+5767126D01*
X+3087601Y+5777126D02*
X+3087566Y+5776295D01*
X+3087285Y+5774631D01*
X+3086695Y+5772967D01*
X+3085731Y+5771303D01*
X+3084256Y+5769662D01*
X+3082592Y+5768461D01*
X+3080928Y+5767696D01*
X+3079264Y+5767265D01*
X+3077601Y+5767126D01*
D20*
X+3351281Y+5281376D02*
X+3366521Y+5265501D01*
X+3366521Y+5217876D01*
X+3336041Y+5186126D01*
X+3305561Y+5186126D01*
X+3275081Y+5217876D01*
X+3275081Y+5265501D01*
X+3290321Y+5281376D01*
X+3290321Y+5329001D02*
X+3275081Y+5344876D01*
X+3275081Y+5392501D01*
X+3290321Y+5408376D01*
X+3305561Y+5408376D01*
X+3320801Y+5392501D01*
X+3336041Y+5408376D01*
X+3351281Y+5408376D01*
X+3366521Y+5392501D01*
X+3366521Y+5344876D01*
X+3351281Y+5329001D01*
X+3320801Y+5360751D02*
X+3320801Y+5392501D01*
D27*
X+1763601Y+5163126D02*
X+1762941Y+5179365D01*
X+1757576Y+5211845D01*
X+1746376Y+5244325D01*
X+1728152Y+5276805D01*
X+1700285Y+5309131D01*
X+1667805Y+5333835D01*
X+1635325Y+5349823D01*
X+1602845Y+5359238D01*
X+1570365Y+5363012D01*
X+1563601Y+5363126D01*
X+1363601Y+5163126D02*
X+1364261Y+5179365D01*
X+1369626Y+5211845D01*
X+1380826Y+5244325D01*
X+1399050Y+5276805D01*
X+1426917Y+5309131D01*
X+1459397Y+5333835D01*
X+1491877Y+5349823D01*
X+1524357Y+5359238D01*
X+1556837Y+5363012D01*
X+1563601Y+5363126D01*
X+1363601Y+5163126D02*
X+1364261Y+5146887D01*
X+1369626Y+5114407D01*
X+1380826Y+5081927D01*
X+1399050Y+5049447D01*
X+1426917Y+5017121D01*
X+1459397Y+4992417D01*
X+1491877Y+4976429D01*
X+1524357Y+4967014D01*
X+1556837Y+4963240D01*
X+1563601Y+4963126D01*
X+1763601Y+5163126D02*
X+1762941Y+5146887D01*
X+1757576Y+5114407D01*
X+1746376Y+5081927D01*
X+1728152Y+5049447D01*
X+1700285Y+5017121D01*
X+1667805Y+4992417D01*
X+1635325Y+4976429D01*
X+1602845Y+4967014D01*
X+1570365Y+4963240D01*
X+1563601Y+4963126D01*
D28*
X+1737601Y+5327126D02*
X+1737566Y+5327957D01*
X+1737285Y+5329621D01*
X+1736695Y+5331285D01*
X+1735731Y+5332949D01*
X+1734256Y+5334590D01*
X+1732592Y+5335791D01*
X+1730928Y+5336556D01*
X+1729264Y+5336987D01*
X+1727601Y+5337126D01*
X+1717601Y+5327126D02*
X+1717636Y+5327957D01*
X+1717917Y+5329621D01*
X+1718507Y+5331285D01*
X+1719471Y+5332949D01*
X+1720946Y+5334590D01*
X+1722610Y+5335791D01*
X+1724274Y+5336556D01*
X+1725938Y+5336987D01*
X+1727601Y+5337126D01*
X+1717601Y+5327126D02*
X+1717636Y+5326295D01*
X+1717917Y+5324631D01*
X+1718507Y+5322967D01*
X+1719471Y+5321303D01*
X+1720946Y+5319662D01*
X+1722610Y+5318461D01*
X+1724274Y+5317696D01*
X+1725938Y+5317265D01*
X+1727601Y+5317126D01*
X+1737601Y+5327126D02*
X+1737566Y+5326295D01*
X+1737285Y+5324631D01*
X+1736695Y+5322967D01*
X+1735731Y+5321303D01*
X+1734256Y+5319662D01*
X+1732592Y+5318461D01*
X+1730928Y+5317696D01*
X+1729264Y+5317265D01*
X+1727601Y+5317126D01*
D20*
X+1876281Y+5131376D02*
X+1891521Y+5115501D01*
X+1891521Y+5067876D01*
X+1861041Y+5036126D01*
X+1830561Y+5036126D01*
X+1800081Y+5067876D01*
X+1800081Y+5115501D01*
X+1815321Y+5131376D01*
X+1861041Y+5258376D02*
X+1861041Y+5163126D01*
X+1800081Y+5226626D01*
X+1891521Y+5226626D01*
X+3540601Y+6263126D02*
X+3539774Y+6283609D01*
X+3533056Y+6324576D01*
X+3519038Y+6365543D01*
X+3496260Y+6406510D01*
X+3461460Y+6447355D01*
X+3420493Y+6478971D01*
X+3379526Y+6499518D01*
X+3338559Y+6511755D01*
X+3297592Y+6516888D01*
X+3286601Y+6517126D01*
X+3032601Y+6263126D02*
X+3033428Y+6283609D01*
X+3040146Y+6324576D01*
X+3054164Y+6365543D01*
X+3076942Y+6406510D01*
X+3111742Y+6447355D01*
X+3152709Y+6478971D01*
X+3193676Y+6499518D01*
X+3234643Y+6511755D01*
X+3275610Y+6516888D01*
X+3286601Y+6517126D01*
X+3032601Y+6263126D02*
X+3033428Y+6242643D01*
X+3040146Y+6201676D01*
X+3054164Y+6160709D01*
X+3076942Y+6119742D01*
X+3111742Y+6078897D01*
X+3152709Y+6047281D01*
X+3193676Y+6026734D01*
X+3234643Y+6014497D01*
X+3275610Y+6009364D01*
X+3286601Y+6009126D01*
X+3540601Y+6263126D02*
X+3539774Y+6242643D01*
X+3533056Y+6201676D01*
X+3519038Y+6160709D01*
X+3496260Y+6119742D01*
X+3461460Y+6078897D01*
X+3420493Y+6047281D01*
X+3379526Y+6026734D01*
X+3338559Y+6014497D01*
X+3297592Y+6009364D01*
X+3286601Y+6009126D01*
X+3604101Y+6009126D02*
X+3477101Y+6009126D01*
X+3540601Y+5945626D02*
X+3540601Y+6072626D01*
X+3191351Y+5813546D02*
X+3191351Y+5904986D01*
X+3254851Y+5904986D01*
X+3286601Y+5874506D01*
X+3286601Y+5844026D01*
X+3254851Y+5813546D01*
X+3191351Y+5813546D01*
X+3334226Y+5889746D02*
X+3350101Y+5904986D01*
X+3397726Y+5904986D01*
X+3413601Y+5889746D01*
X+3413601Y+5874506D01*
X+3397726Y+5859266D01*
X+3350101Y+5859266D01*
X+3334226Y+5844026D01*
X+3334226Y+5813546D01*
X+3413601Y+5813546D01*
D27*
X+4013601Y+5863126D02*
X+4012941Y+5879365D01*
X+4007576Y+5911845D01*
X+3996376Y+5944325D01*
X+3978152Y+5976805D01*
X+3950285Y+6009131D01*
X+3917805Y+6033835D01*
X+3885325Y+6049823D01*
X+3852845Y+6059238D01*
X+3820365Y+6063012D01*
X+3813601Y+6063126D01*
X+3613601Y+5863126D02*
X+3614261Y+5879365D01*
X+3619626Y+5911845D01*
X+3630826Y+5944325D01*
X+3649050Y+5976805D01*
X+3676917Y+6009131D01*
X+3709397Y+6033835D01*
X+3741877Y+6049823D01*
X+3774357Y+6059238D01*
X+3806837Y+6063012D01*
X+3813601Y+6063126D01*
X+3613601Y+5863126D02*
X+3614261Y+5846887D01*
X+3619626Y+5814407D01*
X+3630826Y+5781927D01*
X+3649050Y+5749447D01*
X+3676917Y+5717121D01*
X+3709397Y+5692417D01*
X+3741877Y+5676429D01*
X+3774357Y+5667014D01*
X+3806837Y+5663240D01*
X+3813601Y+5663126D01*
X+4013601Y+5863126D02*
X+4012941Y+5846887D01*
X+4007576Y+5814407D01*
X+3996376Y+5781927D01*
X+3978152Y+5749447D01*
X+3950285Y+5717121D01*
X+3917805Y+5692417D01*
X+3885325Y+5676429D01*
X+3852845Y+5667014D01*
X+3820365Y+5663240D01*
X+3813601Y+5663126D01*
D28*
X+3659601Y+5699126D02*
X+3659566Y+5699957D01*
X+3659285Y+5701621D01*
X+3658695Y+5703285D01*
X+3657731Y+5704949D01*
X+3656256Y+5706590D01*
X+3654592Y+5707791D01*
X+3652928Y+5708556D01*
X+3651264Y+5708987D01*
X+3649601Y+5709126D01*
X+3639601Y+5699126D02*
X+3639636Y+5699957D01*
X+3639917Y+5701621D01*
X+3640507Y+5703285D01*
X+3641471Y+5704949D01*
X+3642946Y+5706590D01*
X+3644610Y+5707791D01*
X+3646274Y+5708556D01*
X+3647938Y+5708987D01*
X+3649601Y+5709126D01*
X+3639601Y+5699126D02*
X+3639636Y+5698295D01*
X+3639917Y+5696631D01*
X+3640507Y+5694967D01*
X+3641471Y+5693303D01*
X+3642946Y+5691662D01*
X+3644610Y+5690461D01*
X+3646274Y+5689696D01*
X+3647938Y+5689265D01*
X+3649601Y+5689126D01*
X+3659601Y+5699126D02*
X+3659566Y+5698295D01*
X+3659285Y+5696631D01*
X+3658695Y+5694967D01*
X+3657731Y+5693303D01*
X+3656256Y+5691662D01*
X+3654592Y+5690461D01*
X+3652928Y+5689696D01*
X+3651264Y+5689265D01*
X+3649601Y+5689126D01*
D20*
X+3561881Y+5831376D02*
X+3577121Y+5815501D01*
X+3577121Y+5767876D01*
X+3546641Y+5736126D01*
X+3516161Y+5736126D01*
X+3485681Y+5767876D01*
X+3485681Y+5815501D01*
X+3500921Y+5831376D01*
X+3485681Y+5958376D02*
X+3485681Y+5879001D01*
X+3516161Y+5879001D01*
X+3516161Y+5942501D01*
X+3531401Y+5958376D01*
X+3561881Y+5958376D01*
X+3577121Y+5942501D01*
X+3577121Y+5894876D01*
X+3561881Y+5879001D01*
D27*
X+3863601Y+4713126D02*
X+3862941Y+4729365D01*
X+3857576Y+4761845D01*
X+3846376Y+4794325D01*
X+3828152Y+4826805D01*
X+3800285Y+4859131D01*
X+3767805Y+4883835D01*
X+3735325Y+4899823D01*
X+3702845Y+4909238D01*
X+3670365Y+4913012D01*
X+3663601Y+4913126D01*
X+3463601Y+4713126D02*
X+3464261Y+4729365D01*
X+3469626Y+4761845D01*
X+3480826Y+4794325D01*
X+3499050Y+4826805D01*
X+3526917Y+4859131D01*
X+3559397Y+4883835D01*
X+3591877Y+4899823D01*
X+3624357Y+4909238D01*
X+3656837Y+4913012D01*
X+3663601Y+4913126D01*
X+3463601Y+4713126D02*
X+3464261Y+4696887D01*
X+3469626Y+4664407D01*
X+3480826Y+4631927D01*
X+3499050Y+4599447D01*
X+3526917Y+4567121D01*
X+3559397Y+4542417D01*
X+3591877Y+4526429D01*
X+3624357Y+4517014D01*
X+3656837Y+4513240D01*
X+3663601Y+4513126D01*
X+3863601Y+4713126D02*
X+3862941Y+4696887D01*
X+3857576Y+4664407D01*
X+3846376Y+4631927D01*
X+3828152Y+4599447D01*
X+3800285Y+4567121D01*
X+3767805Y+4542417D01*
X+3735325Y+4526429D01*
X+3702845Y+4517014D01*
X+3670365Y+4513240D01*
X+3663601Y+4513126D01*
D28*
X+3837601Y+4549126D02*
X+3837566Y+4549957D01*
X+3837285Y+4551621D01*
X+3836695Y+4553285D01*
X+3835731Y+4554949D01*
X+3834256Y+4556590D01*
X+3832592Y+4557791D01*
X+3830928Y+4558556D01*
X+3829264Y+4558987D01*
X+3827601Y+4559126D01*
X+3817601Y+4549126D02*
X+3817636Y+4549957D01*
X+3817917Y+4551621D01*
X+3818507Y+4553285D01*
X+3819471Y+4554949D01*
X+3820946Y+4556590D01*
X+3822610Y+4557791D01*
X+3824274Y+4558556D01*
X+3825938Y+4558987D01*
X+3827601Y+4559126D01*
X+3817601Y+4549126D02*
X+3817636Y+4548295D01*
X+3817917Y+4546631D01*
X+3818507Y+4544967D01*
X+3819471Y+4543303D01*
X+3820946Y+4541662D01*
X+3822610Y+4540461D01*
X+3824274Y+4539696D01*
X+3825938Y+4539265D01*
X+3827601Y+4539126D01*
X+3837601Y+4549126D02*
X+3837566Y+4548295D01*
X+3837285Y+4546631D01*
X+3836695Y+4544967D01*
X+3835731Y+4543303D01*
X+3834256Y+4541662D01*
X+3832592Y+4540461D01*
X+3830928Y+4539696D01*
X+3829264Y+4539265D01*
X+3827601Y+4539126D01*
D20*
X+3631851Y+4400446D02*
X+3615976Y+4385206D01*
X+3568351Y+4385206D01*
X+3536601Y+4415686D01*
X+3536601Y+4446166D01*
X+3568351Y+4476646D01*
X+3615976Y+4476646D01*
X+3631851Y+4461406D01*
X+3758851Y+4461406D02*
X+3742976Y+4476646D01*
X+3695351Y+4476646D01*
X+3679476Y+4461406D01*
X+3679476Y+4400446D01*
X+3695351Y+4385206D01*
X+3742976Y+4385206D01*
X+3758851Y+4400446D01*
X+3758851Y+4415686D01*
X+3742976Y+4430926D01*
X+3679476Y+4430926D01*
X+4013601Y+2413126D02*
X+6213601Y+2413126D01*
X+6213601Y+6813126D01*
X+4013601Y+6813126D01*
X+4013601Y+2413126D01*
X+6254241Y+4486126D02*
X+6330441Y+4486126D01*
X+6345681Y+4502001D01*
X+6345681Y+4565501D01*
X+6330441Y+4581376D01*
X+6254241Y+4581376D01*
X+6254241Y+4708376D02*
X+6254241Y+4629001D01*
X+6284721Y+4629001D01*
X+6284721Y+4692501D01*
X+6299961Y+4708376D01*
X+6330441Y+4708376D01*
X+6345681Y+4692501D01*
X+6345681Y+4644876D01*
X+6330441Y+4629001D01*
X+2220601Y+2317126D02*
X+2982601Y+2317126D01*
X+3109601Y+2190126D01*
X+3109601Y+1936126D01*
X+2982601Y+1809126D01*
X+2220601Y+1809126D01*
X+2093601Y+1936126D01*
X+2093601Y+2190126D01*
X+2220601Y+2317126D01*
X+2474601Y+2449206D02*
X+2569851Y+2357766D01*
X+2474601Y+2357766D02*
X+2569851Y+2449206D01*
X+2633351Y+2418726D02*
X+2665101Y+2449206D01*
X+2665101Y+2357766D01*
X+2347601Y+1690126D02*
X+2373477Y+1682610D01*
X+2397448Y+1660956D01*
X+2419038Y+1626502D01*
X+2437771Y+1580588D01*
X+2453170Y+1524555D01*
X+2464758Y+1459740D01*
X+2472061Y+1387484D01*
X+2474601Y+1309126D01*
X+2347601Y+928126D02*
X+2373477Y+935746D01*
X+2397448Y+957654D01*
X+2419038Y+992420D01*
X+2437771Y+1038616D01*
X+2453170Y+1094814D01*
X+2464758Y+1159584D01*
X+2472061Y+1231497D01*
X+2474601Y+1309126D01*
X+2347601Y+928126D02*
X+2321725Y+935746D01*
X+2297754Y+957654D01*
X+2276164Y+992420D01*
X+2257431Y+1038616D01*
X+2242032Y+1094814D01*
X+2230444Y+1159584D01*
X+2223141Y+1231497D01*
X+2220601Y+1309126D01*
X+2347601Y+1690126D02*
X+2321725Y+1682610D01*
X+2297754Y+1660956D01*
X+2276164Y+1626502D01*
X+2257431Y+1580588D01*
X+2242032Y+1524555D01*
X+2230444Y+1459740D01*
X+2223141Y+1387484D01*
X+2220601Y+1309126D01*
X+2591441Y+1277376D02*
X+2606681Y+1261501D01*
X+2606681Y+1213876D01*
X+2576201Y+1182126D01*
X+2545721Y+1182126D01*
X+2515241Y+1213876D01*
X+2515241Y+1261501D01*
X+2530481Y+1277376D01*
X+2545721Y+1340876D02*
X+2515241Y+1372626D01*
X+2606681Y+1372626D01*
X+2847601Y+1690126D02*
X+2873477Y+1682610D01*
X+2897448Y+1660956D01*
X+2919038Y+1626502D01*
X+2937771Y+1580588D01*
X+2953170Y+1524555D01*
X+2964758Y+1459740D01*
X+2972061Y+1387484D01*
X+2974601Y+1309126D01*
X+2847601Y+928126D02*
X+2873477Y+935746D01*
X+2897448Y+957654D01*
X+2919038Y+992420D01*
X+2937771Y+1038616D01*
X+2953170Y+1094814D01*
X+2964758Y+1159584D01*
X+2972061Y+1231497D01*
X+2974601Y+1309126D01*
X+2847601Y+928126D02*
X+2821725Y+935746D01*
X+2797754Y+957654D01*
X+2776164Y+992420D01*
X+2757431Y+1038616D01*
X+2742032Y+1094814D01*
X+2730444Y+1159584D01*
X+2723141Y+1231497D01*
X+2720601Y+1309126D01*
X+2847601Y+1690126D02*
X+2821725Y+1682610D01*
X+2797754Y+1660956D01*
X+2776164Y+1626502D01*
X+2757431Y+1580588D01*
X+2742032Y+1524555D01*
X+2730444Y+1459740D01*
X+2723141Y+1387484D01*
X+2720601Y+1309126D01*
X+3091441Y+1277376D02*
X+3106681Y+1261501D01*
X+3106681Y+1213876D01*
X+3076201Y+1182126D01*
X+3045721Y+1182126D01*
X+3015241Y+1213876D01*
X+3015241Y+1261501D01*
X+3030481Y+1277376D01*
X+3030481Y+1325001D02*
X+3015241Y+1340876D01*
X+3015241Y+1388501D01*
X+3030481Y+1404376D01*
X+3045721Y+1404376D01*
X+3060961Y+1388501D01*
X+3060961Y+1340876D01*
X+3076201Y+1325001D01*
X+3106681Y+1325001D01*
X+3106681Y+1404376D01*
X+1244601Y+5113126D02*
X+1243774Y+5133609D01*
X+1237056Y+5174576D01*
X+1223038Y+5215543D01*
X+1200260Y+5256510D01*
X+1165460Y+5297355D01*
X+1124493Y+5328971D01*
X+1083526Y+5349518D01*
X+1042559Y+5361755D01*
X+1001592Y+5366888D01*
X+990601Y+5367126D01*
X+736601Y+5113126D02*
X+737428Y+5133609D01*
X+744146Y+5174576D01*
X+758164Y+5215543D01*
X+780942Y+5256510D01*
X+815742Y+5297355D01*
X+856709Y+5328971D01*
X+897676Y+5349518D01*
X+938643Y+5361755D01*
X+979610Y+5366888D01*
X+990601Y+5367126D01*
X+736601Y+5113126D02*
X+737428Y+5092643D01*
X+744146Y+5051676D01*
X+758164Y+5010709D01*
X+780942Y+4969742D01*
X+815742Y+4928897D01*
X+856709Y+4897281D01*
X+897676Y+4876734D01*
X+938643Y+4864497D01*
X+979610Y+4859364D01*
X+990601Y+4859126D01*
X+1244601Y+5113126D02*
X+1243774Y+5092643D01*
X+1237056Y+5051676D01*
X+1223038Y+5010709D01*
X+1200260Y+4969742D01*
X+1165460Y+4928897D01*
X+1124493Y+4897281D01*
X+1083526Y+4876734D01*
X+1042559Y+4864497D01*
X+1001592Y+4859364D01*
X+990601Y+4859126D01*
X+1308101Y+4859126D02*
X+1181101Y+4859126D01*
X+1244601Y+4795626D02*
X+1244601Y+4922626D01*
X+895351Y+4663546D02*
X+895351Y+4754986D01*
X+958851Y+4754986D01*
X+990601Y+4724506D01*
X+990601Y+4694026D01*
X+958851Y+4663546D01*
X+895351Y+4663546D01*
X+1038226Y+4739746D02*
X+1054101Y+4754986D01*
X+1101726Y+4754986D01*
X+1117601Y+4739746D01*
X+1117601Y+4724506D01*
X+1101726Y+4709266D01*
X+1117601Y+4694026D01*
X+1117601Y+4678786D01*
X+1101726Y+4663546D01*
X+1054101Y+4663546D01*
X+1038226Y+4678786D01*
X+1069976Y+4709266D02*
X+1101726Y+4709266D01*
X+1240601Y+5713126D02*
X+1239774Y+5733609D01*
X+1233056Y+5774576D01*
X+1219038Y+5815543D01*
X+1196260Y+5856510D01*
X+1161460Y+5897355D01*
X+1120493Y+5928971D01*
X+1079526Y+5949518D01*
X+1038559Y+5961755D01*
X+997592Y+5966888D01*
X+986601Y+5967126D01*
X+732601Y+5713126D02*
X+733428Y+5733609D01*
X+740146Y+5774576D01*
X+754164Y+5815543D01*
X+776942Y+5856510D01*
X+811742Y+5897355D01*
X+852709Y+5928971D01*
X+893676Y+5949518D01*
X+934643Y+5961755D01*
X+975610Y+5966888D01*
X+986601Y+5967126D01*
X+732601Y+5713126D02*
X+733428Y+5692643D01*
X+740146Y+5651676D01*
X+754164Y+5610709D01*
X+776942Y+5569742D01*
X+811742Y+5528897D01*
X+852709Y+5497281D01*
X+893676Y+5476734D01*
X+934643Y+5464497D01*
X+975610Y+5459364D01*
X+986601Y+5459126D01*
X+1240601Y+5713126D02*
X+1239774Y+5692643D01*
X+1233056Y+5651676D01*
X+1219038Y+5610709D01*
X+1196260Y+5569742D01*
X+1161460Y+5528897D01*
X+1120493Y+5497281D01*
X+1079526Y+5476734D01*
X+1038559Y+5464497D01*
X+997592Y+5459364D01*
X+986601Y+5459126D01*
X+1304101Y+5459126D02*
X+1177101Y+5459126D01*
X+1240601Y+5395626D02*
X+1240601Y+5522626D01*
X+891351Y+5263546D02*
X+891351Y+5354986D01*
X+954851Y+5354986D01*
X+986601Y+5324506D01*
X+986601Y+5294026D01*
X+954851Y+5263546D01*
X+891351Y+5263546D01*
X+1113601Y+5294026D02*
X+1018351Y+5294026D01*
X+1081851Y+5354986D01*
X+1081851Y+5263546D01*
X+1240601Y+6313126D02*
X+1239774Y+6333609D01*
X+1233056Y+6374576D01*
X+1219038Y+6415543D01*
X+1196260Y+6456510D01*
X+1161460Y+6497355D01*
X+1120493Y+6528971D01*
X+1079526Y+6549518D01*
X+1038559Y+6561755D01*
X+997592Y+6566888D01*
X+986601Y+6567126D01*
X+732601Y+6313126D02*
X+733428Y+6333609D01*
X+740146Y+6374576D01*
X+754164Y+6415543D01*
X+776942Y+6456510D01*
X+811742Y+6497355D01*
X+852709Y+6528971D01*
X+893676Y+6549518D01*
X+934643Y+6561755D01*
X+975610Y+6566888D01*
X+986601Y+6567126D01*
X+732601Y+6313126D02*
X+733428Y+6292643D01*
X+740146Y+6251676D01*
X+754164Y+6210709D01*
X+776942Y+6169742D01*
X+811742Y+6128897D01*
X+852709Y+6097281D01*
X+893676Y+6076734D01*
X+934643Y+6064497D01*
X+975610Y+6059364D01*
X+986601Y+6059126D01*
X+1240601Y+6313126D02*
X+1239774Y+6292643D01*
X+1233056Y+6251676D01*
X+1219038Y+6210709D01*
X+1196260Y+6169742D01*
X+1161460Y+6128897D01*
X+1120493Y+6097281D01*
X+1079526Y+6076734D01*
X+1038559Y+6064497D01*
X+997592Y+6059364D01*
X+986601Y+6059126D01*
X+1304101Y+6059126D02*
X+1177101Y+6059126D01*
X+1240601Y+5995626D02*
X+1240601Y+6122626D01*
X+891351Y+5863546D02*
X+891351Y+5954986D01*
X+954851Y+5954986D01*
X+986601Y+5924506D01*
X+986601Y+5894026D01*
X+954851Y+5863546D01*
X+891351Y+5863546D01*
X+1113601Y+5954986D02*
X+1034226Y+5954986D01*
X+1034226Y+5924506D01*
X+1097726Y+5924506D01*
X+1113601Y+5909266D01*
X+1113601Y+5878786D01*
X+1097726Y+5863546D01*
X+1050101Y+5863546D01*
X+1034226Y+5878786D01*
X+3713601Y+393126D02*
X+6213601Y+393126D01*
X+6213601Y+2293126D01*
X+3713601Y+2293126D01*
X+3713601Y+393126D01*
X+5613601Y+1370926D02*
X+5588201Y+1396326D01*
X+5486601Y+1396326D01*
X+5461201Y+1370926D01*
X+5461201Y+1345526D01*
X+5486601Y+1320126D01*
X+5588201Y+1320126D01*
X+5613601Y+1294726D01*
X+5613601Y+1269326D01*
X+5588201Y+1243926D01*
X+5486601Y+1243926D01*
X+5461201Y+1269326D01*
X+5385001Y+1243926D02*
X+5283401Y+1243926D01*
X+5334201Y+1243926D02*
X+5334201Y+1396326D01*
X+5385001Y+1396326D02*
X+5283401Y+1396326D01*
X+5207201Y+1396326D02*
X+5207201Y+1243926D01*
X+5131001Y+1320126D01*
X+5054801Y+1243926D01*
X+5054801Y+1396326D01*
X+4953201Y+1320126D02*
X+4978601Y+1294726D01*
X+4978601Y+1269326D01*
X+4953201Y+1243926D01*
X+4877001Y+1243926D01*
X+4851601Y+1269326D01*
X+4851601Y+1294726D01*
X+4877001Y+1320126D01*
X+4953201Y+1320126D01*
X+4978601Y+1345526D01*
X+4978601Y+1370926D01*
X+4953201Y+1396326D01*
X+4877001Y+1396326D01*
X+4851601Y+1370926D01*
X+4851601Y+1345526D01*
X+4877001Y+1320126D01*
X+4800801Y+1370926D02*
X+4800801Y+1269326D01*
X+4775401Y+1243926D01*
X+4673801Y+1243926D01*
X+4648401Y+1269326D01*
X+4648401Y+1370926D01*
X+4673801Y+1396326D01*
X+4775401Y+1396326D01*
X+4800801Y+1370926D01*
X+4800801Y+1396326D02*
X+4648401Y+1243926D01*
X+4597601Y+1370926D02*
X+4597601Y+1269326D01*
X+4572201Y+1243926D01*
X+4470601Y+1243926D01*
X+4445201Y+1269326D01*
X+4445201Y+1370926D01*
X+4470601Y+1396326D01*
X+4572201Y+1396326D01*
X+4597601Y+1370926D01*
X+4597601Y+1396326D02*
X+4445201Y+1243926D01*
X+4394401Y+1243926D02*
X+4394401Y+1396326D01*
X+4242001Y+1396326D01*
X+4836601Y+352486D02*
X+4836601Y+276286D01*
X+4852476Y+261046D01*
X+4915976Y+261046D01*
X+4931851Y+276286D01*
X+4931851Y+352486D01*
X+5058851Y+291526D02*
X+4963601Y+291526D01*
X+5027101Y+352486D01*
X+5027101Y+261046D01*
X+1490601Y+563126D02*
X+1490174Y+573535D01*
X+1486702Y+594354D01*
X+1479446Y+615173D01*
X+1467618Y+635992D01*
X+1449521Y+656650D01*
X+1428702Y+672171D01*
X+1407883Y+682156D01*
X+1387064Y+687940D01*
X+1366245Y+690098D01*
X+1363601Y+690126D01*
X+1236601Y+563126D02*
X+1237028Y+573535D01*
X+1240500Y+594354D01*
X+1247756Y+615173D01*
X+1259584Y+635992D01*
X+1277681Y+656650D01*
X+1298500Y+672171D01*
X+1319319Y+682156D01*
X+1340138Y+687940D01*
X+1360957Y+690098D01*
X+1363601Y+690126D01*
X+1236601Y+563126D02*
X+1237028Y+552717D01*
X+1240500Y+531898D01*
X+1247756Y+511079D01*
X+1259584Y+490260D01*
X+1277681Y+469602D01*
X+1298500Y+454081D01*
X+1319319Y+444096D01*
X+1340138Y+438312D01*
X+1360957Y+436154D01*
X+1363601Y+436126D01*
X+1490601Y+563126D02*
X+1490174Y+552717D01*
X+1486702Y+531898D01*
X+1479446Y+511079D01*
X+1467618Y+490260D01*
X+1449521Y+469602D01*
X+1428702Y+454081D01*
X+1407883Y+444096D01*
X+1387064Y+438312D01*
X+1366245Y+436154D01*
X+1363601Y+436126D01*
X+1427101Y+563126D02*
X+1426884Y+568373D01*
X+1425119Y+578868D01*
X+1421427Y+589363D01*
X+1415399Y+599858D01*
X+1406177Y+610238D01*
X+1395682Y+617926D01*
X+1385187Y+622844D01*
X+1374692Y+625650D01*
X+1364197Y+626623D01*
X+1363601Y+626626D01*
X+1300101Y+563126D02*
X+1300318Y+568373D01*
X+1302083Y+578868D01*
X+1305775Y+589363D01*
X+1311803Y+599858D01*
X+1321025Y+610238D01*
X+1331520Y+617926D01*
X+1342015Y+622844D01*
X+1352510Y+625650D01*
X+1363005Y+626623D01*
X+1363601Y+626626D01*
X+1300101Y+563126D02*
X+1300318Y+557879D01*
X+1302083Y+547384D01*
X+1305775Y+536889D01*
X+1311803Y+526394D01*
X+1321025Y+516014D01*
X+1331520Y+508326D01*
X+1342015Y+503408D01*
X+1352510Y+500602D01*
X+1363005Y+499629D01*
X+1363601Y+499626D01*
X+1427101Y+563126D02*
X+1426884Y+557879D01*
X+1425119Y+547384D01*
X+1421427Y+536889D01*
X+1415399Y+526394D01*
X+1406177Y+516014D01*
X+1395682Y+508326D01*
X+1385187Y+503408D01*
X+1374692Y+500602D01*
X+1364197Y+499629D01*
X+1363601Y+499626D01*
X+1173101Y+822206D02*
X+1268351Y+822206D01*
X+1220726Y+822206D02*
X+1220726Y+730766D01*
X+1300101Y+730766D02*
X+1300101Y+822206D01*
X+1379476Y+822206D01*
X+1395351Y+806966D01*
X+1395351Y+791726D01*
X+1379476Y+776486D01*
X+1300101Y+776486D01*
X+1458851Y+791726D02*
X+1490601Y+822206D01*
X+1490601Y+730766D01*
X+2382601Y+3682126D02*
X+3398601Y+3682126D01*
X+3398601Y+4190126D01*
X+2382601Y+4190126D01*
X+2382601Y+3682126D01*
X+2763601Y+4261246D02*
X+2763601Y+4246006D01*
X+2779476Y+4230766D01*
X+2842976Y+4230766D01*
X+2858851Y+4246006D01*
X+2858851Y+4322206D01*
X+2922351Y+4291726D02*
X+2954101Y+4322206D01*
X+2954101Y+4230766D01*
X+536601Y+1386126D02*
X+1298601Y+1386126D01*
X+1298601Y+1640126D01*
X+536601Y+1640126D01*
X+536601Y+1386126D01*
X+790601Y+1711246D02*
X+790601Y+1696006D01*
X+806476Y+1680766D01*
X+869976Y+1680766D01*
X+885851Y+1696006D01*
X+885851Y+1772206D01*
X+1012851Y+1772206D02*
X+933476Y+1772206D01*
X+933476Y+1741726D01*
X+996976Y+1741726D01*
X+1012851Y+1726486D01*
X+1012851Y+1696006D01*
X+996976Y+1680766D01*
X+949351Y+1680766D01*
X+933476Y+1696006D01*
X+373601Y+413126D02*
X+1013601Y+413126D01*
X+1013601Y+1013126D01*
X+373601Y+1013126D01*
X+373601Y+413126D01*
X+332961Y+586126D02*
X+241521Y+586126D01*
X+241521Y+665501D01*
X+256761Y+681376D01*
X+272001Y+681376D01*
X+287241Y+665501D01*
X+302481Y+681376D01*
X+317721Y+681376D01*
X+332961Y+665501D01*
X+332961Y+586126D01*
X+287241Y+586126D02*
X+287241Y+665501D01*
X+272001Y+744876D02*
X+241521Y+776626D01*
X+332961Y+776626D01*
M02*
