G04 PROTEUS RS274X GERBER FILE*
%FSLAX45Y45*%
%MOMM*%
G01*
%ADD22C,0.203200*%
%ADD27C,0.120000*%
%ADD28C,0.200000*%
D22*
X+70569Y+50000D02*
X+6570569Y+50000D01*
X+6570569Y+5500000D01*
X+70569Y+5500000D01*
X+70569Y+50000D01*
X+373569Y+3219000D02*
X+627569Y+3219000D01*
X+627569Y+3981000D01*
X+373569Y+3981000D01*
X+373569Y+3219000D01*
X+246569Y+3219000D01*
X+246569Y+3981000D01*
X+373569Y+3981000D01*
X+373569Y+3219000D02*
X+246569Y+3346000D01*
X+373569Y+3346000D02*
X+246569Y+3473000D01*
X+373569Y+3473000D02*
X+246569Y+3600000D01*
X+373569Y+3600000D02*
X+246569Y+3727000D01*
X+373569Y+3727000D02*
X+246569Y+3854000D01*
X+373569Y+3854000D02*
X+246569Y+3981000D01*
X+114489Y+3473000D02*
X+190689Y+3473000D01*
X+205929Y+3488875D01*
X+205929Y+3552375D01*
X+190689Y+3568250D01*
X+114489Y+3568250D01*
X+129729Y+3615875D02*
X+114489Y+3631750D01*
X+114489Y+3679375D01*
X+129729Y+3695250D01*
X+144969Y+3695250D01*
X+160209Y+3679375D01*
X+160209Y+3631750D01*
X+175449Y+3615875D01*
X+205929Y+3615875D01*
X+205929Y+3695250D01*
D27*
X+1875569Y+2750000D02*
X+1873713Y+2798134D01*
X+1858658Y+2894404D01*
X+1827371Y+2990674D01*
X+1776966Y+3086944D01*
X+1701069Y+3183214D01*
X+1604968Y+3264807D01*
X+1508698Y+3319205D01*
X+1412428Y+3353678D01*
X+1316158Y+3371549D01*
X+1250569Y+3375000D01*
X+625569Y+2750000D02*
X+627425Y+2798134D01*
X+642480Y+2894404D01*
X+673767Y+2990674D01*
X+724172Y+3086944D01*
X+800069Y+3183214D01*
X+896170Y+3264807D01*
X+992440Y+3319205D01*
X+1088710Y+3353678D01*
X+1184980Y+3371549D01*
X+1250569Y+3375000D01*
X+625569Y+2750000D02*
X+627425Y+2701866D01*
X+642480Y+2605596D01*
X+673767Y+2509326D01*
X+724172Y+2413056D01*
X+800069Y+2316786D01*
X+896170Y+2235193D01*
X+992440Y+2180795D01*
X+1088710Y+2146322D01*
X+1184980Y+2128451D01*
X+1250569Y+2125000D01*
X+1875569Y+2750000D02*
X+1873713Y+2701866D01*
X+1858658Y+2605596D01*
X+1827371Y+2509326D01*
X+1776966Y+2413056D01*
X+1701069Y+2316786D01*
X+1604968Y+2235193D01*
X+1508698Y+2180795D01*
X+1412428Y+2146322D01*
X+1316158Y+2128451D01*
X+1250569Y+2125000D01*
D28*
X+1724569Y+3214000D02*
X+1724534Y+3214831D01*
X+1724253Y+3216495D01*
X+1723663Y+3218159D01*
X+1722699Y+3219823D01*
X+1721224Y+3221464D01*
X+1719560Y+3222665D01*
X+1717896Y+3223430D01*
X+1716232Y+3223861D01*
X+1714569Y+3224000D01*
X+1704569Y+3214000D02*
X+1704604Y+3214831D01*
X+1704885Y+3216495D01*
X+1705475Y+3218159D01*
X+1706439Y+3219823D01*
X+1707914Y+3221464D01*
X+1709578Y+3222665D01*
X+1711242Y+3223430D01*
X+1712906Y+3223861D01*
X+1714569Y+3224000D01*
X+1704569Y+3214000D02*
X+1704604Y+3213169D01*
X+1704885Y+3211505D01*
X+1705475Y+3209841D01*
X+1706439Y+3208177D01*
X+1707914Y+3206536D01*
X+1709578Y+3205335D01*
X+1711242Y+3204570D01*
X+1712906Y+3204139D01*
X+1714569Y+3204000D01*
X+1724569Y+3214000D02*
X+1724534Y+3213169D01*
X+1724253Y+3211505D01*
X+1723663Y+3209841D01*
X+1722699Y+3208177D01*
X+1721224Y+3206536D01*
X+1719560Y+3205335D01*
X+1717896Y+3204570D01*
X+1716232Y+3204139D01*
X+1714569Y+3204000D01*
D22*
X+1988249Y+2718250D02*
X+2003489Y+2702375D01*
X+2003489Y+2654750D01*
X+1973009Y+2623000D01*
X+1942529Y+2623000D01*
X+1912049Y+2654750D01*
X+1912049Y+2702375D01*
X+1927289Y+2718250D01*
X+1927289Y+2765875D02*
X+1912049Y+2781750D01*
X+1912049Y+2829375D01*
X+1927289Y+2845250D01*
X+1942529Y+2845250D01*
X+1957769Y+2829375D01*
X+1973009Y+2845250D01*
X+1988249Y+2845250D01*
X+2003489Y+2829375D01*
X+2003489Y+2781750D01*
X+1988249Y+2765875D01*
X+1957769Y+2797625D02*
X+1957769Y+2829375D01*
D27*
X+1965569Y+2020000D02*
X+1964909Y+2036239D01*
X+1959544Y+2068719D01*
X+1948344Y+2101199D01*
X+1930120Y+2133679D01*
X+1902253Y+2166005D01*
X+1869773Y+2190709D01*
X+1837293Y+2206697D01*
X+1804813Y+2216112D01*
X+1772333Y+2219886D01*
X+1765569Y+2220000D01*
X+1565569Y+2020000D02*
X+1566229Y+2036239D01*
X+1571594Y+2068719D01*
X+1582794Y+2101199D01*
X+1601018Y+2133679D01*
X+1628885Y+2166005D01*
X+1661365Y+2190709D01*
X+1693845Y+2206697D01*
X+1726325Y+2216112D01*
X+1758805Y+2219886D01*
X+1765569Y+2220000D01*
X+1565569Y+2020000D02*
X+1566229Y+2003761D01*
X+1571594Y+1971281D01*
X+1582794Y+1938801D01*
X+1601018Y+1906321D01*
X+1628885Y+1873995D01*
X+1661365Y+1849291D01*
X+1693845Y+1833303D01*
X+1726325Y+1823888D01*
X+1758805Y+1820114D01*
X+1765569Y+1820000D01*
X+1965569Y+2020000D02*
X+1964909Y+2003761D01*
X+1959544Y+1971281D01*
X+1948344Y+1938801D01*
X+1930120Y+1906321D01*
X+1902253Y+1873995D01*
X+1869773Y+1849291D01*
X+1837293Y+1833303D01*
X+1804813Y+1823888D01*
X+1772333Y+1820114D01*
X+1765569Y+1820000D01*
D28*
X+1939569Y+2184000D02*
X+1939534Y+2184831D01*
X+1939253Y+2186495D01*
X+1938663Y+2188159D01*
X+1937699Y+2189823D01*
X+1936224Y+2191464D01*
X+1934560Y+2192665D01*
X+1932896Y+2193430D01*
X+1931232Y+2193861D01*
X+1929569Y+2194000D01*
X+1919569Y+2184000D02*
X+1919604Y+2184831D01*
X+1919885Y+2186495D01*
X+1920475Y+2188159D01*
X+1921439Y+2189823D01*
X+1922914Y+2191464D01*
X+1924578Y+2192665D01*
X+1926242Y+2193430D01*
X+1927906Y+2193861D01*
X+1929569Y+2194000D01*
X+1919569Y+2184000D02*
X+1919604Y+2183169D01*
X+1919885Y+2181505D01*
X+1920475Y+2179841D01*
X+1921439Y+2178177D01*
X+1922914Y+2176536D01*
X+1924578Y+2175335D01*
X+1926242Y+2174570D01*
X+1927906Y+2174139D01*
X+1929569Y+2174000D01*
X+1939569Y+2184000D02*
X+1939534Y+2183169D01*
X+1939253Y+2181505D01*
X+1938663Y+2179841D01*
X+1937699Y+2178177D01*
X+1936224Y+2176536D01*
X+1934560Y+2175335D01*
X+1932896Y+2174570D01*
X+1931232Y+2174139D01*
X+1929569Y+2174000D01*
D22*
X+2078249Y+1988250D02*
X+2093489Y+1972375D01*
X+2093489Y+1924750D01*
X+2063009Y+1893000D01*
X+2032529Y+1893000D01*
X+2002049Y+1924750D01*
X+2002049Y+1972375D01*
X+2017289Y+1988250D01*
X+2063009Y+2115250D02*
X+2063009Y+2020000D01*
X+2002049Y+2083500D01*
X+2093489Y+2083500D01*
X+1319489Y+4417920D02*
X+1837649Y+4417920D01*
X+1837649Y+4684620D01*
X+1319489Y+4684620D01*
X+1319489Y+4417920D01*
X+1400769Y+4682080D02*
X+1400769Y+4420460D01*
X+1248369Y+4550000D02*
X+1319489Y+4550000D01*
X+1837649Y+4550000D02*
X+1908769Y+4550000D01*
X+1451569Y+4725260D02*
X+1451569Y+4816700D01*
X+1515069Y+4816700D01*
X+1546819Y+4786220D01*
X+1546819Y+4755740D01*
X+1515069Y+4725260D01*
X+1451569Y+4725260D01*
X+1610319Y+4786220D02*
X+1642069Y+4816700D01*
X+1642069Y+4725260D01*
X+1139569Y+1423000D02*
X+1647569Y+1423000D01*
X+1647569Y+1677000D01*
X+1139569Y+1677000D01*
X+1139569Y+1423000D01*
X+1266569Y+1748120D02*
X+1266569Y+1732880D01*
X+1282444Y+1717640D01*
X+1345944Y+1717640D01*
X+1361819Y+1732880D01*
X+1361819Y+1809080D01*
X+1488819Y+1748120D02*
X+1393569Y+1748120D01*
X+1457069Y+1809080D01*
X+1457069Y+1717640D01*
X+1531569Y+3900000D02*
X+1530742Y+3920483D01*
X+1524024Y+3961450D01*
X+1510006Y+4002417D01*
X+1487228Y+4043384D01*
X+1452428Y+4084229D01*
X+1411461Y+4115845D01*
X+1370494Y+4136392D01*
X+1329527Y+4148629D01*
X+1288560Y+4153762D01*
X+1277569Y+4154000D01*
X+1023569Y+3900000D02*
X+1024396Y+3920483D01*
X+1031114Y+3961450D01*
X+1045132Y+4002417D01*
X+1067910Y+4043384D01*
X+1102710Y+4084229D01*
X+1143677Y+4115845D01*
X+1184644Y+4136392D01*
X+1225611Y+4148629D01*
X+1266578Y+4153762D01*
X+1277569Y+4154000D01*
X+1023569Y+3900000D02*
X+1024396Y+3879517D01*
X+1031114Y+3838550D01*
X+1045132Y+3797583D01*
X+1067910Y+3756616D01*
X+1102710Y+3715771D01*
X+1143677Y+3684155D01*
X+1184644Y+3663608D01*
X+1225611Y+3651371D01*
X+1266578Y+3646238D01*
X+1277569Y+3646000D01*
X+1531569Y+3900000D02*
X+1530742Y+3879517D01*
X+1524024Y+3838550D01*
X+1510006Y+3797583D01*
X+1487228Y+3756616D01*
X+1452428Y+3715771D01*
X+1411461Y+3684155D01*
X+1370494Y+3663608D01*
X+1329527Y+3651371D01*
X+1288560Y+3646238D01*
X+1277569Y+3646000D01*
X+960069Y+4154000D02*
X+1087069Y+4154000D01*
X+1023569Y+4217500D02*
X+1023569Y+4090500D01*
X+1118819Y+4258140D02*
X+1118819Y+4349580D01*
X+1182319Y+4349580D01*
X+1214069Y+4319100D01*
X+1214069Y+4288620D01*
X+1182319Y+4258140D01*
X+1118819Y+4258140D01*
X+1261694Y+4334340D02*
X+1277569Y+4349580D01*
X+1325194Y+4349580D01*
X+1341069Y+4334340D01*
X+1341069Y+4319100D01*
X+1325194Y+4303860D01*
X+1277569Y+4303860D01*
X+1261694Y+4288620D01*
X+1261694Y+4258140D01*
X+1341069Y+4258140D01*
D27*
X+2500569Y+3150000D02*
X+2499909Y+3166239D01*
X+2494544Y+3198719D01*
X+2483344Y+3231199D01*
X+2465120Y+3263679D01*
X+2437253Y+3296005D01*
X+2404773Y+3320709D01*
X+2372293Y+3336697D01*
X+2339813Y+3346112D01*
X+2307333Y+3349886D01*
X+2300569Y+3350000D01*
X+2100569Y+3150000D02*
X+2101229Y+3166239D01*
X+2106594Y+3198719D01*
X+2117794Y+3231199D01*
X+2136018Y+3263679D01*
X+2163885Y+3296005D01*
X+2196365Y+3320709D01*
X+2228845Y+3336697D01*
X+2261325Y+3346112D01*
X+2293805Y+3349886D01*
X+2300569Y+3350000D01*
X+2100569Y+3150000D02*
X+2101229Y+3133761D01*
X+2106594Y+3101281D01*
X+2117794Y+3068801D01*
X+2136018Y+3036321D01*
X+2163885Y+3003995D01*
X+2196365Y+2979291D01*
X+2228845Y+2963303D01*
X+2261325Y+2953888D01*
X+2293805Y+2950114D01*
X+2300569Y+2950000D01*
X+2500569Y+3150000D02*
X+2499909Y+3133761D01*
X+2494544Y+3101281D01*
X+2483344Y+3068801D01*
X+2465120Y+3036321D01*
X+2437253Y+3003995D01*
X+2404773Y+2979291D01*
X+2372293Y+2963303D01*
X+2339813Y+2953888D01*
X+2307333Y+2950114D01*
X+2300569Y+2950000D01*
D28*
X+2146569Y+3314000D02*
X+2146534Y+3314831D01*
X+2146253Y+3316495D01*
X+2145663Y+3318159D01*
X+2144699Y+3319823D01*
X+2143224Y+3321464D01*
X+2141560Y+3322665D01*
X+2139896Y+3323430D01*
X+2138232Y+3323861D01*
X+2136569Y+3324000D01*
X+2126569Y+3314000D02*
X+2126604Y+3314831D01*
X+2126885Y+3316495D01*
X+2127475Y+3318159D01*
X+2128439Y+3319823D01*
X+2129914Y+3321464D01*
X+2131578Y+3322665D01*
X+2133242Y+3323430D01*
X+2134906Y+3323861D01*
X+2136569Y+3324000D01*
X+2126569Y+3314000D02*
X+2126604Y+3313169D01*
X+2126885Y+3311505D01*
X+2127475Y+3309841D01*
X+2128439Y+3308177D01*
X+2129914Y+3306536D01*
X+2131578Y+3305335D01*
X+2133242Y+3304570D01*
X+2134906Y+3304139D01*
X+2136569Y+3304000D01*
X+2146569Y+3314000D02*
X+2146534Y+3313169D01*
X+2146253Y+3311505D01*
X+2145663Y+3309841D01*
X+2144699Y+3308177D01*
X+2143224Y+3306536D01*
X+2141560Y+3305335D01*
X+2139896Y+3304570D01*
X+2138232Y+3304139D01*
X+2136569Y+3304000D01*
D22*
X+2268819Y+3401720D02*
X+2252944Y+3386480D01*
X+2205319Y+3386480D01*
X+2173569Y+3416960D01*
X+2173569Y+3447440D01*
X+2205319Y+3477920D01*
X+2252944Y+3477920D01*
X+2268819Y+3462680D01*
X+2395819Y+3477920D02*
X+2316444Y+3477920D01*
X+2316444Y+3447440D01*
X+2379944Y+3447440D01*
X+2395819Y+3432200D01*
X+2395819Y+3401720D01*
X+2379944Y+3386480D01*
X+2332319Y+3386480D01*
X+2316444Y+3401720D01*
D27*
X+2170569Y+1575000D02*
X+2169909Y+1591239D01*
X+2164544Y+1623719D01*
X+2153344Y+1656199D01*
X+2135120Y+1688679D01*
X+2107253Y+1721005D01*
X+2074773Y+1745709D01*
X+2042293Y+1761697D01*
X+2009813Y+1771112D01*
X+1977333Y+1774886D01*
X+1970569Y+1775000D01*
X+1770569Y+1575000D02*
X+1771229Y+1591239D01*
X+1776594Y+1623719D01*
X+1787794Y+1656199D01*
X+1806018Y+1688679D01*
X+1833885Y+1721005D01*
X+1866365Y+1745709D01*
X+1898845Y+1761697D01*
X+1931325Y+1771112D01*
X+1963805Y+1774886D01*
X+1970569Y+1775000D01*
X+1770569Y+1575000D02*
X+1771229Y+1558761D01*
X+1776594Y+1526281D01*
X+1787794Y+1493801D01*
X+1806018Y+1461321D01*
X+1833885Y+1428995D01*
X+1866365Y+1404291D01*
X+1898845Y+1388303D01*
X+1931325Y+1378888D01*
X+1963805Y+1375114D01*
X+1970569Y+1375000D01*
X+2170569Y+1575000D02*
X+2169909Y+1558761D01*
X+2164544Y+1526281D01*
X+2153344Y+1493801D01*
X+2135120Y+1461321D01*
X+2107253Y+1428995D01*
X+2074773Y+1404291D01*
X+2042293Y+1388303D01*
X+2009813Y+1378888D01*
X+1977333Y+1375114D01*
X+1970569Y+1375000D01*
D28*
X+2144569Y+1739000D02*
X+2144534Y+1739831D01*
X+2144253Y+1741495D01*
X+2143663Y+1743159D01*
X+2142699Y+1744823D01*
X+2141224Y+1746464D01*
X+2139560Y+1747665D01*
X+2137896Y+1748430D01*
X+2136232Y+1748861D01*
X+2134569Y+1749000D01*
X+2124569Y+1739000D02*
X+2124604Y+1739831D01*
X+2124885Y+1741495D01*
X+2125475Y+1743159D01*
X+2126439Y+1744823D01*
X+2127914Y+1746464D01*
X+2129578Y+1747665D01*
X+2131242Y+1748430D01*
X+2132906Y+1748861D01*
X+2134569Y+1749000D01*
X+2124569Y+1739000D02*
X+2124604Y+1738169D01*
X+2124885Y+1736505D01*
X+2125475Y+1734841D01*
X+2126439Y+1733177D01*
X+2127914Y+1731536D01*
X+2129578Y+1730335D01*
X+2131242Y+1729570D01*
X+2132906Y+1729139D01*
X+2134569Y+1729000D01*
X+2144569Y+1739000D02*
X+2144534Y+1738169D01*
X+2144253Y+1736505D01*
X+2143663Y+1734841D01*
X+2142699Y+1733177D01*
X+2141224Y+1731536D01*
X+2139560Y+1730335D01*
X+2137896Y+1729570D01*
X+2136232Y+1729139D01*
X+2134569Y+1729000D01*
D22*
X+2283249Y+1543250D02*
X+2298489Y+1527375D01*
X+2298489Y+1479750D01*
X+2268009Y+1448000D01*
X+2237529Y+1448000D01*
X+2207049Y+1479750D01*
X+2207049Y+1527375D01*
X+2222289Y+1543250D01*
X+2222289Y+1670250D02*
X+2207049Y+1654375D01*
X+2207049Y+1606750D01*
X+2222289Y+1590875D01*
X+2283249Y+1590875D01*
X+2298489Y+1606750D01*
X+2298489Y+1654375D01*
X+2283249Y+1670250D01*
X+2268009Y+1670250D01*
X+2252769Y+1654375D01*
X+2252769Y+1590875D01*
X+3797569Y+4761500D02*
X+3797569Y+1332500D01*
X+4305569Y+1332500D01*
X+4305569Y+4761500D01*
X+3797569Y+4761500D02*
X+3924569Y+4761500D01*
X+4305569Y+4761500D02*
X+4178569Y+4761500D01*
X+3924569Y+4761500D02*
X+3927096Y+4735532D01*
X+3934367Y+4711518D01*
X+3945917Y+4689923D01*
X+3961280Y+4671211D01*
X+3979992Y+4655847D01*
X+4001588Y+4644298D01*
X+4025602Y+4637027D01*
X+4051569Y+4634500D01*
X+4178569Y+4761500D02*
X+4176042Y+4735532D01*
X+4168771Y+4711518D01*
X+4157221Y+4689923D01*
X+4141858Y+4671211D01*
X+4123146Y+4655847D01*
X+4101551Y+4644298D01*
X+4077537Y+4637027D01*
X+4051569Y+4634500D01*
X+3845393Y+4710700D02*
X+3845368Y+4711297D01*
X+3845166Y+4712493D01*
X+3844742Y+4713689D01*
X+3844048Y+4714885D01*
X+3842988Y+4716064D01*
X+3841792Y+4716927D01*
X+3840596Y+4717476D01*
X+3839400Y+4717785D01*
X+3838209Y+4717884D01*
X+3831025Y+4710700D02*
X+3831050Y+4711297D01*
X+3831252Y+4712493D01*
X+3831676Y+4713689D01*
X+3832370Y+4714885D01*
X+3833430Y+4716064D01*
X+3834626Y+4716927D01*
X+3835822Y+4717476D01*
X+3837018Y+4717785D01*
X+3838209Y+4717884D01*
X+3831025Y+4710700D02*
X+3831050Y+4710103D01*
X+3831252Y+4708907D01*
X+3831676Y+4707711D01*
X+3832370Y+4706515D01*
X+3833430Y+4705336D01*
X+3834626Y+4704473D01*
X+3835822Y+4703924D01*
X+3837018Y+4703615D01*
X+3838209Y+4703516D01*
X+3845393Y+4710700D02*
X+3845368Y+4710103D01*
X+3845166Y+4708907D01*
X+3844742Y+4707711D01*
X+3844048Y+4706515D01*
X+3842988Y+4705336D01*
X+3841792Y+4704473D01*
X+3840596Y+4703924D01*
X+3839400Y+4703615D01*
X+3838209Y+4703516D01*
X+3924569Y+4893580D02*
X+3924569Y+4817380D01*
X+3940444Y+4802140D01*
X+4003944Y+4802140D01*
X+4019819Y+4817380D01*
X+4019819Y+4893580D01*
X+4083319Y+4863100D02*
X+4115069Y+4893580D01*
X+4115069Y+4802140D01*
X+3424569Y+2927000D02*
X+3424569Y+2165000D01*
X+3297569Y+2038000D01*
X+3043569Y+2038000D01*
X+2916569Y+2165000D01*
X+2916569Y+2927000D01*
X+3043569Y+3054000D01*
X+3297569Y+3054000D01*
X+3424569Y+2927000D01*
X+3465209Y+2419000D02*
X+3556649Y+2514250D01*
X+3556649Y+2419000D02*
X+3465209Y+2514250D01*
X+3495689Y+2577750D02*
X+3465209Y+2609500D01*
X+3556649Y+2609500D01*
X+2805569Y+2600000D02*
X+2798053Y+2574124D01*
X+2776399Y+2550152D01*
X+2741945Y+2528562D01*
X+2696032Y+2509830D01*
X+2639998Y+2494431D01*
X+2575183Y+2482842D01*
X+2502927Y+2475540D01*
X+2424569Y+2473000D01*
X+2043569Y+2600000D02*
X+2051189Y+2574124D01*
X+2073096Y+2550152D01*
X+2107863Y+2528562D01*
X+2154059Y+2509830D01*
X+2210256Y+2494431D01*
X+2275026Y+2482842D01*
X+2346940Y+2475540D01*
X+2424569Y+2473000D01*
X+2043569Y+2600000D02*
X+2051189Y+2625876D01*
X+2073096Y+2649848D01*
X+2107863Y+2671438D01*
X+2154059Y+2690170D01*
X+2210256Y+2705569D01*
X+2275026Y+2717158D01*
X+2346940Y+2724460D01*
X+2424569Y+2727000D01*
X+2805569Y+2600000D02*
X+2798053Y+2625876D01*
X+2776399Y+2649848D01*
X+2741945Y+2671438D01*
X+2696032Y+2690170D01*
X+2639998Y+2705569D01*
X+2575183Y+2717158D01*
X+2502927Y+2724460D01*
X+2424569Y+2727000D01*
X+2392819Y+2356160D02*
X+2376944Y+2340920D01*
X+2329319Y+2340920D01*
X+2297569Y+2371400D01*
X+2297569Y+2401880D01*
X+2329319Y+2432360D01*
X+2376944Y+2432360D01*
X+2392819Y+2417120D01*
X+2456319Y+2401880D02*
X+2488069Y+2432360D01*
X+2488069Y+2340920D01*
X+2797569Y+2150000D02*
X+2790053Y+2124124D01*
X+2768399Y+2100152D01*
X+2733945Y+2078562D01*
X+2688032Y+2059830D01*
X+2631998Y+2044431D01*
X+2567183Y+2032842D01*
X+2494927Y+2025540D01*
X+2416569Y+2023000D01*
X+2035569Y+2150000D02*
X+2043189Y+2124124D01*
X+2065096Y+2100152D01*
X+2099863Y+2078562D01*
X+2146059Y+2059830D01*
X+2202256Y+2044431D01*
X+2267026Y+2032842D01*
X+2338940Y+2025540D01*
X+2416569Y+2023000D01*
X+2035569Y+2150000D02*
X+2043189Y+2175876D01*
X+2065096Y+2199848D01*
X+2099863Y+2221438D01*
X+2146059Y+2240170D01*
X+2202256Y+2255569D01*
X+2267026Y+2267158D01*
X+2338940Y+2274460D01*
X+2416569Y+2277000D01*
X+2797569Y+2150000D02*
X+2790053Y+2175876D01*
X+2768399Y+2199848D01*
X+2733945Y+2221438D01*
X+2688032Y+2240170D01*
X+2631998Y+2255569D01*
X+2567183Y+2267158D01*
X+2494927Y+2274460D01*
X+2416569Y+2277000D01*
X+2384819Y+1906160D02*
X+2368944Y+1890920D01*
X+2321319Y+1890920D01*
X+2289569Y+1921400D01*
X+2289569Y+1951880D01*
X+2321319Y+1982360D01*
X+2368944Y+1982360D01*
X+2384819Y+1967120D01*
X+2432444Y+1967120D02*
X+2448319Y+1982360D01*
X+2495944Y+1982360D01*
X+2511819Y+1967120D01*
X+2511819Y+1951880D01*
X+2495944Y+1936640D01*
X+2448319Y+1936640D01*
X+2432444Y+1921400D01*
X+2432444Y+1890920D01*
X+2511819Y+1890920D01*
X+4716569Y+4834900D02*
X+5224569Y+4834900D01*
X+4640369Y+5000000D02*
X+4645132Y+4961702D01*
X+4659419Y+4922212D01*
X+4683232Y+4880342D01*
X+4716569Y+4834900D01*
X+4640369Y+5000000D02*
X+4643000Y+5064918D01*
X+4659481Y+5124953D01*
X+4688408Y+5178942D01*
X+4728376Y+5225722D01*
X+4777981Y+5264131D01*
X+4835818Y+5293005D01*
X+4900482Y+5311183D01*
X+4970569Y+5317500D01*
X+5300769Y+5000000D02*
X+5296006Y+4961702D01*
X+5281719Y+4922212D01*
X+5257906Y+4880342D01*
X+5224569Y+4834900D01*
X+5300769Y+5000000D02*
X+5298138Y+5064918D01*
X+5281657Y+5124953D01*
X+5252730Y+5178942D01*
X+5212762Y+5225722D01*
X+5163157Y+5264131D01*
X+5105320Y+5293005D01*
X+5040656Y+5311183D01*
X+4970569Y+5317500D01*
X+4843569Y+5419100D02*
X+4875319Y+5449580D01*
X+4907069Y+5449580D01*
X+4938819Y+5419100D01*
X+4938819Y+5388620D01*
X+4907069Y+5358140D01*
X+4875319Y+5358140D01*
X+4843569Y+5388620D01*
X+4843569Y+5419100D01*
X+4907069Y+5388620D02*
X+4938819Y+5358140D01*
X+5002319Y+5419100D02*
X+5034069Y+5449580D01*
X+5034069Y+5358140D01*
X+6174569Y+2973000D02*
X+6173742Y+2993483D01*
X+6167024Y+3034450D01*
X+6153006Y+3075417D01*
X+6130228Y+3116384D01*
X+6095428Y+3157229D01*
X+6054461Y+3188845D01*
X+6013494Y+3209392D01*
X+5972527Y+3221629D01*
X+5931560Y+3226762D01*
X+5920569Y+3227000D01*
X+5666569Y+2973000D02*
X+5667396Y+2993483D01*
X+5674114Y+3034450D01*
X+5688132Y+3075417D01*
X+5710910Y+3116384D01*
X+5745710Y+3157229D01*
X+5786677Y+3188845D01*
X+5827644Y+3209392D01*
X+5868611Y+3221629D01*
X+5909578Y+3226762D01*
X+5920569Y+3227000D01*
X+5666569Y+2973000D02*
X+5667396Y+2952517D01*
X+5674114Y+2911550D01*
X+5688132Y+2870583D01*
X+5710910Y+2829616D01*
X+5745710Y+2788771D01*
X+5786677Y+2757155D01*
X+5827644Y+2736608D01*
X+5868611Y+2724371D01*
X+5909578Y+2719238D01*
X+5920569Y+2719000D01*
X+6174569Y+2973000D02*
X+6173742Y+2952517D01*
X+6167024Y+2911550D01*
X+6153006Y+2870583D01*
X+6130228Y+2829616D01*
X+6095428Y+2788771D01*
X+6054461Y+2757155D01*
X+6013494Y+2736608D01*
X+5972527Y+2724371D01*
X+5931560Y+2719238D01*
X+5920569Y+2719000D01*
X+6174569Y+3290500D02*
X+6174569Y+3163500D01*
X+6238069Y+3227000D02*
X+6111069Y+3227000D01*
X+6370149Y+2877750D02*
X+6278709Y+2877750D01*
X+6278709Y+2941250D01*
X+6309189Y+2973000D01*
X+6339669Y+2973000D01*
X+6370149Y+2941250D01*
X+6370149Y+2877750D01*
X+6293949Y+3020625D02*
X+6278709Y+3036500D01*
X+6278709Y+3084125D01*
X+6293949Y+3100000D01*
X+6309189Y+3100000D01*
X+6324429Y+3084125D01*
X+6339669Y+3100000D01*
X+6354909Y+3100000D01*
X+6370149Y+3084125D01*
X+6370149Y+3036500D01*
X+6354909Y+3020625D01*
X+6324429Y+3052375D02*
X+6324429Y+3084125D01*
X+6174569Y+3573000D02*
X+6173742Y+3593483D01*
X+6167024Y+3634450D01*
X+6153006Y+3675417D01*
X+6130228Y+3716384D01*
X+6095428Y+3757229D01*
X+6054461Y+3788845D01*
X+6013494Y+3809392D01*
X+5972527Y+3821629D01*
X+5931560Y+3826762D01*
X+5920569Y+3827000D01*
X+5666569Y+3573000D02*
X+5667396Y+3593483D01*
X+5674114Y+3634450D01*
X+5688132Y+3675417D01*
X+5710910Y+3716384D01*
X+5745710Y+3757229D01*
X+5786677Y+3788845D01*
X+5827644Y+3809392D01*
X+5868611Y+3821629D01*
X+5909578Y+3826762D01*
X+5920569Y+3827000D01*
X+5666569Y+3573000D02*
X+5667396Y+3552517D01*
X+5674114Y+3511550D01*
X+5688132Y+3470583D01*
X+5710910Y+3429616D01*
X+5745710Y+3388771D01*
X+5786677Y+3357155D01*
X+5827644Y+3336608D01*
X+5868611Y+3324371D01*
X+5909578Y+3319238D01*
X+5920569Y+3319000D01*
X+6174569Y+3573000D02*
X+6173742Y+3552517D01*
X+6167024Y+3511550D01*
X+6153006Y+3470583D01*
X+6130228Y+3429616D01*
X+6095428Y+3388771D01*
X+6054461Y+3357155D01*
X+6013494Y+3336608D01*
X+5972527Y+3324371D01*
X+5931560Y+3319238D01*
X+5920569Y+3319000D01*
X+6174569Y+3890500D02*
X+6174569Y+3763500D01*
X+6238069Y+3827000D02*
X+6111069Y+3827000D01*
X+6370149Y+3477750D02*
X+6278709Y+3477750D01*
X+6278709Y+3541250D01*
X+6309189Y+3573000D01*
X+6339669Y+3573000D01*
X+6370149Y+3541250D01*
X+6370149Y+3477750D01*
X+6339669Y+3700000D02*
X+6339669Y+3604750D01*
X+6278709Y+3668250D01*
X+6370149Y+3668250D01*
X+6174569Y+4173000D02*
X+6173742Y+4193483D01*
X+6167024Y+4234450D01*
X+6153006Y+4275417D01*
X+6130228Y+4316384D01*
X+6095428Y+4357229D01*
X+6054461Y+4388845D01*
X+6013494Y+4409392D01*
X+5972527Y+4421629D01*
X+5931560Y+4426762D01*
X+5920569Y+4427000D01*
X+5666569Y+4173000D02*
X+5667396Y+4193483D01*
X+5674114Y+4234450D01*
X+5688132Y+4275417D01*
X+5710910Y+4316384D01*
X+5745710Y+4357229D01*
X+5786677Y+4388845D01*
X+5827644Y+4409392D01*
X+5868611Y+4421629D01*
X+5909578Y+4426762D01*
X+5920569Y+4427000D01*
X+5666569Y+4173000D02*
X+5667396Y+4152517D01*
X+5674114Y+4111550D01*
X+5688132Y+4070583D01*
X+5710910Y+4029616D01*
X+5745710Y+3988771D01*
X+5786677Y+3957155D01*
X+5827644Y+3936608D01*
X+5868611Y+3924371D01*
X+5909578Y+3919238D01*
X+5920569Y+3919000D01*
X+6174569Y+4173000D02*
X+6173742Y+4152517D01*
X+6167024Y+4111550D01*
X+6153006Y+4070583D01*
X+6130228Y+4029616D01*
X+6095428Y+3988771D01*
X+6054461Y+3957155D01*
X+6013494Y+3936608D01*
X+5972527Y+3924371D01*
X+5931560Y+3919238D01*
X+5920569Y+3919000D01*
X+6174569Y+4490500D02*
X+6174569Y+4363500D01*
X+6238069Y+4427000D02*
X+6111069Y+4427000D01*
X+6370149Y+4077750D02*
X+6278709Y+4077750D01*
X+6278709Y+4141250D01*
X+6309189Y+4173000D01*
X+6339669Y+4173000D01*
X+6370149Y+4141250D01*
X+6370149Y+4077750D01*
X+6278709Y+4300000D02*
X+6278709Y+4220625D01*
X+6309189Y+4220625D01*
X+6309189Y+4284125D01*
X+6324429Y+4300000D01*
X+6354909Y+4300000D01*
X+6370149Y+4284125D01*
X+6370149Y+4236500D01*
X+6354909Y+4220625D01*
X+5039569Y+1273000D02*
X+5547569Y+1273000D01*
X+5547569Y+2289000D01*
X+5039569Y+2289000D01*
X+5039569Y+1273000D01*
X+4968449Y+1654000D02*
X+4983689Y+1654000D01*
X+4998929Y+1669875D01*
X+4998929Y+1733375D01*
X+4983689Y+1749250D01*
X+4907489Y+1749250D01*
X+4937969Y+1812750D02*
X+4907489Y+1844500D01*
X+4998929Y+1844500D01*
X+2593569Y+3815000D02*
X+2847569Y+3815000D01*
X+2847569Y+4577000D01*
X+2593569Y+4577000D01*
X+2593569Y+3815000D01*
X+2949169Y+4069000D02*
X+2964409Y+4069000D01*
X+2979649Y+4084875D01*
X+2979649Y+4148375D01*
X+2964409Y+4164250D01*
X+2888209Y+4164250D01*
X+2888209Y+4291250D02*
X+2888209Y+4211875D01*
X+2918689Y+4211875D01*
X+2918689Y+4275375D01*
X+2933929Y+4291250D01*
X+2964409Y+4291250D01*
X+2979649Y+4275375D01*
X+2979649Y+4227750D01*
X+2964409Y+4211875D01*
X+2343569Y+1423000D02*
X+3359569Y+1423000D01*
X+3359569Y+1677000D01*
X+2343569Y+1677000D01*
X+2343569Y+1423000D01*
X+2724569Y+1321400D02*
X+2724569Y+1306160D01*
X+2740444Y+1290920D01*
X+2803944Y+1290920D01*
X+2819819Y+1306160D01*
X+2819819Y+1382360D01*
X+2867444Y+1367120D02*
X+2883319Y+1382360D01*
X+2930944Y+1382360D01*
X+2946819Y+1367120D01*
X+2946819Y+1351880D01*
X+2930944Y+1336640D01*
X+2946819Y+1321400D01*
X+2946819Y+1306160D01*
X+2930944Y+1290920D01*
X+2883319Y+1290920D01*
X+2867444Y+1306160D01*
X+2899194Y+1336640D02*
X+2930944Y+1336640D01*
X+4085569Y+823000D02*
X+4847569Y+823000D01*
X+4847569Y+1077000D01*
X+4085569Y+1077000D01*
X+4085569Y+823000D01*
X+4339569Y+721400D02*
X+4339569Y+706160D01*
X+4355444Y+690920D01*
X+4418944Y+690920D01*
X+4434819Y+706160D01*
X+4434819Y+782360D01*
X+4482444Y+767120D02*
X+4498319Y+782360D01*
X+4545944Y+782360D01*
X+4561819Y+767120D01*
X+4561819Y+751880D01*
X+4545944Y+736640D01*
X+4498319Y+736640D01*
X+4482444Y+721400D01*
X+4482444Y+690920D01*
X+4561819Y+690920D01*
X+2750000Y+4700000D02*
X+3350000Y+4700000D01*
X+3350000Y+5340000D01*
X+2750000Y+5340000D01*
X+2750000Y+4700000D01*
X+2323000Y+4980640D02*
X+2323000Y+5072080D01*
X+2402375Y+5072080D01*
X+2418250Y+5056840D01*
X+2418250Y+5041600D01*
X+2402375Y+5026360D01*
X+2418250Y+5011120D01*
X+2418250Y+4995880D01*
X+2402375Y+4980640D01*
X+2323000Y+4980640D01*
X+2323000Y+5026360D02*
X+2402375Y+5026360D01*
X+2481750Y+5041600D02*
X+2513500Y+5072080D01*
X+2513500Y+4980640D01*
X+50000Y+5800000D02*
X+6600000Y+5800000D01*
X+50000Y+5800000D02*
X+177000Y+5673000D01*
X+50000Y+5800000D02*
X+177000Y+5927000D01*
X+6600000Y+5800000D02*
X+6473000Y+5927000D01*
X+6600000Y+5800000D02*
X+6473000Y+5673000D01*
X+3356750Y+5800000D02*
X+3356641Y+5802634D01*
X+3355751Y+5807903D01*
X+3353889Y+5813172D01*
X+3350846Y+5818441D01*
X+3346191Y+5823643D01*
X+3340922Y+5827469D01*
X+3335653Y+5829909D01*
X+3330384Y+5831290D01*
X+3325115Y+5831750D01*
X+3325000Y+5831750D01*
X+3293250Y+5800000D02*
X+3293359Y+5802634D01*
X+3294249Y+5807903D01*
X+3296111Y+5813172D01*
X+3299154Y+5818441D01*
X+3303809Y+5823643D01*
X+3309078Y+5827469D01*
X+3314347Y+5829909D01*
X+3319616Y+5831290D01*
X+3324885Y+5831750D01*
X+3325000Y+5831750D01*
X+3293250Y+5800000D02*
X+3293359Y+5797366D01*
X+3294249Y+5792097D01*
X+3296111Y+5786828D01*
X+3299154Y+5781559D01*
X+3303809Y+5776357D01*
X+3309078Y+5772531D01*
X+3314347Y+5770091D01*
X+3319616Y+5768710D01*
X+3324885Y+5768250D01*
X+3325000Y+5768250D01*
X+3356750Y+5800000D02*
X+3356641Y+5797366D01*
X+3355751Y+5792097D01*
X+3353889Y+5786828D01*
X+3350846Y+5781559D01*
X+3346191Y+5776357D01*
X+3340922Y+5772531D01*
X+3335653Y+5770091D01*
X+3330384Y+5768710D01*
X+3325115Y+5768250D01*
X+3325000Y+5768250D01*
X+3039250Y+5916840D02*
X+3023375Y+5932080D01*
X+2975750Y+5932080D01*
X+2959875Y+5916840D01*
X+2959875Y+5855880D01*
X+2975750Y+5840640D01*
X+3023375Y+5840640D01*
X+3039250Y+5855880D01*
X+3039250Y+5871120D01*
X+3023375Y+5886360D01*
X+2959875Y+5886360D01*
X+3166250Y+5932080D02*
X+3086875Y+5932080D01*
X+3086875Y+5901600D01*
X+3150375Y+5901600D01*
X+3166250Y+5886360D01*
X+3166250Y+5855880D01*
X+3150375Y+5840640D01*
X+3102750Y+5840640D01*
X+3086875Y+5855880D01*
X+3245625Y+5855880D02*
X+3261500Y+5855880D01*
X+3261500Y+5840640D01*
X+3245625Y+5840640D01*
X+3245625Y+5855880D01*
X+3420250Y+5932080D02*
X+3340875Y+5932080D01*
X+3340875Y+5901600D01*
X+3404375Y+5901600D01*
X+3420250Y+5886360D01*
X+3420250Y+5855880D01*
X+3404375Y+5840640D01*
X+3356750Y+5840640D01*
X+3340875Y+5855880D01*
X+3452000Y+5840640D02*
X+3452000Y+5901600D01*
X+3452000Y+5886360D02*
X+3467875Y+5901600D01*
X+3499625Y+5871120D01*
X+3531375Y+5901600D01*
X+3547250Y+5886360D01*
X+3547250Y+5840640D01*
X+3579000Y+5840640D02*
X+3579000Y+5901600D01*
X+3579000Y+5886360D02*
X+3594875Y+5901600D01*
X+3626625Y+5871120D01*
X+3658375Y+5901600D01*
X+3674250Y+5886360D01*
X+3674250Y+5840640D01*
X-400000Y+5500000D02*
X-400000Y+50000D01*
X-400000Y+5500000D02*
X-527000Y+5373000D01*
X-400000Y+5500000D02*
X-273000Y+5373000D01*
X-400000Y+50000D02*
X-273000Y+177000D01*
X-400000Y+50000D02*
X-527000Y+177000D01*
X-368250Y+2775000D02*
X-368359Y+2777634D01*
X-369249Y+2782903D01*
X-371111Y+2788172D01*
X-374154Y+2793441D01*
X-378809Y+2798643D01*
X-384078Y+2802469D01*
X-389347Y+2804909D01*
X-394616Y+2806290D01*
X-399885Y+2806750D01*
X-400000Y+2806750D01*
X-431750Y+2775000D02*
X-431641Y+2777634D01*
X-430751Y+2782903D01*
X-428889Y+2788172D01*
X-425846Y+2793441D01*
X-421191Y+2798643D01*
X-415922Y+2802469D01*
X-410653Y+2804909D01*
X-405384Y+2806290D01*
X-400115Y+2806750D01*
X-400000Y+2806750D01*
X-431750Y+2775000D02*
X-431641Y+2772366D01*
X-430751Y+2767097D01*
X-428889Y+2761828D01*
X-425846Y+2756559D01*
X-421191Y+2751357D01*
X-415922Y+2747531D01*
X-410653Y+2745091D01*
X-405384Y+2743710D01*
X-400115Y+2743250D01*
X-400000Y+2743250D01*
X-368250Y+2775000D02*
X-368359Y+2772366D01*
X-369249Y+2767097D01*
X-371111Y+2761828D01*
X-374154Y+2756559D01*
X-378809Y+2751357D01*
X-384078Y+2747531D01*
X-389347Y+2745091D01*
X-394616Y+2743710D01*
X-399885Y+2743250D01*
X-400000Y+2743250D01*
X-267920Y+3060750D02*
X-267920Y+3140125D01*
X-298400Y+3140125D01*
X-298400Y+3076625D01*
X-313640Y+3060750D01*
X-344120Y+3060750D01*
X-359360Y+3076625D01*
X-359360Y+3124250D01*
X-344120Y+3140125D01*
X-328880Y+2933750D02*
X-328880Y+3029000D01*
X-267920Y+2965500D01*
X-359360Y+2965500D01*
X-344120Y+2854375D02*
X-344120Y+2838500D01*
X-359360Y+2838500D01*
X-359360Y+2854375D01*
X-344120Y+2854375D01*
X-267920Y+2679750D02*
X-267920Y+2759125D01*
X-298400Y+2759125D01*
X-298400Y+2695625D01*
X-313640Y+2679750D01*
X-344120Y+2679750D01*
X-359360Y+2695625D01*
X-359360Y+2743250D01*
X-344120Y+2759125D01*
X-359360Y+2648000D02*
X-298400Y+2648000D01*
X-313640Y+2648000D02*
X-298400Y+2632125D01*
X-328880Y+2600375D01*
X-298400Y+2568625D01*
X-313640Y+2552750D01*
X-359360Y+2552750D01*
X-359360Y+2521000D02*
X-298400Y+2521000D01*
X-313640Y+2521000D02*
X-298400Y+2505125D01*
X-328880Y+2473375D01*
X-298400Y+2441625D01*
X-313640Y+2425750D01*
X-359360Y+2425750D01*
M02*
