M48
METRIC,TZ
T01C0.5080
T02C1.0160
T03C0.8500
T04C0.7000
T05C0.7620
T06C3.0500
%
T01
X+24672Y+18288
X+29834Y+18247
X+57152Y+17588
X+57134Y+9329
X+41512Y+27516
X+41493Y+32383
X+33399Y+32386
X+26228Y+32386
X+19723Y+43096
X+19681Y+29550
X+25955Y+6051
X+53302Y+6051
X+7166Y+31492
X+7166Y+41313
T02
X+5006Y+33460
X+5006Y+36000
X+5006Y+38540
X+20866Y+45500
X+10706Y+45500
X+12666Y+15500
X+15206Y+15500
X+11506Y+39000
X+14046Y+39000
X+59206Y+31000
X+59206Y+28460
X+59206Y+37000
X+59206Y+34460
X+59206Y+43000
X+59206Y+40460
X+54206Y+14000
X+54206Y+16540
X+54206Y+19080
X+54206Y+21620
X+51666Y+21620
X+51666Y+19080
X+51666Y+16540
X+51666Y+14000
X+27206Y+44500
X+27206Y+41960
X+27206Y+39420
X+32326Y+15500
X+29786Y+15500
X+27246Y+15500
X+24706Y+15500
X+47206Y+9500
X+44666Y+9500
X+42126Y+9500
X+27000Y+52500
X+34000Y+52500
X+27000Y+48000
X+34000Y+48000
T03
X+12506Y+30000
X+12506Y+25000
T04
X+17656Y+20950
X+17656Y+19450
X+22256Y+31500
X+23756Y+31500
X+19706Y+16500
X+19706Y+15000
T05
X+36706Y+47000
X+36706Y+44460
X+36706Y+41920
X+36706Y+39380
X+36706Y+36840
X+36706Y+34300
X+36706Y+31760
X+36706Y+29220
X+36706Y+26680
X+36706Y+24140
X+36706Y+21600
X+36706Y+19060
X+36706Y+16520
X+36706Y+13980
X+44326Y+13980
X+44326Y+16520
X+44326Y+19060
X+44326Y+21600
X+44326Y+24140
X+44326Y+26680
X+44326Y+29220
X+44326Y+31760
X+44326Y+34300
X+44326Y+36840
X+44326Y+39380
X+44326Y+41920
X+44326Y+44460
X+44326Y+46980
X+31706Y+28000
X+31706Y+22920
X+26786Y+26000
X+21706Y+26000
X+26706Y+21500
X+21626Y+21500
X+47674Y+50000
X+49706Y+50000
X+51738Y+50000
T06
X+4206Y+51500
X+62206Y+51500
X+62706Y+3500
X+3706Y+3500
M30
