G04 PROTEUS RS274X GERBER FILE*
%FSLAX45Y45*%
%MOMM*%
G01*
%ADD22C,0.203200*%
%ADD28C,0.200000*%
%ADD29C,0.250000*%
D22*
X+70569Y+50000D02*
X+6570569Y+50000D01*
X+6570569Y+5500000D01*
X+70569Y+5500000D01*
X+70569Y+50000D01*
D28*
X+660569Y+3695000D02*
X+660569Y+3795000D01*
X+840569Y+3695000D02*
X+840569Y+3795000D01*
D22*
X+972489Y+3872000D02*
X+881049Y+3872000D01*
X+881049Y+3792625D01*
X+896289Y+3776750D01*
X+911529Y+3776750D01*
X+926769Y+3792625D01*
X+926769Y+3872000D01*
X+926769Y+3792625D02*
X+942009Y+3776750D01*
X+972489Y+3776750D01*
X+896289Y+3649750D02*
X+881049Y+3665625D01*
X+881049Y+3713250D01*
X+896289Y+3729125D01*
X+957249Y+3729125D01*
X+972489Y+3713250D01*
X+972489Y+3665625D01*
X+957249Y+3649750D01*
X+942009Y+3649750D01*
X+926769Y+3665625D01*
X+926769Y+3729125D01*
D28*
X+615569Y+2790000D02*
X+715569Y+2790000D01*
X+615569Y+2610000D02*
X+715569Y+2610000D01*
D22*
X+792569Y+2478080D02*
X+792569Y+2569520D01*
X+713194Y+2569520D01*
X+697319Y+2554280D01*
X+697319Y+2539040D01*
X+713194Y+2523800D01*
X+792569Y+2523800D01*
X+713194Y+2523800D02*
X+697319Y+2508560D01*
X+697319Y+2478080D01*
X+570319Y+2569520D02*
X+649694Y+2569520D01*
X+649694Y+2539040D01*
X+586194Y+2539040D01*
X+570319Y+2523800D01*
X+570319Y+2493320D01*
X+586194Y+2478080D01*
X+633819Y+2478080D01*
X+649694Y+2493320D01*
D28*
X+1190569Y+3505000D02*
X+1190569Y+3405000D01*
X+1010569Y+3505000D02*
X+1010569Y+3405000D01*
D22*
X+970089Y+3582000D02*
X+878649Y+3582000D01*
X+878649Y+3502625D01*
X+893889Y+3486750D01*
X+909129Y+3486750D01*
X+924369Y+3502625D01*
X+924369Y+3582000D01*
X+924369Y+3502625D02*
X+939609Y+3486750D01*
X+970089Y+3486750D01*
X+939609Y+3359750D02*
X+939609Y+3455000D01*
X+878649Y+3391500D01*
X+970089Y+3391500D01*
D29*
X+2318069Y+3415000D02*
X+2318026Y+3416039D01*
X+2317674Y+3418118D01*
X+2316937Y+3420197D01*
X+2315733Y+3422276D01*
X+2313892Y+3424326D01*
X+2311813Y+3425829D01*
X+2309734Y+3426786D01*
X+2307655Y+3427325D01*
X+2305576Y+3427500D01*
X+2305569Y+3427500D01*
X+2293069Y+3415000D02*
X+2293112Y+3416039D01*
X+2293464Y+3418118D01*
X+2294201Y+3420197D01*
X+2295405Y+3422276D01*
X+2297246Y+3424326D01*
X+2299325Y+3425829D01*
X+2301404Y+3426786D01*
X+2303483Y+3427325D01*
X+2305562Y+3427500D01*
X+2305569Y+3427500D01*
X+2293069Y+3415000D02*
X+2293112Y+3413961D01*
X+2293464Y+3411882D01*
X+2294201Y+3409803D01*
X+2295405Y+3407724D01*
X+2297246Y+3405674D01*
X+2299325Y+3404171D01*
X+2301404Y+3403214D01*
X+2303483Y+3402675D01*
X+2305562Y+3402500D01*
X+2305569Y+3402500D01*
X+2318069Y+3415000D02*
X+2318026Y+3413961D01*
X+2317674Y+3411882D01*
X+2316937Y+3409803D01*
X+2315733Y+3407724D01*
X+2313892Y+3405674D01*
X+2311813Y+3404171D01*
X+2309734Y+3403214D01*
X+2307655Y+3402675D01*
X+2305576Y+3402500D01*
X+2305569Y+3402500D01*
D28*
X+1635569Y+3645000D02*
X+1635569Y+3935000D01*
X+2305569Y+3935000D01*
X+2305569Y+3645000D01*
X+1635569Y+3645000D01*
D22*
X+2361049Y+3917000D02*
X+2437249Y+3917000D01*
X+2452489Y+3901125D01*
X+2452489Y+3837625D01*
X+2437249Y+3821750D01*
X+2361049Y+3821750D01*
X+2376289Y+3774125D02*
X+2361049Y+3758250D01*
X+2361049Y+3710625D01*
X+2376289Y+3694750D01*
X+2391529Y+3694750D01*
X+2406769Y+3710625D01*
X+2422009Y+3694750D01*
X+2437249Y+3694750D01*
X+2452489Y+3710625D01*
X+2452489Y+3758250D01*
X+2437249Y+3774125D01*
X+2406769Y+3742375D02*
X+2406769Y+3710625D01*
D28*
X+4110569Y+4605000D02*
X+4110569Y+4505000D01*
X+3930569Y+4605000D02*
X+3930569Y+4505000D01*
D22*
X+3890089Y+4682000D02*
X+3798649Y+4682000D01*
X+3798649Y+4602625D01*
X+3813889Y+4586750D01*
X+3829129Y+4586750D01*
X+3844369Y+4602625D01*
X+3844369Y+4682000D01*
X+3844369Y+4602625D02*
X+3859609Y+4586750D01*
X+3890089Y+4586750D01*
X+3813889Y+4539125D02*
X+3798649Y+4523250D01*
X+3798649Y+4475625D01*
X+3813889Y+4459750D01*
X+3829129Y+4459750D01*
X+3844369Y+4475625D01*
X+3859609Y+4459750D01*
X+3874849Y+4459750D01*
X+3890089Y+4475625D01*
X+3890089Y+4523250D01*
X+3874849Y+4539125D01*
X+3844369Y+4507375D02*
X+3844369Y+4475625D01*
D28*
X+3215569Y+4540000D02*
X+3315569Y+4540000D01*
X+3215569Y+4360000D02*
X+3315569Y+4360000D01*
D22*
X+3392569Y+4228080D02*
X+3392569Y+4319520D01*
X+3313194Y+4319520D01*
X+3297319Y+4304280D01*
X+3297319Y+4289040D01*
X+3313194Y+4273800D01*
X+3392569Y+4273800D01*
X+3313194Y+4273800D02*
X+3297319Y+4258560D01*
X+3297319Y+4228080D01*
X+3233819Y+4289040D02*
X+3202069Y+4319520D01*
X+3202069Y+4228080D01*
D28*
X+3215569Y+4240000D02*
X+3315569Y+4240000D01*
X+3215569Y+4060000D02*
X+3315569Y+4060000D01*
D22*
X+3392569Y+3928080D02*
X+3392569Y+4019520D01*
X+3313194Y+4019520D01*
X+3297319Y+4004280D01*
X+3297319Y+3989040D01*
X+3313194Y+3973800D01*
X+3392569Y+3973800D01*
X+3313194Y+3973800D02*
X+3297319Y+3958560D01*
X+3297319Y+3928080D01*
X+3249694Y+4004280D02*
X+3233819Y+4019520D01*
X+3186194Y+4019520D01*
X+3170319Y+4004280D01*
X+3170319Y+3989040D01*
X+3186194Y+3973800D01*
X+3233819Y+3973800D01*
X+3249694Y+3958560D01*
X+3249694Y+3928080D01*
X+3170319Y+3928080D01*
D28*
X+4875569Y+4110000D02*
X+4775569Y+4110000D01*
X+4875569Y+4290000D02*
X+4775569Y+4290000D01*
D22*
X+4952569Y+4330480D02*
X+4952569Y+4421920D01*
X+4873194Y+4421920D01*
X+4857319Y+4406680D01*
X+4857319Y+4391440D01*
X+4873194Y+4376200D01*
X+4952569Y+4376200D01*
X+4873194Y+4376200D02*
X+4857319Y+4360960D01*
X+4857319Y+4330480D01*
X+4809694Y+4421920D02*
X+4730319Y+4421920D01*
X+4730319Y+4406680D01*
X+4809694Y+4330480D01*
D28*
X+5315569Y+3540000D02*
X+5415569Y+3540000D01*
X+5315569Y+3360000D02*
X+5415569Y+3360000D01*
D22*
X+5492569Y+3228080D02*
X+5492569Y+3319520D01*
X+5413194Y+3319520D01*
X+5397319Y+3304280D01*
X+5397319Y+3289040D01*
X+5413194Y+3273800D01*
X+5492569Y+3273800D01*
X+5413194Y+3273800D02*
X+5397319Y+3258560D01*
X+5397319Y+3228080D01*
X+5333819Y+3273800D02*
X+5349694Y+3289040D01*
X+5349694Y+3304280D01*
X+5333819Y+3319520D01*
X+5286194Y+3319520D01*
X+5270319Y+3304280D01*
X+5270319Y+3289040D01*
X+5286194Y+3273800D01*
X+5333819Y+3273800D01*
X+5349694Y+3258560D01*
X+5349694Y+3243320D01*
X+5333819Y+3228080D01*
X+5286194Y+3228080D01*
X+5270319Y+3243320D01*
X+5270319Y+3258560D01*
X+5286194Y+3273800D01*
D28*
X+4815569Y+3790000D02*
X+4915569Y+3790000D01*
X+4815569Y+3610000D02*
X+4915569Y+3610000D01*
D22*
X+4992569Y+3478080D02*
X+4992569Y+3569520D01*
X+4913194Y+3569520D01*
X+4897319Y+3554280D01*
X+4897319Y+3539040D01*
X+4913194Y+3523800D01*
X+4992569Y+3523800D01*
X+4913194Y+3523800D02*
X+4897319Y+3508560D01*
X+4897319Y+3478080D01*
X+4770319Y+3539040D02*
X+4786194Y+3523800D01*
X+4833819Y+3523800D01*
X+4849694Y+3539040D01*
X+4849694Y+3554280D01*
X+4833819Y+3569520D01*
X+4786194Y+3569520D01*
X+4770319Y+3554280D01*
X+4770319Y+3493320D01*
X+4786194Y+3478080D01*
X+4833819Y+3478080D01*
D28*
X+5315569Y+4040000D02*
X+5415569Y+4040000D01*
X+5315569Y+3860000D02*
X+5415569Y+3860000D01*
D22*
X+5556069Y+3728080D02*
X+5556069Y+3819520D01*
X+5476694Y+3819520D01*
X+5460819Y+3804280D01*
X+5460819Y+3789040D01*
X+5476694Y+3773800D01*
X+5556069Y+3773800D01*
X+5476694Y+3773800D02*
X+5460819Y+3758560D01*
X+5460819Y+3728080D01*
X+5397319Y+3789040D02*
X+5365569Y+3819520D01*
X+5365569Y+3728080D01*
X+5302069Y+3743320D02*
X+5302069Y+3804280D01*
X+5286194Y+3819520D01*
X+5222694Y+3819520D01*
X+5206819Y+3804280D01*
X+5206819Y+3743320D01*
X+5222694Y+3728080D01*
X+5286194Y+3728080D01*
X+5302069Y+3743320D01*
X+5302069Y+3728080D02*
X+5206819Y+3819520D01*
X+50000Y+5800000D02*
X+6600000Y+5800000D01*
X+50000Y+5800000D02*
X+177000Y+5673000D01*
X+50000Y+5800000D02*
X+177000Y+5927000D01*
X+6600000Y+5800000D02*
X+6473000Y+5927000D01*
X+6600000Y+5800000D02*
X+6473000Y+5673000D01*
X+3356750Y+5800000D02*
X+3356641Y+5802634D01*
X+3355751Y+5807903D01*
X+3353889Y+5813172D01*
X+3350846Y+5818441D01*
X+3346191Y+5823643D01*
X+3340922Y+5827469D01*
X+3335653Y+5829909D01*
X+3330384Y+5831290D01*
X+3325115Y+5831750D01*
X+3325000Y+5831750D01*
X+3293250Y+5800000D02*
X+3293359Y+5802634D01*
X+3294249Y+5807903D01*
X+3296111Y+5813172D01*
X+3299154Y+5818441D01*
X+3303809Y+5823643D01*
X+3309078Y+5827469D01*
X+3314347Y+5829909D01*
X+3319616Y+5831290D01*
X+3324885Y+5831750D01*
X+3325000Y+5831750D01*
X+3293250Y+5800000D02*
X+3293359Y+5797366D01*
X+3294249Y+5792097D01*
X+3296111Y+5786828D01*
X+3299154Y+5781559D01*
X+3303809Y+5776357D01*
X+3309078Y+5772531D01*
X+3314347Y+5770091D01*
X+3319616Y+5768710D01*
X+3324885Y+5768250D01*
X+3325000Y+5768250D01*
X+3356750Y+5800000D02*
X+3356641Y+5797366D01*
X+3355751Y+5792097D01*
X+3353889Y+5786828D01*
X+3350846Y+5781559D01*
X+3346191Y+5776357D01*
X+3340922Y+5772531D01*
X+3335653Y+5770091D01*
X+3330384Y+5768710D01*
X+3325115Y+5768250D01*
X+3325000Y+5768250D01*
X+3039250Y+5916840D02*
X+3023375Y+5932080D01*
X+2975750Y+5932080D01*
X+2959875Y+5916840D01*
X+2959875Y+5855880D01*
X+2975750Y+5840640D01*
X+3023375Y+5840640D01*
X+3039250Y+5855880D01*
X+3039250Y+5871120D01*
X+3023375Y+5886360D01*
X+2959875Y+5886360D01*
X+3166250Y+5932080D02*
X+3086875Y+5932080D01*
X+3086875Y+5901600D01*
X+3150375Y+5901600D01*
X+3166250Y+5886360D01*
X+3166250Y+5855880D01*
X+3150375Y+5840640D01*
X+3102750Y+5840640D01*
X+3086875Y+5855880D01*
X+3245625Y+5855880D02*
X+3261500Y+5855880D01*
X+3261500Y+5840640D01*
X+3245625Y+5840640D01*
X+3245625Y+5855880D01*
X+3420250Y+5932080D02*
X+3340875Y+5932080D01*
X+3340875Y+5901600D01*
X+3404375Y+5901600D01*
X+3420250Y+5886360D01*
X+3420250Y+5855880D01*
X+3404375Y+5840640D01*
X+3356750Y+5840640D01*
X+3340875Y+5855880D01*
X+3452000Y+5840640D02*
X+3452000Y+5901600D01*
X+3452000Y+5886360D02*
X+3467875Y+5901600D01*
X+3499625Y+5871120D01*
X+3531375Y+5901600D01*
X+3547250Y+5886360D01*
X+3547250Y+5840640D01*
X+3579000Y+5840640D02*
X+3579000Y+5901600D01*
X+3579000Y+5886360D02*
X+3594875Y+5901600D01*
X+3626625Y+5871120D01*
X+3658375Y+5901600D01*
X+3674250Y+5886360D01*
X+3674250Y+5840640D01*
X-400000Y+5500000D02*
X-400000Y+50000D01*
X-400000Y+5500000D02*
X-527000Y+5373000D01*
X-400000Y+5500000D02*
X-273000Y+5373000D01*
X-400000Y+50000D02*
X-273000Y+177000D01*
X-400000Y+50000D02*
X-527000Y+177000D01*
X-368250Y+2775000D02*
X-368359Y+2777634D01*
X-369249Y+2782903D01*
X-371111Y+2788172D01*
X-374154Y+2793441D01*
X-378809Y+2798643D01*
X-384078Y+2802469D01*
X-389347Y+2804909D01*
X-394616Y+2806290D01*
X-399885Y+2806750D01*
X-400000Y+2806750D01*
X-431750Y+2775000D02*
X-431641Y+2777634D01*
X-430751Y+2782903D01*
X-428889Y+2788172D01*
X-425846Y+2793441D01*
X-421191Y+2798643D01*
X-415922Y+2802469D01*
X-410653Y+2804909D01*
X-405384Y+2806290D01*
X-400115Y+2806750D01*
X-400000Y+2806750D01*
X-431750Y+2775000D02*
X-431641Y+2772366D01*
X-430751Y+2767097D01*
X-428889Y+2761828D01*
X-425846Y+2756559D01*
X-421191Y+2751357D01*
X-415922Y+2747531D01*
X-410653Y+2745091D01*
X-405384Y+2743710D01*
X-400115Y+2743250D01*
X-400000Y+2743250D01*
X-368250Y+2775000D02*
X-368359Y+2772366D01*
X-369249Y+2767097D01*
X-371111Y+2761828D01*
X-374154Y+2756559D01*
X-378809Y+2751357D01*
X-384078Y+2747531D01*
X-389347Y+2745091D01*
X-394616Y+2743710D01*
X-399885Y+2743250D01*
X-400000Y+2743250D01*
X-267920Y+3060750D02*
X-267920Y+3140125D01*
X-298400Y+3140125D01*
X-298400Y+3076625D01*
X-313640Y+3060750D01*
X-344120Y+3060750D01*
X-359360Y+3076625D01*
X-359360Y+3124250D01*
X-344120Y+3140125D01*
X-328880Y+2933750D02*
X-328880Y+3029000D01*
X-267920Y+2965500D01*
X-359360Y+2965500D01*
X-344120Y+2854375D02*
X-344120Y+2838500D01*
X-359360Y+2838500D01*
X-359360Y+2854375D01*
X-344120Y+2854375D01*
X-267920Y+2679750D02*
X-267920Y+2759125D01*
X-298400Y+2759125D01*
X-298400Y+2695625D01*
X-313640Y+2679750D01*
X-344120Y+2679750D01*
X-359360Y+2695625D01*
X-359360Y+2743250D01*
X-344120Y+2759125D01*
X-359360Y+2648000D02*
X-298400Y+2648000D01*
X-313640Y+2648000D02*
X-298400Y+2632125D01*
X-328880Y+2600375D01*
X-298400Y+2568625D01*
X-313640Y+2552750D01*
X-359360Y+2552750D01*
X-359360Y+2521000D02*
X-298400Y+2521000D01*
X-313640Y+2521000D02*
X-298400Y+2505125D01*
X-328880Y+2473375D01*
X-298400Y+2441625D01*
X-313640Y+2425750D01*
X-359360Y+2425750D01*
M02*
