G04 PROTEUS RS274X GERBER FILE*
%FSLAX45Y45*%
%MOMM*%
G01*
%ADD10C,0.508000*%
%ADD11C,1.270000*%
%ADD12R,2.032000X2.032000*%
%ADD13R,1.280000X1.280000*%
%ADD14C,0.254000*%
%ADD15C,1.280000*%
%ADD16R,1.050000X1.050000*%
%ADD17C,1.050000*%
%ADD18C,2.286000*%
%ADD19R,1.778000X1.778000*%
%ADD70C,1.778000*%
%ADD71C,2.032000*%
%ADD20C,1.524000*%
%ADD21C,4.000000*%
%ADD22C,0.203200*%
G36*
X+2467244Y+1828775D02*
X+2495819Y+1803575D01*
X+2518044Y+1828775D01*
X+2495819Y+1853975D01*
X+2467244Y+1828775D01*
G37*
G36*
X+2983438Y+1824678D02*
X+2956989Y+1852101D01*
X+2932804Y+1828775D01*
X+2952924Y+1801864D01*
X+2983438Y+1824678D01*
G37*
G36*
X+5715247Y+1758784D02*
X+5690047Y+1730209D01*
X+5715247Y+1707984D01*
X+5740447Y+1730209D01*
X+5715247Y+1758784D01*
G37*
G36*
X+5713416Y+932873D02*
X+5739630Y+960521D01*
X+5715247Y+983639D01*
X+5689262Y+962337D01*
X+5713416Y+932873D01*
G37*
G36*
X+4151154Y+2751649D02*
X+4176354Y+2780224D01*
X+4151154Y+2802449D01*
X+4125954Y+2780224D01*
X+4151154Y+2751649D01*
G37*
G36*
X+4149318Y+3238344D02*
X+4125167Y+3208877D01*
X+4151154Y+3187578D01*
X+4175535Y+3210699D01*
X+4149318Y+3238344D01*
G37*
G36*
X+3339895Y+3238553D02*
X+3311320Y+3263753D01*
X+3289095Y+3238553D01*
X+3311320Y+3213353D01*
X+3339895Y+3238553D01*
G37*
G36*
X+2622764Y+3238553D02*
X+2651339Y+3213353D01*
X+2673564Y+3238553D01*
X+2651339Y+3263753D01*
X+2622764Y+3238553D01*
G37*
G36*
X+1972338Y+4309630D02*
X+1947138Y+4281055D01*
X+1972338Y+4258830D01*
X+1997538Y+4281055D01*
X+1972338Y+4309630D01*
G37*
G36*
X+1968104Y+2954964D02*
X+1995598Y+2981339D01*
X+1972338Y+3005587D01*
X+1945373Y+2985539D01*
X+1968104Y+2954964D01*
G37*
G36*
X+2595513Y+605062D02*
X+2624088Y+579862D01*
X+2646313Y+605062D01*
X+2624088Y+630262D01*
X+2595513Y+605062D01*
G37*
G36*
X+5330246Y+605062D02*
X+5301671Y+630262D01*
X+5279446Y+605062D01*
X+5301671Y+579862D01*
X+5330246Y+605062D01*
G37*
G36*
X+716646Y+3149198D02*
X+741846Y+3177773D01*
X+716646Y+3199998D01*
X+691446Y+3177773D01*
X+716646Y+3149198D01*
G37*
G36*
X+716646Y+4131331D02*
X+691446Y+4102756D01*
X+716646Y+4080531D01*
X+741846Y+4102756D01*
X+716646Y+4131331D01*
G37*
D10*
X+2467244Y+1828775D02*
X+2979341Y+1828775D01*
X+2983438Y+1824678D01*
X+5715247Y+1758784D02*
X+5715247Y+934704D01*
X+5713416Y+932873D01*
X+4151154Y+2751649D02*
X+4151154Y+3236508D01*
X+4149318Y+3238344D01*
X+3339895Y+3238553D02*
X+2622764Y+3238553D01*
X+1972338Y+4309630D02*
X+1972338Y+2959198D01*
X+1968104Y+2954964D01*
X+2595513Y+605062D02*
X+5330246Y+605062D01*
X+716646Y+3149198D02*
X+716646Y+4131331D01*
X+2467244Y+1828775D02*
X+2495819Y+1803575D01*
X+2518044Y+1828775D01*
X+2495819Y+1853975D01*
X+2467244Y+1828775D01*
X+2983438Y+1824678D02*
X+2956989Y+1852101D01*
X+2932804Y+1828775D01*
X+2952924Y+1801864D01*
X+2983438Y+1824678D01*
X+5715247Y+1758784D02*
X+5690047Y+1730209D01*
X+5715247Y+1707984D01*
X+5740447Y+1730209D01*
X+5715247Y+1758784D01*
X+5713416Y+932873D02*
X+5739630Y+960521D01*
X+5715247Y+983639D01*
X+5689262Y+962337D01*
X+5713416Y+932873D01*
X+4151154Y+2751649D02*
X+4176354Y+2780224D01*
X+4151154Y+2802449D01*
X+4125954Y+2780224D01*
X+4151154Y+2751649D01*
X+4149318Y+3238344D02*
X+4125167Y+3208877D01*
X+4151154Y+3187578D01*
X+4175535Y+3210699D01*
X+4149318Y+3238344D01*
X+3339895Y+3238553D02*
X+3311320Y+3263753D01*
X+3289095Y+3238553D01*
X+3311320Y+3213353D01*
X+3339895Y+3238553D01*
X+2622764Y+3238553D02*
X+2651339Y+3213353D01*
X+2673564Y+3238553D01*
X+2651339Y+3263753D01*
X+2622764Y+3238553D01*
X+1972338Y+4309630D02*
X+1947138Y+4281055D01*
X+1972338Y+4258830D01*
X+1997538Y+4281055D01*
X+1972338Y+4309630D01*
X+1968104Y+2954964D02*
X+1995598Y+2981339D01*
X+1972338Y+3005587D01*
X+1945373Y+2985539D01*
X+1968104Y+2954964D01*
X+2595513Y+605062D02*
X+2624088Y+579862D01*
X+2646313Y+605062D01*
X+2624088Y+630262D01*
X+2595513Y+605062D01*
X+5330246Y+605062D02*
X+5301671Y+630262D01*
X+5279446Y+605062D01*
X+5301671Y+579862D01*
X+5330246Y+605062D01*
X+716646Y+3149198D02*
X+741846Y+3177773D01*
X+716646Y+3199998D01*
X+691446Y+3177773D01*
X+716646Y+3149198D01*
X+716646Y+4131331D02*
X+691446Y+4102756D01*
X+716646Y+4080531D01*
X+741846Y+4102756D01*
X+716646Y+4131331D01*
D11*
X+2467244Y+1828775D03*
X+2983438Y+1824678D03*
X+5715247Y+1758784D03*
X+5713416Y+932873D03*
X+4151154Y+2751649D03*
X+4149318Y+3238344D03*
X+3339895Y+3238553D03*
X+2622764Y+3238553D03*
X+1972338Y+4309630D03*
X+1968104Y+2954964D03*
X+2595513Y+605062D03*
X+5330246Y+605062D03*
X+716646Y+3149198D03*
X+716646Y+4131331D03*
D12*
X+500569Y+3346000D03*
X+500569Y+3600000D03*
X+500569Y+3854000D03*
D13*
X+1250569Y+3000000D03*
D14*
X+1250569Y+3000000D03*
D15*
X+1250569Y+2500000D03*
D16*
X+1765569Y+2095000D03*
D14*
X+1765569Y+2095000D03*
D17*
X+1765569Y+1945000D03*
D18*
X+2086569Y+4550000D03*
X+1070569Y+4550000D03*
D12*
X+1266569Y+1550000D03*
X+1520569Y+1550000D03*
X+1150569Y+3900000D03*
X+1404569Y+3900000D03*
D16*
X+2225569Y+3150000D03*
D14*
X+2225569Y+3150000D03*
D17*
X+2375569Y+3150000D03*
D16*
X+1970569Y+1650000D03*
D14*
X+1970569Y+1650000D03*
D17*
X+1970569Y+1500000D03*
D19*
X+3670569Y+4700000D03*
D70*
X+3670569Y+4446000D03*
X+3670569Y+4192000D03*
X+3670569Y+3938000D03*
X+3670569Y+3684000D03*
X+3670569Y+3430000D03*
X+3670569Y+3176000D03*
X+3670569Y+2922000D03*
X+3670569Y+2668000D03*
X+3670569Y+2414000D03*
X+3670569Y+2160000D03*
X+3670569Y+1906000D03*
X+3670569Y+1652000D03*
X+3670569Y+1398000D03*
X+4432569Y+1398000D03*
X+4432569Y+1652000D03*
X+4432569Y+1906000D03*
X+4432569Y+2160000D03*
X+4432569Y+2414000D03*
X+4432569Y+2668000D03*
X+4432569Y+2922000D03*
X+4432569Y+3176000D03*
X+4432569Y+3430000D03*
X+4432569Y+3684000D03*
X+4432569Y+3938000D03*
X+4432569Y+4192000D03*
X+4432569Y+4446000D03*
X+4432569Y+4698000D03*
D71*
X+3170569Y+2800000D03*
X+3170569Y+2292000D03*
D70*
X+2678569Y+2600000D03*
X+2170569Y+2600000D03*
X+2670569Y+2150000D03*
X+2162569Y+2150000D03*
D20*
X+4767369Y+5000000D03*
X+4970569Y+5000000D03*
X+5173769Y+5000000D03*
D12*
X+5920569Y+3100000D03*
X+5920569Y+2846000D03*
X+5920569Y+3700000D03*
X+5920569Y+3446000D03*
X+5920569Y+4300000D03*
X+5920569Y+4046000D03*
X+5420569Y+1400000D03*
X+5420569Y+1654000D03*
X+5420569Y+1908000D03*
X+5420569Y+2162000D03*
X+5166569Y+2162000D03*
X+5166569Y+1908000D03*
X+5166569Y+1654000D03*
X+5166569Y+1400000D03*
X+2720569Y+4450000D03*
X+2720569Y+4196000D03*
X+2720569Y+3942000D03*
X+3232569Y+1550000D03*
X+2978569Y+1550000D03*
X+2724569Y+1550000D03*
X+2470569Y+1550000D03*
X+4720569Y+950000D03*
X+4466569Y+950000D03*
X+4212569Y+950000D03*
D21*
X+420569Y+5150000D03*
X+6220569Y+5150000D03*
X+6270569Y+350000D03*
X+370569Y+350000D03*
D18*
X+2700000Y+5250000D03*
X+3400000Y+5250000D03*
X+2700000Y+4800000D03*
X+3400000Y+4800000D03*
D22*
X+70569Y+50000D02*
X+6570569Y+50000D01*
X+6570569Y+5500000D01*
X+70569Y+5500000D01*
X+70569Y+50000D01*
X+50000Y+5800000D02*
X+6600000Y+5800000D01*
X+50000Y+5800000D02*
X+177000Y+5673000D01*
X+50000Y+5800000D02*
X+177000Y+5927000D01*
X+6600000Y+5800000D02*
X+6473000Y+5927000D01*
X+6600000Y+5800000D02*
X+6473000Y+5673000D01*
X+3356750Y+5800000D02*
X+3356641Y+5802634D01*
X+3355751Y+5807903D01*
X+3353889Y+5813172D01*
X+3350846Y+5818441D01*
X+3346191Y+5823643D01*
X+3340922Y+5827469D01*
X+3335653Y+5829909D01*
X+3330384Y+5831290D01*
X+3325115Y+5831750D01*
X+3325000Y+5831750D01*
X+3293250Y+5800000D02*
X+3293359Y+5802634D01*
X+3294249Y+5807903D01*
X+3296111Y+5813172D01*
X+3299154Y+5818441D01*
X+3303809Y+5823643D01*
X+3309078Y+5827469D01*
X+3314347Y+5829909D01*
X+3319616Y+5831290D01*
X+3324885Y+5831750D01*
X+3325000Y+5831750D01*
X+3293250Y+5800000D02*
X+3293359Y+5797366D01*
X+3294249Y+5792097D01*
X+3296111Y+5786828D01*
X+3299154Y+5781559D01*
X+3303809Y+5776357D01*
X+3309078Y+5772531D01*
X+3314347Y+5770091D01*
X+3319616Y+5768710D01*
X+3324885Y+5768250D01*
X+3325000Y+5768250D01*
X+3356750Y+5800000D02*
X+3356641Y+5797366D01*
X+3355751Y+5792097D01*
X+3353889Y+5786828D01*
X+3350846Y+5781559D01*
X+3346191Y+5776357D01*
X+3340922Y+5772531D01*
X+3335653Y+5770091D01*
X+3330384Y+5768710D01*
X+3325115Y+5768250D01*
X+3325000Y+5768250D01*
X+3039250Y+5916840D02*
X+3023375Y+5932080D01*
X+2975750Y+5932080D01*
X+2959875Y+5916840D01*
X+2959875Y+5855880D01*
X+2975750Y+5840640D01*
X+3023375Y+5840640D01*
X+3039250Y+5855880D01*
X+3039250Y+5871120D01*
X+3023375Y+5886360D01*
X+2959875Y+5886360D01*
X+3166250Y+5932080D02*
X+3086875Y+5932080D01*
X+3086875Y+5901600D01*
X+3150375Y+5901600D01*
X+3166250Y+5886360D01*
X+3166250Y+5855880D01*
X+3150375Y+5840640D01*
X+3102750Y+5840640D01*
X+3086875Y+5855880D01*
X+3245625Y+5855880D02*
X+3261500Y+5855880D01*
X+3261500Y+5840640D01*
X+3245625Y+5840640D01*
X+3245625Y+5855880D01*
X+3420250Y+5932080D02*
X+3340875Y+5932080D01*
X+3340875Y+5901600D01*
X+3404375Y+5901600D01*
X+3420250Y+5886360D01*
X+3420250Y+5855880D01*
X+3404375Y+5840640D01*
X+3356750Y+5840640D01*
X+3340875Y+5855880D01*
X+3452000Y+5840640D02*
X+3452000Y+5901600D01*
X+3452000Y+5886360D02*
X+3467875Y+5901600D01*
X+3499625Y+5871120D01*
X+3531375Y+5901600D01*
X+3547250Y+5886360D01*
X+3547250Y+5840640D01*
X+3579000Y+5840640D02*
X+3579000Y+5901600D01*
X+3579000Y+5886360D02*
X+3594875Y+5901600D01*
X+3626625Y+5871120D01*
X+3658375Y+5901600D01*
X+3674250Y+5886360D01*
X+3674250Y+5840640D01*
X-400000Y+5500000D02*
X-400000Y+50000D01*
X-400000Y+5500000D02*
X-527000Y+5373000D01*
X-400000Y+5500000D02*
X-273000Y+5373000D01*
X-400000Y+50000D02*
X-273000Y+177000D01*
X-400000Y+50000D02*
X-527000Y+177000D01*
X-368250Y+2775000D02*
X-368359Y+2777634D01*
X-369249Y+2782903D01*
X-371111Y+2788172D01*
X-374154Y+2793441D01*
X-378809Y+2798643D01*
X-384078Y+2802469D01*
X-389347Y+2804909D01*
X-394616Y+2806290D01*
X-399885Y+2806750D01*
X-400000Y+2806750D01*
X-431750Y+2775000D02*
X-431641Y+2777634D01*
X-430751Y+2782903D01*
X-428889Y+2788172D01*
X-425846Y+2793441D01*
X-421191Y+2798643D01*
X-415922Y+2802469D01*
X-410653Y+2804909D01*
X-405384Y+2806290D01*
X-400115Y+2806750D01*
X-400000Y+2806750D01*
X-431750Y+2775000D02*
X-431641Y+2772366D01*
X-430751Y+2767097D01*
X-428889Y+2761828D01*
X-425846Y+2756559D01*
X-421191Y+2751357D01*
X-415922Y+2747531D01*
X-410653Y+2745091D01*
X-405384Y+2743710D01*
X-400115Y+2743250D01*
X-400000Y+2743250D01*
X-368250Y+2775000D02*
X-368359Y+2772366D01*
X-369249Y+2767097D01*
X-371111Y+2761828D01*
X-374154Y+2756559D01*
X-378809Y+2751357D01*
X-384078Y+2747531D01*
X-389347Y+2745091D01*
X-394616Y+2743710D01*
X-399885Y+2743250D01*
X-400000Y+2743250D01*
X-267920Y+3060750D02*
X-267920Y+3140125D01*
X-298400Y+3140125D01*
X-298400Y+3076625D01*
X-313640Y+3060750D01*
X-344120Y+3060750D01*
X-359360Y+3076625D01*
X-359360Y+3124250D01*
X-344120Y+3140125D01*
X-328880Y+2933750D02*
X-328880Y+3029000D01*
X-267920Y+2965500D01*
X-359360Y+2965500D01*
X-344120Y+2854375D02*
X-344120Y+2838500D01*
X-359360Y+2838500D01*
X-359360Y+2854375D01*
X-344120Y+2854375D01*
X-267920Y+2679750D02*
X-267920Y+2759125D01*
X-298400Y+2759125D01*
X-298400Y+2695625D01*
X-313640Y+2679750D01*
X-344120Y+2679750D01*
X-359360Y+2695625D01*
X-359360Y+2743250D01*
X-344120Y+2759125D01*
X-359360Y+2648000D02*
X-298400Y+2648000D01*
X-313640Y+2648000D02*
X-298400Y+2632125D01*
X-328880Y+2600375D01*
X-298400Y+2568625D01*
X-313640Y+2552750D01*
X-359360Y+2552750D01*
X-359360Y+2521000D02*
X-298400Y+2521000D01*
X-313640Y+2521000D02*
X-298400Y+2505125D01*
X-328880Y+2473375D01*
X-298400Y+2441625D01*
X-313640Y+2425750D01*
X-359360Y+2425750D01*
M02*
