G04 PROTEUS RS274X GERBER FILE*
%FSLAX45Y45*%
%MOMM*%
G01*
%ADD22C,0.203200*%
%ADD52C,0.127000*%
%ADD53C,0.063500*%
D22*
X+2467244Y+1892275D02*
X+2467244Y+1765275D01*
X+2403744Y+1828775D02*
X+2530744Y+1828775D01*
X+2422343Y+1873676D02*
X+2512145Y+1783874D01*
X+2422343Y+1783874D02*
X+2512145Y+1873676D01*
X+2983438Y+1888178D02*
X+2983438Y+1761178D01*
X+2919938Y+1824678D02*
X+3046938Y+1824678D01*
X+2938537Y+1869579D02*
X+3028339Y+1779777D01*
X+2938537Y+1779777D02*
X+3028339Y+1869579D01*
X+5715247Y+1822284D02*
X+5715247Y+1695284D01*
X+5651747Y+1758784D02*
X+5778747Y+1758784D01*
X+5670346Y+1803685D02*
X+5760148Y+1713883D01*
X+5670346Y+1713883D02*
X+5760148Y+1803685D01*
X+5713416Y+996373D02*
X+5713416Y+869373D01*
X+5649916Y+932873D02*
X+5776916Y+932873D01*
X+5668515Y+977774D02*
X+5758317Y+887972D01*
X+5668515Y+887972D02*
X+5758317Y+977774D01*
X+4151154Y+2815149D02*
X+4151154Y+2688149D01*
X+4087654Y+2751649D02*
X+4214654Y+2751649D01*
X+4106253Y+2796550D02*
X+4196055Y+2706748D01*
X+4106253Y+2706748D02*
X+4196055Y+2796550D01*
X+4149318Y+3301844D02*
X+4149318Y+3174844D01*
X+4085818Y+3238344D02*
X+4212818Y+3238344D01*
X+4104417Y+3283245D02*
X+4194219Y+3193443D01*
X+4104417Y+3193443D02*
X+4194219Y+3283245D01*
X+3339895Y+3302053D02*
X+3339895Y+3175053D01*
X+3276395Y+3238553D02*
X+3403395Y+3238553D01*
X+3294994Y+3283454D02*
X+3384796Y+3193652D01*
X+3294994Y+3193652D02*
X+3384796Y+3283454D01*
X+2622764Y+3302053D02*
X+2622764Y+3175053D01*
X+2559264Y+3238553D02*
X+2686264Y+3238553D01*
X+2577863Y+3283454D02*
X+2667665Y+3193652D01*
X+2577863Y+3193652D02*
X+2667665Y+3283454D01*
X+1972338Y+4373130D02*
X+1972338Y+4246130D01*
X+1908838Y+4309630D02*
X+2035838Y+4309630D01*
X+1927437Y+4354531D02*
X+2017239Y+4264729D01*
X+1927437Y+4264729D02*
X+2017239Y+4354531D01*
X+1968104Y+3018464D02*
X+1968104Y+2891464D01*
X+1904604Y+2954964D02*
X+2031604Y+2954964D01*
X+1923203Y+2999865D02*
X+2013005Y+2910063D01*
X+1923203Y+2910063D02*
X+2013005Y+2999865D01*
X+2595513Y+668562D02*
X+2595513Y+541562D01*
X+2532013Y+605062D02*
X+2659013Y+605062D01*
X+2550612Y+649963D02*
X+2640414Y+560161D01*
X+2550612Y+560161D02*
X+2640414Y+649963D01*
X+5330246Y+668562D02*
X+5330246Y+541562D01*
X+5266746Y+605062D02*
X+5393746Y+605062D01*
X+5285345Y+649963D02*
X+5375147Y+560161D01*
X+5285345Y+560161D02*
X+5375147Y+649963D01*
X+716646Y+3212698D02*
X+716646Y+3085698D01*
X+653146Y+3149198D02*
X+780146Y+3149198D01*
X+671745Y+3194099D02*
X+761547Y+3104297D01*
X+671745Y+3104297D02*
X+761547Y+3194099D01*
X+716646Y+4194831D02*
X+716646Y+4067831D01*
X+653146Y+4131331D02*
X+780146Y+4131331D01*
X+671745Y+4176232D02*
X+761547Y+4086430D01*
X+671745Y+4086430D02*
X+761547Y+4176232D01*
X+564069Y+3346000D02*
X+563852Y+3351247D01*
X+562087Y+3361742D01*
X+558395Y+3372237D01*
X+552367Y+3382732D01*
X+543145Y+3393112D01*
X+532650Y+3400800D01*
X+522155Y+3405718D01*
X+511660Y+3408524D01*
X+501165Y+3409497D01*
X+500569Y+3409500D01*
X+437069Y+3346000D02*
X+437286Y+3351247D01*
X+439051Y+3361742D01*
X+442743Y+3372237D01*
X+448771Y+3382732D01*
X+457993Y+3393112D01*
X+468488Y+3400800D01*
X+478983Y+3405718D01*
X+489478Y+3408524D01*
X+499973Y+3409497D01*
X+500569Y+3409500D01*
X+437069Y+3346000D02*
X+437286Y+3340753D01*
X+439051Y+3330258D01*
X+442743Y+3319763D01*
X+448771Y+3309268D01*
X+457993Y+3298888D01*
X+468488Y+3291200D01*
X+478983Y+3286282D01*
X+489478Y+3283476D01*
X+499973Y+3282503D01*
X+500569Y+3282500D01*
X+564069Y+3346000D02*
X+563852Y+3340753D01*
X+562087Y+3330258D01*
X+558395Y+3319763D01*
X+552367Y+3309268D01*
X+543145Y+3298888D01*
X+532650Y+3291200D01*
X+522155Y+3286282D01*
X+511660Y+3283476D01*
X+501165Y+3282503D01*
X+500569Y+3282500D01*
X+455668Y+3390901D02*
X+545470Y+3301099D01*
X+455668Y+3301099D02*
X+545470Y+3390901D01*
X+564069Y+3600000D02*
X+563852Y+3605247D01*
X+562087Y+3615742D01*
X+558395Y+3626237D01*
X+552367Y+3636732D01*
X+543145Y+3647112D01*
X+532650Y+3654800D01*
X+522155Y+3659718D01*
X+511660Y+3662524D01*
X+501165Y+3663497D01*
X+500569Y+3663500D01*
X+437069Y+3600000D02*
X+437286Y+3605247D01*
X+439051Y+3615742D01*
X+442743Y+3626237D01*
X+448771Y+3636732D01*
X+457993Y+3647112D01*
X+468488Y+3654800D01*
X+478983Y+3659718D01*
X+489478Y+3662524D01*
X+499973Y+3663497D01*
X+500569Y+3663500D01*
X+437069Y+3600000D02*
X+437286Y+3594753D01*
X+439051Y+3584258D01*
X+442743Y+3573763D01*
X+448771Y+3563268D01*
X+457993Y+3552888D01*
X+468488Y+3545200D01*
X+478983Y+3540282D01*
X+489478Y+3537476D01*
X+499973Y+3536503D01*
X+500569Y+3536500D01*
X+564069Y+3600000D02*
X+563852Y+3594753D01*
X+562087Y+3584258D01*
X+558395Y+3573763D01*
X+552367Y+3563268D01*
X+543145Y+3552888D01*
X+532650Y+3545200D01*
X+522155Y+3540282D01*
X+511660Y+3537476D01*
X+501165Y+3536503D01*
X+500569Y+3536500D01*
X+455668Y+3644901D02*
X+545470Y+3555099D01*
X+455668Y+3555099D02*
X+545470Y+3644901D01*
X+564069Y+3854000D02*
X+563852Y+3859247D01*
X+562087Y+3869742D01*
X+558395Y+3880237D01*
X+552367Y+3890732D01*
X+543145Y+3901112D01*
X+532650Y+3908800D01*
X+522155Y+3913718D01*
X+511660Y+3916524D01*
X+501165Y+3917497D01*
X+500569Y+3917500D01*
X+437069Y+3854000D02*
X+437286Y+3859247D01*
X+439051Y+3869742D01*
X+442743Y+3880237D01*
X+448771Y+3890732D01*
X+457993Y+3901112D01*
X+468488Y+3908800D01*
X+478983Y+3913718D01*
X+489478Y+3916524D01*
X+499973Y+3917497D01*
X+500569Y+3917500D01*
X+437069Y+3854000D02*
X+437286Y+3848753D01*
X+439051Y+3838258D01*
X+442743Y+3827763D01*
X+448771Y+3817268D01*
X+457993Y+3806888D01*
X+468488Y+3799200D01*
X+478983Y+3794282D01*
X+489478Y+3791476D01*
X+499973Y+3790503D01*
X+500569Y+3790500D01*
X+564069Y+3854000D02*
X+563852Y+3848753D01*
X+562087Y+3838258D01*
X+558395Y+3827763D01*
X+552367Y+3817268D01*
X+543145Y+3806888D01*
X+532650Y+3799200D01*
X+522155Y+3794282D01*
X+511660Y+3791476D01*
X+501165Y+3790503D01*
X+500569Y+3790500D01*
X+455668Y+3898901D02*
X+545470Y+3809099D01*
X+455668Y+3809099D02*
X+545470Y+3898901D01*
X+1205668Y+3044901D02*
X+1295470Y+2955099D01*
X+1205668Y+2955099D02*
X+1295470Y+3044901D01*
X+1205668Y+2544901D02*
X+1295470Y+2455099D01*
X+1205668Y+2455099D02*
X+1295470Y+2544901D01*
X+1765569Y+2158500D02*
X+1765569Y+2031500D01*
X+1702069Y+2095000D02*
X+1829069Y+2095000D01*
X+1765569Y+2008500D02*
X+1765569Y+1881500D01*
X+1702069Y+1945000D02*
X+1829069Y+1945000D01*
X+2150069Y+4550000D02*
X+2149852Y+4555247D01*
X+2148087Y+4565742D01*
X+2144395Y+4576237D01*
X+2138367Y+4586732D01*
X+2129145Y+4597112D01*
X+2118650Y+4604800D01*
X+2108155Y+4609718D01*
X+2097660Y+4612524D01*
X+2087165Y+4613497D01*
X+2086569Y+4613500D01*
X+2023069Y+4550000D02*
X+2023286Y+4555247D01*
X+2025051Y+4565742D01*
X+2028743Y+4576237D01*
X+2034771Y+4586732D01*
X+2043993Y+4597112D01*
X+2054488Y+4604800D01*
X+2064983Y+4609718D01*
X+2075478Y+4612524D01*
X+2085973Y+4613497D01*
X+2086569Y+4613500D01*
X+2023069Y+4550000D02*
X+2023286Y+4544753D01*
X+2025051Y+4534258D01*
X+2028743Y+4523763D01*
X+2034771Y+4513268D01*
X+2043993Y+4502888D01*
X+2054488Y+4495200D01*
X+2064983Y+4490282D01*
X+2075478Y+4487476D01*
X+2085973Y+4486503D01*
X+2086569Y+4486500D01*
X+2150069Y+4550000D02*
X+2149852Y+4544753D01*
X+2148087Y+4534258D01*
X+2144395Y+4523763D01*
X+2138367Y+4513268D01*
X+2129145Y+4502888D01*
X+2118650Y+4495200D01*
X+2108155Y+4490282D01*
X+2097660Y+4487476D01*
X+2087165Y+4486503D01*
X+2086569Y+4486500D01*
X+2041668Y+4594901D02*
X+2131470Y+4505099D01*
X+2041668Y+4505099D02*
X+2131470Y+4594901D01*
X+1134069Y+4550000D02*
X+1133852Y+4555247D01*
X+1132087Y+4565742D01*
X+1128395Y+4576237D01*
X+1122367Y+4586732D01*
X+1113145Y+4597112D01*
X+1102650Y+4604800D01*
X+1092155Y+4609718D01*
X+1081660Y+4612524D01*
X+1071165Y+4613497D01*
X+1070569Y+4613500D01*
X+1007069Y+4550000D02*
X+1007286Y+4555247D01*
X+1009051Y+4565742D01*
X+1012743Y+4576237D01*
X+1018771Y+4586732D01*
X+1027993Y+4597112D01*
X+1038488Y+4604800D01*
X+1048983Y+4609718D01*
X+1059478Y+4612524D01*
X+1069973Y+4613497D01*
X+1070569Y+4613500D01*
X+1007069Y+4550000D02*
X+1007286Y+4544753D01*
X+1009051Y+4534258D01*
X+1012743Y+4523763D01*
X+1018771Y+4513268D01*
X+1027993Y+4502888D01*
X+1038488Y+4495200D01*
X+1048983Y+4490282D01*
X+1059478Y+4487476D01*
X+1069973Y+4486503D01*
X+1070569Y+4486500D01*
X+1134069Y+4550000D02*
X+1133852Y+4544753D01*
X+1132087Y+4534258D01*
X+1128395Y+4523763D01*
X+1122367Y+4513268D01*
X+1113145Y+4502888D01*
X+1102650Y+4495200D01*
X+1092155Y+4490282D01*
X+1081660Y+4487476D01*
X+1071165Y+4486503D01*
X+1070569Y+4486500D01*
X+1025668Y+4594901D02*
X+1115470Y+4505099D01*
X+1025668Y+4505099D02*
X+1115470Y+4594901D01*
X+1330069Y+1550000D02*
X+1329852Y+1555247D01*
X+1328087Y+1565742D01*
X+1324395Y+1576237D01*
X+1318367Y+1586732D01*
X+1309145Y+1597112D01*
X+1298650Y+1604800D01*
X+1288155Y+1609718D01*
X+1277660Y+1612524D01*
X+1267165Y+1613497D01*
X+1266569Y+1613500D01*
X+1203069Y+1550000D02*
X+1203286Y+1555247D01*
X+1205051Y+1565742D01*
X+1208743Y+1576237D01*
X+1214771Y+1586732D01*
X+1223993Y+1597112D01*
X+1234488Y+1604800D01*
X+1244983Y+1609718D01*
X+1255478Y+1612524D01*
X+1265973Y+1613497D01*
X+1266569Y+1613500D01*
X+1203069Y+1550000D02*
X+1203286Y+1544753D01*
X+1205051Y+1534258D01*
X+1208743Y+1523763D01*
X+1214771Y+1513268D01*
X+1223993Y+1502888D01*
X+1234488Y+1495200D01*
X+1244983Y+1490282D01*
X+1255478Y+1487476D01*
X+1265973Y+1486503D01*
X+1266569Y+1486500D01*
X+1330069Y+1550000D02*
X+1329852Y+1544753D01*
X+1328087Y+1534258D01*
X+1324395Y+1523763D01*
X+1318367Y+1513268D01*
X+1309145Y+1502888D01*
X+1298650Y+1495200D01*
X+1288155Y+1490282D01*
X+1277660Y+1487476D01*
X+1267165Y+1486503D01*
X+1266569Y+1486500D01*
X+1221668Y+1594901D02*
X+1311470Y+1505099D01*
X+1221668Y+1505099D02*
X+1311470Y+1594901D01*
X+1584069Y+1550000D02*
X+1583852Y+1555247D01*
X+1582087Y+1565742D01*
X+1578395Y+1576237D01*
X+1572367Y+1586732D01*
X+1563145Y+1597112D01*
X+1552650Y+1604800D01*
X+1542155Y+1609718D01*
X+1531660Y+1612524D01*
X+1521165Y+1613497D01*
X+1520569Y+1613500D01*
X+1457069Y+1550000D02*
X+1457286Y+1555247D01*
X+1459051Y+1565742D01*
X+1462743Y+1576237D01*
X+1468771Y+1586732D01*
X+1477993Y+1597112D01*
X+1488488Y+1604800D01*
X+1498983Y+1609718D01*
X+1509478Y+1612524D01*
X+1519973Y+1613497D01*
X+1520569Y+1613500D01*
X+1457069Y+1550000D02*
X+1457286Y+1544753D01*
X+1459051Y+1534258D01*
X+1462743Y+1523763D01*
X+1468771Y+1513268D01*
X+1477993Y+1502888D01*
X+1488488Y+1495200D01*
X+1498983Y+1490282D01*
X+1509478Y+1487476D01*
X+1519973Y+1486503D01*
X+1520569Y+1486500D01*
X+1584069Y+1550000D02*
X+1583852Y+1544753D01*
X+1582087Y+1534258D01*
X+1578395Y+1523763D01*
X+1572367Y+1513268D01*
X+1563145Y+1502888D01*
X+1552650Y+1495200D01*
X+1542155Y+1490282D01*
X+1531660Y+1487476D01*
X+1521165Y+1486503D01*
X+1520569Y+1486500D01*
X+1475668Y+1594901D02*
X+1565470Y+1505099D01*
X+1475668Y+1505099D02*
X+1565470Y+1594901D01*
X+1214069Y+3900000D02*
X+1213852Y+3905247D01*
X+1212087Y+3915742D01*
X+1208395Y+3926237D01*
X+1202367Y+3936732D01*
X+1193145Y+3947112D01*
X+1182650Y+3954800D01*
X+1172155Y+3959718D01*
X+1161660Y+3962524D01*
X+1151165Y+3963497D01*
X+1150569Y+3963500D01*
X+1087069Y+3900000D02*
X+1087286Y+3905247D01*
X+1089051Y+3915742D01*
X+1092743Y+3926237D01*
X+1098771Y+3936732D01*
X+1107993Y+3947112D01*
X+1118488Y+3954800D01*
X+1128983Y+3959718D01*
X+1139478Y+3962524D01*
X+1149973Y+3963497D01*
X+1150569Y+3963500D01*
X+1087069Y+3900000D02*
X+1087286Y+3894753D01*
X+1089051Y+3884258D01*
X+1092743Y+3873763D01*
X+1098771Y+3863268D01*
X+1107993Y+3852888D01*
X+1118488Y+3845200D01*
X+1128983Y+3840282D01*
X+1139478Y+3837476D01*
X+1149973Y+3836503D01*
X+1150569Y+3836500D01*
X+1214069Y+3900000D02*
X+1213852Y+3894753D01*
X+1212087Y+3884258D01*
X+1208395Y+3873763D01*
X+1202367Y+3863268D01*
X+1193145Y+3852888D01*
X+1182650Y+3845200D01*
X+1172155Y+3840282D01*
X+1161660Y+3837476D01*
X+1151165Y+3836503D01*
X+1150569Y+3836500D01*
X+1105668Y+3944901D02*
X+1195470Y+3855099D01*
X+1105668Y+3855099D02*
X+1195470Y+3944901D01*
X+1468069Y+3900000D02*
X+1467852Y+3905247D01*
X+1466087Y+3915742D01*
X+1462395Y+3926237D01*
X+1456367Y+3936732D01*
X+1447145Y+3947112D01*
X+1436650Y+3954800D01*
X+1426155Y+3959718D01*
X+1415660Y+3962524D01*
X+1405165Y+3963497D01*
X+1404569Y+3963500D01*
X+1341069Y+3900000D02*
X+1341286Y+3905247D01*
X+1343051Y+3915742D01*
X+1346743Y+3926237D01*
X+1352771Y+3936732D01*
X+1361993Y+3947112D01*
X+1372488Y+3954800D01*
X+1382983Y+3959718D01*
X+1393478Y+3962524D01*
X+1403973Y+3963497D01*
X+1404569Y+3963500D01*
X+1341069Y+3900000D02*
X+1341286Y+3894753D01*
X+1343051Y+3884258D01*
X+1346743Y+3873763D01*
X+1352771Y+3863268D01*
X+1361993Y+3852888D01*
X+1372488Y+3845200D01*
X+1382983Y+3840282D01*
X+1393478Y+3837476D01*
X+1403973Y+3836503D01*
X+1404569Y+3836500D01*
X+1468069Y+3900000D02*
X+1467852Y+3894753D01*
X+1466087Y+3884258D01*
X+1462395Y+3873763D01*
X+1456367Y+3863268D01*
X+1447145Y+3852888D01*
X+1436650Y+3845200D01*
X+1426155Y+3840282D01*
X+1415660Y+3837476D01*
X+1405165Y+3836503D01*
X+1404569Y+3836500D01*
X+1359668Y+3944901D02*
X+1449470Y+3855099D01*
X+1359668Y+3855099D02*
X+1449470Y+3944901D01*
X+2225569Y+3213500D02*
X+2225569Y+3086500D01*
X+2162069Y+3150000D02*
X+2289069Y+3150000D01*
X+2375569Y+3213500D02*
X+2375569Y+3086500D01*
X+2312069Y+3150000D02*
X+2439069Y+3150000D01*
X+1970569Y+1713500D02*
X+1970569Y+1586500D01*
X+1907069Y+1650000D02*
X+2034069Y+1650000D01*
X+1970569Y+1563500D02*
X+1970569Y+1436500D01*
X+1907069Y+1500000D02*
X+2034069Y+1500000D01*
X+3734069Y+4700000D02*
X+3733852Y+4705247D01*
X+3732087Y+4715742D01*
X+3728395Y+4726237D01*
X+3722367Y+4736732D01*
X+3713145Y+4747112D01*
X+3702650Y+4754800D01*
X+3692155Y+4759718D01*
X+3681660Y+4762524D01*
X+3671165Y+4763497D01*
X+3670569Y+4763500D01*
X+3607069Y+4700000D02*
X+3607286Y+4705247D01*
X+3609051Y+4715742D01*
X+3612743Y+4726237D01*
X+3618771Y+4736732D01*
X+3627993Y+4747112D01*
X+3638488Y+4754800D01*
X+3648983Y+4759718D01*
X+3659478Y+4762524D01*
X+3669973Y+4763497D01*
X+3670569Y+4763500D01*
X+3607069Y+4700000D02*
X+3607286Y+4694753D01*
X+3609051Y+4684258D01*
X+3612743Y+4673763D01*
X+3618771Y+4663268D01*
X+3627993Y+4652888D01*
X+3638488Y+4645200D01*
X+3648983Y+4640282D01*
X+3659478Y+4637476D01*
X+3669973Y+4636503D01*
X+3670569Y+4636500D01*
X+3734069Y+4700000D02*
X+3733852Y+4694753D01*
X+3732087Y+4684258D01*
X+3728395Y+4673763D01*
X+3722367Y+4663268D01*
X+3713145Y+4652888D01*
X+3702650Y+4645200D01*
X+3692155Y+4640282D01*
X+3681660Y+4637476D01*
X+3671165Y+4636503D01*
X+3670569Y+4636500D01*
X+3670569Y+4763500D02*
X+3670569Y+4636500D01*
X+3607069Y+4700000D02*
X+3734069Y+4700000D01*
X+3734069Y+4446000D02*
X+3733852Y+4451247D01*
X+3732087Y+4461742D01*
X+3728395Y+4472237D01*
X+3722367Y+4482732D01*
X+3713145Y+4493112D01*
X+3702650Y+4500800D01*
X+3692155Y+4505718D01*
X+3681660Y+4508524D01*
X+3671165Y+4509497D01*
X+3670569Y+4509500D01*
X+3607069Y+4446000D02*
X+3607286Y+4451247D01*
X+3609051Y+4461742D01*
X+3612743Y+4472237D01*
X+3618771Y+4482732D01*
X+3627993Y+4493112D01*
X+3638488Y+4500800D01*
X+3648983Y+4505718D01*
X+3659478Y+4508524D01*
X+3669973Y+4509497D01*
X+3670569Y+4509500D01*
X+3607069Y+4446000D02*
X+3607286Y+4440753D01*
X+3609051Y+4430258D01*
X+3612743Y+4419763D01*
X+3618771Y+4409268D01*
X+3627993Y+4398888D01*
X+3638488Y+4391200D01*
X+3648983Y+4386282D01*
X+3659478Y+4383476D01*
X+3669973Y+4382503D01*
X+3670569Y+4382500D01*
X+3734069Y+4446000D02*
X+3733852Y+4440753D01*
X+3732087Y+4430258D01*
X+3728395Y+4419763D01*
X+3722367Y+4409268D01*
X+3713145Y+4398888D01*
X+3702650Y+4391200D01*
X+3692155Y+4386282D01*
X+3681660Y+4383476D01*
X+3671165Y+4382503D01*
X+3670569Y+4382500D01*
X+3670569Y+4509500D02*
X+3670569Y+4382500D01*
X+3607069Y+4446000D02*
X+3734069Y+4446000D01*
X+3734069Y+4192000D02*
X+3733852Y+4197247D01*
X+3732087Y+4207742D01*
X+3728395Y+4218237D01*
X+3722367Y+4228732D01*
X+3713145Y+4239112D01*
X+3702650Y+4246800D01*
X+3692155Y+4251718D01*
X+3681660Y+4254524D01*
X+3671165Y+4255497D01*
X+3670569Y+4255500D01*
X+3607069Y+4192000D02*
X+3607286Y+4197247D01*
X+3609051Y+4207742D01*
X+3612743Y+4218237D01*
X+3618771Y+4228732D01*
X+3627993Y+4239112D01*
X+3638488Y+4246800D01*
X+3648983Y+4251718D01*
X+3659478Y+4254524D01*
X+3669973Y+4255497D01*
X+3670569Y+4255500D01*
X+3607069Y+4192000D02*
X+3607286Y+4186753D01*
X+3609051Y+4176258D01*
X+3612743Y+4165763D01*
X+3618771Y+4155268D01*
X+3627993Y+4144888D01*
X+3638488Y+4137200D01*
X+3648983Y+4132282D01*
X+3659478Y+4129476D01*
X+3669973Y+4128503D01*
X+3670569Y+4128500D01*
X+3734069Y+4192000D02*
X+3733852Y+4186753D01*
X+3732087Y+4176258D01*
X+3728395Y+4165763D01*
X+3722367Y+4155268D01*
X+3713145Y+4144888D01*
X+3702650Y+4137200D01*
X+3692155Y+4132282D01*
X+3681660Y+4129476D01*
X+3671165Y+4128503D01*
X+3670569Y+4128500D01*
X+3670569Y+4255500D02*
X+3670569Y+4128500D01*
X+3607069Y+4192000D02*
X+3734069Y+4192000D01*
X+3734069Y+3938000D02*
X+3733852Y+3943247D01*
X+3732087Y+3953742D01*
X+3728395Y+3964237D01*
X+3722367Y+3974732D01*
X+3713145Y+3985112D01*
X+3702650Y+3992800D01*
X+3692155Y+3997718D01*
X+3681660Y+4000524D01*
X+3671165Y+4001497D01*
X+3670569Y+4001500D01*
X+3607069Y+3938000D02*
X+3607286Y+3943247D01*
X+3609051Y+3953742D01*
X+3612743Y+3964237D01*
X+3618771Y+3974732D01*
X+3627993Y+3985112D01*
X+3638488Y+3992800D01*
X+3648983Y+3997718D01*
X+3659478Y+4000524D01*
X+3669973Y+4001497D01*
X+3670569Y+4001500D01*
X+3607069Y+3938000D02*
X+3607286Y+3932753D01*
X+3609051Y+3922258D01*
X+3612743Y+3911763D01*
X+3618771Y+3901268D01*
X+3627993Y+3890888D01*
X+3638488Y+3883200D01*
X+3648983Y+3878282D01*
X+3659478Y+3875476D01*
X+3669973Y+3874503D01*
X+3670569Y+3874500D01*
X+3734069Y+3938000D02*
X+3733852Y+3932753D01*
X+3732087Y+3922258D01*
X+3728395Y+3911763D01*
X+3722367Y+3901268D01*
X+3713145Y+3890888D01*
X+3702650Y+3883200D01*
X+3692155Y+3878282D01*
X+3681660Y+3875476D01*
X+3671165Y+3874503D01*
X+3670569Y+3874500D01*
X+3670569Y+4001500D02*
X+3670569Y+3874500D01*
X+3607069Y+3938000D02*
X+3734069Y+3938000D01*
X+3734069Y+3684000D02*
X+3733852Y+3689247D01*
X+3732087Y+3699742D01*
X+3728395Y+3710237D01*
X+3722367Y+3720732D01*
X+3713145Y+3731112D01*
X+3702650Y+3738800D01*
X+3692155Y+3743718D01*
X+3681660Y+3746524D01*
X+3671165Y+3747497D01*
X+3670569Y+3747500D01*
X+3607069Y+3684000D02*
X+3607286Y+3689247D01*
X+3609051Y+3699742D01*
X+3612743Y+3710237D01*
X+3618771Y+3720732D01*
X+3627993Y+3731112D01*
X+3638488Y+3738800D01*
X+3648983Y+3743718D01*
X+3659478Y+3746524D01*
X+3669973Y+3747497D01*
X+3670569Y+3747500D01*
X+3607069Y+3684000D02*
X+3607286Y+3678753D01*
X+3609051Y+3668258D01*
X+3612743Y+3657763D01*
X+3618771Y+3647268D01*
X+3627993Y+3636888D01*
X+3638488Y+3629200D01*
X+3648983Y+3624282D01*
X+3659478Y+3621476D01*
X+3669973Y+3620503D01*
X+3670569Y+3620500D01*
X+3734069Y+3684000D02*
X+3733852Y+3678753D01*
X+3732087Y+3668258D01*
X+3728395Y+3657763D01*
X+3722367Y+3647268D01*
X+3713145Y+3636888D01*
X+3702650Y+3629200D01*
X+3692155Y+3624282D01*
X+3681660Y+3621476D01*
X+3671165Y+3620503D01*
X+3670569Y+3620500D01*
X+3670569Y+3747500D02*
X+3670569Y+3620500D01*
X+3607069Y+3684000D02*
X+3734069Y+3684000D01*
X+3734069Y+3430000D02*
X+3733852Y+3435247D01*
X+3732087Y+3445742D01*
X+3728395Y+3456237D01*
X+3722367Y+3466732D01*
X+3713145Y+3477112D01*
X+3702650Y+3484800D01*
X+3692155Y+3489718D01*
X+3681660Y+3492524D01*
X+3671165Y+3493497D01*
X+3670569Y+3493500D01*
X+3607069Y+3430000D02*
X+3607286Y+3435247D01*
X+3609051Y+3445742D01*
X+3612743Y+3456237D01*
X+3618771Y+3466732D01*
X+3627993Y+3477112D01*
X+3638488Y+3484800D01*
X+3648983Y+3489718D01*
X+3659478Y+3492524D01*
X+3669973Y+3493497D01*
X+3670569Y+3493500D01*
X+3607069Y+3430000D02*
X+3607286Y+3424753D01*
X+3609051Y+3414258D01*
X+3612743Y+3403763D01*
X+3618771Y+3393268D01*
X+3627993Y+3382888D01*
X+3638488Y+3375200D01*
X+3648983Y+3370282D01*
X+3659478Y+3367476D01*
X+3669973Y+3366503D01*
X+3670569Y+3366500D01*
X+3734069Y+3430000D02*
X+3733852Y+3424753D01*
X+3732087Y+3414258D01*
X+3728395Y+3403763D01*
X+3722367Y+3393268D01*
X+3713145Y+3382888D01*
X+3702650Y+3375200D01*
X+3692155Y+3370282D01*
X+3681660Y+3367476D01*
X+3671165Y+3366503D01*
X+3670569Y+3366500D01*
X+3670569Y+3493500D02*
X+3670569Y+3366500D01*
X+3607069Y+3430000D02*
X+3734069Y+3430000D01*
X+3734069Y+3176000D02*
X+3733852Y+3181247D01*
X+3732087Y+3191742D01*
X+3728395Y+3202237D01*
X+3722367Y+3212732D01*
X+3713145Y+3223112D01*
X+3702650Y+3230800D01*
X+3692155Y+3235718D01*
X+3681660Y+3238524D01*
X+3671165Y+3239497D01*
X+3670569Y+3239500D01*
X+3607069Y+3176000D02*
X+3607286Y+3181247D01*
X+3609051Y+3191742D01*
X+3612743Y+3202237D01*
X+3618771Y+3212732D01*
X+3627993Y+3223112D01*
X+3638488Y+3230800D01*
X+3648983Y+3235718D01*
X+3659478Y+3238524D01*
X+3669973Y+3239497D01*
X+3670569Y+3239500D01*
X+3607069Y+3176000D02*
X+3607286Y+3170753D01*
X+3609051Y+3160258D01*
X+3612743Y+3149763D01*
X+3618771Y+3139268D01*
X+3627993Y+3128888D01*
X+3638488Y+3121200D01*
X+3648983Y+3116282D01*
X+3659478Y+3113476D01*
X+3669973Y+3112503D01*
X+3670569Y+3112500D01*
X+3734069Y+3176000D02*
X+3733852Y+3170753D01*
X+3732087Y+3160258D01*
X+3728395Y+3149763D01*
X+3722367Y+3139268D01*
X+3713145Y+3128888D01*
X+3702650Y+3121200D01*
X+3692155Y+3116282D01*
X+3681660Y+3113476D01*
X+3671165Y+3112503D01*
X+3670569Y+3112500D01*
X+3670569Y+3239500D02*
X+3670569Y+3112500D01*
X+3607069Y+3176000D02*
X+3734069Y+3176000D01*
X+3734069Y+2922000D02*
X+3733852Y+2927247D01*
X+3732087Y+2937742D01*
X+3728395Y+2948237D01*
X+3722367Y+2958732D01*
X+3713145Y+2969112D01*
X+3702650Y+2976800D01*
X+3692155Y+2981718D01*
X+3681660Y+2984524D01*
X+3671165Y+2985497D01*
X+3670569Y+2985500D01*
X+3607069Y+2922000D02*
X+3607286Y+2927247D01*
X+3609051Y+2937742D01*
X+3612743Y+2948237D01*
X+3618771Y+2958732D01*
X+3627993Y+2969112D01*
X+3638488Y+2976800D01*
X+3648983Y+2981718D01*
X+3659478Y+2984524D01*
X+3669973Y+2985497D01*
X+3670569Y+2985500D01*
X+3607069Y+2922000D02*
X+3607286Y+2916753D01*
X+3609051Y+2906258D01*
X+3612743Y+2895763D01*
X+3618771Y+2885268D01*
X+3627993Y+2874888D01*
X+3638488Y+2867200D01*
X+3648983Y+2862282D01*
X+3659478Y+2859476D01*
X+3669973Y+2858503D01*
X+3670569Y+2858500D01*
X+3734069Y+2922000D02*
X+3733852Y+2916753D01*
X+3732087Y+2906258D01*
X+3728395Y+2895763D01*
X+3722367Y+2885268D01*
X+3713145Y+2874888D01*
X+3702650Y+2867200D01*
X+3692155Y+2862282D01*
X+3681660Y+2859476D01*
X+3671165Y+2858503D01*
X+3670569Y+2858500D01*
X+3670569Y+2985500D02*
X+3670569Y+2858500D01*
X+3607069Y+2922000D02*
X+3734069Y+2922000D01*
X+3734069Y+2668000D02*
X+3733852Y+2673247D01*
X+3732087Y+2683742D01*
X+3728395Y+2694237D01*
X+3722367Y+2704732D01*
X+3713145Y+2715112D01*
X+3702650Y+2722800D01*
X+3692155Y+2727718D01*
X+3681660Y+2730524D01*
X+3671165Y+2731497D01*
X+3670569Y+2731500D01*
X+3607069Y+2668000D02*
X+3607286Y+2673247D01*
X+3609051Y+2683742D01*
X+3612743Y+2694237D01*
X+3618771Y+2704732D01*
X+3627993Y+2715112D01*
X+3638488Y+2722800D01*
X+3648983Y+2727718D01*
X+3659478Y+2730524D01*
X+3669973Y+2731497D01*
X+3670569Y+2731500D01*
X+3607069Y+2668000D02*
X+3607286Y+2662753D01*
X+3609051Y+2652258D01*
X+3612743Y+2641763D01*
X+3618771Y+2631268D01*
X+3627993Y+2620888D01*
X+3638488Y+2613200D01*
X+3648983Y+2608282D01*
X+3659478Y+2605476D01*
X+3669973Y+2604503D01*
X+3670569Y+2604500D01*
X+3734069Y+2668000D02*
X+3733852Y+2662753D01*
X+3732087Y+2652258D01*
X+3728395Y+2641763D01*
X+3722367Y+2631268D01*
X+3713145Y+2620888D01*
X+3702650Y+2613200D01*
X+3692155Y+2608282D01*
X+3681660Y+2605476D01*
X+3671165Y+2604503D01*
X+3670569Y+2604500D01*
X+3670569Y+2731500D02*
X+3670569Y+2604500D01*
X+3607069Y+2668000D02*
X+3734069Y+2668000D01*
X+3734069Y+2414000D02*
X+3733852Y+2419247D01*
X+3732087Y+2429742D01*
X+3728395Y+2440237D01*
X+3722367Y+2450732D01*
X+3713145Y+2461112D01*
X+3702650Y+2468800D01*
X+3692155Y+2473718D01*
X+3681660Y+2476524D01*
X+3671165Y+2477497D01*
X+3670569Y+2477500D01*
X+3607069Y+2414000D02*
X+3607286Y+2419247D01*
X+3609051Y+2429742D01*
X+3612743Y+2440237D01*
X+3618771Y+2450732D01*
X+3627993Y+2461112D01*
X+3638488Y+2468800D01*
X+3648983Y+2473718D01*
X+3659478Y+2476524D01*
X+3669973Y+2477497D01*
X+3670569Y+2477500D01*
X+3607069Y+2414000D02*
X+3607286Y+2408753D01*
X+3609051Y+2398258D01*
X+3612743Y+2387763D01*
X+3618771Y+2377268D01*
X+3627993Y+2366888D01*
X+3638488Y+2359200D01*
X+3648983Y+2354282D01*
X+3659478Y+2351476D01*
X+3669973Y+2350503D01*
X+3670569Y+2350500D01*
X+3734069Y+2414000D02*
X+3733852Y+2408753D01*
X+3732087Y+2398258D01*
X+3728395Y+2387763D01*
X+3722367Y+2377268D01*
X+3713145Y+2366888D01*
X+3702650Y+2359200D01*
X+3692155Y+2354282D01*
X+3681660Y+2351476D01*
X+3671165Y+2350503D01*
X+3670569Y+2350500D01*
X+3670569Y+2477500D02*
X+3670569Y+2350500D01*
X+3607069Y+2414000D02*
X+3734069Y+2414000D01*
X+3734069Y+2160000D02*
X+3733852Y+2165247D01*
X+3732087Y+2175742D01*
X+3728395Y+2186237D01*
X+3722367Y+2196732D01*
X+3713145Y+2207112D01*
X+3702650Y+2214800D01*
X+3692155Y+2219718D01*
X+3681660Y+2222524D01*
X+3671165Y+2223497D01*
X+3670569Y+2223500D01*
X+3607069Y+2160000D02*
X+3607286Y+2165247D01*
X+3609051Y+2175742D01*
X+3612743Y+2186237D01*
X+3618771Y+2196732D01*
X+3627993Y+2207112D01*
X+3638488Y+2214800D01*
X+3648983Y+2219718D01*
X+3659478Y+2222524D01*
X+3669973Y+2223497D01*
X+3670569Y+2223500D01*
X+3607069Y+2160000D02*
X+3607286Y+2154753D01*
X+3609051Y+2144258D01*
X+3612743Y+2133763D01*
X+3618771Y+2123268D01*
X+3627993Y+2112888D01*
X+3638488Y+2105200D01*
X+3648983Y+2100282D01*
X+3659478Y+2097476D01*
X+3669973Y+2096503D01*
X+3670569Y+2096500D01*
X+3734069Y+2160000D02*
X+3733852Y+2154753D01*
X+3732087Y+2144258D01*
X+3728395Y+2133763D01*
X+3722367Y+2123268D01*
X+3713145Y+2112888D01*
X+3702650Y+2105200D01*
X+3692155Y+2100282D01*
X+3681660Y+2097476D01*
X+3671165Y+2096503D01*
X+3670569Y+2096500D01*
X+3670569Y+2223500D02*
X+3670569Y+2096500D01*
X+3607069Y+2160000D02*
X+3734069Y+2160000D01*
X+3734069Y+1906000D02*
X+3733852Y+1911247D01*
X+3732087Y+1921742D01*
X+3728395Y+1932237D01*
X+3722367Y+1942732D01*
X+3713145Y+1953112D01*
X+3702650Y+1960800D01*
X+3692155Y+1965718D01*
X+3681660Y+1968524D01*
X+3671165Y+1969497D01*
X+3670569Y+1969500D01*
X+3607069Y+1906000D02*
X+3607286Y+1911247D01*
X+3609051Y+1921742D01*
X+3612743Y+1932237D01*
X+3618771Y+1942732D01*
X+3627993Y+1953112D01*
X+3638488Y+1960800D01*
X+3648983Y+1965718D01*
X+3659478Y+1968524D01*
X+3669973Y+1969497D01*
X+3670569Y+1969500D01*
X+3607069Y+1906000D02*
X+3607286Y+1900753D01*
X+3609051Y+1890258D01*
X+3612743Y+1879763D01*
X+3618771Y+1869268D01*
X+3627993Y+1858888D01*
X+3638488Y+1851200D01*
X+3648983Y+1846282D01*
X+3659478Y+1843476D01*
X+3669973Y+1842503D01*
X+3670569Y+1842500D01*
X+3734069Y+1906000D02*
X+3733852Y+1900753D01*
X+3732087Y+1890258D01*
X+3728395Y+1879763D01*
X+3722367Y+1869268D01*
X+3713145Y+1858888D01*
X+3702650Y+1851200D01*
X+3692155Y+1846282D01*
X+3681660Y+1843476D01*
X+3671165Y+1842503D01*
X+3670569Y+1842500D01*
X+3670569Y+1969500D02*
X+3670569Y+1842500D01*
X+3607069Y+1906000D02*
X+3734069Y+1906000D01*
X+3734069Y+1652000D02*
X+3733852Y+1657247D01*
X+3732087Y+1667742D01*
X+3728395Y+1678237D01*
X+3722367Y+1688732D01*
X+3713145Y+1699112D01*
X+3702650Y+1706800D01*
X+3692155Y+1711718D01*
X+3681660Y+1714524D01*
X+3671165Y+1715497D01*
X+3670569Y+1715500D01*
X+3607069Y+1652000D02*
X+3607286Y+1657247D01*
X+3609051Y+1667742D01*
X+3612743Y+1678237D01*
X+3618771Y+1688732D01*
X+3627993Y+1699112D01*
X+3638488Y+1706800D01*
X+3648983Y+1711718D01*
X+3659478Y+1714524D01*
X+3669973Y+1715497D01*
X+3670569Y+1715500D01*
X+3607069Y+1652000D02*
X+3607286Y+1646753D01*
X+3609051Y+1636258D01*
X+3612743Y+1625763D01*
X+3618771Y+1615268D01*
X+3627993Y+1604888D01*
X+3638488Y+1597200D01*
X+3648983Y+1592282D01*
X+3659478Y+1589476D01*
X+3669973Y+1588503D01*
X+3670569Y+1588500D01*
X+3734069Y+1652000D02*
X+3733852Y+1646753D01*
X+3732087Y+1636258D01*
X+3728395Y+1625763D01*
X+3722367Y+1615268D01*
X+3713145Y+1604888D01*
X+3702650Y+1597200D01*
X+3692155Y+1592282D01*
X+3681660Y+1589476D01*
X+3671165Y+1588503D01*
X+3670569Y+1588500D01*
X+3670569Y+1715500D02*
X+3670569Y+1588500D01*
X+3607069Y+1652000D02*
X+3734069Y+1652000D01*
X+3734069Y+1398000D02*
X+3733852Y+1403247D01*
X+3732087Y+1413742D01*
X+3728395Y+1424237D01*
X+3722367Y+1434732D01*
X+3713145Y+1445112D01*
X+3702650Y+1452800D01*
X+3692155Y+1457718D01*
X+3681660Y+1460524D01*
X+3671165Y+1461497D01*
X+3670569Y+1461500D01*
X+3607069Y+1398000D02*
X+3607286Y+1403247D01*
X+3609051Y+1413742D01*
X+3612743Y+1424237D01*
X+3618771Y+1434732D01*
X+3627993Y+1445112D01*
X+3638488Y+1452800D01*
X+3648983Y+1457718D01*
X+3659478Y+1460524D01*
X+3669973Y+1461497D01*
X+3670569Y+1461500D01*
X+3607069Y+1398000D02*
X+3607286Y+1392753D01*
X+3609051Y+1382258D01*
X+3612743Y+1371763D01*
X+3618771Y+1361268D01*
X+3627993Y+1350888D01*
X+3638488Y+1343200D01*
X+3648983Y+1338282D01*
X+3659478Y+1335476D01*
X+3669973Y+1334503D01*
X+3670569Y+1334500D01*
X+3734069Y+1398000D02*
X+3733852Y+1392753D01*
X+3732087Y+1382258D01*
X+3728395Y+1371763D01*
X+3722367Y+1361268D01*
X+3713145Y+1350888D01*
X+3702650Y+1343200D01*
X+3692155Y+1338282D01*
X+3681660Y+1335476D01*
X+3671165Y+1334503D01*
X+3670569Y+1334500D01*
X+3670569Y+1461500D02*
X+3670569Y+1334500D01*
X+3607069Y+1398000D02*
X+3734069Y+1398000D01*
X+4496069Y+1398000D02*
X+4495852Y+1403247D01*
X+4494087Y+1413742D01*
X+4490395Y+1424237D01*
X+4484367Y+1434732D01*
X+4475145Y+1445112D01*
X+4464650Y+1452800D01*
X+4454155Y+1457718D01*
X+4443660Y+1460524D01*
X+4433165Y+1461497D01*
X+4432569Y+1461500D01*
X+4369069Y+1398000D02*
X+4369286Y+1403247D01*
X+4371051Y+1413742D01*
X+4374743Y+1424237D01*
X+4380771Y+1434732D01*
X+4389993Y+1445112D01*
X+4400488Y+1452800D01*
X+4410983Y+1457718D01*
X+4421478Y+1460524D01*
X+4431973Y+1461497D01*
X+4432569Y+1461500D01*
X+4369069Y+1398000D02*
X+4369286Y+1392753D01*
X+4371051Y+1382258D01*
X+4374743Y+1371763D01*
X+4380771Y+1361268D01*
X+4389993Y+1350888D01*
X+4400488Y+1343200D01*
X+4410983Y+1338282D01*
X+4421478Y+1335476D01*
X+4431973Y+1334503D01*
X+4432569Y+1334500D01*
X+4496069Y+1398000D02*
X+4495852Y+1392753D01*
X+4494087Y+1382258D01*
X+4490395Y+1371763D01*
X+4484367Y+1361268D01*
X+4475145Y+1350888D01*
X+4464650Y+1343200D01*
X+4454155Y+1338282D01*
X+4443660Y+1335476D01*
X+4433165Y+1334503D01*
X+4432569Y+1334500D01*
X+4432569Y+1461500D02*
X+4432569Y+1334500D01*
X+4369069Y+1398000D02*
X+4496069Y+1398000D01*
X+4496069Y+1652000D02*
X+4495852Y+1657247D01*
X+4494087Y+1667742D01*
X+4490395Y+1678237D01*
X+4484367Y+1688732D01*
X+4475145Y+1699112D01*
X+4464650Y+1706800D01*
X+4454155Y+1711718D01*
X+4443660Y+1714524D01*
X+4433165Y+1715497D01*
X+4432569Y+1715500D01*
X+4369069Y+1652000D02*
X+4369286Y+1657247D01*
X+4371051Y+1667742D01*
X+4374743Y+1678237D01*
X+4380771Y+1688732D01*
X+4389993Y+1699112D01*
X+4400488Y+1706800D01*
X+4410983Y+1711718D01*
X+4421478Y+1714524D01*
X+4431973Y+1715497D01*
X+4432569Y+1715500D01*
X+4369069Y+1652000D02*
X+4369286Y+1646753D01*
X+4371051Y+1636258D01*
X+4374743Y+1625763D01*
X+4380771Y+1615268D01*
X+4389993Y+1604888D01*
X+4400488Y+1597200D01*
X+4410983Y+1592282D01*
X+4421478Y+1589476D01*
X+4431973Y+1588503D01*
X+4432569Y+1588500D01*
X+4496069Y+1652000D02*
X+4495852Y+1646753D01*
X+4494087Y+1636258D01*
X+4490395Y+1625763D01*
X+4484367Y+1615268D01*
X+4475145Y+1604888D01*
X+4464650Y+1597200D01*
X+4454155Y+1592282D01*
X+4443660Y+1589476D01*
X+4433165Y+1588503D01*
X+4432569Y+1588500D01*
X+4432569Y+1715500D02*
X+4432569Y+1588500D01*
X+4369069Y+1652000D02*
X+4496069Y+1652000D01*
X+4496069Y+1906000D02*
X+4495852Y+1911247D01*
X+4494087Y+1921742D01*
X+4490395Y+1932237D01*
X+4484367Y+1942732D01*
X+4475145Y+1953112D01*
X+4464650Y+1960800D01*
X+4454155Y+1965718D01*
X+4443660Y+1968524D01*
X+4433165Y+1969497D01*
X+4432569Y+1969500D01*
X+4369069Y+1906000D02*
X+4369286Y+1911247D01*
X+4371051Y+1921742D01*
X+4374743Y+1932237D01*
X+4380771Y+1942732D01*
X+4389993Y+1953112D01*
X+4400488Y+1960800D01*
X+4410983Y+1965718D01*
X+4421478Y+1968524D01*
X+4431973Y+1969497D01*
X+4432569Y+1969500D01*
X+4369069Y+1906000D02*
X+4369286Y+1900753D01*
X+4371051Y+1890258D01*
X+4374743Y+1879763D01*
X+4380771Y+1869268D01*
X+4389993Y+1858888D01*
X+4400488Y+1851200D01*
X+4410983Y+1846282D01*
X+4421478Y+1843476D01*
X+4431973Y+1842503D01*
X+4432569Y+1842500D01*
X+4496069Y+1906000D02*
X+4495852Y+1900753D01*
X+4494087Y+1890258D01*
X+4490395Y+1879763D01*
X+4484367Y+1869268D01*
X+4475145Y+1858888D01*
X+4464650Y+1851200D01*
X+4454155Y+1846282D01*
X+4443660Y+1843476D01*
X+4433165Y+1842503D01*
X+4432569Y+1842500D01*
X+4432569Y+1969500D02*
X+4432569Y+1842500D01*
X+4369069Y+1906000D02*
X+4496069Y+1906000D01*
X+4496069Y+2160000D02*
X+4495852Y+2165247D01*
X+4494087Y+2175742D01*
X+4490395Y+2186237D01*
X+4484367Y+2196732D01*
X+4475145Y+2207112D01*
X+4464650Y+2214800D01*
X+4454155Y+2219718D01*
X+4443660Y+2222524D01*
X+4433165Y+2223497D01*
X+4432569Y+2223500D01*
X+4369069Y+2160000D02*
X+4369286Y+2165247D01*
X+4371051Y+2175742D01*
X+4374743Y+2186237D01*
X+4380771Y+2196732D01*
X+4389993Y+2207112D01*
X+4400488Y+2214800D01*
X+4410983Y+2219718D01*
X+4421478Y+2222524D01*
X+4431973Y+2223497D01*
X+4432569Y+2223500D01*
X+4369069Y+2160000D02*
X+4369286Y+2154753D01*
X+4371051Y+2144258D01*
X+4374743Y+2133763D01*
X+4380771Y+2123268D01*
X+4389993Y+2112888D01*
X+4400488Y+2105200D01*
X+4410983Y+2100282D01*
X+4421478Y+2097476D01*
X+4431973Y+2096503D01*
X+4432569Y+2096500D01*
X+4496069Y+2160000D02*
X+4495852Y+2154753D01*
X+4494087Y+2144258D01*
X+4490395Y+2133763D01*
X+4484367Y+2123268D01*
X+4475145Y+2112888D01*
X+4464650Y+2105200D01*
X+4454155Y+2100282D01*
X+4443660Y+2097476D01*
X+4433165Y+2096503D01*
X+4432569Y+2096500D01*
X+4432569Y+2223500D02*
X+4432569Y+2096500D01*
X+4369069Y+2160000D02*
X+4496069Y+2160000D01*
X+4496069Y+2414000D02*
X+4495852Y+2419247D01*
X+4494087Y+2429742D01*
X+4490395Y+2440237D01*
X+4484367Y+2450732D01*
X+4475145Y+2461112D01*
X+4464650Y+2468800D01*
X+4454155Y+2473718D01*
X+4443660Y+2476524D01*
X+4433165Y+2477497D01*
X+4432569Y+2477500D01*
X+4369069Y+2414000D02*
X+4369286Y+2419247D01*
X+4371051Y+2429742D01*
X+4374743Y+2440237D01*
X+4380771Y+2450732D01*
X+4389993Y+2461112D01*
X+4400488Y+2468800D01*
X+4410983Y+2473718D01*
X+4421478Y+2476524D01*
X+4431973Y+2477497D01*
X+4432569Y+2477500D01*
X+4369069Y+2414000D02*
X+4369286Y+2408753D01*
X+4371051Y+2398258D01*
X+4374743Y+2387763D01*
X+4380771Y+2377268D01*
X+4389993Y+2366888D01*
X+4400488Y+2359200D01*
X+4410983Y+2354282D01*
X+4421478Y+2351476D01*
X+4431973Y+2350503D01*
X+4432569Y+2350500D01*
X+4496069Y+2414000D02*
X+4495852Y+2408753D01*
X+4494087Y+2398258D01*
X+4490395Y+2387763D01*
X+4484367Y+2377268D01*
X+4475145Y+2366888D01*
X+4464650Y+2359200D01*
X+4454155Y+2354282D01*
X+4443660Y+2351476D01*
X+4433165Y+2350503D01*
X+4432569Y+2350500D01*
X+4432569Y+2477500D02*
X+4432569Y+2350500D01*
X+4369069Y+2414000D02*
X+4496069Y+2414000D01*
X+4496069Y+2668000D02*
X+4495852Y+2673247D01*
X+4494087Y+2683742D01*
X+4490395Y+2694237D01*
X+4484367Y+2704732D01*
X+4475145Y+2715112D01*
X+4464650Y+2722800D01*
X+4454155Y+2727718D01*
X+4443660Y+2730524D01*
X+4433165Y+2731497D01*
X+4432569Y+2731500D01*
X+4369069Y+2668000D02*
X+4369286Y+2673247D01*
X+4371051Y+2683742D01*
X+4374743Y+2694237D01*
X+4380771Y+2704732D01*
X+4389993Y+2715112D01*
X+4400488Y+2722800D01*
X+4410983Y+2727718D01*
X+4421478Y+2730524D01*
X+4431973Y+2731497D01*
X+4432569Y+2731500D01*
X+4369069Y+2668000D02*
X+4369286Y+2662753D01*
X+4371051Y+2652258D01*
X+4374743Y+2641763D01*
X+4380771Y+2631268D01*
X+4389993Y+2620888D01*
X+4400488Y+2613200D01*
X+4410983Y+2608282D01*
X+4421478Y+2605476D01*
X+4431973Y+2604503D01*
X+4432569Y+2604500D01*
X+4496069Y+2668000D02*
X+4495852Y+2662753D01*
X+4494087Y+2652258D01*
X+4490395Y+2641763D01*
X+4484367Y+2631268D01*
X+4475145Y+2620888D01*
X+4464650Y+2613200D01*
X+4454155Y+2608282D01*
X+4443660Y+2605476D01*
X+4433165Y+2604503D01*
X+4432569Y+2604500D01*
X+4432569Y+2731500D02*
X+4432569Y+2604500D01*
X+4369069Y+2668000D02*
X+4496069Y+2668000D01*
X+4496069Y+2922000D02*
X+4495852Y+2927247D01*
X+4494087Y+2937742D01*
X+4490395Y+2948237D01*
X+4484367Y+2958732D01*
X+4475145Y+2969112D01*
X+4464650Y+2976800D01*
X+4454155Y+2981718D01*
X+4443660Y+2984524D01*
X+4433165Y+2985497D01*
X+4432569Y+2985500D01*
X+4369069Y+2922000D02*
X+4369286Y+2927247D01*
X+4371051Y+2937742D01*
X+4374743Y+2948237D01*
X+4380771Y+2958732D01*
X+4389993Y+2969112D01*
X+4400488Y+2976800D01*
X+4410983Y+2981718D01*
X+4421478Y+2984524D01*
X+4431973Y+2985497D01*
X+4432569Y+2985500D01*
X+4369069Y+2922000D02*
X+4369286Y+2916753D01*
X+4371051Y+2906258D01*
X+4374743Y+2895763D01*
X+4380771Y+2885268D01*
X+4389993Y+2874888D01*
X+4400488Y+2867200D01*
X+4410983Y+2862282D01*
X+4421478Y+2859476D01*
X+4431973Y+2858503D01*
X+4432569Y+2858500D01*
X+4496069Y+2922000D02*
X+4495852Y+2916753D01*
X+4494087Y+2906258D01*
X+4490395Y+2895763D01*
X+4484367Y+2885268D01*
X+4475145Y+2874888D01*
X+4464650Y+2867200D01*
X+4454155Y+2862282D01*
X+4443660Y+2859476D01*
X+4433165Y+2858503D01*
X+4432569Y+2858500D01*
X+4432569Y+2985500D02*
X+4432569Y+2858500D01*
X+4369069Y+2922000D02*
X+4496069Y+2922000D01*
X+4496069Y+3176000D02*
X+4495852Y+3181247D01*
X+4494087Y+3191742D01*
X+4490395Y+3202237D01*
X+4484367Y+3212732D01*
X+4475145Y+3223112D01*
X+4464650Y+3230800D01*
X+4454155Y+3235718D01*
X+4443660Y+3238524D01*
X+4433165Y+3239497D01*
X+4432569Y+3239500D01*
X+4369069Y+3176000D02*
X+4369286Y+3181247D01*
X+4371051Y+3191742D01*
X+4374743Y+3202237D01*
X+4380771Y+3212732D01*
X+4389993Y+3223112D01*
X+4400488Y+3230800D01*
X+4410983Y+3235718D01*
X+4421478Y+3238524D01*
X+4431973Y+3239497D01*
X+4432569Y+3239500D01*
X+4369069Y+3176000D02*
X+4369286Y+3170753D01*
X+4371051Y+3160258D01*
X+4374743Y+3149763D01*
X+4380771Y+3139268D01*
X+4389993Y+3128888D01*
X+4400488Y+3121200D01*
X+4410983Y+3116282D01*
X+4421478Y+3113476D01*
X+4431973Y+3112503D01*
X+4432569Y+3112500D01*
X+4496069Y+3176000D02*
X+4495852Y+3170753D01*
X+4494087Y+3160258D01*
X+4490395Y+3149763D01*
X+4484367Y+3139268D01*
X+4475145Y+3128888D01*
X+4464650Y+3121200D01*
X+4454155Y+3116282D01*
X+4443660Y+3113476D01*
X+4433165Y+3112503D01*
X+4432569Y+3112500D01*
X+4432569Y+3239500D02*
X+4432569Y+3112500D01*
X+4369069Y+3176000D02*
X+4496069Y+3176000D01*
X+4496069Y+3430000D02*
X+4495852Y+3435247D01*
X+4494087Y+3445742D01*
X+4490395Y+3456237D01*
X+4484367Y+3466732D01*
X+4475145Y+3477112D01*
X+4464650Y+3484800D01*
X+4454155Y+3489718D01*
X+4443660Y+3492524D01*
X+4433165Y+3493497D01*
X+4432569Y+3493500D01*
X+4369069Y+3430000D02*
X+4369286Y+3435247D01*
X+4371051Y+3445742D01*
X+4374743Y+3456237D01*
X+4380771Y+3466732D01*
X+4389993Y+3477112D01*
X+4400488Y+3484800D01*
X+4410983Y+3489718D01*
X+4421478Y+3492524D01*
X+4431973Y+3493497D01*
X+4432569Y+3493500D01*
X+4369069Y+3430000D02*
X+4369286Y+3424753D01*
X+4371051Y+3414258D01*
X+4374743Y+3403763D01*
X+4380771Y+3393268D01*
X+4389993Y+3382888D01*
X+4400488Y+3375200D01*
X+4410983Y+3370282D01*
X+4421478Y+3367476D01*
X+4431973Y+3366503D01*
X+4432569Y+3366500D01*
X+4496069Y+3430000D02*
X+4495852Y+3424753D01*
X+4494087Y+3414258D01*
X+4490395Y+3403763D01*
X+4484367Y+3393268D01*
X+4475145Y+3382888D01*
X+4464650Y+3375200D01*
X+4454155Y+3370282D01*
X+4443660Y+3367476D01*
X+4433165Y+3366503D01*
X+4432569Y+3366500D01*
X+4432569Y+3493500D02*
X+4432569Y+3366500D01*
X+4369069Y+3430000D02*
X+4496069Y+3430000D01*
X+4496069Y+3684000D02*
X+4495852Y+3689247D01*
X+4494087Y+3699742D01*
X+4490395Y+3710237D01*
X+4484367Y+3720732D01*
X+4475145Y+3731112D01*
X+4464650Y+3738800D01*
X+4454155Y+3743718D01*
X+4443660Y+3746524D01*
X+4433165Y+3747497D01*
X+4432569Y+3747500D01*
X+4369069Y+3684000D02*
X+4369286Y+3689247D01*
X+4371051Y+3699742D01*
X+4374743Y+3710237D01*
X+4380771Y+3720732D01*
X+4389993Y+3731112D01*
X+4400488Y+3738800D01*
X+4410983Y+3743718D01*
X+4421478Y+3746524D01*
X+4431973Y+3747497D01*
X+4432569Y+3747500D01*
X+4369069Y+3684000D02*
X+4369286Y+3678753D01*
X+4371051Y+3668258D01*
X+4374743Y+3657763D01*
X+4380771Y+3647268D01*
X+4389993Y+3636888D01*
X+4400488Y+3629200D01*
X+4410983Y+3624282D01*
X+4421478Y+3621476D01*
X+4431973Y+3620503D01*
X+4432569Y+3620500D01*
X+4496069Y+3684000D02*
X+4495852Y+3678753D01*
X+4494087Y+3668258D01*
X+4490395Y+3657763D01*
X+4484367Y+3647268D01*
X+4475145Y+3636888D01*
X+4464650Y+3629200D01*
X+4454155Y+3624282D01*
X+4443660Y+3621476D01*
X+4433165Y+3620503D01*
X+4432569Y+3620500D01*
X+4432569Y+3747500D02*
X+4432569Y+3620500D01*
X+4369069Y+3684000D02*
X+4496069Y+3684000D01*
X+4496069Y+3938000D02*
X+4495852Y+3943247D01*
X+4494087Y+3953742D01*
X+4490395Y+3964237D01*
X+4484367Y+3974732D01*
X+4475145Y+3985112D01*
X+4464650Y+3992800D01*
X+4454155Y+3997718D01*
X+4443660Y+4000524D01*
X+4433165Y+4001497D01*
X+4432569Y+4001500D01*
X+4369069Y+3938000D02*
X+4369286Y+3943247D01*
X+4371051Y+3953742D01*
X+4374743Y+3964237D01*
X+4380771Y+3974732D01*
X+4389993Y+3985112D01*
X+4400488Y+3992800D01*
X+4410983Y+3997718D01*
X+4421478Y+4000524D01*
X+4431973Y+4001497D01*
X+4432569Y+4001500D01*
X+4369069Y+3938000D02*
X+4369286Y+3932753D01*
X+4371051Y+3922258D01*
X+4374743Y+3911763D01*
X+4380771Y+3901268D01*
X+4389993Y+3890888D01*
X+4400488Y+3883200D01*
X+4410983Y+3878282D01*
X+4421478Y+3875476D01*
X+4431973Y+3874503D01*
X+4432569Y+3874500D01*
X+4496069Y+3938000D02*
X+4495852Y+3932753D01*
X+4494087Y+3922258D01*
X+4490395Y+3911763D01*
X+4484367Y+3901268D01*
X+4475145Y+3890888D01*
X+4464650Y+3883200D01*
X+4454155Y+3878282D01*
X+4443660Y+3875476D01*
X+4433165Y+3874503D01*
X+4432569Y+3874500D01*
X+4432569Y+4001500D02*
X+4432569Y+3874500D01*
X+4369069Y+3938000D02*
X+4496069Y+3938000D01*
X+4496069Y+4192000D02*
X+4495852Y+4197247D01*
X+4494087Y+4207742D01*
X+4490395Y+4218237D01*
X+4484367Y+4228732D01*
X+4475145Y+4239112D01*
X+4464650Y+4246800D01*
X+4454155Y+4251718D01*
X+4443660Y+4254524D01*
X+4433165Y+4255497D01*
X+4432569Y+4255500D01*
X+4369069Y+4192000D02*
X+4369286Y+4197247D01*
X+4371051Y+4207742D01*
X+4374743Y+4218237D01*
X+4380771Y+4228732D01*
X+4389993Y+4239112D01*
X+4400488Y+4246800D01*
X+4410983Y+4251718D01*
X+4421478Y+4254524D01*
X+4431973Y+4255497D01*
X+4432569Y+4255500D01*
X+4369069Y+4192000D02*
X+4369286Y+4186753D01*
X+4371051Y+4176258D01*
X+4374743Y+4165763D01*
X+4380771Y+4155268D01*
X+4389993Y+4144888D01*
X+4400488Y+4137200D01*
X+4410983Y+4132282D01*
X+4421478Y+4129476D01*
X+4431973Y+4128503D01*
X+4432569Y+4128500D01*
X+4496069Y+4192000D02*
X+4495852Y+4186753D01*
X+4494087Y+4176258D01*
X+4490395Y+4165763D01*
X+4484367Y+4155268D01*
X+4475145Y+4144888D01*
X+4464650Y+4137200D01*
X+4454155Y+4132282D01*
X+4443660Y+4129476D01*
X+4433165Y+4128503D01*
X+4432569Y+4128500D01*
X+4432569Y+4255500D02*
X+4432569Y+4128500D01*
X+4369069Y+4192000D02*
X+4496069Y+4192000D01*
X+4496069Y+4446000D02*
X+4495852Y+4451247D01*
X+4494087Y+4461742D01*
X+4490395Y+4472237D01*
X+4484367Y+4482732D01*
X+4475145Y+4493112D01*
X+4464650Y+4500800D01*
X+4454155Y+4505718D01*
X+4443660Y+4508524D01*
X+4433165Y+4509497D01*
X+4432569Y+4509500D01*
X+4369069Y+4446000D02*
X+4369286Y+4451247D01*
X+4371051Y+4461742D01*
X+4374743Y+4472237D01*
X+4380771Y+4482732D01*
X+4389993Y+4493112D01*
X+4400488Y+4500800D01*
X+4410983Y+4505718D01*
X+4421478Y+4508524D01*
X+4431973Y+4509497D01*
X+4432569Y+4509500D01*
X+4369069Y+4446000D02*
X+4369286Y+4440753D01*
X+4371051Y+4430258D01*
X+4374743Y+4419763D01*
X+4380771Y+4409268D01*
X+4389993Y+4398888D01*
X+4400488Y+4391200D01*
X+4410983Y+4386282D01*
X+4421478Y+4383476D01*
X+4431973Y+4382503D01*
X+4432569Y+4382500D01*
X+4496069Y+4446000D02*
X+4495852Y+4440753D01*
X+4494087Y+4430258D01*
X+4490395Y+4419763D01*
X+4484367Y+4409268D01*
X+4475145Y+4398888D01*
X+4464650Y+4391200D01*
X+4454155Y+4386282D01*
X+4443660Y+4383476D01*
X+4433165Y+4382503D01*
X+4432569Y+4382500D01*
X+4432569Y+4509500D02*
X+4432569Y+4382500D01*
X+4369069Y+4446000D02*
X+4496069Y+4446000D01*
X+4496069Y+4698000D02*
X+4495852Y+4703247D01*
X+4494087Y+4713742D01*
X+4490395Y+4724237D01*
X+4484367Y+4734732D01*
X+4475145Y+4745112D01*
X+4464650Y+4752800D01*
X+4454155Y+4757718D01*
X+4443660Y+4760524D01*
X+4433165Y+4761497D01*
X+4432569Y+4761500D01*
X+4369069Y+4698000D02*
X+4369286Y+4703247D01*
X+4371051Y+4713742D01*
X+4374743Y+4724237D01*
X+4380771Y+4734732D01*
X+4389993Y+4745112D01*
X+4400488Y+4752800D01*
X+4410983Y+4757718D01*
X+4421478Y+4760524D01*
X+4431973Y+4761497D01*
X+4432569Y+4761500D01*
X+4369069Y+4698000D02*
X+4369286Y+4692753D01*
X+4371051Y+4682258D01*
X+4374743Y+4671763D01*
X+4380771Y+4661268D01*
X+4389993Y+4650888D01*
X+4400488Y+4643200D01*
X+4410983Y+4638282D01*
X+4421478Y+4635476D01*
X+4431973Y+4634503D01*
X+4432569Y+4634500D01*
X+4496069Y+4698000D02*
X+4495852Y+4692753D01*
X+4494087Y+4682258D01*
X+4490395Y+4671763D01*
X+4484367Y+4661268D01*
X+4475145Y+4650888D01*
X+4464650Y+4643200D01*
X+4454155Y+4638282D01*
X+4443660Y+4635476D01*
X+4433165Y+4634503D01*
X+4432569Y+4634500D01*
X+4432569Y+4761500D02*
X+4432569Y+4634500D01*
X+4369069Y+4698000D02*
X+4496069Y+4698000D01*
X+3234069Y+2800000D02*
X+3233852Y+2805247D01*
X+3232087Y+2815742D01*
X+3228395Y+2826237D01*
X+3222367Y+2836732D01*
X+3213145Y+2847112D01*
X+3202650Y+2854800D01*
X+3192155Y+2859718D01*
X+3181660Y+2862524D01*
X+3171165Y+2863497D01*
X+3170569Y+2863500D01*
X+3107069Y+2800000D02*
X+3107286Y+2805247D01*
X+3109051Y+2815742D01*
X+3112743Y+2826237D01*
X+3118771Y+2836732D01*
X+3127993Y+2847112D01*
X+3138488Y+2854800D01*
X+3148983Y+2859718D01*
X+3159478Y+2862524D01*
X+3169973Y+2863497D01*
X+3170569Y+2863500D01*
X+3107069Y+2800000D02*
X+3107286Y+2794753D01*
X+3109051Y+2784258D01*
X+3112743Y+2773763D01*
X+3118771Y+2763268D01*
X+3127993Y+2752888D01*
X+3138488Y+2745200D01*
X+3148983Y+2740282D01*
X+3159478Y+2737476D01*
X+3169973Y+2736503D01*
X+3170569Y+2736500D01*
X+3234069Y+2800000D02*
X+3233852Y+2794753D01*
X+3232087Y+2784258D01*
X+3228395Y+2773763D01*
X+3222367Y+2763268D01*
X+3213145Y+2752888D01*
X+3202650Y+2745200D01*
X+3192155Y+2740282D01*
X+3181660Y+2737476D01*
X+3171165Y+2736503D01*
X+3170569Y+2736500D01*
X+3170569Y+2863500D02*
X+3170569Y+2736500D01*
X+3107069Y+2800000D02*
X+3234069Y+2800000D01*
X+3234069Y+2292000D02*
X+3233852Y+2297247D01*
X+3232087Y+2307742D01*
X+3228395Y+2318237D01*
X+3222367Y+2328732D01*
X+3213145Y+2339112D01*
X+3202650Y+2346800D01*
X+3192155Y+2351718D01*
X+3181660Y+2354524D01*
X+3171165Y+2355497D01*
X+3170569Y+2355500D01*
X+3107069Y+2292000D02*
X+3107286Y+2297247D01*
X+3109051Y+2307742D01*
X+3112743Y+2318237D01*
X+3118771Y+2328732D01*
X+3127993Y+2339112D01*
X+3138488Y+2346800D01*
X+3148983Y+2351718D01*
X+3159478Y+2354524D01*
X+3169973Y+2355497D01*
X+3170569Y+2355500D01*
X+3107069Y+2292000D02*
X+3107286Y+2286753D01*
X+3109051Y+2276258D01*
X+3112743Y+2265763D01*
X+3118771Y+2255268D01*
X+3127993Y+2244888D01*
X+3138488Y+2237200D01*
X+3148983Y+2232282D01*
X+3159478Y+2229476D01*
X+3169973Y+2228503D01*
X+3170569Y+2228500D01*
X+3234069Y+2292000D02*
X+3233852Y+2286753D01*
X+3232087Y+2276258D01*
X+3228395Y+2265763D01*
X+3222367Y+2255268D01*
X+3213145Y+2244888D01*
X+3202650Y+2237200D01*
X+3192155Y+2232282D01*
X+3181660Y+2229476D01*
X+3171165Y+2228503D01*
X+3170569Y+2228500D01*
X+3170569Y+2355500D02*
X+3170569Y+2228500D01*
X+3107069Y+2292000D02*
X+3234069Y+2292000D01*
X+2742069Y+2600000D02*
X+2741852Y+2605247D01*
X+2740087Y+2615742D01*
X+2736395Y+2626237D01*
X+2730367Y+2636732D01*
X+2721145Y+2647112D01*
X+2710650Y+2654800D01*
X+2700155Y+2659718D01*
X+2689660Y+2662524D01*
X+2679165Y+2663497D01*
X+2678569Y+2663500D01*
X+2615069Y+2600000D02*
X+2615286Y+2605247D01*
X+2617051Y+2615742D01*
X+2620743Y+2626237D01*
X+2626771Y+2636732D01*
X+2635993Y+2647112D01*
X+2646488Y+2654800D01*
X+2656983Y+2659718D01*
X+2667478Y+2662524D01*
X+2677973Y+2663497D01*
X+2678569Y+2663500D01*
X+2615069Y+2600000D02*
X+2615286Y+2594753D01*
X+2617051Y+2584258D01*
X+2620743Y+2573763D01*
X+2626771Y+2563268D01*
X+2635993Y+2552888D01*
X+2646488Y+2545200D01*
X+2656983Y+2540282D01*
X+2667478Y+2537476D01*
X+2677973Y+2536503D01*
X+2678569Y+2536500D01*
X+2742069Y+2600000D02*
X+2741852Y+2594753D01*
X+2740087Y+2584258D01*
X+2736395Y+2573763D01*
X+2730367Y+2563268D01*
X+2721145Y+2552888D01*
X+2710650Y+2545200D01*
X+2700155Y+2540282D01*
X+2689660Y+2537476D01*
X+2679165Y+2536503D01*
X+2678569Y+2536500D01*
X+2678569Y+2663500D02*
X+2678569Y+2536500D01*
X+2615069Y+2600000D02*
X+2742069Y+2600000D01*
X+2234069Y+2600000D02*
X+2233852Y+2605247D01*
X+2232087Y+2615742D01*
X+2228395Y+2626237D01*
X+2222367Y+2636732D01*
X+2213145Y+2647112D01*
X+2202650Y+2654800D01*
X+2192155Y+2659718D01*
X+2181660Y+2662524D01*
X+2171165Y+2663497D01*
X+2170569Y+2663500D01*
X+2107069Y+2600000D02*
X+2107286Y+2605247D01*
X+2109051Y+2615742D01*
X+2112743Y+2626237D01*
X+2118771Y+2636732D01*
X+2127993Y+2647112D01*
X+2138488Y+2654800D01*
X+2148983Y+2659718D01*
X+2159478Y+2662524D01*
X+2169973Y+2663497D01*
X+2170569Y+2663500D01*
X+2107069Y+2600000D02*
X+2107286Y+2594753D01*
X+2109051Y+2584258D01*
X+2112743Y+2573763D01*
X+2118771Y+2563268D01*
X+2127993Y+2552888D01*
X+2138488Y+2545200D01*
X+2148983Y+2540282D01*
X+2159478Y+2537476D01*
X+2169973Y+2536503D01*
X+2170569Y+2536500D01*
X+2234069Y+2600000D02*
X+2233852Y+2594753D01*
X+2232087Y+2584258D01*
X+2228395Y+2573763D01*
X+2222367Y+2563268D01*
X+2213145Y+2552888D01*
X+2202650Y+2545200D01*
X+2192155Y+2540282D01*
X+2181660Y+2537476D01*
X+2171165Y+2536503D01*
X+2170569Y+2536500D01*
X+2170569Y+2663500D02*
X+2170569Y+2536500D01*
X+2107069Y+2600000D02*
X+2234069Y+2600000D01*
X+2734069Y+2150000D02*
X+2733852Y+2155247D01*
X+2732087Y+2165742D01*
X+2728395Y+2176237D01*
X+2722367Y+2186732D01*
X+2713145Y+2197112D01*
X+2702650Y+2204800D01*
X+2692155Y+2209718D01*
X+2681660Y+2212524D01*
X+2671165Y+2213497D01*
X+2670569Y+2213500D01*
X+2607069Y+2150000D02*
X+2607286Y+2155247D01*
X+2609051Y+2165742D01*
X+2612743Y+2176237D01*
X+2618771Y+2186732D01*
X+2627993Y+2197112D01*
X+2638488Y+2204800D01*
X+2648983Y+2209718D01*
X+2659478Y+2212524D01*
X+2669973Y+2213497D01*
X+2670569Y+2213500D01*
X+2607069Y+2150000D02*
X+2607286Y+2144753D01*
X+2609051Y+2134258D01*
X+2612743Y+2123763D01*
X+2618771Y+2113268D01*
X+2627993Y+2102888D01*
X+2638488Y+2095200D01*
X+2648983Y+2090282D01*
X+2659478Y+2087476D01*
X+2669973Y+2086503D01*
X+2670569Y+2086500D01*
X+2734069Y+2150000D02*
X+2733852Y+2144753D01*
X+2732087Y+2134258D01*
X+2728395Y+2123763D01*
X+2722367Y+2113268D01*
X+2713145Y+2102888D01*
X+2702650Y+2095200D01*
X+2692155Y+2090282D01*
X+2681660Y+2087476D01*
X+2671165Y+2086503D01*
X+2670569Y+2086500D01*
X+2670569Y+2213500D02*
X+2670569Y+2086500D01*
X+2607069Y+2150000D02*
X+2734069Y+2150000D01*
X+2226069Y+2150000D02*
X+2225852Y+2155247D01*
X+2224087Y+2165742D01*
X+2220395Y+2176237D01*
X+2214367Y+2186732D01*
X+2205145Y+2197112D01*
X+2194650Y+2204800D01*
X+2184155Y+2209718D01*
X+2173660Y+2212524D01*
X+2163165Y+2213497D01*
X+2162569Y+2213500D01*
X+2099069Y+2150000D02*
X+2099286Y+2155247D01*
X+2101051Y+2165742D01*
X+2104743Y+2176237D01*
X+2110771Y+2186732D01*
X+2119993Y+2197112D01*
X+2130488Y+2204800D01*
X+2140983Y+2209718D01*
X+2151478Y+2212524D01*
X+2161973Y+2213497D01*
X+2162569Y+2213500D01*
X+2099069Y+2150000D02*
X+2099286Y+2144753D01*
X+2101051Y+2134258D01*
X+2104743Y+2123763D01*
X+2110771Y+2113268D01*
X+2119993Y+2102888D01*
X+2130488Y+2095200D01*
X+2140983Y+2090282D01*
X+2151478Y+2087476D01*
X+2161973Y+2086503D01*
X+2162569Y+2086500D01*
X+2226069Y+2150000D02*
X+2225852Y+2144753D01*
X+2224087Y+2134258D01*
X+2220395Y+2123763D01*
X+2214367Y+2113268D01*
X+2205145Y+2102888D01*
X+2194650Y+2095200D01*
X+2184155Y+2090282D01*
X+2173660Y+2087476D01*
X+2163165Y+2086503D01*
X+2162569Y+2086500D01*
X+2162569Y+2213500D02*
X+2162569Y+2086500D01*
X+2099069Y+2150000D02*
X+2226069Y+2150000D01*
X+4830869Y+5000000D02*
X+4830652Y+5005247D01*
X+4828887Y+5015742D01*
X+4825195Y+5026237D01*
X+4819167Y+5036732D01*
X+4809945Y+5047112D01*
X+4799450Y+5054800D01*
X+4788955Y+5059718D01*
X+4778460Y+5062524D01*
X+4767965Y+5063497D01*
X+4767369Y+5063500D01*
X+4703869Y+5000000D02*
X+4704086Y+5005247D01*
X+4705851Y+5015742D01*
X+4709543Y+5026237D01*
X+4715571Y+5036732D01*
X+4724793Y+5047112D01*
X+4735288Y+5054800D01*
X+4745783Y+5059718D01*
X+4756278Y+5062524D01*
X+4766773Y+5063497D01*
X+4767369Y+5063500D01*
X+4703869Y+5000000D02*
X+4704086Y+4994753D01*
X+4705851Y+4984258D01*
X+4709543Y+4973763D01*
X+4715571Y+4963268D01*
X+4724793Y+4952888D01*
X+4735288Y+4945200D01*
X+4745783Y+4940282D01*
X+4756278Y+4937476D01*
X+4766773Y+4936503D01*
X+4767369Y+4936500D01*
X+4830869Y+5000000D02*
X+4830652Y+4994753D01*
X+4828887Y+4984258D01*
X+4825195Y+4973763D01*
X+4819167Y+4963268D01*
X+4809945Y+4952888D01*
X+4799450Y+4945200D01*
X+4788955Y+4940282D01*
X+4778460Y+4937476D01*
X+4767965Y+4936503D01*
X+4767369Y+4936500D01*
X+4767369Y+5063500D02*
X+4767369Y+4936500D01*
X+4703869Y+5000000D02*
X+4830869Y+5000000D01*
X+5034069Y+5000000D02*
X+5033852Y+5005247D01*
X+5032087Y+5015742D01*
X+5028395Y+5026237D01*
X+5022367Y+5036732D01*
X+5013145Y+5047112D01*
X+5002650Y+5054800D01*
X+4992155Y+5059718D01*
X+4981660Y+5062524D01*
X+4971165Y+5063497D01*
X+4970569Y+5063500D01*
X+4907069Y+5000000D02*
X+4907286Y+5005247D01*
X+4909051Y+5015742D01*
X+4912743Y+5026237D01*
X+4918771Y+5036732D01*
X+4927993Y+5047112D01*
X+4938488Y+5054800D01*
X+4948983Y+5059718D01*
X+4959478Y+5062524D01*
X+4969973Y+5063497D01*
X+4970569Y+5063500D01*
X+4907069Y+5000000D02*
X+4907286Y+4994753D01*
X+4909051Y+4984258D01*
X+4912743Y+4973763D01*
X+4918771Y+4963268D01*
X+4927993Y+4952888D01*
X+4938488Y+4945200D01*
X+4948983Y+4940282D01*
X+4959478Y+4937476D01*
X+4969973Y+4936503D01*
X+4970569Y+4936500D01*
X+5034069Y+5000000D02*
X+5033852Y+4994753D01*
X+5032087Y+4984258D01*
X+5028395Y+4973763D01*
X+5022367Y+4963268D01*
X+5013145Y+4952888D01*
X+5002650Y+4945200D01*
X+4992155Y+4940282D01*
X+4981660Y+4937476D01*
X+4971165Y+4936503D01*
X+4970569Y+4936500D01*
X+4970569Y+5063500D02*
X+4970569Y+4936500D01*
X+4907069Y+5000000D02*
X+5034069Y+5000000D01*
X+5237269Y+5000000D02*
X+5237052Y+5005247D01*
X+5235287Y+5015742D01*
X+5231595Y+5026237D01*
X+5225567Y+5036732D01*
X+5216345Y+5047112D01*
X+5205850Y+5054800D01*
X+5195355Y+5059718D01*
X+5184860Y+5062524D01*
X+5174365Y+5063497D01*
X+5173769Y+5063500D01*
X+5110269Y+5000000D02*
X+5110486Y+5005247D01*
X+5112251Y+5015742D01*
X+5115943Y+5026237D01*
X+5121971Y+5036732D01*
X+5131193Y+5047112D01*
X+5141688Y+5054800D01*
X+5152183Y+5059718D01*
X+5162678Y+5062524D01*
X+5173173Y+5063497D01*
X+5173769Y+5063500D01*
X+5110269Y+5000000D02*
X+5110486Y+4994753D01*
X+5112251Y+4984258D01*
X+5115943Y+4973763D01*
X+5121971Y+4963268D01*
X+5131193Y+4952888D01*
X+5141688Y+4945200D01*
X+5152183Y+4940282D01*
X+5162678Y+4937476D01*
X+5173173Y+4936503D01*
X+5173769Y+4936500D01*
X+5237269Y+5000000D02*
X+5237052Y+4994753D01*
X+5235287Y+4984258D01*
X+5231595Y+4973763D01*
X+5225567Y+4963268D01*
X+5216345Y+4952888D01*
X+5205850Y+4945200D01*
X+5195355Y+4940282D01*
X+5184860Y+4937476D01*
X+5174365Y+4936503D01*
X+5173769Y+4936500D01*
X+5173769Y+5063500D02*
X+5173769Y+4936500D01*
X+5110269Y+5000000D02*
X+5237269Y+5000000D01*
X+5984069Y+3100000D02*
X+5983852Y+3105247D01*
X+5982087Y+3115742D01*
X+5978395Y+3126237D01*
X+5972367Y+3136732D01*
X+5963145Y+3147112D01*
X+5952650Y+3154800D01*
X+5942155Y+3159718D01*
X+5931660Y+3162524D01*
X+5921165Y+3163497D01*
X+5920569Y+3163500D01*
X+5857069Y+3100000D02*
X+5857286Y+3105247D01*
X+5859051Y+3115742D01*
X+5862743Y+3126237D01*
X+5868771Y+3136732D01*
X+5877993Y+3147112D01*
X+5888488Y+3154800D01*
X+5898983Y+3159718D01*
X+5909478Y+3162524D01*
X+5919973Y+3163497D01*
X+5920569Y+3163500D01*
X+5857069Y+3100000D02*
X+5857286Y+3094753D01*
X+5859051Y+3084258D01*
X+5862743Y+3073763D01*
X+5868771Y+3063268D01*
X+5877993Y+3052888D01*
X+5888488Y+3045200D01*
X+5898983Y+3040282D01*
X+5909478Y+3037476D01*
X+5919973Y+3036503D01*
X+5920569Y+3036500D01*
X+5984069Y+3100000D02*
X+5983852Y+3094753D01*
X+5982087Y+3084258D01*
X+5978395Y+3073763D01*
X+5972367Y+3063268D01*
X+5963145Y+3052888D01*
X+5952650Y+3045200D01*
X+5942155Y+3040282D01*
X+5931660Y+3037476D01*
X+5921165Y+3036503D01*
X+5920569Y+3036500D01*
X+5875668Y+3144901D02*
X+5965470Y+3055099D01*
X+5875668Y+3055099D02*
X+5965470Y+3144901D01*
X+5984069Y+2846000D02*
X+5983852Y+2851247D01*
X+5982087Y+2861742D01*
X+5978395Y+2872237D01*
X+5972367Y+2882732D01*
X+5963145Y+2893112D01*
X+5952650Y+2900800D01*
X+5942155Y+2905718D01*
X+5931660Y+2908524D01*
X+5921165Y+2909497D01*
X+5920569Y+2909500D01*
X+5857069Y+2846000D02*
X+5857286Y+2851247D01*
X+5859051Y+2861742D01*
X+5862743Y+2872237D01*
X+5868771Y+2882732D01*
X+5877993Y+2893112D01*
X+5888488Y+2900800D01*
X+5898983Y+2905718D01*
X+5909478Y+2908524D01*
X+5919973Y+2909497D01*
X+5920569Y+2909500D01*
X+5857069Y+2846000D02*
X+5857286Y+2840753D01*
X+5859051Y+2830258D01*
X+5862743Y+2819763D01*
X+5868771Y+2809268D01*
X+5877993Y+2798888D01*
X+5888488Y+2791200D01*
X+5898983Y+2786282D01*
X+5909478Y+2783476D01*
X+5919973Y+2782503D01*
X+5920569Y+2782500D01*
X+5984069Y+2846000D02*
X+5983852Y+2840753D01*
X+5982087Y+2830258D01*
X+5978395Y+2819763D01*
X+5972367Y+2809268D01*
X+5963145Y+2798888D01*
X+5952650Y+2791200D01*
X+5942155Y+2786282D01*
X+5931660Y+2783476D01*
X+5921165Y+2782503D01*
X+5920569Y+2782500D01*
X+5875668Y+2890901D02*
X+5965470Y+2801099D01*
X+5875668Y+2801099D02*
X+5965470Y+2890901D01*
X+5984069Y+3700000D02*
X+5983852Y+3705247D01*
X+5982087Y+3715742D01*
X+5978395Y+3726237D01*
X+5972367Y+3736732D01*
X+5963145Y+3747112D01*
X+5952650Y+3754800D01*
X+5942155Y+3759718D01*
X+5931660Y+3762524D01*
X+5921165Y+3763497D01*
X+5920569Y+3763500D01*
X+5857069Y+3700000D02*
X+5857286Y+3705247D01*
X+5859051Y+3715742D01*
X+5862743Y+3726237D01*
X+5868771Y+3736732D01*
X+5877993Y+3747112D01*
X+5888488Y+3754800D01*
X+5898983Y+3759718D01*
X+5909478Y+3762524D01*
X+5919973Y+3763497D01*
X+5920569Y+3763500D01*
X+5857069Y+3700000D02*
X+5857286Y+3694753D01*
X+5859051Y+3684258D01*
X+5862743Y+3673763D01*
X+5868771Y+3663268D01*
X+5877993Y+3652888D01*
X+5888488Y+3645200D01*
X+5898983Y+3640282D01*
X+5909478Y+3637476D01*
X+5919973Y+3636503D01*
X+5920569Y+3636500D01*
X+5984069Y+3700000D02*
X+5983852Y+3694753D01*
X+5982087Y+3684258D01*
X+5978395Y+3673763D01*
X+5972367Y+3663268D01*
X+5963145Y+3652888D01*
X+5952650Y+3645200D01*
X+5942155Y+3640282D01*
X+5931660Y+3637476D01*
X+5921165Y+3636503D01*
X+5920569Y+3636500D01*
X+5875668Y+3744901D02*
X+5965470Y+3655099D01*
X+5875668Y+3655099D02*
X+5965470Y+3744901D01*
X+5984069Y+3446000D02*
X+5983852Y+3451247D01*
X+5982087Y+3461742D01*
X+5978395Y+3472237D01*
X+5972367Y+3482732D01*
X+5963145Y+3493112D01*
X+5952650Y+3500800D01*
X+5942155Y+3505718D01*
X+5931660Y+3508524D01*
X+5921165Y+3509497D01*
X+5920569Y+3509500D01*
X+5857069Y+3446000D02*
X+5857286Y+3451247D01*
X+5859051Y+3461742D01*
X+5862743Y+3472237D01*
X+5868771Y+3482732D01*
X+5877993Y+3493112D01*
X+5888488Y+3500800D01*
X+5898983Y+3505718D01*
X+5909478Y+3508524D01*
X+5919973Y+3509497D01*
X+5920569Y+3509500D01*
X+5857069Y+3446000D02*
X+5857286Y+3440753D01*
X+5859051Y+3430258D01*
X+5862743Y+3419763D01*
X+5868771Y+3409268D01*
X+5877993Y+3398888D01*
X+5888488Y+3391200D01*
X+5898983Y+3386282D01*
X+5909478Y+3383476D01*
X+5919973Y+3382503D01*
X+5920569Y+3382500D01*
X+5984069Y+3446000D02*
X+5983852Y+3440753D01*
X+5982087Y+3430258D01*
X+5978395Y+3419763D01*
X+5972367Y+3409268D01*
X+5963145Y+3398888D01*
X+5952650Y+3391200D01*
X+5942155Y+3386282D01*
X+5931660Y+3383476D01*
X+5921165Y+3382503D01*
X+5920569Y+3382500D01*
X+5875668Y+3490901D02*
X+5965470Y+3401099D01*
X+5875668Y+3401099D02*
X+5965470Y+3490901D01*
X+5984069Y+4300000D02*
X+5983852Y+4305247D01*
X+5982087Y+4315742D01*
X+5978395Y+4326237D01*
X+5972367Y+4336732D01*
X+5963145Y+4347112D01*
X+5952650Y+4354800D01*
X+5942155Y+4359718D01*
X+5931660Y+4362524D01*
X+5921165Y+4363497D01*
X+5920569Y+4363500D01*
X+5857069Y+4300000D02*
X+5857286Y+4305247D01*
X+5859051Y+4315742D01*
X+5862743Y+4326237D01*
X+5868771Y+4336732D01*
X+5877993Y+4347112D01*
X+5888488Y+4354800D01*
X+5898983Y+4359718D01*
X+5909478Y+4362524D01*
X+5919973Y+4363497D01*
X+5920569Y+4363500D01*
X+5857069Y+4300000D02*
X+5857286Y+4294753D01*
X+5859051Y+4284258D01*
X+5862743Y+4273763D01*
X+5868771Y+4263268D01*
X+5877993Y+4252888D01*
X+5888488Y+4245200D01*
X+5898983Y+4240282D01*
X+5909478Y+4237476D01*
X+5919973Y+4236503D01*
X+5920569Y+4236500D01*
X+5984069Y+4300000D02*
X+5983852Y+4294753D01*
X+5982087Y+4284258D01*
X+5978395Y+4273763D01*
X+5972367Y+4263268D01*
X+5963145Y+4252888D01*
X+5952650Y+4245200D01*
X+5942155Y+4240282D01*
X+5931660Y+4237476D01*
X+5921165Y+4236503D01*
X+5920569Y+4236500D01*
X+5875668Y+4344901D02*
X+5965470Y+4255099D01*
X+5875668Y+4255099D02*
X+5965470Y+4344901D01*
X+5984069Y+4046000D02*
X+5983852Y+4051247D01*
X+5982087Y+4061742D01*
X+5978395Y+4072237D01*
X+5972367Y+4082732D01*
X+5963145Y+4093112D01*
X+5952650Y+4100800D01*
X+5942155Y+4105718D01*
X+5931660Y+4108524D01*
X+5921165Y+4109497D01*
X+5920569Y+4109500D01*
X+5857069Y+4046000D02*
X+5857286Y+4051247D01*
X+5859051Y+4061742D01*
X+5862743Y+4072237D01*
X+5868771Y+4082732D01*
X+5877993Y+4093112D01*
X+5888488Y+4100800D01*
X+5898983Y+4105718D01*
X+5909478Y+4108524D01*
X+5919973Y+4109497D01*
X+5920569Y+4109500D01*
X+5857069Y+4046000D02*
X+5857286Y+4040753D01*
X+5859051Y+4030258D01*
X+5862743Y+4019763D01*
X+5868771Y+4009268D01*
X+5877993Y+3998888D01*
X+5888488Y+3991200D01*
X+5898983Y+3986282D01*
X+5909478Y+3983476D01*
X+5919973Y+3982503D01*
X+5920569Y+3982500D01*
X+5984069Y+4046000D02*
X+5983852Y+4040753D01*
X+5982087Y+4030258D01*
X+5978395Y+4019763D01*
X+5972367Y+4009268D01*
X+5963145Y+3998888D01*
X+5952650Y+3991200D01*
X+5942155Y+3986282D01*
X+5931660Y+3983476D01*
X+5921165Y+3982503D01*
X+5920569Y+3982500D01*
X+5875668Y+4090901D02*
X+5965470Y+4001099D01*
X+5875668Y+4001099D02*
X+5965470Y+4090901D01*
X+5484069Y+1400000D02*
X+5483852Y+1405247D01*
X+5482087Y+1415742D01*
X+5478395Y+1426237D01*
X+5472367Y+1436732D01*
X+5463145Y+1447112D01*
X+5452650Y+1454800D01*
X+5442155Y+1459718D01*
X+5431660Y+1462524D01*
X+5421165Y+1463497D01*
X+5420569Y+1463500D01*
X+5357069Y+1400000D02*
X+5357286Y+1405247D01*
X+5359051Y+1415742D01*
X+5362743Y+1426237D01*
X+5368771Y+1436732D01*
X+5377993Y+1447112D01*
X+5388488Y+1454800D01*
X+5398983Y+1459718D01*
X+5409478Y+1462524D01*
X+5419973Y+1463497D01*
X+5420569Y+1463500D01*
X+5357069Y+1400000D02*
X+5357286Y+1394753D01*
X+5359051Y+1384258D01*
X+5362743Y+1373763D01*
X+5368771Y+1363268D01*
X+5377993Y+1352888D01*
X+5388488Y+1345200D01*
X+5398983Y+1340282D01*
X+5409478Y+1337476D01*
X+5419973Y+1336503D01*
X+5420569Y+1336500D01*
X+5484069Y+1400000D02*
X+5483852Y+1394753D01*
X+5482087Y+1384258D01*
X+5478395Y+1373763D01*
X+5472367Y+1363268D01*
X+5463145Y+1352888D01*
X+5452650Y+1345200D01*
X+5442155Y+1340282D01*
X+5431660Y+1337476D01*
X+5421165Y+1336503D01*
X+5420569Y+1336500D01*
X+5375668Y+1444901D02*
X+5465470Y+1355099D01*
X+5375668Y+1355099D02*
X+5465470Y+1444901D01*
X+5484069Y+1654000D02*
X+5483852Y+1659247D01*
X+5482087Y+1669742D01*
X+5478395Y+1680237D01*
X+5472367Y+1690732D01*
X+5463145Y+1701112D01*
X+5452650Y+1708800D01*
X+5442155Y+1713718D01*
X+5431660Y+1716524D01*
X+5421165Y+1717497D01*
X+5420569Y+1717500D01*
X+5357069Y+1654000D02*
X+5357286Y+1659247D01*
X+5359051Y+1669742D01*
X+5362743Y+1680237D01*
X+5368771Y+1690732D01*
X+5377993Y+1701112D01*
X+5388488Y+1708800D01*
X+5398983Y+1713718D01*
X+5409478Y+1716524D01*
X+5419973Y+1717497D01*
X+5420569Y+1717500D01*
X+5357069Y+1654000D02*
X+5357286Y+1648753D01*
X+5359051Y+1638258D01*
X+5362743Y+1627763D01*
X+5368771Y+1617268D01*
X+5377993Y+1606888D01*
X+5388488Y+1599200D01*
X+5398983Y+1594282D01*
X+5409478Y+1591476D01*
X+5419973Y+1590503D01*
X+5420569Y+1590500D01*
X+5484069Y+1654000D02*
X+5483852Y+1648753D01*
X+5482087Y+1638258D01*
X+5478395Y+1627763D01*
X+5472367Y+1617268D01*
X+5463145Y+1606888D01*
X+5452650Y+1599200D01*
X+5442155Y+1594282D01*
X+5431660Y+1591476D01*
X+5421165Y+1590503D01*
X+5420569Y+1590500D01*
X+5375668Y+1698901D02*
X+5465470Y+1609099D01*
X+5375668Y+1609099D02*
X+5465470Y+1698901D01*
X+5484069Y+1908000D02*
X+5483852Y+1913247D01*
X+5482087Y+1923742D01*
X+5478395Y+1934237D01*
X+5472367Y+1944732D01*
X+5463145Y+1955112D01*
X+5452650Y+1962800D01*
X+5442155Y+1967718D01*
X+5431660Y+1970524D01*
X+5421165Y+1971497D01*
X+5420569Y+1971500D01*
X+5357069Y+1908000D02*
X+5357286Y+1913247D01*
X+5359051Y+1923742D01*
X+5362743Y+1934237D01*
X+5368771Y+1944732D01*
X+5377993Y+1955112D01*
X+5388488Y+1962800D01*
X+5398983Y+1967718D01*
X+5409478Y+1970524D01*
X+5419973Y+1971497D01*
X+5420569Y+1971500D01*
X+5357069Y+1908000D02*
X+5357286Y+1902753D01*
X+5359051Y+1892258D01*
X+5362743Y+1881763D01*
X+5368771Y+1871268D01*
X+5377993Y+1860888D01*
X+5388488Y+1853200D01*
X+5398983Y+1848282D01*
X+5409478Y+1845476D01*
X+5419973Y+1844503D01*
X+5420569Y+1844500D01*
X+5484069Y+1908000D02*
X+5483852Y+1902753D01*
X+5482087Y+1892258D01*
X+5478395Y+1881763D01*
X+5472367Y+1871268D01*
X+5463145Y+1860888D01*
X+5452650Y+1853200D01*
X+5442155Y+1848282D01*
X+5431660Y+1845476D01*
X+5421165Y+1844503D01*
X+5420569Y+1844500D01*
X+5375668Y+1952901D02*
X+5465470Y+1863099D01*
X+5375668Y+1863099D02*
X+5465470Y+1952901D01*
X+5484069Y+2162000D02*
X+5483852Y+2167247D01*
X+5482087Y+2177742D01*
X+5478395Y+2188237D01*
X+5472367Y+2198732D01*
X+5463145Y+2209112D01*
X+5452650Y+2216800D01*
X+5442155Y+2221718D01*
X+5431660Y+2224524D01*
X+5421165Y+2225497D01*
X+5420569Y+2225500D01*
X+5357069Y+2162000D02*
X+5357286Y+2167247D01*
X+5359051Y+2177742D01*
X+5362743Y+2188237D01*
X+5368771Y+2198732D01*
X+5377993Y+2209112D01*
X+5388488Y+2216800D01*
X+5398983Y+2221718D01*
X+5409478Y+2224524D01*
X+5419973Y+2225497D01*
X+5420569Y+2225500D01*
X+5357069Y+2162000D02*
X+5357286Y+2156753D01*
X+5359051Y+2146258D01*
X+5362743Y+2135763D01*
X+5368771Y+2125268D01*
X+5377993Y+2114888D01*
X+5388488Y+2107200D01*
X+5398983Y+2102282D01*
X+5409478Y+2099476D01*
X+5419973Y+2098503D01*
X+5420569Y+2098500D01*
X+5484069Y+2162000D02*
X+5483852Y+2156753D01*
X+5482087Y+2146258D01*
X+5478395Y+2135763D01*
X+5472367Y+2125268D01*
X+5463145Y+2114888D01*
X+5452650Y+2107200D01*
X+5442155Y+2102282D01*
X+5431660Y+2099476D01*
X+5421165Y+2098503D01*
X+5420569Y+2098500D01*
X+5375668Y+2206901D02*
X+5465470Y+2117099D01*
X+5375668Y+2117099D02*
X+5465470Y+2206901D01*
X+5230069Y+2162000D02*
X+5229852Y+2167247D01*
X+5228087Y+2177742D01*
X+5224395Y+2188237D01*
X+5218367Y+2198732D01*
X+5209145Y+2209112D01*
X+5198650Y+2216800D01*
X+5188155Y+2221718D01*
X+5177660Y+2224524D01*
X+5167165Y+2225497D01*
X+5166569Y+2225500D01*
X+5103069Y+2162000D02*
X+5103286Y+2167247D01*
X+5105051Y+2177742D01*
X+5108743Y+2188237D01*
X+5114771Y+2198732D01*
X+5123993Y+2209112D01*
X+5134488Y+2216800D01*
X+5144983Y+2221718D01*
X+5155478Y+2224524D01*
X+5165973Y+2225497D01*
X+5166569Y+2225500D01*
X+5103069Y+2162000D02*
X+5103286Y+2156753D01*
X+5105051Y+2146258D01*
X+5108743Y+2135763D01*
X+5114771Y+2125268D01*
X+5123993Y+2114888D01*
X+5134488Y+2107200D01*
X+5144983Y+2102282D01*
X+5155478Y+2099476D01*
X+5165973Y+2098503D01*
X+5166569Y+2098500D01*
X+5230069Y+2162000D02*
X+5229852Y+2156753D01*
X+5228087Y+2146258D01*
X+5224395Y+2135763D01*
X+5218367Y+2125268D01*
X+5209145Y+2114888D01*
X+5198650Y+2107200D01*
X+5188155Y+2102282D01*
X+5177660Y+2099476D01*
X+5167165Y+2098503D01*
X+5166569Y+2098500D01*
X+5121668Y+2206901D02*
X+5211470Y+2117099D01*
X+5121668Y+2117099D02*
X+5211470Y+2206901D01*
X+5230069Y+1908000D02*
X+5229852Y+1913247D01*
X+5228087Y+1923742D01*
X+5224395Y+1934237D01*
X+5218367Y+1944732D01*
X+5209145Y+1955112D01*
X+5198650Y+1962800D01*
X+5188155Y+1967718D01*
X+5177660Y+1970524D01*
X+5167165Y+1971497D01*
X+5166569Y+1971500D01*
X+5103069Y+1908000D02*
X+5103286Y+1913247D01*
X+5105051Y+1923742D01*
X+5108743Y+1934237D01*
X+5114771Y+1944732D01*
X+5123993Y+1955112D01*
X+5134488Y+1962800D01*
X+5144983Y+1967718D01*
X+5155478Y+1970524D01*
X+5165973Y+1971497D01*
X+5166569Y+1971500D01*
X+5103069Y+1908000D02*
X+5103286Y+1902753D01*
X+5105051Y+1892258D01*
X+5108743Y+1881763D01*
X+5114771Y+1871268D01*
X+5123993Y+1860888D01*
X+5134488Y+1853200D01*
X+5144983Y+1848282D01*
X+5155478Y+1845476D01*
X+5165973Y+1844503D01*
X+5166569Y+1844500D01*
X+5230069Y+1908000D02*
X+5229852Y+1902753D01*
X+5228087Y+1892258D01*
X+5224395Y+1881763D01*
X+5218367Y+1871268D01*
X+5209145Y+1860888D01*
X+5198650Y+1853200D01*
X+5188155Y+1848282D01*
X+5177660Y+1845476D01*
X+5167165Y+1844503D01*
X+5166569Y+1844500D01*
X+5121668Y+1952901D02*
X+5211470Y+1863099D01*
X+5121668Y+1863099D02*
X+5211470Y+1952901D01*
X+5230069Y+1654000D02*
X+5229852Y+1659247D01*
X+5228087Y+1669742D01*
X+5224395Y+1680237D01*
X+5218367Y+1690732D01*
X+5209145Y+1701112D01*
X+5198650Y+1708800D01*
X+5188155Y+1713718D01*
X+5177660Y+1716524D01*
X+5167165Y+1717497D01*
X+5166569Y+1717500D01*
X+5103069Y+1654000D02*
X+5103286Y+1659247D01*
X+5105051Y+1669742D01*
X+5108743Y+1680237D01*
X+5114771Y+1690732D01*
X+5123993Y+1701112D01*
X+5134488Y+1708800D01*
X+5144983Y+1713718D01*
X+5155478Y+1716524D01*
X+5165973Y+1717497D01*
X+5166569Y+1717500D01*
X+5103069Y+1654000D02*
X+5103286Y+1648753D01*
X+5105051Y+1638258D01*
X+5108743Y+1627763D01*
X+5114771Y+1617268D01*
X+5123993Y+1606888D01*
X+5134488Y+1599200D01*
X+5144983Y+1594282D01*
X+5155478Y+1591476D01*
X+5165973Y+1590503D01*
X+5166569Y+1590500D01*
X+5230069Y+1654000D02*
X+5229852Y+1648753D01*
X+5228087Y+1638258D01*
X+5224395Y+1627763D01*
X+5218367Y+1617268D01*
X+5209145Y+1606888D01*
X+5198650Y+1599200D01*
X+5188155Y+1594282D01*
X+5177660Y+1591476D01*
X+5167165Y+1590503D01*
X+5166569Y+1590500D01*
X+5121668Y+1698901D02*
X+5211470Y+1609099D01*
X+5121668Y+1609099D02*
X+5211470Y+1698901D01*
X+5230069Y+1400000D02*
X+5229852Y+1405247D01*
X+5228087Y+1415742D01*
X+5224395Y+1426237D01*
X+5218367Y+1436732D01*
X+5209145Y+1447112D01*
X+5198650Y+1454800D01*
X+5188155Y+1459718D01*
X+5177660Y+1462524D01*
X+5167165Y+1463497D01*
X+5166569Y+1463500D01*
X+5103069Y+1400000D02*
X+5103286Y+1405247D01*
X+5105051Y+1415742D01*
X+5108743Y+1426237D01*
X+5114771Y+1436732D01*
X+5123993Y+1447112D01*
X+5134488Y+1454800D01*
X+5144983Y+1459718D01*
X+5155478Y+1462524D01*
X+5165973Y+1463497D01*
X+5166569Y+1463500D01*
X+5103069Y+1400000D02*
X+5103286Y+1394753D01*
X+5105051Y+1384258D01*
X+5108743Y+1373763D01*
X+5114771Y+1363268D01*
X+5123993Y+1352888D01*
X+5134488Y+1345200D01*
X+5144983Y+1340282D01*
X+5155478Y+1337476D01*
X+5165973Y+1336503D01*
X+5166569Y+1336500D01*
X+5230069Y+1400000D02*
X+5229852Y+1394753D01*
X+5228087Y+1384258D01*
X+5224395Y+1373763D01*
X+5218367Y+1363268D01*
X+5209145Y+1352888D01*
X+5198650Y+1345200D01*
X+5188155Y+1340282D01*
X+5177660Y+1337476D01*
X+5167165Y+1336503D01*
X+5166569Y+1336500D01*
X+5121668Y+1444901D02*
X+5211470Y+1355099D01*
X+5121668Y+1355099D02*
X+5211470Y+1444901D01*
X+2784069Y+4450000D02*
X+2783852Y+4455247D01*
X+2782087Y+4465742D01*
X+2778395Y+4476237D01*
X+2772367Y+4486732D01*
X+2763145Y+4497112D01*
X+2752650Y+4504800D01*
X+2742155Y+4509718D01*
X+2731660Y+4512524D01*
X+2721165Y+4513497D01*
X+2720569Y+4513500D01*
X+2657069Y+4450000D02*
X+2657286Y+4455247D01*
X+2659051Y+4465742D01*
X+2662743Y+4476237D01*
X+2668771Y+4486732D01*
X+2677993Y+4497112D01*
X+2688488Y+4504800D01*
X+2698983Y+4509718D01*
X+2709478Y+4512524D01*
X+2719973Y+4513497D01*
X+2720569Y+4513500D01*
X+2657069Y+4450000D02*
X+2657286Y+4444753D01*
X+2659051Y+4434258D01*
X+2662743Y+4423763D01*
X+2668771Y+4413268D01*
X+2677993Y+4402888D01*
X+2688488Y+4395200D01*
X+2698983Y+4390282D01*
X+2709478Y+4387476D01*
X+2719973Y+4386503D01*
X+2720569Y+4386500D01*
X+2784069Y+4450000D02*
X+2783852Y+4444753D01*
X+2782087Y+4434258D01*
X+2778395Y+4423763D01*
X+2772367Y+4413268D01*
X+2763145Y+4402888D01*
X+2752650Y+4395200D01*
X+2742155Y+4390282D01*
X+2731660Y+4387476D01*
X+2721165Y+4386503D01*
X+2720569Y+4386500D01*
X+2675668Y+4494901D02*
X+2765470Y+4405099D01*
X+2675668Y+4405099D02*
X+2765470Y+4494901D01*
X+2784069Y+4196000D02*
X+2783852Y+4201247D01*
X+2782087Y+4211742D01*
X+2778395Y+4222237D01*
X+2772367Y+4232732D01*
X+2763145Y+4243112D01*
X+2752650Y+4250800D01*
X+2742155Y+4255718D01*
X+2731660Y+4258524D01*
X+2721165Y+4259497D01*
X+2720569Y+4259500D01*
X+2657069Y+4196000D02*
X+2657286Y+4201247D01*
X+2659051Y+4211742D01*
X+2662743Y+4222237D01*
X+2668771Y+4232732D01*
X+2677993Y+4243112D01*
X+2688488Y+4250800D01*
X+2698983Y+4255718D01*
X+2709478Y+4258524D01*
X+2719973Y+4259497D01*
X+2720569Y+4259500D01*
X+2657069Y+4196000D02*
X+2657286Y+4190753D01*
X+2659051Y+4180258D01*
X+2662743Y+4169763D01*
X+2668771Y+4159268D01*
X+2677993Y+4148888D01*
X+2688488Y+4141200D01*
X+2698983Y+4136282D01*
X+2709478Y+4133476D01*
X+2719973Y+4132503D01*
X+2720569Y+4132500D01*
X+2784069Y+4196000D02*
X+2783852Y+4190753D01*
X+2782087Y+4180258D01*
X+2778395Y+4169763D01*
X+2772367Y+4159268D01*
X+2763145Y+4148888D01*
X+2752650Y+4141200D01*
X+2742155Y+4136282D01*
X+2731660Y+4133476D01*
X+2721165Y+4132503D01*
X+2720569Y+4132500D01*
X+2675668Y+4240901D02*
X+2765470Y+4151099D01*
X+2675668Y+4151099D02*
X+2765470Y+4240901D01*
X+2784069Y+3942000D02*
X+2783852Y+3947247D01*
X+2782087Y+3957742D01*
X+2778395Y+3968237D01*
X+2772367Y+3978732D01*
X+2763145Y+3989112D01*
X+2752650Y+3996800D01*
X+2742155Y+4001718D01*
X+2731660Y+4004524D01*
X+2721165Y+4005497D01*
X+2720569Y+4005500D01*
X+2657069Y+3942000D02*
X+2657286Y+3947247D01*
X+2659051Y+3957742D01*
X+2662743Y+3968237D01*
X+2668771Y+3978732D01*
X+2677993Y+3989112D01*
X+2688488Y+3996800D01*
X+2698983Y+4001718D01*
X+2709478Y+4004524D01*
X+2719973Y+4005497D01*
X+2720569Y+4005500D01*
X+2657069Y+3942000D02*
X+2657286Y+3936753D01*
X+2659051Y+3926258D01*
X+2662743Y+3915763D01*
X+2668771Y+3905268D01*
X+2677993Y+3894888D01*
X+2688488Y+3887200D01*
X+2698983Y+3882282D01*
X+2709478Y+3879476D01*
X+2719973Y+3878503D01*
X+2720569Y+3878500D01*
X+2784069Y+3942000D02*
X+2783852Y+3936753D01*
X+2782087Y+3926258D01*
X+2778395Y+3915763D01*
X+2772367Y+3905268D01*
X+2763145Y+3894888D01*
X+2752650Y+3887200D01*
X+2742155Y+3882282D01*
X+2731660Y+3879476D01*
X+2721165Y+3878503D01*
X+2720569Y+3878500D01*
X+2675668Y+3986901D02*
X+2765470Y+3897099D01*
X+2675668Y+3897099D02*
X+2765470Y+3986901D01*
X+3296069Y+1550000D02*
X+3295852Y+1555247D01*
X+3294087Y+1565742D01*
X+3290395Y+1576237D01*
X+3284367Y+1586732D01*
X+3275145Y+1597112D01*
X+3264650Y+1604800D01*
X+3254155Y+1609718D01*
X+3243660Y+1612524D01*
X+3233165Y+1613497D01*
X+3232569Y+1613500D01*
X+3169069Y+1550000D02*
X+3169286Y+1555247D01*
X+3171051Y+1565742D01*
X+3174743Y+1576237D01*
X+3180771Y+1586732D01*
X+3189993Y+1597112D01*
X+3200488Y+1604800D01*
X+3210983Y+1609718D01*
X+3221478Y+1612524D01*
X+3231973Y+1613497D01*
X+3232569Y+1613500D01*
X+3169069Y+1550000D02*
X+3169286Y+1544753D01*
X+3171051Y+1534258D01*
X+3174743Y+1523763D01*
X+3180771Y+1513268D01*
X+3189993Y+1502888D01*
X+3200488Y+1495200D01*
X+3210983Y+1490282D01*
X+3221478Y+1487476D01*
X+3231973Y+1486503D01*
X+3232569Y+1486500D01*
X+3296069Y+1550000D02*
X+3295852Y+1544753D01*
X+3294087Y+1534258D01*
X+3290395Y+1523763D01*
X+3284367Y+1513268D01*
X+3275145Y+1502888D01*
X+3264650Y+1495200D01*
X+3254155Y+1490282D01*
X+3243660Y+1487476D01*
X+3233165Y+1486503D01*
X+3232569Y+1486500D01*
X+3187668Y+1594901D02*
X+3277470Y+1505099D01*
X+3187668Y+1505099D02*
X+3277470Y+1594901D01*
X+3042069Y+1550000D02*
X+3041852Y+1555247D01*
X+3040087Y+1565742D01*
X+3036395Y+1576237D01*
X+3030367Y+1586732D01*
X+3021145Y+1597112D01*
X+3010650Y+1604800D01*
X+3000155Y+1609718D01*
X+2989660Y+1612524D01*
X+2979165Y+1613497D01*
X+2978569Y+1613500D01*
X+2915069Y+1550000D02*
X+2915286Y+1555247D01*
X+2917051Y+1565742D01*
X+2920743Y+1576237D01*
X+2926771Y+1586732D01*
X+2935993Y+1597112D01*
X+2946488Y+1604800D01*
X+2956983Y+1609718D01*
X+2967478Y+1612524D01*
X+2977973Y+1613497D01*
X+2978569Y+1613500D01*
X+2915069Y+1550000D02*
X+2915286Y+1544753D01*
X+2917051Y+1534258D01*
X+2920743Y+1523763D01*
X+2926771Y+1513268D01*
X+2935993Y+1502888D01*
X+2946488Y+1495200D01*
X+2956983Y+1490282D01*
X+2967478Y+1487476D01*
X+2977973Y+1486503D01*
X+2978569Y+1486500D01*
X+3042069Y+1550000D02*
X+3041852Y+1544753D01*
X+3040087Y+1534258D01*
X+3036395Y+1523763D01*
X+3030367Y+1513268D01*
X+3021145Y+1502888D01*
X+3010650Y+1495200D01*
X+3000155Y+1490282D01*
X+2989660Y+1487476D01*
X+2979165Y+1486503D01*
X+2978569Y+1486500D01*
X+2933668Y+1594901D02*
X+3023470Y+1505099D01*
X+2933668Y+1505099D02*
X+3023470Y+1594901D01*
X+2788069Y+1550000D02*
X+2787852Y+1555247D01*
X+2786087Y+1565742D01*
X+2782395Y+1576237D01*
X+2776367Y+1586732D01*
X+2767145Y+1597112D01*
X+2756650Y+1604800D01*
X+2746155Y+1609718D01*
X+2735660Y+1612524D01*
X+2725165Y+1613497D01*
X+2724569Y+1613500D01*
X+2661069Y+1550000D02*
X+2661286Y+1555247D01*
X+2663051Y+1565742D01*
X+2666743Y+1576237D01*
X+2672771Y+1586732D01*
X+2681993Y+1597112D01*
X+2692488Y+1604800D01*
X+2702983Y+1609718D01*
X+2713478Y+1612524D01*
X+2723973Y+1613497D01*
X+2724569Y+1613500D01*
X+2661069Y+1550000D02*
X+2661286Y+1544753D01*
X+2663051Y+1534258D01*
X+2666743Y+1523763D01*
X+2672771Y+1513268D01*
X+2681993Y+1502888D01*
X+2692488Y+1495200D01*
X+2702983Y+1490282D01*
X+2713478Y+1487476D01*
X+2723973Y+1486503D01*
X+2724569Y+1486500D01*
X+2788069Y+1550000D02*
X+2787852Y+1544753D01*
X+2786087Y+1534258D01*
X+2782395Y+1523763D01*
X+2776367Y+1513268D01*
X+2767145Y+1502888D01*
X+2756650Y+1495200D01*
X+2746155Y+1490282D01*
X+2735660Y+1487476D01*
X+2725165Y+1486503D01*
X+2724569Y+1486500D01*
X+2679668Y+1594901D02*
X+2769470Y+1505099D01*
X+2679668Y+1505099D02*
X+2769470Y+1594901D01*
X+2534069Y+1550000D02*
X+2533852Y+1555247D01*
X+2532087Y+1565742D01*
X+2528395Y+1576237D01*
X+2522367Y+1586732D01*
X+2513145Y+1597112D01*
X+2502650Y+1604800D01*
X+2492155Y+1609718D01*
X+2481660Y+1612524D01*
X+2471165Y+1613497D01*
X+2470569Y+1613500D01*
X+2407069Y+1550000D02*
X+2407286Y+1555247D01*
X+2409051Y+1565742D01*
X+2412743Y+1576237D01*
X+2418771Y+1586732D01*
X+2427993Y+1597112D01*
X+2438488Y+1604800D01*
X+2448983Y+1609718D01*
X+2459478Y+1612524D01*
X+2469973Y+1613497D01*
X+2470569Y+1613500D01*
X+2407069Y+1550000D02*
X+2407286Y+1544753D01*
X+2409051Y+1534258D01*
X+2412743Y+1523763D01*
X+2418771Y+1513268D01*
X+2427993Y+1502888D01*
X+2438488Y+1495200D01*
X+2448983Y+1490282D01*
X+2459478Y+1487476D01*
X+2469973Y+1486503D01*
X+2470569Y+1486500D01*
X+2534069Y+1550000D02*
X+2533852Y+1544753D01*
X+2532087Y+1534258D01*
X+2528395Y+1523763D01*
X+2522367Y+1513268D01*
X+2513145Y+1502888D01*
X+2502650Y+1495200D01*
X+2492155Y+1490282D01*
X+2481660Y+1487476D01*
X+2471165Y+1486503D01*
X+2470569Y+1486500D01*
X+2425668Y+1594901D02*
X+2515470Y+1505099D01*
X+2425668Y+1505099D02*
X+2515470Y+1594901D01*
X+4784069Y+950000D02*
X+4783852Y+955247D01*
X+4782087Y+965742D01*
X+4778395Y+976237D01*
X+4772367Y+986732D01*
X+4763145Y+997112D01*
X+4752650Y+1004800D01*
X+4742155Y+1009718D01*
X+4731660Y+1012524D01*
X+4721165Y+1013497D01*
X+4720569Y+1013500D01*
X+4657069Y+950000D02*
X+4657286Y+955247D01*
X+4659051Y+965742D01*
X+4662743Y+976237D01*
X+4668771Y+986732D01*
X+4677993Y+997112D01*
X+4688488Y+1004800D01*
X+4698983Y+1009718D01*
X+4709478Y+1012524D01*
X+4719973Y+1013497D01*
X+4720569Y+1013500D01*
X+4657069Y+950000D02*
X+4657286Y+944753D01*
X+4659051Y+934258D01*
X+4662743Y+923763D01*
X+4668771Y+913268D01*
X+4677993Y+902888D01*
X+4688488Y+895200D01*
X+4698983Y+890282D01*
X+4709478Y+887476D01*
X+4719973Y+886503D01*
X+4720569Y+886500D01*
X+4784069Y+950000D02*
X+4783852Y+944753D01*
X+4782087Y+934258D01*
X+4778395Y+923763D01*
X+4772367Y+913268D01*
X+4763145Y+902888D01*
X+4752650Y+895200D01*
X+4742155Y+890282D01*
X+4731660Y+887476D01*
X+4721165Y+886503D01*
X+4720569Y+886500D01*
X+4675668Y+994901D02*
X+4765470Y+905099D01*
X+4675668Y+905099D02*
X+4765470Y+994901D01*
X+4530069Y+950000D02*
X+4529852Y+955247D01*
X+4528087Y+965742D01*
X+4524395Y+976237D01*
X+4518367Y+986732D01*
X+4509145Y+997112D01*
X+4498650Y+1004800D01*
X+4488155Y+1009718D01*
X+4477660Y+1012524D01*
X+4467165Y+1013497D01*
X+4466569Y+1013500D01*
X+4403069Y+950000D02*
X+4403286Y+955247D01*
X+4405051Y+965742D01*
X+4408743Y+976237D01*
X+4414771Y+986732D01*
X+4423993Y+997112D01*
X+4434488Y+1004800D01*
X+4444983Y+1009718D01*
X+4455478Y+1012524D01*
X+4465973Y+1013497D01*
X+4466569Y+1013500D01*
X+4403069Y+950000D02*
X+4403286Y+944753D01*
X+4405051Y+934258D01*
X+4408743Y+923763D01*
X+4414771Y+913268D01*
X+4423993Y+902888D01*
X+4434488Y+895200D01*
X+4444983Y+890282D01*
X+4455478Y+887476D01*
X+4465973Y+886503D01*
X+4466569Y+886500D01*
X+4530069Y+950000D02*
X+4529852Y+944753D01*
X+4528087Y+934258D01*
X+4524395Y+923763D01*
X+4518367Y+913268D01*
X+4509145Y+902888D01*
X+4498650Y+895200D01*
X+4488155Y+890282D01*
X+4477660Y+887476D01*
X+4467165Y+886503D01*
X+4466569Y+886500D01*
X+4421668Y+994901D02*
X+4511470Y+905099D01*
X+4421668Y+905099D02*
X+4511470Y+994901D01*
X+4276069Y+950000D02*
X+4275852Y+955247D01*
X+4274087Y+965742D01*
X+4270395Y+976237D01*
X+4264367Y+986732D01*
X+4255145Y+997112D01*
X+4244650Y+1004800D01*
X+4234155Y+1009718D01*
X+4223660Y+1012524D01*
X+4213165Y+1013497D01*
X+4212569Y+1013500D01*
X+4149069Y+950000D02*
X+4149286Y+955247D01*
X+4151051Y+965742D01*
X+4154743Y+976237D01*
X+4160771Y+986732D01*
X+4169993Y+997112D01*
X+4180488Y+1004800D01*
X+4190983Y+1009718D01*
X+4201478Y+1012524D01*
X+4211973Y+1013497D01*
X+4212569Y+1013500D01*
X+4149069Y+950000D02*
X+4149286Y+944753D01*
X+4151051Y+934258D01*
X+4154743Y+923763D01*
X+4160771Y+913268D01*
X+4169993Y+902888D01*
X+4180488Y+895200D01*
X+4190983Y+890282D01*
X+4201478Y+887476D01*
X+4211973Y+886503D01*
X+4212569Y+886500D01*
X+4276069Y+950000D02*
X+4275852Y+944753D01*
X+4274087Y+934258D01*
X+4270395Y+923763D01*
X+4264367Y+913268D01*
X+4255145Y+902888D01*
X+4244650Y+895200D01*
X+4234155Y+890282D01*
X+4223660Y+887476D01*
X+4213165Y+886503D01*
X+4212569Y+886500D01*
X+4167668Y+994901D02*
X+4257470Y+905099D01*
X+4167668Y+905099D02*
X+4257470Y+994901D01*
X+484069Y+5150000D02*
X+483852Y+5155247D01*
X+482087Y+5165742D01*
X+478395Y+5176237D01*
X+472367Y+5186732D01*
X+463145Y+5197112D01*
X+452650Y+5204800D01*
X+442155Y+5209718D01*
X+431660Y+5212524D01*
X+421165Y+5213497D01*
X+420569Y+5213500D01*
X+357069Y+5150000D02*
X+357286Y+5155247D01*
X+359051Y+5165742D01*
X+362743Y+5176237D01*
X+368771Y+5186732D01*
X+377993Y+5197112D01*
X+388488Y+5204800D01*
X+398983Y+5209718D01*
X+409478Y+5212524D01*
X+419973Y+5213497D01*
X+420569Y+5213500D01*
X+357069Y+5150000D02*
X+357286Y+5144753D01*
X+359051Y+5134258D01*
X+362743Y+5123763D01*
X+368771Y+5113268D01*
X+377993Y+5102888D01*
X+388488Y+5095200D01*
X+398983Y+5090282D01*
X+409478Y+5087476D01*
X+419973Y+5086503D01*
X+420569Y+5086500D01*
X+484069Y+5150000D02*
X+483852Y+5144753D01*
X+482087Y+5134258D01*
X+478395Y+5123763D01*
X+472367Y+5113268D01*
X+463145Y+5102888D01*
X+452650Y+5095200D01*
X+442155Y+5090282D01*
X+431660Y+5087476D01*
X+421165Y+5086503D01*
X+420569Y+5086500D01*
X+420569Y+5213500D02*
X+420569Y+5086500D01*
X+357069Y+5150000D02*
X+484069Y+5150000D01*
X+483852Y+5155247D01*
X+482087Y+5165742D01*
X+478395Y+5176237D01*
X+472367Y+5186732D01*
X+463145Y+5197112D01*
X+452650Y+5204800D01*
X+442155Y+5209718D01*
X+431660Y+5212524D01*
X+421165Y+5213497D01*
X+420569Y+5213500D01*
X+357069Y+5150000D02*
X+357286Y+5155247D01*
X+359051Y+5165742D01*
X+362743Y+5176237D01*
X+368771Y+5186732D01*
X+377993Y+5197112D01*
X+388488Y+5204800D01*
X+398983Y+5209718D01*
X+409478Y+5212524D01*
X+419973Y+5213497D01*
X+420569Y+5213500D01*
X+357069Y+5150000D02*
X+357286Y+5144753D01*
X+359051Y+5134258D01*
X+362743Y+5123763D01*
X+368771Y+5113268D01*
X+377993Y+5102888D01*
X+388488Y+5095200D01*
X+398983Y+5090282D01*
X+409478Y+5087476D01*
X+419973Y+5086503D01*
X+420569Y+5086500D01*
X+484069Y+5150000D02*
X+483852Y+5144753D01*
X+482087Y+5134258D01*
X+478395Y+5123763D01*
X+472367Y+5113268D01*
X+463145Y+5102888D01*
X+452650Y+5095200D01*
X+442155Y+5090282D01*
X+431660Y+5087476D01*
X+421165Y+5086503D01*
X+420569Y+5086500D01*
X+375668Y+5194901D02*
X+465470Y+5105099D01*
X+375668Y+5105099D02*
X+465470Y+5194901D01*
X+6284069Y+5150000D02*
X+6283852Y+5155247D01*
X+6282087Y+5165742D01*
X+6278395Y+5176237D01*
X+6272367Y+5186732D01*
X+6263145Y+5197112D01*
X+6252650Y+5204800D01*
X+6242155Y+5209718D01*
X+6231660Y+5212524D01*
X+6221165Y+5213497D01*
X+6220569Y+5213500D01*
X+6157069Y+5150000D02*
X+6157286Y+5155247D01*
X+6159051Y+5165742D01*
X+6162743Y+5176237D01*
X+6168771Y+5186732D01*
X+6177993Y+5197112D01*
X+6188488Y+5204800D01*
X+6198983Y+5209718D01*
X+6209478Y+5212524D01*
X+6219973Y+5213497D01*
X+6220569Y+5213500D01*
X+6157069Y+5150000D02*
X+6157286Y+5144753D01*
X+6159051Y+5134258D01*
X+6162743Y+5123763D01*
X+6168771Y+5113268D01*
X+6177993Y+5102888D01*
X+6188488Y+5095200D01*
X+6198983Y+5090282D01*
X+6209478Y+5087476D01*
X+6219973Y+5086503D01*
X+6220569Y+5086500D01*
X+6284069Y+5150000D02*
X+6283852Y+5144753D01*
X+6282087Y+5134258D01*
X+6278395Y+5123763D01*
X+6272367Y+5113268D01*
X+6263145Y+5102888D01*
X+6252650Y+5095200D01*
X+6242155Y+5090282D01*
X+6231660Y+5087476D01*
X+6221165Y+5086503D01*
X+6220569Y+5086500D01*
X+6220569Y+5213500D02*
X+6220569Y+5086500D01*
X+6157069Y+5150000D02*
X+6284069Y+5150000D01*
X+6283852Y+5155247D01*
X+6282087Y+5165742D01*
X+6278395Y+5176237D01*
X+6272367Y+5186732D01*
X+6263145Y+5197112D01*
X+6252650Y+5204800D01*
X+6242155Y+5209718D01*
X+6231660Y+5212524D01*
X+6221165Y+5213497D01*
X+6220569Y+5213500D01*
X+6157069Y+5150000D02*
X+6157286Y+5155247D01*
X+6159051Y+5165742D01*
X+6162743Y+5176237D01*
X+6168771Y+5186732D01*
X+6177993Y+5197112D01*
X+6188488Y+5204800D01*
X+6198983Y+5209718D01*
X+6209478Y+5212524D01*
X+6219973Y+5213497D01*
X+6220569Y+5213500D01*
X+6157069Y+5150000D02*
X+6157286Y+5144753D01*
X+6159051Y+5134258D01*
X+6162743Y+5123763D01*
X+6168771Y+5113268D01*
X+6177993Y+5102888D01*
X+6188488Y+5095200D01*
X+6198983Y+5090282D01*
X+6209478Y+5087476D01*
X+6219973Y+5086503D01*
X+6220569Y+5086500D01*
X+6284069Y+5150000D02*
X+6283852Y+5144753D01*
X+6282087Y+5134258D01*
X+6278395Y+5123763D01*
X+6272367Y+5113268D01*
X+6263145Y+5102888D01*
X+6252650Y+5095200D01*
X+6242155Y+5090282D01*
X+6231660Y+5087476D01*
X+6221165Y+5086503D01*
X+6220569Y+5086500D01*
X+6175668Y+5194901D02*
X+6265470Y+5105099D01*
X+6175668Y+5105099D02*
X+6265470Y+5194901D01*
X+6334069Y+350000D02*
X+6333852Y+355247D01*
X+6332087Y+365742D01*
X+6328395Y+376237D01*
X+6322367Y+386732D01*
X+6313145Y+397112D01*
X+6302650Y+404800D01*
X+6292155Y+409718D01*
X+6281660Y+412524D01*
X+6271165Y+413497D01*
X+6270569Y+413500D01*
X+6207069Y+350000D02*
X+6207286Y+355247D01*
X+6209051Y+365742D01*
X+6212743Y+376237D01*
X+6218771Y+386732D01*
X+6227993Y+397112D01*
X+6238488Y+404800D01*
X+6248983Y+409718D01*
X+6259478Y+412524D01*
X+6269973Y+413497D01*
X+6270569Y+413500D01*
X+6207069Y+350000D02*
X+6207286Y+344753D01*
X+6209051Y+334258D01*
X+6212743Y+323763D01*
X+6218771Y+313268D01*
X+6227993Y+302888D01*
X+6238488Y+295200D01*
X+6248983Y+290282D01*
X+6259478Y+287476D01*
X+6269973Y+286503D01*
X+6270569Y+286500D01*
X+6334069Y+350000D02*
X+6333852Y+344753D01*
X+6332087Y+334258D01*
X+6328395Y+323763D01*
X+6322367Y+313268D01*
X+6313145Y+302888D01*
X+6302650Y+295200D01*
X+6292155Y+290282D01*
X+6281660Y+287476D01*
X+6271165Y+286503D01*
X+6270569Y+286500D01*
X+6270569Y+413500D02*
X+6270569Y+286500D01*
X+6207069Y+350000D02*
X+6334069Y+350000D01*
X+6333852Y+355247D01*
X+6332087Y+365742D01*
X+6328395Y+376237D01*
X+6322367Y+386732D01*
X+6313145Y+397112D01*
X+6302650Y+404800D01*
X+6292155Y+409718D01*
X+6281660Y+412524D01*
X+6271165Y+413497D01*
X+6270569Y+413500D01*
X+6207069Y+350000D02*
X+6207286Y+355247D01*
X+6209051Y+365742D01*
X+6212743Y+376237D01*
X+6218771Y+386732D01*
X+6227993Y+397112D01*
X+6238488Y+404800D01*
X+6248983Y+409718D01*
X+6259478Y+412524D01*
X+6269973Y+413497D01*
X+6270569Y+413500D01*
X+6207069Y+350000D02*
X+6207286Y+344753D01*
X+6209051Y+334258D01*
X+6212743Y+323763D01*
X+6218771Y+313268D01*
X+6227993Y+302888D01*
X+6238488Y+295200D01*
X+6248983Y+290282D01*
X+6259478Y+287476D01*
X+6269973Y+286503D01*
X+6270569Y+286500D01*
X+6334069Y+350000D02*
X+6333852Y+344753D01*
X+6332087Y+334258D01*
X+6328395Y+323763D01*
X+6322367Y+313268D01*
X+6313145Y+302888D01*
X+6302650Y+295200D01*
X+6292155Y+290282D01*
X+6281660Y+287476D01*
X+6271165Y+286503D01*
X+6270569Y+286500D01*
X+6225668Y+394901D02*
X+6315470Y+305099D01*
X+6225668Y+305099D02*
X+6315470Y+394901D01*
X+434069Y+350000D02*
X+433852Y+355247D01*
X+432087Y+365742D01*
X+428395Y+376237D01*
X+422367Y+386732D01*
X+413145Y+397112D01*
X+402650Y+404800D01*
X+392155Y+409718D01*
X+381660Y+412524D01*
X+371165Y+413497D01*
X+370569Y+413500D01*
X+307069Y+350000D02*
X+307286Y+355247D01*
X+309051Y+365742D01*
X+312743Y+376237D01*
X+318771Y+386732D01*
X+327993Y+397112D01*
X+338488Y+404800D01*
X+348983Y+409718D01*
X+359478Y+412524D01*
X+369973Y+413497D01*
X+370569Y+413500D01*
X+307069Y+350000D02*
X+307286Y+344753D01*
X+309051Y+334258D01*
X+312743Y+323763D01*
X+318771Y+313268D01*
X+327993Y+302888D01*
X+338488Y+295200D01*
X+348983Y+290282D01*
X+359478Y+287476D01*
X+369973Y+286503D01*
X+370569Y+286500D01*
X+434069Y+350000D02*
X+433852Y+344753D01*
X+432087Y+334258D01*
X+428395Y+323763D01*
X+422367Y+313268D01*
X+413145Y+302888D01*
X+402650Y+295200D01*
X+392155Y+290282D01*
X+381660Y+287476D01*
X+371165Y+286503D01*
X+370569Y+286500D01*
X+370569Y+413500D02*
X+370569Y+286500D01*
X+307069Y+350000D02*
X+434069Y+350000D01*
X+433852Y+355247D01*
X+432087Y+365742D01*
X+428395Y+376237D01*
X+422367Y+386732D01*
X+413145Y+397112D01*
X+402650Y+404800D01*
X+392155Y+409718D01*
X+381660Y+412524D01*
X+371165Y+413497D01*
X+370569Y+413500D01*
X+307069Y+350000D02*
X+307286Y+355247D01*
X+309051Y+365742D01*
X+312743Y+376237D01*
X+318771Y+386732D01*
X+327993Y+397112D01*
X+338488Y+404800D01*
X+348983Y+409718D01*
X+359478Y+412524D01*
X+369973Y+413497D01*
X+370569Y+413500D01*
X+307069Y+350000D02*
X+307286Y+344753D01*
X+309051Y+334258D01*
X+312743Y+323763D01*
X+318771Y+313268D01*
X+327993Y+302888D01*
X+338488Y+295200D01*
X+348983Y+290282D01*
X+359478Y+287476D01*
X+369973Y+286503D01*
X+370569Y+286500D01*
X+434069Y+350000D02*
X+433852Y+344753D01*
X+432087Y+334258D01*
X+428395Y+323763D01*
X+422367Y+313268D01*
X+413145Y+302888D01*
X+402650Y+295200D01*
X+392155Y+290282D01*
X+381660Y+287476D01*
X+371165Y+286503D01*
X+370569Y+286500D01*
X+325668Y+394901D02*
X+415470Y+305099D01*
X+325668Y+305099D02*
X+415470Y+394901D01*
X+2763500Y+5250000D02*
X+2763283Y+5255247D01*
X+2761518Y+5265742D01*
X+2757826Y+5276237D01*
X+2751798Y+5286732D01*
X+2742576Y+5297112D01*
X+2732081Y+5304800D01*
X+2721586Y+5309718D01*
X+2711091Y+5312524D01*
X+2700596Y+5313497D01*
X+2700000Y+5313500D01*
X+2636500Y+5250000D02*
X+2636717Y+5255247D01*
X+2638482Y+5265742D01*
X+2642174Y+5276237D01*
X+2648202Y+5286732D01*
X+2657424Y+5297112D01*
X+2667919Y+5304800D01*
X+2678414Y+5309718D01*
X+2688909Y+5312524D01*
X+2699404Y+5313497D01*
X+2700000Y+5313500D01*
X+2636500Y+5250000D02*
X+2636717Y+5244753D01*
X+2638482Y+5234258D01*
X+2642174Y+5223763D01*
X+2648202Y+5213268D01*
X+2657424Y+5202888D01*
X+2667919Y+5195200D01*
X+2678414Y+5190282D01*
X+2688909Y+5187476D01*
X+2699404Y+5186503D01*
X+2700000Y+5186500D01*
X+2763500Y+5250000D02*
X+2763283Y+5244753D01*
X+2761518Y+5234258D01*
X+2757826Y+5223763D01*
X+2751798Y+5213268D01*
X+2742576Y+5202888D01*
X+2732081Y+5195200D01*
X+2721586Y+5190282D01*
X+2711091Y+5187476D01*
X+2700596Y+5186503D01*
X+2700000Y+5186500D01*
X+2655099Y+5294901D02*
X+2744901Y+5205099D01*
X+2655099Y+5205099D02*
X+2744901Y+5294901D01*
X+3463500Y+5250000D02*
X+3463283Y+5255247D01*
X+3461518Y+5265742D01*
X+3457826Y+5276237D01*
X+3451798Y+5286732D01*
X+3442576Y+5297112D01*
X+3432081Y+5304800D01*
X+3421586Y+5309718D01*
X+3411091Y+5312524D01*
X+3400596Y+5313497D01*
X+3400000Y+5313500D01*
X+3336500Y+5250000D02*
X+3336717Y+5255247D01*
X+3338482Y+5265742D01*
X+3342174Y+5276237D01*
X+3348202Y+5286732D01*
X+3357424Y+5297112D01*
X+3367919Y+5304800D01*
X+3378414Y+5309718D01*
X+3388909Y+5312524D01*
X+3399404Y+5313497D01*
X+3400000Y+5313500D01*
X+3336500Y+5250000D02*
X+3336717Y+5244753D01*
X+3338482Y+5234258D01*
X+3342174Y+5223763D01*
X+3348202Y+5213268D01*
X+3357424Y+5202888D01*
X+3367919Y+5195200D01*
X+3378414Y+5190282D01*
X+3388909Y+5187476D01*
X+3399404Y+5186503D01*
X+3400000Y+5186500D01*
X+3463500Y+5250000D02*
X+3463283Y+5244753D01*
X+3461518Y+5234258D01*
X+3457826Y+5223763D01*
X+3451798Y+5213268D01*
X+3442576Y+5202888D01*
X+3432081Y+5195200D01*
X+3421586Y+5190282D01*
X+3411091Y+5187476D01*
X+3400596Y+5186503D01*
X+3400000Y+5186500D01*
X+3355099Y+5294901D02*
X+3444901Y+5205099D01*
X+3355099Y+5205099D02*
X+3444901Y+5294901D01*
X+2763500Y+4800000D02*
X+2763283Y+4805247D01*
X+2761518Y+4815742D01*
X+2757826Y+4826237D01*
X+2751798Y+4836732D01*
X+2742576Y+4847112D01*
X+2732081Y+4854800D01*
X+2721586Y+4859718D01*
X+2711091Y+4862524D01*
X+2700596Y+4863497D01*
X+2700000Y+4863500D01*
X+2636500Y+4800000D02*
X+2636717Y+4805247D01*
X+2638482Y+4815742D01*
X+2642174Y+4826237D01*
X+2648202Y+4836732D01*
X+2657424Y+4847112D01*
X+2667919Y+4854800D01*
X+2678414Y+4859718D01*
X+2688909Y+4862524D01*
X+2699404Y+4863497D01*
X+2700000Y+4863500D01*
X+2636500Y+4800000D02*
X+2636717Y+4794753D01*
X+2638482Y+4784258D01*
X+2642174Y+4773763D01*
X+2648202Y+4763268D01*
X+2657424Y+4752888D01*
X+2667919Y+4745200D01*
X+2678414Y+4740282D01*
X+2688909Y+4737476D01*
X+2699404Y+4736503D01*
X+2700000Y+4736500D01*
X+2763500Y+4800000D02*
X+2763283Y+4794753D01*
X+2761518Y+4784258D01*
X+2757826Y+4773763D01*
X+2751798Y+4763268D01*
X+2742576Y+4752888D01*
X+2732081Y+4745200D01*
X+2721586Y+4740282D01*
X+2711091Y+4737476D01*
X+2700596Y+4736503D01*
X+2700000Y+4736500D01*
X+2655099Y+4844901D02*
X+2744901Y+4755099D01*
X+2655099Y+4755099D02*
X+2744901Y+4844901D01*
X+3463500Y+4800000D02*
X+3463283Y+4805247D01*
X+3461518Y+4815742D01*
X+3457826Y+4826237D01*
X+3451798Y+4836732D01*
X+3442576Y+4847112D01*
X+3432081Y+4854800D01*
X+3421586Y+4859718D01*
X+3411091Y+4862524D01*
X+3400596Y+4863497D01*
X+3400000Y+4863500D01*
X+3336500Y+4800000D02*
X+3336717Y+4805247D01*
X+3338482Y+4815742D01*
X+3342174Y+4826237D01*
X+3348202Y+4836732D01*
X+3357424Y+4847112D01*
X+3367919Y+4854800D01*
X+3378414Y+4859718D01*
X+3388909Y+4862524D01*
X+3399404Y+4863497D01*
X+3400000Y+4863500D01*
X+3336500Y+4800000D02*
X+3336717Y+4794753D01*
X+3338482Y+4784258D01*
X+3342174Y+4773763D01*
X+3348202Y+4763268D01*
X+3357424Y+4752888D01*
X+3367919Y+4745200D01*
X+3378414Y+4740282D01*
X+3388909Y+4737476D01*
X+3399404Y+4736503D01*
X+3400000Y+4736500D01*
X+3463500Y+4800000D02*
X+3463283Y+4794753D01*
X+3461518Y+4784258D01*
X+3457826Y+4773763D01*
X+3451798Y+4763268D01*
X+3442576Y+4752888D01*
X+3432081Y+4745200D01*
X+3421586Y+4740282D01*
X+3411091Y+4737476D01*
X+3400596Y+4736503D01*
X+3400000Y+4736500D01*
X+3355099Y+4844901D02*
X+3444901Y+4755099D01*
X+3355099Y+4755099D02*
X+3444901Y+4844901D01*
X+70569Y+50000D02*
X+6570569Y+50000D01*
X+6570569Y+5500000D01*
X+70569Y+5500000D01*
X+70569Y+50000D01*
D52*
X-537160Y-1956600D02*
X+2106980Y-1956600D01*
X+2106980Y-229400D01*
X-537160Y-229400D01*
X-537160Y-1956600D01*
D53*
X-69798Y-229400D02*
X-69798Y-1956600D01*
X+743002Y-229400D02*
X+743002Y-1956600D01*
X+1576122Y-229400D02*
X+1576122Y-1956600D01*
X-537160Y-502450D02*
X+2106980Y-502450D01*
X-537160Y-743750D02*
X+2106980Y-743750D01*
X-537160Y-985050D02*
X+2106980Y-985050D01*
X-537160Y-1226350D02*
X+2106980Y-1226350D01*
X-537160Y-1467650D02*
X+2106980Y-1467650D01*
X-537160Y-1708950D02*
X+2106980Y-1708950D01*
D52*
X-480010Y-393230D02*
X-464770Y-408470D01*
X-403810Y-408470D01*
X-388570Y-393230D01*
X-388570Y-377990D01*
X-403810Y-362750D01*
X-464770Y-362750D01*
X-480010Y-347510D01*
X-480010Y-332270D01*
X-464770Y-317030D01*
X-403810Y-317030D01*
X-388570Y-332270D01*
X-266650Y-317030D02*
X-358090Y-408470D01*
X-358090Y-317030D02*
X-312370Y-362750D01*
X-236170Y-408470D02*
X-236170Y-317030D01*
X-190450Y-362750D01*
X-144730Y-317030D01*
X-144730Y-408470D01*
X-12650Y-393230D02*
X+2590Y-408470D01*
X+63550Y-408470D01*
X+78790Y-393230D01*
X+78790Y-377990D01*
X+63550Y-362750D01*
X+2590Y-362750D01*
X-12650Y-347510D01*
X-12650Y-332270D01*
X+2590Y-317030D01*
X+63550Y-317030D01*
X+78790Y-332270D01*
X+124510Y-317030D02*
X+185470Y-317030D01*
X+154990Y-317030D02*
X+154990Y-408470D01*
X+124510Y-408470D02*
X+185470Y-408470D01*
X+231190Y-317030D02*
X+322630Y-317030D01*
X+231190Y-408470D01*
X+322630Y-408470D01*
X+444550Y-408470D02*
X+353110Y-408470D01*
X+353110Y-317030D01*
X+444550Y-317030D01*
X+353110Y-362750D02*
X+414070Y-362750D01*
X+800150Y-408470D02*
X+800150Y-317030D01*
X+876350Y-317030D01*
X+891590Y-332270D01*
X+891590Y-347510D01*
X+876350Y-362750D01*
X+800150Y-362750D01*
X+922070Y-317030D02*
X+922070Y-408470D01*
X+1013510Y-408470D01*
X+1043990Y-408470D02*
X+1043990Y-347510D01*
X+1074470Y-317030D01*
X+1104950Y-317030D01*
X+1135430Y-347510D01*
X+1135430Y-408470D01*
X+1043990Y-377990D02*
X+1135430Y-377990D01*
X+1165910Y-317030D02*
X+1257350Y-317030D01*
X+1211630Y-317030D02*
X+1211630Y-408470D01*
X+1379270Y-408470D02*
X+1287830Y-408470D01*
X+1287830Y-317030D01*
X+1379270Y-317030D01*
X+1287830Y-362750D02*
X+1348790Y-362750D01*
X+1409750Y-408470D02*
X+1409750Y-317030D01*
X+1470710Y-317030D01*
X+1501190Y-347510D01*
X+1501190Y-377990D01*
X+1470710Y-408470D01*
X+1409750Y-408470D01*
X+1633270Y-347510D02*
X+1663750Y-317030D01*
X+1694230Y-317030D01*
X+1724710Y-347510D01*
X+1724710Y-377990D01*
X+1694230Y-408470D01*
X+1663750Y-408470D01*
X+1633270Y-377990D01*
X+1633270Y-347510D01*
X+1694230Y-377990D02*
X+1724710Y-408470D01*
X+1755190Y-317030D02*
X+1846630Y-317030D01*
X+1800910Y-317030D02*
X+1800910Y-408470D01*
X+1968550Y-317030D02*
X+1877110Y-408470D01*
X+1877110Y-317030D02*
X+1922830Y-362750D01*
D22*
X-290780Y-553250D02*
X-290780Y-680250D01*
X-354280Y-616750D02*
X-227280Y-616750D01*
D52*
X+6400Y-642150D02*
X+6400Y-591350D01*
X+19100Y-578650D01*
X+69900Y-578650D01*
X+82600Y-591350D01*
X+82600Y-642150D01*
X+69900Y-654850D01*
X+19100Y-654850D01*
X+6400Y-642150D01*
X+6400Y-654850D02*
X+82600Y-578650D01*
X+146100Y-642150D02*
X+158800Y-642150D01*
X+158800Y-654850D01*
X+146100Y-654850D01*
X+146100Y-642150D01*
X+222300Y-578650D02*
X+285800Y-578650D01*
X+285800Y-591350D01*
X+222300Y-654850D01*
X+311200Y-654850D02*
X+311200Y-604050D01*
X+311200Y-616750D02*
X+323900Y-604050D01*
X+349300Y-629450D01*
X+374700Y-604050D01*
X+387400Y-616750D01*
X+387400Y-654850D01*
X+412800Y-654850D02*
X+412800Y-604050D01*
X+412800Y-616750D02*
X+425500Y-604050D01*
X+450900Y-629450D01*
X+476300Y-604050D01*
X+489000Y-616750D01*
X+489000Y-654850D01*
X+908100Y-578650D02*
X+831900Y-654850D01*
X+831900Y-578650D02*
X+870000Y-616750D01*
X+1009700Y-654850D02*
X+933500Y-654850D01*
X+933500Y-578650D01*
X+1009700Y-578650D01*
X+933500Y-616750D02*
X+984300Y-616750D01*
X+1035100Y-642150D02*
X+1047800Y-654850D01*
X+1098600Y-654850D01*
X+1111300Y-642150D01*
X+1111300Y-629450D01*
X+1098600Y-616750D01*
X+1047800Y-616750D01*
X+1035100Y-604050D01*
X+1035100Y-591350D01*
X+1047800Y-578650D01*
X+1098600Y-578650D01*
X+1111300Y-591350D01*
X+1753920Y-591350D02*
X+1741220Y-578650D01*
X+1703120Y-578650D01*
X+1690420Y-591350D01*
X+1690420Y-642150D01*
X+1703120Y-654850D01*
X+1741220Y-654850D01*
X+1753920Y-642150D01*
X+1753920Y-629450D01*
X+1741220Y-616750D01*
X+1690420Y-616750D01*
D22*
X-335681Y-813149D02*
X-245879Y-902951D01*
X-335681Y-902951D02*
X-245879Y-813149D01*
D52*
X+6400Y-883450D02*
X+6400Y-832650D01*
X+19100Y-819950D01*
X+69900Y-819950D01*
X+82600Y-832650D01*
X+82600Y-883450D01*
X+69900Y-896150D01*
X+19100Y-896150D01*
X+6400Y-883450D01*
X+6400Y-896150D02*
X+82600Y-819950D01*
X+146100Y-883450D02*
X+158800Y-883450D01*
X+158800Y-896150D01*
X+146100Y-896150D01*
X+146100Y-883450D01*
X+235000Y-858050D02*
X+222300Y-845350D01*
X+222300Y-832650D01*
X+235000Y-819950D01*
X+273100Y-819950D01*
X+285800Y-832650D01*
X+285800Y-845350D01*
X+273100Y-858050D01*
X+235000Y-858050D01*
X+222300Y-870750D01*
X+222300Y-883450D01*
X+235000Y-896150D01*
X+273100Y-896150D01*
X+285800Y-883450D01*
X+285800Y-870750D01*
X+273100Y-858050D01*
X+387400Y-819950D02*
X+323900Y-819950D01*
X+323900Y-845350D01*
X+374700Y-845350D01*
X+387400Y-858050D01*
X+387400Y-883450D01*
X+374700Y-896150D01*
X+336600Y-896150D01*
X+323900Y-883450D01*
X+412800Y-896150D02*
X+412800Y-845350D01*
X+412800Y-858050D02*
X+425500Y-845350D01*
X+450900Y-870750D01*
X+476300Y-845350D01*
X+489000Y-858050D01*
X+489000Y-896150D01*
X+514400Y-896150D02*
X+514400Y-845350D01*
X+514400Y-858050D02*
X+527100Y-845350D01*
X+552500Y-870750D01*
X+577900Y-845350D01*
X+590600Y-858050D01*
X+590600Y-896150D01*
X+908100Y-819950D02*
X+831900Y-896150D01*
X+831900Y-819950D02*
X+870000Y-858050D01*
X+1009700Y-896150D02*
X+933500Y-896150D01*
X+933500Y-819950D01*
X+1009700Y-819950D01*
X+933500Y-858050D02*
X+984300Y-858050D01*
X+1035100Y-883450D02*
X+1047800Y-896150D01*
X+1098600Y-896150D01*
X+1111300Y-883450D01*
X+1111300Y-870750D01*
X+1098600Y-858050D01*
X+1047800Y-858050D01*
X+1035100Y-845350D01*
X+1035100Y-832650D01*
X+1047800Y-819950D01*
X+1098600Y-819950D01*
X+1111300Y-832650D01*
X+1690420Y-832650D02*
X+1703120Y-819950D01*
X+1741220Y-819950D01*
X+1753920Y-832650D01*
X+1753920Y-845350D01*
X+1741220Y-858050D01*
X+1703120Y-858050D01*
X+1690420Y-870750D01*
X+1690420Y-896150D01*
X+1753920Y-896150D01*
D22*
X-290780Y-1035850D02*
X-290780Y-1162850D01*
X-354280Y-1099350D02*
X-227280Y-1099350D01*
X-335681Y-1054449D02*
X-245879Y-1144251D01*
X-335681Y-1144251D02*
X-245879Y-1054449D01*
D52*
X+6400Y-1124750D02*
X+6400Y-1073950D01*
X+19100Y-1061250D01*
X+69900Y-1061250D01*
X+82600Y-1073950D01*
X+82600Y-1124750D01*
X+69900Y-1137450D01*
X+19100Y-1137450D01*
X+6400Y-1124750D01*
X+6400Y-1137450D02*
X+82600Y-1061250D01*
X+146100Y-1124750D02*
X+158800Y-1124750D01*
X+158800Y-1137450D01*
X+146100Y-1137450D01*
X+146100Y-1124750D01*
X+285800Y-1061250D02*
X+222300Y-1061250D01*
X+222300Y-1086650D01*
X+273100Y-1086650D01*
X+285800Y-1099350D01*
X+285800Y-1124750D01*
X+273100Y-1137450D01*
X+235000Y-1137450D01*
X+222300Y-1124750D01*
X+311200Y-1124750D02*
X+311200Y-1073950D01*
X+323900Y-1061250D01*
X+374700Y-1061250D01*
X+387400Y-1073950D01*
X+387400Y-1124750D01*
X+374700Y-1137450D01*
X+323900Y-1137450D01*
X+311200Y-1124750D01*
X+311200Y-1137450D02*
X+387400Y-1061250D01*
X+438200Y-1099350D02*
X+425500Y-1086650D01*
X+425500Y-1073950D01*
X+438200Y-1061250D01*
X+476300Y-1061250D01*
X+489000Y-1073950D01*
X+489000Y-1086650D01*
X+476300Y-1099350D01*
X+438200Y-1099350D01*
X+425500Y-1112050D01*
X+425500Y-1124750D01*
X+438200Y-1137450D01*
X+476300Y-1137450D01*
X+489000Y-1124750D01*
X+489000Y-1112050D01*
X+476300Y-1099350D01*
X+514400Y-1137450D02*
X+514400Y-1086650D01*
X+514400Y-1099350D02*
X+527100Y-1086650D01*
X+552500Y-1112050D01*
X+577900Y-1086650D01*
X+590600Y-1099350D01*
X+590600Y-1137450D01*
X+616000Y-1137450D02*
X+616000Y-1086650D01*
X+616000Y-1099350D02*
X+628700Y-1086650D01*
X+654100Y-1112050D01*
X+679500Y-1086650D01*
X+692200Y-1099350D01*
X+692200Y-1137450D01*
X+908100Y-1061250D02*
X+831900Y-1137450D01*
X+831900Y-1061250D02*
X+870000Y-1099350D01*
X+1009700Y-1137450D02*
X+933500Y-1137450D01*
X+933500Y-1061250D01*
X+1009700Y-1061250D01*
X+933500Y-1099350D02*
X+984300Y-1099350D01*
X+1035100Y-1124750D02*
X+1047800Y-1137450D01*
X+1098600Y-1137450D01*
X+1111300Y-1124750D01*
X+1111300Y-1112050D01*
X+1098600Y-1099350D01*
X+1047800Y-1099350D01*
X+1035100Y-1086650D01*
X+1035100Y-1073950D01*
X+1047800Y-1061250D01*
X+1098600Y-1061250D01*
X+1111300Y-1073950D01*
X+1703120Y-1086650D02*
X+1728520Y-1061250D01*
X+1728520Y-1137450D01*
X+1855520Y-1112050D02*
X+1779320Y-1112050D01*
X+1830120Y-1061250D01*
X+1830120Y-1137450D01*
D22*
X-227280Y-1340650D02*
X-227497Y-1335403D01*
X-229262Y-1324908D01*
X-232954Y-1314413D01*
X-238982Y-1303918D01*
X-248204Y-1293538D01*
X-258699Y-1285850D01*
X-269194Y-1280932D01*
X-279689Y-1278126D01*
X-290184Y-1277153D01*
X-290780Y-1277150D01*
X-354280Y-1340650D02*
X-354063Y-1335403D01*
X-352298Y-1324908D01*
X-348606Y-1314413D01*
X-342578Y-1303918D01*
X-333356Y-1293538D01*
X-322861Y-1285850D01*
X-312366Y-1280932D01*
X-301871Y-1278126D01*
X-291376Y-1277153D01*
X-290780Y-1277150D01*
X-354280Y-1340650D02*
X-354063Y-1345897D01*
X-352298Y-1356392D01*
X-348606Y-1366887D01*
X-342578Y-1377382D01*
X-333356Y-1387762D01*
X-322861Y-1395450D01*
X-312366Y-1400368D01*
X-301871Y-1403174D01*
X-291376Y-1404147D01*
X-290780Y-1404150D01*
X-227280Y-1340650D02*
X-227497Y-1345897D01*
X-229262Y-1356392D01*
X-232954Y-1366887D01*
X-238982Y-1377382D01*
X-248204Y-1387762D01*
X-258699Y-1395450D01*
X-269194Y-1400368D01*
X-279689Y-1403174D01*
X-290184Y-1404147D01*
X-290780Y-1404150D01*
X-290780Y-1277150D02*
X-290780Y-1404150D01*
X-354280Y-1340650D02*
X-227280Y-1340650D01*
D52*
X+6400Y-1366050D02*
X+6400Y-1315250D01*
X+19100Y-1302550D01*
X+69900Y-1302550D01*
X+82600Y-1315250D01*
X+82600Y-1366050D01*
X+69900Y-1378750D01*
X+19100Y-1378750D01*
X+6400Y-1366050D01*
X+6400Y-1378750D02*
X+82600Y-1302550D01*
X+146100Y-1366050D02*
X+158800Y-1366050D01*
X+158800Y-1378750D01*
X+146100Y-1378750D01*
X+146100Y-1366050D01*
X+222300Y-1302550D02*
X+285800Y-1302550D01*
X+285800Y-1315250D01*
X+222300Y-1378750D01*
X+387400Y-1315250D02*
X+374700Y-1302550D01*
X+336600Y-1302550D01*
X+323900Y-1315250D01*
X+323900Y-1366050D01*
X+336600Y-1378750D01*
X+374700Y-1378750D01*
X+387400Y-1366050D01*
X+387400Y-1353350D01*
X+374700Y-1340650D01*
X+323900Y-1340650D01*
X+425500Y-1315250D02*
X+438200Y-1302550D01*
X+476300Y-1302550D01*
X+489000Y-1315250D01*
X+489000Y-1327950D01*
X+476300Y-1340650D01*
X+438200Y-1340650D01*
X+425500Y-1353350D01*
X+425500Y-1378750D01*
X+489000Y-1378750D01*
X+514400Y-1378750D02*
X+514400Y-1327950D01*
X+514400Y-1340650D02*
X+527100Y-1327950D01*
X+552500Y-1353350D01*
X+577900Y-1327950D01*
X+590600Y-1340650D01*
X+590600Y-1378750D01*
X+616000Y-1378750D02*
X+616000Y-1327950D01*
X+616000Y-1340650D02*
X+628700Y-1327950D01*
X+654100Y-1353350D01*
X+679500Y-1327950D01*
X+692200Y-1340650D01*
X+692200Y-1378750D01*
X+908100Y-1302550D02*
X+831900Y-1378750D01*
X+831900Y-1302550D02*
X+870000Y-1340650D01*
X+1009700Y-1378750D02*
X+933500Y-1378750D01*
X+933500Y-1302550D01*
X+1009700Y-1302550D01*
X+933500Y-1340650D02*
X+984300Y-1340650D01*
X+1035100Y-1366050D02*
X+1047800Y-1378750D01*
X+1098600Y-1378750D01*
X+1111300Y-1366050D01*
X+1111300Y-1353350D01*
X+1098600Y-1340650D01*
X+1047800Y-1340650D01*
X+1035100Y-1327950D01*
X+1035100Y-1315250D01*
X+1047800Y-1302550D01*
X+1098600Y-1302550D01*
X+1111300Y-1315250D01*
X+1690420Y-1315250D02*
X+1703120Y-1302550D01*
X+1741220Y-1302550D01*
X+1753920Y-1315250D01*
X+1753920Y-1327950D01*
X+1741220Y-1340650D01*
X+1753920Y-1353350D01*
X+1753920Y-1366050D01*
X+1741220Y-1378750D01*
X+1703120Y-1378750D01*
X+1690420Y-1366050D01*
X+1715820Y-1340650D02*
X+1741220Y-1340650D01*
X+1792020Y-1302550D02*
X+1855520Y-1302550D01*
X+1855520Y-1315250D01*
X+1792020Y-1378750D01*
D22*
X-227280Y-1581950D02*
X-227497Y-1576703D01*
X-229262Y-1566208D01*
X-232954Y-1555713D01*
X-238982Y-1545218D01*
X-248204Y-1534838D01*
X-258699Y-1527150D01*
X-269194Y-1522232D01*
X-279689Y-1519426D01*
X-290184Y-1518453D01*
X-290780Y-1518450D01*
X-354280Y-1581950D02*
X-354063Y-1576703D01*
X-352298Y-1566208D01*
X-348606Y-1555713D01*
X-342578Y-1545218D01*
X-333356Y-1534838D01*
X-322861Y-1527150D01*
X-312366Y-1522232D01*
X-301871Y-1519426D01*
X-291376Y-1518453D01*
X-290780Y-1518450D01*
X-354280Y-1581950D02*
X-354063Y-1587197D01*
X-352298Y-1597692D01*
X-348606Y-1608187D01*
X-342578Y-1618682D01*
X-333356Y-1629062D01*
X-322861Y-1636750D01*
X-312366Y-1641668D01*
X-301871Y-1644474D01*
X-291376Y-1645447D01*
X-290780Y-1645450D01*
X-227280Y-1581950D02*
X-227497Y-1587197D01*
X-229262Y-1597692D01*
X-232954Y-1608187D01*
X-238982Y-1618682D01*
X-248204Y-1629062D01*
X-258699Y-1636750D01*
X-269194Y-1641668D01*
X-279689Y-1644474D01*
X-290184Y-1645447D01*
X-290780Y-1645450D01*
X-335681Y-1537049D02*
X-245879Y-1626851D01*
X-335681Y-1626851D02*
X-245879Y-1537049D01*
D52*
X+31800Y-1569250D02*
X+57200Y-1543850D01*
X+57200Y-1620050D01*
X+146100Y-1607350D02*
X+158800Y-1607350D01*
X+158800Y-1620050D01*
X+146100Y-1620050D01*
X+146100Y-1607350D01*
X+209600Y-1607350D02*
X+209600Y-1556550D01*
X+222300Y-1543850D01*
X+273100Y-1543850D01*
X+285800Y-1556550D01*
X+285800Y-1607350D01*
X+273100Y-1620050D01*
X+222300Y-1620050D01*
X+209600Y-1607350D01*
X+209600Y-1620050D02*
X+285800Y-1543850D01*
X+336600Y-1569250D02*
X+362000Y-1543850D01*
X+362000Y-1620050D01*
X+489000Y-1556550D02*
X+476300Y-1543850D01*
X+438200Y-1543850D01*
X+425500Y-1556550D01*
X+425500Y-1607350D01*
X+438200Y-1620050D01*
X+476300Y-1620050D01*
X+489000Y-1607350D01*
X+489000Y-1594650D01*
X+476300Y-1581950D01*
X+425500Y-1581950D01*
X+514400Y-1620050D02*
X+514400Y-1569250D01*
X+514400Y-1581950D02*
X+527100Y-1569250D01*
X+552500Y-1594650D01*
X+577900Y-1569250D01*
X+590600Y-1581950D01*
X+590600Y-1620050D01*
X+616000Y-1620050D02*
X+616000Y-1569250D01*
X+616000Y-1581950D02*
X+628700Y-1569250D01*
X+654100Y-1594650D01*
X+679500Y-1569250D01*
X+692200Y-1581950D01*
X+692200Y-1620050D01*
X+908100Y-1543850D02*
X+831900Y-1620050D01*
X+831900Y-1543850D02*
X+870000Y-1581950D01*
X+1009700Y-1620050D02*
X+933500Y-1620050D01*
X+933500Y-1543850D01*
X+1009700Y-1543850D01*
X+933500Y-1581950D02*
X+984300Y-1581950D01*
X+1035100Y-1607350D02*
X+1047800Y-1620050D01*
X+1098600Y-1620050D01*
X+1111300Y-1607350D01*
X+1111300Y-1594650D01*
X+1098600Y-1581950D01*
X+1047800Y-1581950D01*
X+1035100Y-1569250D01*
X+1035100Y-1556550D01*
X+1047800Y-1543850D01*
X+1098600Y-1543850D01*
X+1111300Y-1556550D01*
X+1690420Y-1556550D02*
X+1703120Y-1543850D01*
X+1741220Y-1543850D01*
X+1753920Y-1556550D01*
X+1753920Y-1569250D01*
X+1741220Y-1581950D01*
X+1753920Y-1594650D01*
X+1753920Y-1607350D01*
X+1741220Y-1620050D01*
X+1703120Y-1620050D01*
X+1690420Y-1607350D01*
X+1715820Y-1581950D02*
X+1741220Y-1581950D01*
X+1792020Y-1543850D02*
X+1855520Y-1543850D01*
X+1855520Y-1556550D01*
X+1792020Y-1620050D01*
D22*
X-227280Y-1823250D02*
X-227497Y-1818003D01*
X-229262Y-1807508D01*
X-232954Y-1797013D01*
X-238982Y-1786518D01*
X-248204Y-1776138D01*
X-258699Y-1768450D01*
X-269194Y-1763532D01*
X-279689Y-1760726D01*
X-290184Y-1759753D01*
X-290780Y-1759750D01*
X-354280Y-1823250D02*
X-354063Y-1818003D01*
X-352298Y-1807508D01*
X-348606Y-1797013D01*
X-342578Y-1786518D01*
X-333356Y-1776138D01*
X-322861Y-1768450D01*
X-312366Y-1763532D01*
X-301871Y-1760726D01*
X-291376Y-1759753D01*
X-290780Y-1759750D01*
X-354280Y-1823250D02*
X-354063Y-1828497D01*
X-352298Y-1838992D01*
X-348606Y-1849487D01*
X-342578Y-1859982D01*
X-333356Y-1870362D01*
X-322861Y-1878050D01*
X-312366Y-1882968D01*
X-301871Y-1885774D01*
X-291376Y-1886747D01*
X-290780Y-1886750D01*
X-227280Y-1823250D02*
X-227497Y-1828497D01*
X-229262Y-1838992D01*
X-232954Y-1849487D01*
X-238982Y-1859982D01*
X-248204Y-1870362D01*
X-258699Y-1878050D01*
X-269194Y-1882968D01*
X-279689Y-1885774D01*
X-290184Y-1886747D01*
X-290780Y-1886750D01*
X-290780Y-1759750D02*
X-290780Y-1886750D01*
X-354280Y-1823250D02*
X-227280Y-1823250D01*
X-227497Y-1818003D01*
X-229262Y-1807508D01*
X-232954Y-1797013D01*
X-238982Y-1786518D01*
X-248204Y-1776138D01*
X-258699Y-1768450D01*
X-269194Y-1763532D01*
X-279689Y-1760726D01*
X-290184Y-1759753D01*
X-290780Y-1759750D01*
X-354280Y-1823250D02*
X-354063Y-1818003D01*
X-352298Y-1807508D01*
X-348606Y-1797013D01*
X-342578Y-1786518D01*
X-333356Y-1776138D01*
X-322861Y-1768450D01*
X-312366Y-1763532D01*
X-301871Y-1760726D01*
X-291376Y-1759753D01*
X-290780Y-1759750D01*
X-354280Y-1823250D02*
X-354063Y-1828497D01*
X-352298Y-1838992D01*
X-348606Y-1849487D01*
X-342578Y-1859982D01*
X-333356Y-1870362D01*
X-322861Y-1878050D01*
X-312366Y-1882968D01*
X-301871Y-1885774D01*
X-291376Y-1886747D01*
X-290780Y-1886750D01*
X-227280Y-1823250D02*
X-227497Y-1828497D01*
X-229262Y-1838992D01*
X-232954Y-1849487D01*
X-238982Y-1859982D01*
X-248204Y-1870362D01*
X-258699Y-1878050D01*
X-269194Y-1882968D01*
X-279689Y-1885774D01*
X-290184Y-1886747D01*
X-290780Y-1886750D01*
X-335681Y-1778349D02*
X-245879Y-1868151D01*
X-335681Y-1868151D02*
X-245879Y-1778349D01*
D52*
X+19100Y-1797850D02*
X+31800Y-1785150D01*
X+69900Y-1785150D01*
X+82600Y-1797850D01*
X+82600Y-1810550D01*
X+69900Y-1823250D01*
X+82600Y-1835950D01*
X+82600Y-1848650D01*
X+69900Y-1861350D01*
X+31800Y-1861350D01*
X+19100Y-1848650D01*
X+44500Y-1823250D02*
X+69900Y-1823250D01*
X+146100Y-1848650D02*
X+158800Y-1848650D01*
X+158800Y-1861350D01*
X+146100Y-1861350D01*
X+146100Y-1848650D01*
X+209600Y-1848650D02*
X+209600Y-1797850D01*
X+222300Y-1785150D01*
X+273100Y-1785150D01*
X+285800Y-1797850D01*
X+285800Y-1848650D01*
X+273100Y-1861350D01*
X+222300Y-1861350D01*
X+209600Y-1848650D01*
X+209600Y-1861350D02*
X+285800Y-1785150D01*
X+387400Y-1785150D02*
X+323900Y-1785150D01*
X+323900Y-1810550D01*
X+374700Y-1810550D01*
X+387400Y-1823250D01*
X+387400Y-1848650D01*
X+374700Y-1861350D01*
X+336600Y-1861350D01*
X+323900Y-1848650D01*
X+412800Y-1861350D02*
X+412800Y-1810550D01*
X+412800Y-1823250D02*
X+425500Y-1810550D01*
X+450900Y-1835950D01*
X+476300Y-1810550D01*
X+489000Y-1823250D01*
X+489000Y-1861350D01*
X+514400Y-1861350D02*
X+514400Y-1810550D01*
X+514400Y-1823250D02*
X+527100Y-1810550D01*
X+552500Y-1835950D01*
X+577900Y-1810550D01*
X+590600Y-1823250D01*
X+590600Y-1861350D01*
X+908100Y-1785150D02*
X+831900Y-1861350D01*
X+831900Y-1785150D02*
X+870000Y-1823250D01*
X+1009700Y-1861350D02*
X+933500Y-1861350D01*
X+933500Y-1785150D01*
X+1009700Y-1785150D01*
X+933500Y-1823250D02*
X+984300Y-1823250D01*
X+1035100Y-1848650D02*
X+1047800Y-1861350D01*
X+1098600Y-1861350D01*
X+1111300Y-1848650D01*
X+1111300Y-1835950D01*
X+1098600Y-1823250D01*
X+1047800Y-1823250D01*
X+1035100Y-1810550D01*
X+1035100Y-1797850D01*
X+1047800Y-1785150D01*
X+1098600Y-1785150D01*
X+1111300Y-1797850D01*
X+1753920Y-1835950D02*
X+1677720Y-1835950D01*
X+1728520Y-1785150D01*
X+1728520Y-1861350D01*
M02*
