G04 PROTEUS RS274X GERBER FILE*
%FSLAX45Y45*%
%MOMM*%
G01*
%ADD20C,1.524000*%
%AMPPAD022*
4,1,36,
-1.143000,-1.016000,
-1.143000,1.016000,
-1.140470,1.041970,
-1.133200,1.065980,
-1.121650,1.087580,
-1.106290,1.106290,
-1.087570,1.121650,
-1.065980,1.133200,
-1.041970,1.140470,
-1.016000,1.143000,
1.016000,1.143000,
1.041970,1.140470,
1.065980,1.133200,
1.087570,1.121650,
1.106290,1.106290,
1.121650,1.087580,
1.133200,1.065980,
1.140470,1.041970,
1.143000,1.016000,
1.143000,-1.016000,
1.140470,-1.041970,
1.133200,-1.065980,
1.121650,-1.087580,
1.106290,-1.106290,
1.087570,-1.121650,
1.065980,-1.133200,
1.041970,-1.140470,
1.016000,-1.143000,
-1.016000,-1.143000,
-1.041970,-1.140470,
-1.065980,-1.133200,
-1.087570,-1.121650,
-1.106290,-1.106290,
-1.121650,-1.087580,
-1.133200,-1.065980,
-1.140470,-1.041970,
-1.143000,-1.016000,
0*%
%ADD72PPAD022*%
%AMPPAD028*
4,1,4,
0.901700,-0.571500,
0.901700,0.571500,
-0.901700,0.571500,
-0.901700,-0.571500,
0.901700,-0.571500,
0*%
%ADD34PPAD028*%
%AMPPAD029*
4,1,4,
-0.571500,-0.901700,
0.571500,-0.901700,
0.571500,0.901700,
-0.571500,0.901700,
-0.571500,-0.901700,
0*%
%ADD35PPAD029*%
%AMPPAD023*
4,1,4,
0.640000,0.640000,
0.640000,-0.640000,
-0.640000,-0.640000,
-0.640000,0.640000,
0.640000,0.640000,
0*%
%ADD73PPAD023*%
%ADD15C,1.280000*%
%AMPPAD024*
4,1,4,
0.525000,0.525000,
0.525000,-0.525000,
-0.525000,-0.525000,
-0.525000,0.525000,
0.525000,0.525000,
0*%
%ADD30PPAD024*%
%ADD17C,1.050000*%
%ADD31C,2.540000*%
%AMPPAD026*
4,1,36,
-1.016000,1.143000,
1.016000,1.143000,
1.041970,1.140470,
1.065980,1.133200,
1.087580,1.121650,
1.106290,1.106290,
1.121650,1.087570,
1.133200,1.065980,
1.140470,1.041970,
1.143000,1.016000,
1.143000,-1.016000,
1.140470,-1.041970,
1.133200,-1.065980,
1.121650,-1.087570,
1.106290,-1.106290,
1.087580,-1.121650,
1.065980,-1.133200,
1.041970,-1.140470,
1.016000,-1.143000,
-1.016000,-1.143000,
-1.041970,-1.140470,
-1.065980,-1.133200,
-1.087580,-1.121650,
-1.106290,-1.106290,
-1.121650,-1.087570,
-1.133200,-1.065980,
-1.140470,-1.041970,
-1.143000,-1.016000,
-1.143000,1.016000,
-1.140470,1.041970,
-1.133200,1.065980,
-1.121650,1.087570,
-1.106290,1.106290,
-1.087580,1.121650,
-1.065980,1.133200,
-1.041970,1.140470,
-1.016000,1.143000,
0*%
%ADD32PPAD026*%
%AMPPAD030*
4,1,4,
-0.469900,-1.079500,
0.469900,-1.079500,
0.469900,1.079500,
-0.469900,1.079500,
-0.469900,-1.079500,
0*%
%ADD36PPAD030*%
%AMPPAD031*
4,1,4,
1.625600,-1.079500,
1.625600,1.079500,
-1.625600,1.079500,
-1.625600,-1.079500,
1.625600,-1.079500,
0*%
%ADD37PPAD031*%
%AMPPAD027*
4,1,36,
-0.889000,1.016000,
0.889000,1.016000,
0.914970,1.013470,
0.938980,1.006200,
0.960580,0.994650,
0.979290,0.979290,
0.994650,0.960570,
1.006200,0.938980,
1.013470,0.914970,
1.016000,0.889000,
1.016000,-0.889000,
1.013470,-0.914970,
1.006200,-0.938980,
0.994650,-0.960570,
0.979290,-0.979290,
0.960580,-0.994650,
0.938980,-1.006200,
0.914970,-1.013470,
0.889000,-1.016000,
-0.889000,-1.016000,
-0.914970,-1.013470,
-0.938980,-1.006200,
-0.960580,-0.994650,
-0.979290,-0.979290,
-0.994650,-0.960570,
-1.006200,-0.938980,
-1.013470,-0.914970,
-1.016000,-0.889000,
-1.016000,0.889000,
-1.013470,0.914970,
-1.006200,0.938980,
-0.994650,0.960570,
-0.979290,0.979290,
-0.960580,0.994650,
-0.938980,1.006200,
-0.914970,1.013470,
-0.889000,1.016000,
0*%
%ADD33PPAD027*%
%ADD71C,2.032000*%
%ADD18C,2.286000*%
%ADD70C,1.778000*%
%ADD21C,4.000000*%
%ADD22C,0.203200*%
D20*
X+2467244Y+1828775D03*
X+2983438Y+1824678D03*
X+5715247Y+1758784D03*
X+5713416Y+932873D03*
X+4151154Y+2751649D03*
X+4149318Y+3238344D03*
X+3339895Y+3238553D03*
X+2622764Y+3238553D03*
X+1972338Y+4309630D03*
X+1968104Y+2954964D03*
X+2595513Y+605062D03*
X+5330246Y+605062D03*
X+716646Y+3149198D03*
X+716646Y+4131331D03*
D72*
X+500569Y+3346000D03*
X+500569Y+3600000D03*
X+500569Y+3854000D03*
D34*
X+750569Y+3600000D03*
X+750569Y+3890000D03*
D35*
X+520569Y+2700000D03*
X+810569Y+2700000D03*
D34*
X+1100569Y+3600000D03*
X+1100569Y+3310000D03*
D73*
X+1250569Y+3000000D03*
D15*
X+1250569Y+2500000D03*
D30*
X+1765569Y+2095000D03*
D17*
X+1765569Y+1945000D03*
D31*
X+2086569Y+4550000D03*
X+1070569Y+4550000D03*
D32*
X+1266569Y+1550000D03*
X+1520569Y+1550000D03*
X+1150569Y+3900000D03*
X+1404569Y+3900000D03*
D36*
X+2200569Y+3500000D03*
X+1970569Y+3500000D03*
X+1740569Y+3500000D03*
D37*
X+1970569Y+4080000D03*
D30*
X+2225569Y+3150000D03*
D17*
X+2375569Y+3150000D03*
D30*
X+1970569Y+1650000D03*
D17*
X+1970569Y+1500000D03*
D33*
X+3670569Y+4700000D03*
D71*
X+3670569Y+4446000D03*
X+3670569Y+4192000D03*
X+3670569Y+3938000D03*
X+3670569Y+3684000D03*
X+3670569Y+3430000D03*
X+3670569Y+3176000D03*
X+3670569Y+2922000D03*
X+3670569Y+2668000D03*
X+3670569Y+2414000D03*
X+3670569Y+2160000D03*
X+3670569Y+1906000D03*
X+3670569Y+1652000D03*
X+3670569Y+1398000D03*
X+4432569Y+1398000D03*
X+4432569Y+1652000D03*
X+4432569Y+1906000D03*
X+4432569Y+2160000D03*
X+4432569Y+2414000D03*
X+4432569Y+2668000D03*
X+4432569Y+2922000D03*
X+4432569Y+3176000D03*
X+4432569Y+3430000D03*
X+4432569Y+3684000D03*
X+4432569Y+3938000D03*
X+4432569Y+4192000D03*
X+4432569Y+4446000D03*
X+4432569Y+4698000D03*
D18*
X+3170569Y+2800000D03*
X+3170569Y+2292000D03*
D71*
X+2678569Y+2600000D03*
X+2170569Y+2600000D03*
X+2670569Y+2150000D03*
X+2162569Y+2150000D03*
D34*
X+4020569Y+4700000D03*
X+4020569Y+4410000D03*
D35*
X+3120569Y+4450000D03*
X+3410569Y+4450000D03*
X+3120569Y+4150000D03*
X+3410569Y+4150000D03*
X+4970569Y+4200000D03*
X+4680569Y+4200000D03*
X+5220569Y+3450000D03*
X+5510569Y+3450000D03*
X+4720569Y+3700000D03*
X+5010569Y+3700000D03*
X+5220569Y+3950000D03*
X+5510569Y+3950000D03*
D70*
X+4767369Y+5000000D03*
X+4970569Y+5000000D03*
X+5173769Y+5000000D03*
D72*
X+5920569Y+3100000D03*
X+5920569Y+2846000D03*
X+5920569Y+3700000D03*
X+5920569Y+3446000D03*
X+5920569Y+4300000D03*
X+5920569Y+4046000D03*
X+5420569Y+1400000D03*
X+5420569Y+1654000D03*
X+5420569Y+1908000D03*
X+5420569Y+2162000D03*
X+5166569Y+2162000D03*
X+5166569Y+1908000D03*
X+5166569Y+1654000D03*
X+5166569Y+1400000D03*
X+2720569Y+4450000D03*
X+2720569Y+4196000D03*
X+2720569Y+3942000D03*
D32*
X+3232569Y+1550000D03*
X+2978569Y+1550000D03*
X+2724569Y+1550000D03*
X+2470569Y+1550000D03*
X+4720569Y+950000D03*
X+4466569Y+950000D03*
X+4212569Y+950000D03*
D21*
X+420569Y+5150000D03*
X+6220569Y+5150000D03*
X+6270569Y+350000D03*
X+370569Y+350000D03*
D31*
X+2700000Y+5250000D03*
X+3400000Y+5250000D03*
X+2700000Y+4800000D03*
X+3400000Y+4800000D03*
D22*
X+70569Y+50000D02*
X+6570569Y+50000D01*
X+6570569Y+5500000D01*
X+70569Y+5500000D01*
X+70569Y+50000D01*
M02*
